<svg width="180" height="59" viewBox="0 0 180 59" fill="none" xmlns="http://www.w3.org/2000/svg">
<g clip-path="url(#clip0_1144_24518)">
<rect y="0.386719" width="180" height="58" rx="12" fill="black"/>
<path d="M177.101 57.187H5.85004C2.01402 57.187 -1 54.173 -1 50.337V9.23676C-1 5.40074 2.01402 2.38672 5.85004 2.38672H177.101C180.937 2.38672 183.951 5.40074 183.951 9.23676V50.337C183.951 54.173 180.937 57.187 177.101 57.187Z" fill="black"/>
<path d="M63.9383 16.3609C63.9383 17.4569 63.6643 18.4159 62.9793 19.1009C62.1573 19.9229 61.1983 20.3339 59.9653 20.3339C58.7323 20.3339 57.7733 19.9229 56.9513 19.1009C56.1293 18.2789 55.7183 17.3199 55.7183 16.0869C55.7183 14.8539 56.1293 13.8949 56.9513 13.0729C57.7733 12.2508 58.7323 11.8398 59.9653 11.8398C60.5133 11.8398 61.0613 11.9768 61.6093 12.2508C62.1573 12.5248 62.5683 12.7988 62.8423 13.2099L62.1573 13.8949C61.6093 13.2099 60.9243 12.9358 59.9653 12.9358C59.1433 12.9358 58.3213 13.2099 57.7733 13.8949C57.0883 14.4429 56.8143 15.2649 56.8143 16.2239C56.8143 17.1829 57.0883 18.0049 57.7733 18.5529C58.4583 19.1009 59.1433 19.5119 59.9653 19.5119C60.9243 19.5119 61.6093 19.2379 62.2943 18.5529C62.7053 18.1419 62.9793 17.5939 62.9793 16.9089H59.9653V15.8129H63.9383V16.3609ZM70.2403 12.9358H66.5413V15.5389H69.9663V16.4979H66.5413V19.1009H70.2403V20.1969H65.4453V11.9768H70.2403V12.9358ZM74.7614 20.1969H73.6654V12.9358H71.3364V11.9768H77.0904V12.9358H74.7614V20.1969ZM81.0634 20.1969V11.9768H82.1594V20.1969H81.0634ZM86.8174 20.1969H85.7214V12.9358H83.3924V11.9768H89.0095V12.9358H86.6804V20.1969H86.8174ZM99.8325 19.1009C99.0105 19.9229 98.0515 20.3339 96.8185 20.3339C95.5855 20.3339 94.6265 19.9229 93.8045 19.1009C92.9825 18.2789 92.5715 17.3199 92.5715 16.0869C92.5715 14.8539 92.9825 13.8949 93.8045 13.0729C94.6265 12.2508 95.5855 11.8398 96.8185 11.8398C98.0515 11.8398 99.0105 12.2508 99.8325 13.0729C100.655 13.8949 101.066 14.8539 101.066 16.0869C101.066 17.3199 100.655 18.2789 99.8325 19.1009ZM94.6265 18.4159C95.1745 18.9639 95.9965 19.3749 96.8185 19.3749C97.6405 19.3749 98.4625 19.1009 99.0105 18.4159C99.5585 17.8679 99.9695 17.0459 99.9695 16.0869C99.9695 15.1279 99.6955 14.3059 99.0105 13.7579C98.4625 13.2099 97.6405 12.7988 96.8185 12.7988C95.9965 12.7988 95.1745 13.0729 94.6265 13.7579C94.0785 14.3059 93.6675 15.1279 93.6675 16.0869C93.6675 17.0459 93.9415 17.8679 94.6265 18.4159ZM102.573 20.1969V11.9768H103.806L107.779 18.4159V11.9768H108.875V20.1969H107.779L103.532 13.4839V20.1969H102.573Z" fill="white" stroke="white" stroke-width="0.274002" stroke-miterlimit="10"/>
<path d="M92.2973 32.2515C89.0093 32.2515 86.4063 34.7176 86.4063 38.1426C86.4063 41.4306 89.0093 44.0336 92.2973 44.0336C95.5854 44.0336 98.1884 41.5676 98.1884 38.1426C98.1884 34.5806 95.5854 32.2515 92.2973 32.2515ZM92.2973 41.5676C90.5163 41.5676 89.0093 40.0606 89.0093 38.0056C89.0093 35.9506 90.5163 34.4435 92.2973 34.4435C94.0784 34.4435 95.5854 35.8136 95.5854 38.0056C95.5854 40.0606 94.0784 41.5676 92.2973 41.5676ZM79.5563 32.2515C76.2683 32.2515 73.6652 34.7176 73.6652 38.1426C73.6652 41.4306 76.2683 44.0336 79.5563 44.0336C82.8443 44.0336 85.4473 41.5676 85.4473 38.1426C85.4473 34.5806 82.8443 32.2515 79.5563 32.2515ZM79.5563 41.5676C77.7753 41.5676 76.2683 40.0606 76.2683 38.0056C76.2683 35.9506 77.7753 34.4435 79.5563 34.4435C81.3373 34.4435 82.8443 35.8136 82.8443 38.0056C82.8443 40.0606 81.3373 41.5676 79.5563 41.5676ZM64.3492 34.0325V36.4986H70.2402C70.1032 37.8686 69.5552 38.9646 68.8702 39.6496C68.0482 40.4716 66.6782 41.4306 64.3492 41.4306C60.6502 41.4306 57.9101 38.5536 57.9101 34.8546C57.9101 31.1555 60.7872 28.2785 64.3492 28.2785C66.2672 28.2785 67.7742 29.1005 68.8702 30.0595L70.6512 28.2785C69.1442 26.9085 67.2262 25.8125 64.4862 25.8125C59.5542 25.8125 55.3071 29.9225 55.3071 34.8546C55.3071 39.7866 59.5542 43.8966 64.4862 43.8966C67.2262 43.8966 69.1442 43.0746 70.7882 41.2936C72.4322 39.6496 72.9802 37.3206 72.9802 35.5396C72.9802 34.9916 72.9802 34.4436 72.8432 34.0325H64.3492ZM126.548 35.9506C126 34.5806 124.63 32.2515 121.616 32.2515C118.602 32.2515 116.135 34.5806 116.135 38.1426C116.135 41.4306 118.601 44.0336 121.89 44.0336C124.493 44.0336 126.137 42.3896 126.685 41.4306L124.767 40.0606C124.082 41.0196 123.26 41.7046 121.89 41.7046C120.52 41.7046 119.698 41.1566 119.013 39.9236L126.822 36.6356L126.548 35.9506ZM118.602 37.8686C118.602 35.6766 120.383 34.4435 121.616 34.4435C122.575 34.4435 123.534 34.9916 123.808 35.6766L118.602 37.8686ZM112.162 43.4856H114.765V26.3605H112.162V43.4856ZM108.052 33.4845C107.367 32.7995 106.271 32.1145 104.901 32.1145C102.024 32.1145 99.2844 34.7176 99.2844 38.0056C99.2844 41.2936 101.887 43.7596 104.901 43.7596C106.271 43.7596 107.367 43.0746 107.915 42.3896H108.052V43.2116C108.052 45.4036 106.819 46.6366 104.901 46.6366C103.394 46.6366 102.298 45.5406 102.024 44.5816L99.8324 45.5406C100.517 47.0476 102.161 48.9656 105.038 48.9656C108.052 48.9656 110.518 47.1846 110.518 42.9376V32.5255H108.052V33.4845ZM105.038 41.5676C103.257 41.5676 101.75 40.0606 101.75 38.0056C101.75 35.9506 103.257 34.4435 105.038 34.4435C106.819 34.4435 108.189 35.9506 108.189 38.0056C108.189 40.0606 106.819 41.5676 105.038 41.5676ZM138.467 26.3605H132.302V43.4856H134.905V37.0466H138.467C141.344 37.0466 144.084 34.9916 144.084 31.7035C144.084 28.4155 141.344 26.3605 138.467 26.3605ZM138.604 34.5806H134.905V28.6895H138.604C140.522 28.6895 141.618 30.3335 141.618 31.5665C141.481 33.0735 140.385 34.5806 138.604 34.5806ZM154.359 32.1145C152.441 32.1145 150.523 32.9365 149.838 34.7176L152.167 35.6766C152.715 34.7176 153.537 34.4435 154.496 34.4435C155.866 34.4435 157.099 35.2656 157.236 36.6356V36.7726C156.825 36.4986 155.729 36.0876 154.633 36.0876C152.167 36.0876 149.701 37.4576 149.701 39.9236C149.701 42.2526 151.756 43.7596 153.948 43.7596C155.729 43.7596 156.551 42.9376 157.236 42.1156H157.373V43.4856H159.839V36.9096C159.565 33.8955 157.236 32.1145 154.359 32.1145ZM154.085 41.5676C153.263 41.5676 152.03 41.1566 152.03 40.0606C152.03 38.6906 153.537 38.2796 154.77 38.2796C155.866 38.2796 156.414 38.5536 157.099 38.8276C156.825 40.4716 155.455 41.5676 154.085 41.5676ZM168.47 32.5255L165.593 39.9236H165.456L162.442 32.5255H159.702L164.223 42.9376L161.62 48.6916H164.223L171.21 32.5255H168.47ZM145.454 43.4856H148.057V26.3605H145.454V43.4856Z" fill="white"/>
<path d="M13.2477 12.6641C12.8367 13.0751 12.6997 13.7601 12.6997 14.5821V44.8593C12.6997 45.6813 12.9737 46.3663 13.3847 46.7773L13.5217 46.9143L30.5098 29.9262V29.6522L13.2477 12.6641Z" fill="url(#paint0_linear_1144_24518)"/>
<path d="M35.9901 35.6802L30.373 30.0632V29.6522L35.9901 24.0352L36.1271 24.1722L42.8401 28.0082C44.7581 29.1042 44.7581 30.8852 42.8401 31.9812L35.9901 35.6802Z" fill="url(#paint1_linear_1144_24518)"/>
<path d="M36.1267 35.5431L30.3727 29.7891L13.2476 46.9142C13.9326 47.5992 14.8916 47.5992 16.1246 47.0512L36.1267 35.5431Z" fill="url(#paint2_linear_1144_24518)"/>
<path d="M36.1272 24.0343L16.1251 12.6632C14.8921 11.9782 13.9331 12.1152 13.248 12.8002L30.3731 29.7883L36.1272 24.0343Z" fill="url(#paint3_linear_1144_24518)"/>
<path opacity="0.2" d="M35.9902 35.4062L16.1251 46.6403C15.0291 47.3253 14.0701 47.1883 13.385 46.6403L13.248 46.7773L13.385 46.9143C14.0701 47.4623 15.0291 47.5993 16.1251 46.9143L35.9902 35.4062Z" fill="black"/>
<path opacity="0.12" d="M13.2477 46.6402C12.8367 46.2292 12.6997 45.5442 12.6997 44.7222V44.8592C12.6997 45.6812 12.9737 46.3662 13.3847 46.7772V46.6402H13.2477ZM42.8399 31.5701L35.9898 35.4061L36.1268 35.5431L42.8399 31.7071C43.7989 31.1591 44.2099 30.4741 44.2099 29.7891C44.2099 30.4741 43.6619 31.0221 42.8399 31.5701Z" fill="black"/>
<path opacity="0.25" d="M16.1247 12.8L42.8399 28.0071C43.6619 28.5551 44.2099 29.1031 44.2099 29.7881C44.2099 29.1031 43.7989 28.4181 42.8399 27.8701L16.1247 12.663C14.2067 11.567 12.6997 12.389 12.6997 14.5811V14.7181C12.6997 12.663 14.2067 11.704 16.1247 12.8Z" fill="white"/>
<path d="M182.773 50.7311C182.773 51.421 182.637 52.1041 182.373 52.7414C182.108 53.3787 181.721 53.9577 181.233 54.4453C180.745 54.9329 180.165 55.3195 179.527 55.583C178.89 55.8465 178.206 55.9818 177.516 55.981H5.48392C4.08959 55.9825 2.75177 55.4302 1.76467 54.4457C0.777577 53.4612 0.222032 52.125 0.220215 50.7311V8.86425C0.222031 7.46966 0.777356 6.13279 1.76426 5.14718C2.75116 4.16157 4.08896 3.60778 5.48392 3.60742H177.515C178.205 3.60742 178.889 3.7434 179.527 4.0076C180.165 4.2718 180.744 4.65903 181.232 5.14719C181.721 5.63535 182.108 6.21487 182.372 6.85265C182.636 7.49043 182.772 8.17398 182.772 8.86425L182.773 50.7311Z" fill="white"/>
<path d="M182.773 50.7311C182.773 51.421 182.637 52.1041 182.373 52.7414C182.108 53.3787 181.721 53.9577 181.233 54.4453C180.745 54.9329 180.165 55.3195 179.527 55.583C178.89 55.8465 178.206 55.9818 177.516 55.981H5.48392C4.08959 55.9825 2.75177 55.4302 1.76467 54.4457C0.777577 53.4612 0.222032 52.125 0.220215 50.7311V8.86425C0.222031 7.46966 0.777356 6.13279 1.76426 5.14718C2.75116 4.16157 4.08896 3.60778 5.48392 3.60742H177.515C178.205 3.60742 178.889 3.7434 179.527 4.0076C180.165 4.2718 180.744 4.65903 181.232 5.14719C181.721 5.63535 182.108 6.21487 182.372 6.85265C182.636 7.49043 182.772 8.17398 182.772 8.86425L182.773 50.7311Z" fill="black"/>
<path d="M40.3088 29.5052C40.2691 25.0872 43.9272 22.9379 44.0945 22.8378C42.0227 19.8181 38.8116 19.4055 37.6831 19.3726C34.9862 19.0888 32.3701 20.986 30.9962 20.986C29.5949 20.986 27.4793 19.4 25.1991 19.4466C22.265 19.4918 19.52 21.1902 18.0145 23.8275C14.9076 29.205 17.2248 37.1074 20.2014 41.454C21.6905 43.5841 23.4304 45.9597 25.7078 45.876C27.9359 45.7856 28.7682 44.4573 31.4569 44.4573C34.121 44.4573 34.9025 45.876 37.2252 45.8226C39.6164 45.7856 41.1219 43.6842 42.5588 41.5363C44.2796 39.0977 44.9706 36.6934 44.998 36.57C44.9432 36.5508 40.3554 34.799 40.3088 29.5052ZM35.9213 16.5132C37.1196 15.015 37.9395 12.9767 37.7119 10.9082C35.9775 10.985 33.8084 12.1076 32.5593 13.5729C31.4542 14.8642 30.467 16.9806 30.722 18.971C32.6703 19.1163 34.6708 17.9881 35.9213 16.5132Z" fill="white"/>
<path d="M72.5807 45.5706H69.4669L67.7613 40.2123H61.8326L60.2078 45.5706H57.1763L63.0515 27.3286H66.6795L72.5807 45.5706ZM67.2471 37.9643L65.7046 33.2009C65.5414 32.7143 65.2343 31.5684 64.7846 29.7645H64.7297C64.5487 30.5403 64.2594 31.6862 63.8632 33.2009L62.3467 37.9643H67.2471ZM87.6602 38.832C87.6602 41.069 87.0528 42.8373 85.8367 44.1354C84.748 45.2909 83.3947 45.868 81.7809 45.868C80.0382 45.868 78.785 45.2471 78.024 44.0024V50.9042H75.1008V36.7402C75.1008 35.3352 75.0638 33.8945 74.9925 32.4169H77.5634L77.7265 34.5018H77.7814C78.7562 32.9309 80.2357 32.1454 82.221 32.1454C83.7731 32.1454 85.0688 32.7582 86.1054 33.985C87.1406 35.2146 87.6602 36.8293 87.6602 38.832ZM84.6822 38.9389C84.6822 37.6586 84.3942 36.6031 83.8156 35.7711C83.1836 34.9061 82.3348 34.473 81.2708 34.473C80.5496 34.473 79.8942 34.7142 79.3088 35.1899C78.7219 35.6696 78.338 36.2961 78.1584 37.0719C78.0782 37.3621 78.0327 37.6607 78.0227 37.9615V40.1561C78.0227 41.1115 78.3161 41.9189 78.9029 42.5796C79.4898 43.2376 80.2521 43.5679 81.19 43.5679C82.291 43.5679 83.1479 43.1416 83.7608 42.2959C84.3751 41.4474 84.6822 40.3288 84.6822 38.9389ZM102.793 38.832C102.793 41.069 102.186 42.8373 100.97 44.1354C99.8796 45.2909 98.5277 45.868 96.9125 45.868C95.1698 45.868 93.9166 45.2471 93.1557 44.0024V50.9042H90.2324V36.7402C90.2324 35.3352 90.1954 33.8945 90.1241 32.4169H92.695L92.8581 34.5018H92.913C93.8865 32.9309 95.3659 32.1454 97.3526 32.1454C98.9034 32.1454 100.199 32.7582 101.238 33.985C102.272 35.2146 102.793 36.8293 102.793 38.832ZM99.8138 38.9389C99.8138 37.6586 99.5245 36.6031 98.9459 35.7711C98.3138 34.9061 97.4678 34.473 96.4038 34.473C95.6826 34.473 95.0272 34.7142 94.439 35.1899C93.8522 35.6696 93.4696 36.2961 93.29 37.0719C93.2009 37.4338 93.1529 37.7285 93.1529 37.9615V40.1561C93.1529 41.1115 93.4477 41.9189 94.0318 42.5796C94.6186 43.2362 95.381 43.5679 96.3216 43.5679C97.4239 43.5679 98.2809 43.1416 98.8924 42.2959C99.5067 41.4474 99.8138 40.3288 99.8138 38.9389ZM119.713 40.4536C119.713 42.0066 119.17 43.2691 118.091 44.2437C116.903 45.3074 115.246 45.8406 113.12 45.8406C111.157 45.8406 109.583 45.4623 108.396 44.7043L109.072 42.2684C110.354 43.0278 111.762 43.4062 113.295 43.4062C114.397 43.4062 115.254 43.1567 115.865 42.6618C116.478 42.1656 116.788 41.5022 116.788 40.6743C116.788 39.9327 116.532 39.3117 116.029 38.8059C115.523 38.3015 114.686 37.8313 113.511 37.3995C110.317 36.2084 108.718 34.4661 108.718 32.1742C108.718 30.6774 109.283 29.4519 110.41 28.4938C111.537 27.537 113.031 27.0586 114.891 27.0586C116.551 27.0586 117.934 27.3478 119.033 27.9249L118.299 30.3073C117.265 29.748 116.099 29.4684 114.793 29.4684C113.762 29.4684 112.953 29.722 112.375 30.2264C111.888 30.6774 111.641 31.227 111.641 31.8795C111.641 32.5992 111.922 33.1968 112.482 33.6656C112.967 34.0974 113.853 34.5676 115.133 35.072C116.705 35.7053 117.859 36.4427 118.598 37.2899C119.343 38.137 119.713 39.1938 119.713 40.4536ZM129.402 34.6101H126.18V40.9964C126.18 42.6207 126.748 43.4308 127.886 43.4308C128.408 43.4308 128.842 43.387 129.184 43.2951L129.265 45.5144C128.689 45.7296 127.931 45.8379 126.992 45.8379C125.838 45.8379 124.935 45.4856 124.284 44.781C123.636 44.0765 123.309 42.8962 123.309 41.2349V34.6046H121.39V32.4114H123.309V30.003L126.18 29.1366V32.4114H129.402V34.6101ZM143.912 38.8854C143.912 40.9073 143.333 42.5673 142.178 43.8654C140.971 45.2018 139.364 45.868 137.36 45.868C135.427 45.868 133.89 45.2279 132.744 43.949C131.598 42.6673 131.024 41.0526 131.024 39.1047C131.024 37.0664 131.617 35.3969 132.797 34.0988C133.981 32.7993 135.574 32.1496 137.577 32.1496C139.508 32.1496 141.058 32.7911 142.232 34.0714C143.354 35.3133 143.912 36.917 143.912 38.8854ZM140.881 38.9526C140.881 37.7477 140.621 36.7142 140.098 35.8492C139.486 34.8047 138.608 34.2824 137.471 34.2824C136.3 34.2824 135.402 34.8047 134.791 35.8492C134.267 36.7142 134.007 37.7655 134.007 39.0074C134.007 40.2137 134.267 41.25 134.791 42.1122C135.423 43.1567 136.305 43.6789 137.447 43.6789C138.564 43.6789 139.44 43.1457 140.074 42.0861C140.611 41.2006 140.881 40.1602 140.881 38.9526ZM153.417 34.987C153.113 34.9321 152.805 34.9051 152.496 34.9061C151.468 34.9061 150.673 35.2927 150.113 36.0713C149.628 36.7567 149.384 37.623 149.384 38.6688V45.5706H146.46V36.5593C146.463 35.1785 146.435 33.7978 146.375 32.4182H148.922L149.029 34.9349H149.109C149.419 34.07 149.905 33.3723 150.571 32.85C151.181 32.3937 151.922 32.1465 152.684 32.1454C152.954 32.1454 153.198 32.1646 153.415 32.1989L153.417 34.987ZM166.491 38.3714C166.498 38.8157 166.463 39.2596 166.384 39.6969H157.614C157.647 40.9964 158.072 41.9915 158.887 42.6769C159.626 43.2883 160.582 43.5953 161.755 43.5953C163.054 43.5953 164.238 43.3897 165.304 42.9744L165.762 45.0017C164.517 45.5445 163.047 45.8146 161.351 45.8146C159.311 45.8146 157.709 45.2142 156.544 44.0161C155.381 42.8167 154.798 41.2047 154.798 39.1856C154.798 37.2035 155.34 35.5518 156.424 34.2345C157.56 32.8281 159.094 32.1249 161.024 32.1249C162.921 32.1249 164.356 32.8281 165.331 34.2345C166.103 35.3489 166.491 36.7306 166.491 38.3714ZM163.704 37.6134C163.724 36.7457 163.532 35.9986 163.136 35.3667C162.63 34.5525 161.851 34.1467 160.808 34.1467C159.852 34.1467 159.073 34.5429 158.481 35.3379C157.994 35.9698 157.705 36.7292 157.616 37.6106L163.704 37.6134Z" fill="white"/>
<path d="M60.9891 20.8794C60.176 20.8794 59.4727 20.8397 58.8872 20.7725V11.9531C59.706 11.8266 60.5335 11.7643 61.3621 11.7667C64.7144 11.7667 66.2583 13.4157 66.2583 16.1037C66.2583 19.2043 64.4347 20.8794 60.9891 20.8794ZM61.48 12.8975C61.0275 12.8975 60.6422 12.9249 60.3228 12.9907V19.6951C60.4955 19.7225 60.8273 19.7348 61.2935 19.7348C63.49 19.7348 64.7405 18.4847 64.7405 16.1435C64.7405 14.0558 63.6093 12.8975 61.48 12.8975ZM71.0695 20.9466C69.1802 20.9466 67.9557 19.5361 67.9557 17.6211C67.9557 15.6253 69.2062 14.2025 71.1765 14.2025C73.0385 14.2025 74.2903 15.5458 74.2903 17.5156C74.2903 19.5361 73.0001 20.9466 71.0695 20.9466ZM71.1244 15.2525C70.0865 15.2525 69.4215 16.223 69.4215 17.58C69.4215 18.911 70.1002 19.8815 71.1107 19.8815C72.1212 19.8815 72.7999 18.8438 72.7999 17.5526C72.7999 16.2367 72.1349 15.2525 71.1244 15.2525ZM85.0645 14.3354L83.0421 20.7999H81.7245L80.8867 17.9926C80.6784 17.3059 80.505 16.6091 80.3671 15.905H80.3396C80.2341 16.6095 80.0339 17.3155 79.8214 17.9926L78.9301 20.7999H77.5988L75.6957 14.3354H77.1724L77.9046 17.4087C78.0773 18.1406 78.2226 18.8315 78.3433 19.484H78.3707C78.4763 18.9398 78.6491 18.2599 78.9027 17.4224L79.8214 14.3368H80.9923L81.8712 17.3566C82.0837 18.0886 82.2565 18.8068 82.3908 19.4854H82.4292C82.5225 18.8205 82.6692 18.1146 82.868 17.3566L83.6536 14.3368L85.0645 14.3354ZM92.5096 20.7999H91.0727V17.0879C91.0727 15.9447 90.634 15.3717 89.7688 15.3717C88.9173 15.3717 88.3319 16.1037 88.3319 16.9549V20.7999H86.8949V16.1832C86.8949 15.6116 86.8812 14.9989 86.8415 14.3341H88.1056L88.1728 15.332H88.2126C88.5992 14.6411 89.3835 14.2025 90.2624 14.2025C91.6198 14.2025 92.511 15.2401 92.511 16.9289L92.5096 20.7999ZM96.4722 20.7999H95.0339V11.3691H96.4722V20.7999ZM101.711 20.9466C99.8232 20.9466 98.5974 19.5361 98.5974 17.6211C98.5974 15.6253 99.8479 14.2025 101.817 14.2025C103.68 14.2025 104.931 15.5458 104.931 17.5156C104.932 19.5361 103.64 20.9466 101.711 20.9466ZM101.765 15.2525C100.727 15.2525 100.062 16.223 100.062 17.58C100.062 18.911 100.742 19.8815 101.75 19.8815C102.761 19.8815 103.439 18.8438 103.439 17.5526C103.44 16.2367 102.777 15.2525 101.765 15.2525ZM110.596 20.7999L110.492 20.0556H110.453C110.015 20.6546 109.374 20.9466 108.563 20.9466C107.404 20.9466 106.581 20.1351 106.581 19.044C106.581 17.4484 107.965 16.6232 110.36 16.6232V16.504C110.36 15.6527 109.909 15.2264 109.018 15.2264C108.38 15.2264 107.821 15.3868 107.329 15.7062L107.037 14.7617C107.634 14.3889 108.38 14.2025 109.256 14.2025C110.946 14.2025 111.798 15.0935 111.798 16.8768V19.2578C111.798 19.9103 111.827 20.4161 111.892 20.8013L110.596 20.7999ZM110.399 17.58C108.803 17.58 108.002 17.9666 108.002 18.8836C108.002 19.5621 108.415 19.8938 108.988 19.8938C109.719 19.8938 110.399 19.3359 110.399 18.5779V17.58ZM118.776 20.7999L118.709 19.7622H118.669C118.256 20.5463 117.563 20.9466 116.593 20.9466C115.034 20.9466 113.88 19.5758 113.88 17.6472C113.88 15.6253 115.077 14.2011 116.711 14.2011C117.576 14.2011 118.189 14.4931 118.535 15.0798H118.564V11.3691H120.002V19.0577C120.002 19.6827 120.017 20.2681 120.055 20.7999H118.776ZM118.564 16.9961C118.564 16.0914 117.964 15.3196 117.05 15.3196C115.984 15.3196 115.333 16.2641 115.333 17.5937C115.333 18.8973 116.009 19.7897 117.021 19.7897C117.925 19.7897 118.564 19.0042 118.564 18.0735V16.9961ZM129.121 20.9466C127.233 20.9466 126.009 19.5361 126.009 17.6211C126.009 15.6253 127.259 14.2025 129.228 14.2025C131.091 14.2025 132.342 15.5458 132.342 17.5156C132.343 19.5361 131.053 20.9466 129.121 20.9466ZM129.175 15.2525C128.138 15.2525 127.473 16.223 127.473 17.58C127.473 18.911 128.152 19.8815 129.161 19.8815C130.173 19.8815 130.85 18.8438 130.85 17.5526C130.853 16.2367 130.188 15.2525 129.175 15.2525ZM140.069 20.7999H138.631V17.0879C138.631 15.9447 138.192 15.3717 137.327 15.3717C136.476 15.3717 135.892 16.1037 135.892 16.9549V20.7999H134.453V16.1832C134.453 15.6116 134.44 14.9989 134.4 14.3341H135.664L135.731 15.332H135.771C136.156 14.6411 136.942 14.2011 137.819 14.2011C139.177 14.2011 140.069 15.2388 140.069 16.9275V20.7999ZM149.737 15.4129H148.156V18.5519C148.156 19.351 148.433 19.7499 148.993 19.7499C149.246 19.7499 149.459 19.7225 149.63 19.6827L149.67 20.7739C149.392 20.8808 149.019 20.9342 148.555 20.9342C147.423 20.9342 146.745 20.3092 146.745 18.6725V15.4129H145.802V14.3354H146.745V13.1511L148.156 12.7248V14.3341H149.737V15.4129ZM157.344 20.7999H155.909V17.1153C155.909 15.9584 155.471 15.3731 154.605 15.3731C153.86 15.3731 153.166 15.8789 153.166 16.9029V20.7999H151.731V11.3691H153.166V15.2525H153.195C153.648 14.5479 154.303 14.2011 155.139 14.2011C156.508 14.2011 157.344 15.2648 157.344 16.9549V20.7999ZM165.138 17.9131H160.825C160.853 19.1372 161.663 19.828 162.863 19.828C163.5 19.828 164.087 19.7211 164.606 19.5224L164.829 20.5203C164.218 20.7862 163.498 20.9192 162.66 20.9192C160.638 20.9192 159.441 19.6416 159.441 17.6609C159.441 15.6788 160.666 14.1888 162.498 14.1888C164.15 14.1888 165.187 15.4129 165.187 17.262C165.196 17.4802 165.18 17.6988 165.138 17.9131ZM163.82 16.8892C163.82 15.8912 163.317 15.1867 162.398 15.1867C161.573 15.1867 160.92 15.905 160.827 16.8892H163.82Z" fill="white"/>
</g>
<defs>
<linearGradient id="paint0_linear_1144_24518" x1="28.8658" y1="14.3218" x2="5.87295" y2="37.3132" gradientUnits="userSpaceOnUse">
<stop stop-color="#00A0FF"/>
<stop offset="0.007" stop-color="#00A1FF"/>
<stop offset="0.26" stop-color="#00BEFF"/>
<stop offset="0.512" stop-color="#00D2FF"/>
<stop offset="0.76" stop-color="#00DFFF"/>
<stop offset="1" stop-color="#00E3FF"/>
</linearGradient>
<linearGradient id="paint1_linear_1144_24518" x1="45.3527" y1="29.7906" x2="12.2026" y2="29.7906" gradientUnits="userSpaceOnUse">
<stop stop-color="#FFE000"/>
<stop offset="0.409" stop-color="#FFBD00"/>
<stop offset="0.775" stop-color="#FFA500"/>
<stop offset="1" stop-color="#FF9C00"/>
</linearGradient>
<linearGradient id="paint2_linear_1144_24518" x1="33.0127" y1="32.9346" x2="1.83403" y2="64.1132" gradientUnits="userSpaceOnUse">
<stop stop-color="#FF3A44"/>
<stop offset="1" stop-color="#C31162"/>
</linearGradient>
<linearGradient id="paint3_linear_1144_24518" x1="8.99691" y1="2.62931" x2="22.9203" y2="16.5527" gradientUnits="userSpaceOnUse">
<stop stop-color="#32A071"/>
<stop offset="0.069" stop-color="#2DA771"/>
<stop offset="0.476" stop-color="#15CF74"/>
<stop offset="0.801" stop-color="#06E775"/>
<stop offset="1" stop-color="#00F076"/>
</linearGradient>
<clipPath id="clip0_1144_24518">
<rect y="0.386719" width="180" height="58" rx="12" fill="white"/>
</clipPath>
</defs>
</svg>
