<svg width="45" height="45" viewBox="0 0 45 45" fill="none" xmlns="http://www.w3.org/2000/svg">
<g id="Illustrations">
<g id="Group 1686551868">
<g id="Group">
<path id="Vector" d="M35.6712 35.7768C35.6836 31.3494 29.4973 27.743 21.8537 27.7216C14.21 27.7002 8.00359 31.2719 7.9912 35.6993C7.9788 40.1267 14.1651 43.7332 21.8088 43.7546C29.4524 43.776 35.6588 40.2042 35.6712 35.7768Z" fill="#E4EAEE"/>
</g>
<path id="Vector_2" d="M6.96875 22.3102L23.1322 12.9785L24.3561 13.6898L26.0684 27.321L20.7833 30.338L6.96875 22.3102Z" fill="#9BA5D6"/>
<path id="Vector_3" d="M36.9492 21.0064L24.5559 27.6284L24.3594 13.6899L36.9492 21.0064Z" fill="#EFC348"/>
<path id="Vector_4" d="M24.3516 13.0801L24.356 14.5526L35.279 20.9011L35.2753 19.4278L24.3516 13.0801Z" fill="#9BA5D6"/>
<path id="Vector_5" d="M25.4172 38.5786C25.4172 39.0208 25.1547 39.5451 24.799 39.8509C24.6962 39.9469 24.5753 40.0214 24.4433 40.0702C24.4404 40.0665 24.4367 40.0636 24.4367 40.0599H24.4338C24.3407 39.9609 24.2805 39.8077 24.2805 39.6053L24.2578 32.0307C24.2578 31.7681 24.3473 31.4829 24.4932 31.224C24.6428 30.9673 24.8489 30.7415 25.0777 30.6087C25.1312 30.5794 25.1803 30.5559 25.2309 30.5391C25.3057 30.6154 25.3555 30.7125 25.3739 30.8177V30.8214L25.3901 30.971C25.3926 30.9818 25.3939 30.9929 25.3937 31.004L25.4172 38.5786Z" fill="#ECF0F1"/>
<path id="Vector_6" d="M14.4625 25.0544L13.9536 24.7581L13.947 22.2369C13.947 22.0243 13.8839 21.8681 13.7812 21.772C13.947 21.7119 14.0966 21.7155 14.2095 21.7815C14.3591 21.8681 14.4552 22.0507 14.4552 22.3132L14.4625 25.0544ZM18.2927 27.2801L17.7845 26.9845L17.7647 20.0311C17.7647 19.8221 17.7009 19.6659 17.6019 19.5661C17.7676 19.506 17.9136 19.5126 18.0302 19.5757C18.1798 19.6622 18.2722 19.8485 18.2722 20.1073L18.2927 27.2801ZM21.8464 17.3742C21.7313 17.3082 21.5832 17.3023 21.4174 17.3625C21.5186 17.4615 21.581 17.6177 21.5817 17.8281L21.6037 25.4035C21.6044 25.9249 21.237 26.5629 20.7824 26.8247C20.731 26.8547 20.6797 26.8767 20.6313 26.8951C20.7809 27.0417 21.02 27.0571 21.2913 26.9009C21.7452 26.6391 22.1126 26.0011 22.1119 25.4797L22.0899 17.9044C22.0899 17.6426 21.9953 17.4593 21.8464 17.3742Z" fill="#FFE2A9"/>
<path id="Vector_7" d="M13.9551 24.758L12.8162 24.0972L12.8125 23.2598C12.8089 22.7391 13.1777 22.104 13.6295 21.8415C13.683 21.8122 13.7321 21.788 13.7827 21.7718C13.8854 21.8679 13.9485 22.0241 13.9485 22.2368L13.9558 24.758H13.9551ZM17.786 26.9844L16.6427 26.32L16.6295 21.0576C16.6266 20.5362 16.9947 19.8982 17.4472 19.6386C17.5 19.6056 17.5535 19.5858 17.6034 19.5652C17.7024 19.6657 17.7662 19.8219 17.7662 20.0309L17.786 26.9844ZM21.6045 25.4033L21.5832 17.828C21.5832 17.6175 21.5201 17.4613 21.4189 17.3623C21.3658 17.3814 21.3145 17.4052 21.2657 17.4334C20.8117 17.6952 20.4458 18.3303 20.4473 18.8532L20.4685 26.4285C20.4685 26.639 20.5309 26.7952 20.6328 26.8949C20.6819 26.8766 20.7325 26.8546 20.7846 26.8245C21.2378 26.5627 21.6059 25.9247 21.6045 25.4033Z" fill="#ECF0F1"/>
<path id="Vector_8" d="M17.0629 17.2865L12.2742 20.0533L12.0469 18.7128L16.3501 16.229L17.0629 17.2865Z" fill="#F25A5A"/>
<path id="Vector_9" d="M17.0528 17.2861L16.8328 18.8921L12.7188 21.2689V19.7978L17.0528 17.2861Z" fill="#CC4848"/>
<path id="Vector_10" d="M22.1437 30.1906C22.1765 30.1993 22.2056 30.2186 22.2263 30.2455C22.247 30.2724 22.2582 30.3055 22.2582 30.3394C22.2582 30.3734 22.247 30.4064 22.2263 30.4334C22.2056 30.4603 22.1765 30.4796 22.1437 30.4883C21.6919 30.6368 21.2813 30.8894 20.945 31.2257C20.6088 31.562 20.3562 31.9725 20.2077 32.4243C20.199 32.4571 20.1797 32.4862 20.1527 32.5069C20.1258 32.5276 20.0928 32.5389 20.0588 32.5389C20.0248 32.5389 19.9918 32.5276 19.9649 32.5069C19.938 32.4862 19.9186 32.4571 19.9099 32.4243C19.7618 31.9723 19.5094 31.5615 19.1731 31.2252C18.8367 30.8888 18.4259 30.6364 17.9739 30.4883C17.9411 30.4796 17.9121 30.4603 17.8913 30.4334C17.8706 30.4064 17.8594 30.3734 17.8594 30.3394C17.8594 30.3055 17.8706 30.2724 17.8913 30.2455C17.9121 30.2186 17.9411 30.1993 17.9739 30.1906C18.4258 30.042 18.8364 29.7893 19.1727 29.4529C19.509 29.1165 19.7615 28.7058 19.9099 28.2538C19.9189 28.2213 19.9383 28.1926 19.9651 28.1722C19.9919 28.1517 20.0247 28.1406 20.0584 28.1406C20.0922 28.1406 20.125 28.1517 20.1518 28.1722C20.1786 28.1926 20.198 28.2213 20.2069 28.2538C20.3554 28.7058 20.6081 29.1166 20.9445 29.453C21.2809 29.7894 21.6917 30.0421 22.1437 30.1906Z" fill="white"/>
<g id="Group 1686551860">
<g id="Group_2">
<path id="Vector_11" d="M24.5 10.7618L24.5126 22.4493C24.5136 22.7947 24.6978 23.1136 24.9965 23.287L28.6771 25.4243C28.9779 25.5991 29.3493 25.5996 29.6506 25.4258L33.357 23.2882C33.6586 23.1143 33.844 22.7923 33.8434 22.444L33.835 10.7569C33.8343 10.4113 33.6502 10.0921 33.3514 9.91841L29.6664 7.77662C29.3652 7.60163 28.9936 7.60109 28.692 7.77541L24.986 9.91706C24.6845 10.0912 24.4992 10.4136 24.5003 10.7618H24.5Z" fill="#4F91FF"/>
</g>
<g id="Group_3">
<path id="Vector_12" d="M24.5 10.8448L24.5112 22.3958C24.5123 22.7734 24.7136 23.1221 25.04 23.3118L28.6034 25.3831C28.8518 25.5275 29.1631 25.3478 29.1622 25.0604L29.151 13.5094C29.1499 13.1319 28.9486 12.7831 28.6222 12.5934L25.0587 10.5221C24.8104 10.3778 24.4991 10.5575 24.5 10.8448Z" fill="#3A63DF"/>
<path id="Vector_13" d="M29.1563 13.5153L29.1675 25.0666C29.1683 25.3524 29.4778 25.5307 29.7254 25.3877L33.3177 23.3131C33.6474 23.1227 33.8501 22.7705 33.8491 22.3896L33.8379 10.8383C33.837 10.5524 33.5275 10.3742 33.2799 10.5172L29.6876 12.5917C29.3579 12.7821 29.1552 13.1344 29.1563 13.5153Z" fill="#457AEF"/>
<path id="Vector_14" d="M25.0601 10.519L28.6238 12.5904C28.9529 12.7817 29.3594 12.7823 29.689 12.5919L33.2814 10.5173C33.5289 10.3743 33.5295 10.0172 33.2823 9.87354L29.7186 7.80209C29.3895 7.61076 28.983 7.61022 28.6533 7.80061L25.061 9.87516C24.8134 10.0181 24.8129 10.3753 25.0601 10.519Z" fill="#4F91FF"/>
</g>
<g id="Group_4">
<path id="Vector_15" d="M17.3359 8.1169L17.3485 27.2174C17.3496 27.5628 17.5337 27.8817 17.8324 28.0551L21.5131 30.1924C21.8138 30.3671 22.1852 30.3677 22.4865 30.1939L26.1929 28.0563C26.4945 27.8824 26.68 27.5603 26.6793 27.2121L26.6709 8.11191C26.6703 7.76624 26.4861 7.44704 26.1874 7.27339L22.5023 5.1316C22.2011 4.95661 21.8295 4.95607 21.5279 5.13039L17.8219 7.27204C17.5205 7.44623 17.3351 7.76854 17.3362 8.11677L17.3359 8.1169Z" fill="#FFDE9B"/>
</g>
<g id="Group_5">
<path id="Vector_16" d="M17.3359 8.2003L17.3471 27.1642C17.3482 27.5418 17.5495 27.8906 17.8759 28.0803L21.4394 30.1516C21.6878 30.2959 21.9989 30.1162 21.9981 29.8289L21.9869 10.8649C21.9858 10.4874 21.7845 10.1386 21.4581 9.94889L17.8947 7.87759C17.6463 7.73324 17.335 7.91296 17.3359 8.2003Z" fill="#FDB34D"/>
<path id="Vector_17" d="M21.9844 10.8713L21.9956 29.8356C21.9964 30.1215 22.3059 30.2997 22.5535 30.1567L26.1459 28.0822C26.4755 27.8918 26.6783 27.5395 26.6772 27.1586L26.666 8.19425C26.6652 7.9084 26.3556 7.73016 26.1081 7.87316L22.5157 9.94771C22.1861 10.1381 21.9833 10.4904 21.9844 10.8713Z" fill="#FFCA6C"/>
<path id="Vector_18" d="M17.896 7.87492L21.4597 9.94636C21.7888 10.1377 22.1953 10.1382 22.525 9.94785L26.1173 7.8733C26.3649 7.73031 26.3654 7.37316 26.1182 7.22949L22.5545 5.15805C22.2254 4.96672 21.8189 4.96618 21.4893 5.15656L17.8969 7.23111C17.6494 7.37411 17.6488 7.73125 17.896 7.87492Z" fill="#FFDE9B"/>
</g>
<g id="Group_6">
<path id="Vector_19" d="M11.6328 16.6946L11.6454 30.2471C11.6464 30.6193 11.8306 30.963 12.1293 31.1498L15.8099 33.453C16.1107 33.6413 16.4821 33.6418 16.7834 33.4546L20.4898 31.1511C20.7914 30.9637 20.9769 30.6167 20.9762 30.2414L20.9678 16.6893C20.9671 16.3168 20.783 15.9729 20.4843 15.7857L16.7992 13.4777C16.498 13.2892 16.1264 13.2886 15.8248 13.4764L12.1188 15.7843C11.8173 15.972 11.632 16.3193 11.6331 16.6946H11.6328Z" fill="#0FD7D6"/>
</g>
<path id="Vector_20" d="M11.6328 16.5357L11.644 30.4527C11.6451 30.8302 11.8464 31.179 12.1728 31.3687L15.7362 33.44C15.9846 33.5844 16.2958 33.4047 16.295 33.1173L16.2838 19.2004C16.2827 18.8228 16.0814 18.4741 15.755 18.2843L12.1916 16.213C11.9432 16.0687 11.632 16.2484 11.6328 16.5357Z" fill="#00B8B7"/>
<path id="Vector_21" d="M16.2813 19.2072L16.2925 33.1245C16.2933 33.4103 16.6028 33.5885 16.8504 33.4455L20.4427 31.371C20.7724 31.1806 20.9751 30.8283 20.9741 30.4474L20.9629 16.5302C20.962 16.2443 20.6525 16.0661 20.4049 16.2091L16.8126 18.2836C16.4829 18.474 16.2802 18.8263 16.2813 19.2072Z" fill="#3DCFCF"/>
<path id="Vector_22" d="M12.1929 16.2104L15.7566 18.2818C16.0857 18.4731 16.4922 18.4737 16.8218 18.2833L20.4142 16.2087C20.6618 16.0658 20.6623 15.7086 20.4151 15.5649L16.8514 13.4935C16.5223 13.3022 16.1158 13.3016 15.7862 13.492L12.1938 15.5666C11.9462 15.7096 11.9457 16.0667 12.1929 16.2104Z" fill="#0FD7D6"/>
</g>
<path id="Vector_23" d="M23.8501 41.2144L23.2443 41.5649C22.7457 41.8531 22.1297 41.8524 21.6317 41.5627L8.62242 34.0006L6.96875 22.3105L20.784 30.3405L22.1993 40.1364L23.8493 41.2144H23.8501Z" fill="#D6DBF6"/>
<g id="Group 1686551866">
<path id="Vector_24" d="M20.7891 30.339L22.3481 41.2576C22.3943 41.6243 22.7991 41.8252 23.1189 41.6404L34.9219 34.8263C35.2079 34.6605 35.3985 34.3679 35.433 34.0387L36.9517 21.0073L20.7891 30.339Z" fill="#9BA5D6"/>
<g id="Vector_25" filter="url(#filter0_b_3404_167604)">
<path d="M20.7891 30.339L22.3481 41.2576C22.3943 41.6243 22.7991 41.8252 23.1189 41.6404L34.9219 34.8263C35.2079 34.6605 35.3985 34.3679 35.433 34.0387L36.9517 21.0073L20.7891 30.339Z" fill="url(#paint0_linear_3404_167604)" fill-opacity="0.32"/>
</g>
<path id="Vector_26" d="M25.6683 30.5515C25.5539 30.4855 25.405 30.4804 25.24 30.5398C25.3412 30.6388 25.4035 30.795 25.4043 31.0054L25.4263 37.1141C25.427 37.6355 25.0596 38.2735 24.6049 38.5353C24.5536 38.5654 24.5023 38.5881 24.4531 38.6057C24.6035 38.7524 24.8418 38.7685 25.1131 38.6116C25.5678 38.3498 25.9352 37.7118 25.9345 37.1904L25.9125 31.0817C25.9125 30.8199 25.8179 30.6366 25.6683 30.5515ZM29.4867 28.3471C29.3723 28.2811 29.2235 28.276 29.0585 28.3354C29.1589 28.4344 29.2198 28.592 29.2205 28.8018L29.2425 34.9104C29.244 35.4326 28.8773 36.0691 28.4212 36.3324C28.3699 36.3617 28.32 36.3837 28.2701 36.402C28.4212 36.5487 28.6603 36.5641 28.9301 36.4079C29.3855 36.1454 29.7515 35.5081 29.7507 34.9867L29.7287 28.878C29.7287 28.6162 29.6363 28.4322 29.4867 28.3471ZM33.3037 26.1434C33.1886 26.0774 33.0405 26.0723 32.8747 26.1317C32.9759 26.2307 33.0383 26.3869 33.039 26.5974L33.061 32.706C33.0625 33.2274 32.6943 33.8654 32.2397 34.128C32.1883 34.1573 32.137 34.1793 32.0886 34.1976C32.2389 34.3443 32.4773 34.3604 32.7486 34.2035C33.2025 33.9417 33.5699 33.3037 33.5692 32.7823L33.5472 26.6736C33.5472 26.4118 33.4526 26.2285 33.3037 26.1434Z" fill="#6D85BE"/>
<path id="Vector_27" d="M29.2524 34.9111C29.2524 35.3569 28.9862 35.8813 28.6276 36.1944L28.621 36.1973C28.5211 36.2871 28.4048 36.3568 28.2785 36.4027C28.2756 36.3997 28.2756 36.3997 28.2756 36.3961C28.1759 36.2971 28.1157 36.1438 28.1157 35.9377L28.0938 29.8276C28.0938 29.5687 28.1832 29.2864 28.3262 29.0334C28.3922 28.9205 28.4692 28.8112 28.555 28.7144C28.6613 28.5883 28.7845 28.4856 28.9143 28.4093C28.9671 28.3793 29.017 28.3558 29.0669 28.336C29.1695 28.4357 29.2297 28.5919 29.2297 28.8046V29.1031L29.2531 34.9118L29.2524 34.9111ZM33.0694 32.7052C33.0724 33.1745 32.7768 33.7319 32.3881 34.0311C32.3441 34.0664 32.2975 34.0985 32.2488 34.1271C32.199 34.1543 32.1557 34.177 32.1095 34.1902L32.1058 34.1939L32.0963 34.1968C31.9966 34.1015 31.9335 33.9416 31.9335 33.7319L31.9195 30.657L31.913 27.6239C31.91 27.0996 32.2752 26.4653 32.7306 26.2027C32.7791 26.1744 32.8302 26.1509 32.8831 26.1323C32.9858 26.2321 33.0459 26.389 33.0496 26.598L33.0628 31.3148L33.0694 32.7052Z" fill="#9BA5D6"/>
<path id="Vector_28" d="M25.425 37.114C25.425 37.5562 25.1625 38.0805 24.8068 38.3863L24.4446 38.5953H24.4416C24.3485 38.4963 24.2884 38.343 24.2884 38.1406L24.2656 32.0327C24.2656 31.7702 24.3551 31.4849 24.501 31.226C24.6506 30.9694 24.8567 30.7435 25.0855 30.6108C25.139 30.5814 25.1882 30.558 25.2388 30.5411C25.3135 30.6174 25.3633 30.7146 25.3818 30.8198V30.8234L25.3979 30.973C25.4004 30.9838 25.4017 30.9949 25.4016 31.006L25.425 37.114ZM29.242 34.911C29.242 35.3569 28.9758 35.8812 28.6172 36.1944L28.6106 36.1973L28.2652 36.396C28.1655 36.297 28.1054 36.1438 28.1054 35.9377L28.0834 29.8276C28.0834 29.5687 28.1728 29.2864 28.3158 29.0334C28.3818 28.9204 28.4588 28.8112 28.5446 28.7144L29.2193 29.103L29.2428 34.9118L29.242 34.911ZM33.059 32.7052C33.062 33.1745 32.7664 33.7318 32.3778 34.031L32.0991 34.1902L32.0954 34.1938L32.0859 34.1968C31.9862 34.1014 31.9231 33.9416 31.9231 33.7318L31.9092 30.657L33.0524 31.3148L33.059 32.7052Z" fill="#BBC0E6"/>
</g>
<path id="Vector_29" d="M6.5 21.9146L6.5044 23.3871L19.9735 31.2147L19.9691 29.7422L6.5 21.9146Z" fill="#2B5895"/>
<path id="Vector_30" d="M19.9696 29.7426L19.974 31.2151L37.8387 20.9015L37.8351 19.4282L19.9696 29.7426Z" fill="#2B5895"/>
<path id="Vector_31" d="M24.3669 11.6011L6.5 21.9169L19.9662 29.7401L37.8331 19.4243L24.3669 11.6011ZM20.3871 28.0211C20.1319 28.1685 19.8173 28.1678 19.5629 28.0204L9.66727 22.2711C9.6051 22.2342 9.55361 22.1818 9.51784 22.119C9.48207 22.0562 9.46326 21.9851 9.46326 21.9128C9.46326 21.8406 9.48207 21.7695 9.51784 21.7067C9.55361 21.6439 9.6051 21.5915 9.66727 21.5546L23.9394 13.3207C24.0658 13.248 24.209 13.2097 24.3548 13.2097C24.5007 13.2097 24.6439 13.248 24.7703 13.3207L34.6666 19.0701C34.9379 19.227 34.9379 19.6215 34.6666 19.7865L20.3871 28.0211Z" fill="#00357C"/>
<path id="Vector_32" d="M11.6328 16.5367L11.644 21.6537C11.6451 22.0312 11.8464 22.38 12.1728 22.5697L15.7362 24.641C15.9846 24.7854 16.2958 24.6056 16.295 24.3183L16.2838 19.2013C16.2827 18.8238 16.0814 18.475 15.755 18.2853L12.1916 16.214C11.9432 16.0697 11.632 16.2494 11.6328 16.5367Z" fill="#00B8B7"/>
<path id="Vector_33" d="M12.1772 16.2104L15.741 18.2818C16.0701 18.4731 16.4766 18.4737 16.8062 18.2833L20.3985 16.2087C20.6461 16.0658 20.6467 15.7086 20.3995 15.5649L16.8358 13.4935C16.5067 13.3022 16.1002 13.3016 15.7705 13.492L12.1782 15.5666C11.9306 15.7096 11.9301 16.0667 12.1772 16.2104Z" fill="#0FD7D6"/>
<path id="Vector_34" d="M17.3281 8.2003L17.3393 13.2309C17.3404 13.6084 17.5417 13.9572 17.8681 14.1469L21.4316 16.2182C21.6799 16.3626 21.9911 16.1829 21.9903 15.8955L21.9791 10.8649C21.978 10.4874 21.7767 10.1386 21.4503 9.94889L17.8869 7.87759C17.6385 7.73324 17.3272 7.91296 17.3281 8.2003Z" fill="#FDB34D"/>
<path id="Vector_35" d="M24.5 10.8448L24.5112 15.0625C24.5123 15.44 24.7136 15.7888 25.04 15.9785L28.6034 18.0498C28.8518 18.1942 29.1631 18.0144 29.1622 17.7271L29.151 13.5094C29.1499 13.1319 28.9486 12.7831 28.6222 12.5934L25.0587 10.5221C24.8104 10.3778 24.4991 10.5575 24.5 10.8448Z" fill="#3A63DF"/>
<path id="Vector_36" d="M21.9766 10.8713L21.9878 22.5023C21.9886 22.7882 22.2981 22.9664 22.5457 22.8234L26.138 20.7489C26.4677 20.5585 26.6705 20.2062 26.6694 19.8253L26.6582 8.19425C26.6574 7.9084 26.3478 7.73016 26.1002 7.87316L22.5079 9.94771C22.1782 10.1381 21.9755 10.4904 21.9766 10.8713Z" fill="#FFCA6C"/>
<path id="Vector_37" d="M29.1563 13.5158L29.1675 21.4004C29.1683 21.6863 29.4778 21.8645 29.7254 21.7215L33.3177 19.647C33.6474 19.4566 33.8501 19.1043 33.8491 18.7234L33.8379 10.8388C33.837 10.5529 33.5275 10.3747 33.2799 10.5177L29.6876 12.5922C29.3579 12.7826 29.1552 13.1349 29.1563 13.5158Z" fill="#457AEF"/>
</g>
</g>
<defs>
<filter id="filter0_b_3404_167604" x="15.4012" y="15.6195" width="26.9398" height="31.4784" filterUnits="userSpaceOnUse" color-interpolation-filters="sRGB">
<feFlood flood-opacity="0" result="BackgroundImageFix"/>
<feGaussianBlur in="BackgroundImageFix" stdDeviation="2.69393"/>
<feComposite in2="SourceAlpha" operator="in" result="effect1_backgroundBlur_3404_167604"/>
<feBlend mode="normal" in="SourceGraphic" in2="effect1_backgroundBlur_3404_167604" result="shape"/>
</filter>
<linearGradient id="paint0_linear_3404_167604" x1="28.8704" y1="21.0073" x2="28.8704" y2="43.1768" gradientUnits="userSpaceOnUse">
<stop stop-color="#00357C"/>
<stop offset="1" stop-color="#ECF2FF"/>
</linearGradient>
</defs>
</svg>
