<svg width="149" height="16" viewBox="0 0 149 16" fill="none" xmlns="http://www.w3.org/2000/svg">
<path d="M3.13647 14.4408C2.97249 15.4408 2.97214 15.46 1.94318 15.4338C1.34112 15.4184 0.567037 15.7093 0.184541 15.3009C-0.161243 14.9317 0.0852468 14.1748 0.0838483 13.5898C0.0754572 9.42084 0.077555 5.25185 0.0765061 1.08286C0.0761565 0.257736 0.0765058 0.257736 0.931701 0.257037C1.43377 0.256687 1.94004 0.298294 2.43686 0.246548C3.05291 0.182566 3.27352 0.360875 3.24311 1.01853C3.18542 2.26007 3.22038 3.50615 3.22598 4.75013C3.22702 4.95816 3.16794 5.17738 3.30954 5.42982C4.20144 4.61728 5.21712 4.17674 6.42929 4.13828C9.27668 4.04843 11.5758 6.03363 11.879 8.88486C12.0223 10.2334 11.9258 11.5365 11.3252 12.7808C9.95881 15.611 6.17441 16.6009 3.61826 14.7856C3.46268 14.6758 3.30884 14.5646 3.13647 14.4408Z" fill="#484848"/>
<path d="M36.3829 6.65988C37.7604 7.04238 38.56 7.82066 38.6306 9.21498C38.7471 11.5145 37.6045 12.7885 35.0759 12.9322C33.097 13.0448 31.1069 12.9571 29.1221 12.9798C28.6088 12.9857 28.7085 12.6449 28.7081 12.3592C28.7032 10.1342 28.7053 7.90911 28.7053 5.68407C28.7053 4.24429 28.7218 2.80451 28.6962 1.36508C28.6878 0.89623 28.7983 0.711625 29.3091 0.723163C31.0968 0.763021 32.8859 0.749032 34.6739 0.773157C35.0413 0.778052 35.4154 0.827001 35.7731 0.911262C37.3185 1.27558 38.0838 2.12029 38.2684 3.62649C38.4369 5.00439 37.9118 5.87566 36.3829 6.65988Z" fill="#484848"/>
<path d="M126.705 11.7094C125.673 13.1097 124.385 13.4265 122.948 13.0429C121.441 12.6409 120.685 11.5101 120.382 10.0302C120.15 8.89946 120.18 7.7754 120.458 6.66217C121.2 3.68717 124.774 2.77953 126.761 5.10597C126.761 3.81443 126.761 2.62674 126.761 1.43904C126.761 0.102406 126.761 0.0887696 128.102 0.109048C128.659 0.117439 129.37 -0.139888 129.733 0.238063C130.065 0.584197 129.83 1.27996 129.832 1.82049C129.841 5.3126 129.824 8.80506 129.849 12.2972C129.853 12.845 129.704 13.0268 129.158 12.9817C128.595 12.9352 128.021 12.938 127.457 12.9814C126.927 13.0223 126.677 12.8671 126.756 12.3059C126.775 12.1647 126.733 12.015 126.705 11.7094Z" fill="#484848"/>
<path d="M136.327 12.0013C134.986 13.3127 133.582 13.4522 132.084 12.8806C131.165 12.5292 130.705 11.7908 130.627 10.8115C130.54 9.72204 130.86 8.82244 131.853 8.26373C132.958 7.64244 134.179 7.59174 135.408 7.56832C135.661 7.56342 136.085 7.79523 136.151 7.31833C136.222 6.80473 136.151 6.29077 135.586 6.04848C134.918 5.76248 134.205 6.024 133.895 6.69459C133.77 6.9652 133.617 7.03373 133.348 7.02779C132.716 7.01415 132.082 7.00472 131.451 7.02954C131.026 7.04597 130.92 6.90192 131.009 6.49076C131.271 5.29502 131.993 4.51919 133.126 4.12061C134.376 3.68078 135.66 3.66854 136.927 4.00384C138.432 4.40206 139.203 5.43907 139.234 7.09667C139.268 8.88503 139.233 10.6744 139.249 12.4635C139.253 12.8642 139.118 13.0005 138.72 12.9799C138.176 12.9512 137.625 12.9292 137.086 12.9848C136.439 13.0516 136.129 12.8621 136.327 12.0013Z" fill="#484848"/>
<path d="M78.2856 9.19267C77.4339 9.19337 76.5815 9.21679 75.7309 9.18428C75.212 9.1647 75.1435 9.3507 75.2907 9.79753C75.5075 10.4548 75.9008 10.9223 76.5976 11.0184C77.3511 11.1223 78.1129 11.1349 78.5055 10.2818C78.6216 10.0297 78.8122 10.0091 79.0394 10.0105C79.6726 10.0136 80.3072 10.0339 80.939 10.0031C81.3907 9.98143 81.4582 10.158 81.3519 10.5468C81.0533 11.6411 80.36 12.3897 79.3223 12.7869C78.0682 13.2669 76.7584 13.3354 75.4606 13.0127C73.3009 12.4757 72.1965 11.0412 72.115 8.68221C72.0475 6.72288 72.7982 5.14989 74.6232 4.31323C76.471 3.46607 78.3374 3.50243 79.9908 4.82264C81.2928 5.86209 81.4977 7.35991 81.4526 8.91436C81.4424 9.2605 81.1743 9.18882 80.9708 9.18987C80.0764 9.19546 79.181 9.19197 78.2856 9.19267Z" fill="#484848"/>
<path d="M65.4904 5.37336C66.2824 4.29405 67.2019 3.79863 68.3777 3.79688C69.9615 3.79443 70.9685 4.62201 71.2538 6.18136C71.4359 7.1771 71.359 8.18369 71.3677 9.18608C71.3772 10.2776 71.3537 11.3695 71.3772 12.4607C71.3859 12.8635 71.2559 12.9956 70.8555 12.9799C70.158 12.9526 69.4574 12.9484 68.7602 12.9813C68.3322 13.0016 68.2529 12.8219 68.2567 12.4439C68.2728 10.9161 68.2651 9.38746 68.262 7.85923C68.2595 6.74706 67.9179 6.30338 67.0592 6.28345C66.1201 6.26142 65.5303 6.8072 65.5051 7.83196C65.4681 9.33747 65.4744 10.8447 65.5002 12.3506C65.5083 12.8191 65.4111 13.0205 64.8954 12.9838C64.2437 12.9373 63.586 12.9628 62.9312 12.9775C62.6238 12.9845 62.4483 12.9341 62.4497 12.56C62.4616 9.85283 62.4599 7.14599 62.4515 4.4388C62.4504 4.11749 62.5819 4.02623 62.8805 4.03218C63.5353 4.04581 64.1923 4.06679 64.845 4.02589C65.3555 3.99372 65.5747 4.15245 65.4946 4.6762C65.4688 4.84612 65.4904 5.02373 65.4904 5.37336Z" fill="#484848"/>
<path d="M115.259 13.1707C112.438 13.4462 110.301 11.624 110.094 8.76679C109.902 6.11799 111.857 3.94574 114.562 3.80274C117.078 3.66988 119.052 4.90127 119.642 6.94836C120.49 9.8898 118.91 13.0396 115.259 13.1707Z" fill="#484848"/>
<path d="M106.182 0.730839C107.624 0.730839 109.066 0.752519 110.507 0.719304C111.012 0.707767 111.156 0.874888 111.119 1.35423C111.08 1.8535 111.079 2.36082 111.119 2.86009C111.159 3.34118 110.96 3.45481 110.52 3.43138C109.91 3.39922 109.293 3.47194 108.687 3.41076C108.043 3.34538 107.947 3.62229 107.952 4.18484C107.978 6.8714 107.942 9.55831 107.979 12.2445C107.988 12.8676 107.79 13.0207 107.212 12.9829C106.494 12.9361 105.768 12.9319 105.051 12.9843C104.5 13.0245 104.411 12.8043 104.415 12.3179C104.435 9.58768 104.406 6.85706 104.439 4.12715C104.446 3.54327 104.292 3.36461 103.714 3.41146C103.063 3.4646 102.404 3.40446 101.749 3.43068C101.372 3.44572 101.255 3.31146 101.272 2.944C101.298 2.37725 101.301 1.80735 101.271 1.24095C101.249 0.835728 101.393 0.717554 101.791 0.722799C103.254 0.742728 104.718 0.730839 106.182 0.730839Z" fill="#484848"/>
<path d="M45.3029 11.6814C44.4382 12.8943 43.3886 13.2876 42.13 13.1575C40.6451 13.004 39.7588 12.1681 39.534 10.6769C39.3574 9.50669 39.4819 8.32458 39.4588 7.14843C39.4417 6.2761 39.4672 5.40273 39.4514 4.5304C39.4451 4.17308 39.5553 4.01889 39.9367 4.03183C40.6342 4.0556 41.3338 4.06015 42.031 4.03008C42.4527 4.0119 42.5404 4.18706 42.5366 4.56781C42.5205 6.16037 42.525 7.75329 42.5324 9.34585C42.5373 10.3961 42.9016 10.8524 43.7264 10.8755C44.6358 10.901 45.241 10.3766 45.2728 9.39201C45.3238 7.82287 45.3193 6.25058 45.2906 4.68039C45.2812 4.16154 45.4319 3.99371 45.9462 4.02763C46.5762 4.06923 47.2115 4.05245 47.8436 4.03217C48.1957 4.02064 48.3467 4.11294 48.3446 4.50173C48.3306 7.16346 48.3282 9.8252 48.3467 12.4869C48.3495 12.9177 48.1796 12.996 47.8059 12.981C47.1957 12.9568 46.5811 12.9369 45.9741 12.9862C45.4214 13.031 45.2147 12.839 45.3001 12.2995C45.3196 12.1723 45.3029 12.0391 45.3029 11.6814Z" fill="#484848"/>
<path d="M144.501 8.79511C145.046 7.27456 145.544 5.95261 145.986 4.61213C146.136 4.15621 146.354 3.99468 146.823 4.02755C147.388 4.06705 147.959 4.066 148.524 4.02894C149.075 3.99293 149.072 4.19292 148.897 4.62192C147.921 7.02528 146.965 9.43738 146.002 11.8467C145.517 13.0609 145.018 14.27 144.553 15.4923C144.419 15.8444 144.261 16.0216 143.856 15.9978C143.247 15.9622 142.633 15.9702 142.023 15.9943C141.588 16.0115 141.43 15.9321 141.629 15.4587C142.009 14.5549 142.313 13.6197 142.693 12.7159C142.888 12.2498 142.833 11.8572 142.632 11.4114C141.618 9.16676 140.644 6.90396 139.623 4.66282C139.376 4.1202 139.499 4.00168 140.05 4.0286C140.747 4.06286 141.448 4.06076 142.145 4.0279C142.54 4.00937 142.723 4.15691 142.856 4.51703C143.364 5.88444 143.901 7.24135 144.501 8.79511Z" fill="#484848"/>
<path d="M55.6512 6.68029C55.2593 6.68029 54.975 6.67155 54.6918 6.68274C54.3932 6.69463 54.1912 6.65267 54.0268 6.32087C53.7384 5.73874 52.8426 5.59609 52.3126 5.97929C52.1255 6.11459 51.9979 6.28661 52.0238 6.5296C52.0535 6.80965 52.2594 6.95685 52.4961 7.01314C53.0042 7.13377 53.5209 7.21767 54.0342 7.31487C54.2695 7.35962 54.5083 7.38935 54.7408 7.44494C56.454 7.85575 57.1651 8.6099 57.1941 10.0374C57.2252 11.5772 56.4228 12.6125 54.7834 13.0044C53.5146 13.3075 52.2297 13.2908 50.9836 12.8401C50.04 12.4988 49.4093 11.8475 49.1425 10.8671C49.0191 10.4133 49.0519 10.0948 49.669 10.1605C50.0792 10.2039 50.4977 10.1658 50.9123 10.1693C51.3962 10.1734 51.8595 10.0721 52.122 10.7339C52.3283 11.2542 53.5975 11.2944 54.0083 10.8909C54.3485 10.5566 54.253 10.1203 53.7824 9.89724C53.3206 9.67802 52.8077 9.67767 52.3196 9.57174C51.8728 9.47489 51.4175 9.40566 50.9819 9.2721C49.982 8.96548 49.3358 8.34139 49.2023 7.2467C49.0635 6.109 49.382 5.17199 50.3298 4.5007C51.6256 3.58327 54.3037 3.53572 55.647 4.4014C55.8813 4.55244 56.0998 4.74824 56.2778 4.96291C56.6627 5.42757 57.033 6.03033 56.8221 6.56072C56.6823 6.91035 55.983 6.58729 55.6512 6.68029Z" fill="#484848"/>
<path d="M88.2041 6.68146C87.9202 6.68216 87.6356 6.67097 87.3524 6.6853C87.071 6.69964 86.893 6.63601 86.7374 6.34931C86.4343 5.79025 85.712 5.61823 85.1449 5.90283C84.8938 6.02905 84.7281 6.20491 84.7456 6.51573C84.762 6.81047 84.9589 6.96011 85.191 7.01535C85.7204 7.14192 86.2605 7.22304 86.7962 7.32303C87.0318 7.36708 87.2703 7.4017 87.5024 7.45974C89.2128 7.88874 89.8666 8.62086 89.8754 10.1078C89.8845 11.6424 89.1086 12.6147 87.4738 13.0045C86.2231 13.3028 84.9606 13.2898 83.7334 12.8563C82.6891 12.4871 82.015 11.778 81.8048 10.6592C81.7451 10.3407 81.7667 10.1571 82.1583 10.1666C82.8352 10.1827 83.5128 10.1767 84.1897 10.168C84.4432 10.1648 84.5547 10.2736 84.6708 10.5029C84.9942 11.1417 86.0057 11.3693 86.5993 10.9735C87.0213 10.6924 86.9878 10.1736 86.5284 9.92323C86.1347 9.70856 85.6875 9.70227 85.262 9.61381C84.9204 9.54283 84.5732 9.49948 84.2316 9.42885C82.7625 9.12502 81.9825 8.36947 81.886 7.16674C81.7633 5.63921 82.4094 4.58752 83.8673 4.08965C85.212 3.63059 86.5763 3.65925 87.9069 4.17601C88.8391 4.53787 89.3401 5.26686 89.5579 6.22519C89.6373 6.57447 89.5516 6.70908 89.1866 6.6853C88.8604 6.66398 88.5317 6.68076 88.2041 6.68146Z" fill="#484848"/>
<path d="M96.6231 6.67969C96.3612 6.68004 96.0986 6.6699 95.8371 6.68249C95.4955 6.69892 95.2508 6.66151 95.0529 6.28391C94.7519 5.70947 94.1788 5.70212 93.6152 5.86295C93.3243 5.94581 93.1159 6.12308 93.11 6.46501C93.1037 6.82443 93.3474 6.97862 93.6302 7.044C94.1397 7.16148 94.6592 7.2335 95.1742 7.32545C95.3885 7.36391 95.6053 7.39503 95.8165 7.44678C97.5423 7.86948 98.2226 8.60545 98.2373 10.0592C98.2531 11.6273 97.4751 12.6157 95.8144 13.0076C94.5658 13.302 93.303 13.2874 92.0768 12.8503C91.0304 12.4773 90.3699 11.7521 90.1532 10.6452C90.0899 10.3225 90.1671 10.154 90.5399 10.1645C91.1944 10.1826 91.8499 10.1735 92.5048 10.1662C92.7446 10.1634 92.888 10.2347 93.0156 10.4686C93.3736 11.1249 94.2089 11.3525 94.8641 11.019C95.0952 10.9011 95.2427 10.7333 95.2564 10.4634C95.2704 10.1784 95.1008 10.0274 94.8711 9.91412C94.4106 9.68686 93.8988 9.68336 93.4107 9.57603C92.9429 9.47324 92.4667 9.39736 92.0101 9.25821C91.0591 8.96872 90.4087 8.37225 90.2738 7.34329C90.1248 6.20944 90.3706 5.21194 91.3653 4.51408C92.7002 3.57742 95.3815 3.53022 96.743 4.42108C97.4014 4.85182 97.7499 5.47591 97.916 6.23776C97.9978 6.61361 97.8811 6.70242 97.5398 6.68319C97.2349 6.6657 96.9287 6.67934 96.6231 6.67969Z" fill="#484848"/>
<path d="M12.5178 9.06491C12.5178 8.14783 12.5324 7.23005 12.5108 6.31332C12.5017 5.92663 12.6097 5.7602 13.0237 5.77873C13.6558 5.8074 14.2911 5.8053 14.9232 5.77943C15.3228 5.763 15.4561 5.90425 15.4508 6.30353C15.433 7.72268 15.4414 9.14252 15.447 10.562C15.4484 10.8889 15.4599 11.2176 15.498 11.542C15.6249 12.6206 15.9753 12.9608 17.0581 12.9633C17.5112 12.9643 17.6902 13.0871 17.6458 13.5514C17.6105 13.9192 17.6388 14.2933 17.6385 14.6646C17.6378 15.581 17.6357 15.588 16.685 15.5936C16.3144 15.5956 15.9378 15.6075 15.5742 15.5498C13.6268 15.2397 12.6275 13.9968 12.537 11.7508C12.501 10.8568 12.5311 9.96031 12.5311 9.06491C12.5269 9.06491 12.5223 9.06491 12.5178 9.06491Z" fill="#484848"/>
<path d="M58.0187 8.44962C58.0187 7.16403 58.0313 5.87808 58.0114 4.59284C58.0051 4.19182 58.0869 3.99987 58.5435 4.02574C59.2169 4.0635 59.8945 4.05057 60.5696 4.02959C60.9297 4.0184 61.0654 4.13063 61.0636 4.50788C61.051 7.16647 61.0482 9.82506 61.0664 12.4833C61.0692 12.914 60.8958 12.9903 60.5245 12.9773C59.8714 12.9549 59.2158 12.9469 58.5638 12.9805C58.1379 13.0025 58.0016 12.8689 58.0096 12.4371C58.0344 11.1086 58.0187 9.77891 58.0187 8.44962Z" fill="#484848"/>
<path d="M15.036 5.43634C14.3389 5.43634 13.641 5.41956 12.9445 5.44333C12.5967 5.45522 12.4981 5.3332 12.5016 4.99546C12.5169 3.57946 12.5124 2.1631 12.504 0.747102C12.5023 0.467048 12.5421 0.304815 12.8868 0.317052C13.5833 0.341177 14.2812 0.333836 14.9783 0.3202C15.2808 0.314256 15.4133 0.408306 15.3979 0.729966C15.3762 1.18658 15.4108 1.64565 15.3864 2.10192C15.3682 2.43756 15.472 2.59734 15.8227 2.55364C15.9084 2.5428 15.9968 2.55189 16.0839 2.55224C17.6208 2.55714 17.6208 2.55713 17.6208 4.12977C17.6208 5.43634 17.6208 5.43634 16.3429 5.43634C15.9077 5.43634 15.472 5.43634 15.036 5.43634Z" fill="#737373"/>
<path d="M59.5567 3.15452C58.5847 3.16605 57.8847 2.53567 57.8666 1.63258C57.8484 0.729483 58.5365 0.028127 59.4665 0.000855866C60.4356 -0.0274642 61.1748 0.650119 61.1839 1.57489C61.1933 2.48603 60.5164 3.14298 59.5567 3.15452Z" fill="#484848"/>
<path d="M23.161 13.2223C23.161 9.86758 23.161 6.51252 23.1606 3.15782C23.3267 3.00678 23.4907 3.00049 23.6526 3.16412C23.6526 6.51497 23.6526 9.86548 23.6526 13.2163C23.491 13.3807 23.3271 13.3744 23.161 13.2223Z" fill="#484848"/>
<path d="M12.0938 4.01493C12.0938 4.18939 12.0885 4.36421 12.0948 4.53868C12.1287 5.47289 12.1294 5.45016 11.2029 5.46205C10.7501 5.46765 10.5792 5.32919 10.6033 4.86628C10.6362 4.23519 10.6285 3.60027 10.6075 2.96813C10.5844 2.27167 11.0935 2.51571 11.4319 2.48984C11.7711 2.46397 12.1686 2.39195 12.1228 2.96919C12.0955 3.31567 12.1179 3.66635 12.1179 4.01493C12.1098 4.01493 12.1018 4.01493 12.0938 4.01493Z" fill="#484848"/>
<path d="M23.6528 3.16236C23.4889 3.16027 23.3249 3.15817 23.1606 3.15607C23.1578 2.50471 23.1522 1.85335 23.1543 1.20199C23.1546 1.03312 23.1326 0.825085 23.3808 0.806205C23.6777 0.783829 23.6658 1.01318 23.6654 1.20828C23.6651 1.85999 23.6577 2.51135 23.6528 3.16236Z" fill="#484848"/>
<path d="M23.1611 13.2211C23.3251 13.219 23.4891 13.2169 23.653 13.2148C23.6576 13.8008 23.6635 14.3868 23.6656 14.9728C23.6663 15.1616 23.6261 15.3305 23.381 15.3112C23.1758 15.2951 23.1552 15.1368 23.1548 14.9794C23.1545 14.3934 23.1587 13.8071 23.1611 13.2211Z" fill="#484848"/>
<path d="M6.10749 7.06257C7.79341 7.05139 9.10697 8.31845 9.10068 9.94982C9.09473 11.5158 7.76509 12.8147 6.14351 12.8381C4.57611 12.8605 3.1706 11.5239 3.13878 9.98059C3.10592 8.37439 4.42962 7.07341 6.10749 7.06257Z" fill="white"/>
<path d="M32.1675 9.18018C32.1675 7.61174 32.1675 7.61175 33.7593 7.753C34.7894 7.84425 35.2184 8.27814 35.2082 9.21899C35.1984 10.1242 34.7219 10.5686 33.695 10.6308C32.1675 10.7231 32.1675 10.7231 32.1675 9.18018Z" fill="white"/>
<path d="M32.1695 4.34619C32.1674 3.0155 32.1674 3.0155 33.6978 3.09417C34.6537 3.14312 35.0176 3.55603 34.9624 4.50842C34.9288 5.08636 34.6509 5.41851 34.0722 5.53843C33.5523 5.64612 33.0335 5.58738 32.5146 5.60836C32.2639 5.6185 32.1611 5.50452 32.1678 5.25873C32.1755 4.95455 32.1695 4.65037 32.1695 4.34619Z" fill="white"/>
<path d="M126.836 8.46199C126.871 8.88119 126.8 9.29096 126.676 9.68499C126.453 10.3898 125.84 10.8276 125.104 10.8451C124.349 10.8629 123.787 10.4724 123.523 9.7217C123.239 8.91476 123.251 8.09382 123.495 7.28338C123.735 6.48937 124.293 6.09569 125.096 6.10163C125.915 6.10757 126.488 6.5495 126.706 7.36519C126.801 7.72216 126.873 8.08683 126.836 8.46199Z" fill="white"/>
<path d="M135.419 9.31397C135.605 9.41326 136.02 9.08251 136.138 9.49333C136.252 9.88876 136.211 10.3286 135.883 10.6531C135.445 11.0866 134.901 11.1866 134.314 11.0754C133.907 10.9981 133.653 10.7614 133.635 10.323C133.617 9.87268 133.824 9.57095 134.251 9.43914C134.606 9.329 134.973 9.27761 135.419 9.31397Z" fill="white"/>
<path d="M76.8502 7.49399C76.5247 7.49433 76.1988 7.49573 75.8733 7.49399C75.1905 7.48979 75.1272 7.3814 75.4349 6.74752C75.7509 6.09686 76.368 5.74339 77.0739 5.80842C77.7781 5.87345 78.2291 6.26328 78.4148 6.94122C78.5134 7.30169 78.492 7.53105 78.0221 7.49923C77.6333 7.47231 77.2411 7.49364 76.8502 7.49399Z" fill="white"/>
<path d="M116.745 8.50651C116.765 8.946 116.708 9.37464 116.556 9.78826C116.273 10.5553 115.723 10.9235 114.904 10.8966C114.131 10.8714 113.556 10.4197 113.36 9.64071C113.182 8.93726 113.16 8.22436 113.321 7.51006C113.525 6.60312 114.082 6.10595 114.933 6.08288C115.788 6.05945 116.379 6.52341 116.629 7.40867C116.73 7.76879 116.755 8.1359 116.745 8.50651Z" fill="white"/>
</svg>
