<svg width="104" height="16" viewBox="0 0 104 16" fill="none" xmlns="http://www.w3.org/2000/svg">
<path d="M13.4783 2.06917C13.058 1.01339 12.0342 -0.126834 10.1167 0.0298025C7.67399 0.296978 6.91279 2.65225 7.282 4.05733C6.30911 3.39452 4.65489 3.10308 3.211 4.3475C1.3467 6.22779 2.3439 8.77066 3.36875 9.3806C2.23926 9.2754 0.45413 10.0433 0.0592198 12.052C-0.360887 14.5461 1.52873 16 3.36875 16H23.7726C25.9003 16 27.0808 14.148 26.9484 12.4013C26.7396 10.1218 24.6664 9.24719 23.5355 9.43459C24.4804 8.90419 25.7422 6.41272 23.8234 4.45405C22.3003 2.99637 20.3587 3.52677 19.6759 4.16253C20.044 2.94482 19.4404 0.427644 16.9701 0.0295314C16.7993 0.0102954 16.6349 0 16.4782 0C14.5924 0.00027093 13.7444 1.38728 13.4783 2.06917Z" fill="white"/>
<path d="M3.55231 4.74442C2.4751 5.72557 2.08303 7.94874 4.02492 9.24836L11.772 14.5961L8.01568 5.93744C7.22856 3.8942 5.07521 3.44864 3.55231 4.74442Z" fill="#8E8E8E"/>
<path d="M10.2207 0.534714C8.96139 0.560529 7.07043 2.06934 7.91196 4.37333L11.797 13.5921L13.1622 3.89572C13.4781 1.48637 11.6659 0.374168 10.2207 0.534714Z" fill="#585858"/>
<path d="M13.7682 3.52515H14.5028C14.5028 3.52515 14.8951 3.52515 14.9485 3.71135C14.6594 3.94888 13.8726 3.97865 13.9771 5.24741L15.212 13.5901L19.0705 4.34707C19.8598 2.28328 18.2031 0.559703 16.7336 0.507026C16.665 0.502072 16.5961 0.498047 16.5248 0.498047C15.2058 0.498008 13.6944 1.46248 13.7682 3.52515Z" fill="#696969"/>
<path d="M18.9151 6.0161L15.2656 14.5709L23.0104 9.19492C24.7957 7.92085 24.5078 5.88392 23.5084 4.87707C23.0895 4.40317 22.3202 4.03711 21.5054 4.03711C20.5427 4.03692 19.5124 4.55068 18.9151 6.0161Z" fill="#676767"/>
<path d="M22.1405 10.4116L14.8672 15.5232H23.8227C25.66 15.5232 26.8408 13.6171 26.3159 11.868C25.9643 10.7686 24.9242 9.90554 23.717 9.9043C23.2088 9.90449 22.6699 10.0585 22.1405 10.4116Z" fill="#7A7A7A"/>
<path d="M3.34167 15.5234H12.1651L4.88992 10.4119C3.20918 9.32537 1.31934 9.96113 0.637075 11.7642C0.0587506 13.8282 1.50271 15.5234 3.34167 15.5234Z" fill="#BABABA"/>
<path d="M30.2539 8.72736C30.2539 11.0838 32.1685 15.373 39.4789 15.373C46.219 15.373 48.3477 12.2612 48.3477 10.8344H43.1297C43.1297 10.8344 42.8819 12.7195 39.9383 12.7195C36.9929 12.7195 36.1964 10.2458 36.1964 8.81547C36.1964 7.39055 36.9929 5.0505 39.9383 5.0505C42.8819 5.0505 43.1297 6.69166 43.1297 6.69166H48.3477C48.3477 5.26317 46.7858 2.19531 39.4789 2.19531C32.1685 2.19531 30.2539 6.76332 30.2539 8.72736Z" fill="#252525"/>
<path d="M84.9766 8.72736C84.9766 11.0838 86.8931 15.373 94.2016 15.373C100.941 15.373 103.071 12.2612 103.071 10.8344H97.8562C97.8562 10.8344 97.6072 12.7195 94.663 12.7195C91.7172 12.7195 90.9198 10.2458 90.9198 8.81547C90.9198 7.39055 91.7172 5.0505 94.663 5.0505C97.6072 5.0505 97.8562 6.69166 97.8562 6.69166H103.071C103.071 5.26317 101.51 2.19531 94.2016 2.19531C86.8932 2.19531 84.9766 6.76332 84.9766 8.72736Z" fill="#252525"/>
<path d="M62.6071 2.41602V10.393L56.5344 2.41602H49.7031V15.0509H54.3864V6.98224L60.3528 15.0509H67.2907V2.41602H62.6071Z" fill="#252525"/>
<path d="M77.6152 12.0324V12.049H73.713V9.7291H77.6152V9.73664C78.4484 9.73664 79.1218 10.2519 79.1218 10.8863C79.1218 11.5192 78.4484 12.0324 77.6152 12.0324ZM73.7488 4.87341H77.5088V4.87875C78.1458 4.87875 78.6624 5.30043 78.6624 5.81944C78.6624 6.34044 78.1458 6.75846 77.5088 6.75846V6.76412H73.7488V4.87341ZM81.4478 8.33372C82.3003 8.33372 84.083 7.33792 84.083 5.40876C84.083 2.66169 78.9988 2.41602 78.2189 2.41602H68.8516V15.0509H78.2189C82.7242 15.0509 84.534 13.6188 84.534 11.2275C84.534 8.83607 81.4478 8.33372 81.4478 8.33372Z" fill="#252525"/>
</svg>
