<svg width="138" height="16" viewBox="0 0 138 16" fill="none" xmlns="http://www.w3.org/2000/svg">
<g clip-path="url(#clip0_3450_403013)">
<path d="M0 0H14.9828V15.8505H0V0Z" fill="#616161"/>
<path d="M17.7383 2.13281H27.1445L27.2117 5.68673H30.0336V5.97105L28.8242 6.1132L28.757 9.31173H32.0492L31.982 6.39752L31.8477 6.1132L30.7055 5.97105V5.68673H34.8711V5.97105L33.5273 6.1132V12.297L33.5945 13.0789L33.7961 13.15L34.8711 13.221L34.9383 13.5054H30.7055L30.7727 13.221L31.7805 13.15L31.9148 13.0789L31.982 12.6524L32.0492 9.73821H28.757L28.8242 13.0789L30.0336 13.221L30.1008 13.5054H25.868L25.9352 13.221L26.943 13.15L27.2117 13.0789L27.2789 11.8706V6.1132L25.9352 5.97105V5.68673H27.0773L26.943 4.83379L26.7414 3.83869L26.4055 3.19899L26.0695 2.91468L25.3977 2.63036L24.7258 2.55928H23.5164V12.9367L24.1883 13.15L25.5992 13.2921L25.6664 13.5054H19.082V13.2921L20.3586 13.221L21.0977 13.0789L21.232 12.8657L21.2992 12.4392V2.55928H20.2914L19.4852 2.70144L18.8133 3.05683L18.4102 3.55438L18.1414 4.26517L17.8727 5.68673L17.7383 5.75781V2.13281Z" fill="#161616"/>
<path d="M103.125 2.13281H112.464L112.531 2.20389V5.68673H115.42L115.353 5.97105L114.144 6.1132L114.077 6.4686V12.7946L114.144 13.0789L115.353 13.221L115.42 13.5054H111.255V13.221L112.262 13.15L112.464 13.0789L112.531 12.7946V6.18428L112.061 6.04213L111.322 5.97105L111.187 5.75781L111.255 5.68673L112.397 5.61566L112.195 4.12301L111.927 3.41222L111.658 3.05683L111.053 2.70144L110.18 2.55928H108.903V12.8657L109.575 13.0789L110.986 13.221L111.053 13.4343H104.469L104.536 13.221L105.88 13.15L106.484 13.0078L106.619 12.7946L106.686 12.4392V2.55928H105.678L104.872 2.70144L104.334 2.98575L103.998 3.27007L103.595 4.12301L103.259 5.68673H103.125V2.13281Z" fill="#161616"/>
<path d="M45.1484 2.13281H55.2266V6.61075H54.9578L54.8234 6.04213L54.5547 4.69164L54.2187 3.76762L53.8156 3.19899L53.0094 2.77252L52.0016 2.55928H49.65L49.5156 2.63036L49.4484 3.34115L49.3812 7.32154L50.5906 7.25046L51.3969 7.03722L51.8672 6.61075L52.1359 5.82889L52.2703 4.33624H52.6062V10.9465L52.2703 10.8755L52.1359 9.38281L51.8672 8.52987L51.4641 8.03232L50.9266 7.81909L50.5234 7.74801L49.3812 7.67693L49.4484 12.4392L49.5156 12.9367L49.8516 13.0078L51.5312 13.0789L52.875 12.9367L53.6812 12.6524L54.2859 12.226L54.7562 11.4441L55.0922 10.5201L55.4281 8.81419L55.7641 8.74311L55.8312 13.5054H45.1484V13.15L46.9625 12.9367L47.0969 12.8657L47.1641 12.5813L47.2312 10.5201V5.11811L47.1641 2.91468L47.0969 2.70144L46.3578 2.55928L45.35 2.4882L45.1484 2.41713V2.13281Z" fill="#161616"/>
<path d="M1.47656 4.05078H13.5031L13.5703 4.12186V6.25421L13.3687 6.18313L13.1 5.25911L12.8312 4.83264L12.4953 4.61941L11.8906 4.47725L11.0172 4.40617L11.0844 11.3719L11.3531 11.514L12.0922 11.5851V11.7983H8.73281V11.5851L9.47187 11.514L9.74062 11.3719L9.80781 4.40617L8.93437 4.47725L8.19531 4.76157L7.85937 5.18804L7.59062 6.18313H7.38906L7.1875 5.18804L7.05312 4.76157L6.31406 4.54833L5.91094 4.47725H4.02969L3.62656 4.54833V7.53362L5.44062 7.46255L5.77656 7.24931L5.91094 6.89392L5.97812 6.25421H6.24687V9.23951H5.97812L5.84375 8.38657L5.575 8.10225L5.37344 8.03117L3.62656 7.96009L3.69375 11.2297L4.02969 11.3719H5.70937L6.38125 11.1586L6.98594 10.8032L7.32187 10.3057L7.52344 9.80813L7.65781 9.87921V11.7273L7.59062 11.7983H1.54375L1.47656 11.5851L2.14844 11.514L2.35 11.3719L2.41719 4.40617L1.54375 4.26402L1.47656 4.05078Z" fill="#FDFDFD"/>
<path d="M81.6922 5.68945H84.5141L84.7828 6.40024L86.0594 10.736L86.1266 11.1625H86.2609L86.3953 10.4517L87.7391 5.83161L87.8734 5.68945H90.7625V5.97377L89.4859 6.04485V12.9395L89.5531 13.0816L90.7625 13.2238V13.437H86.5969V13.2238L87.8062 13.1527L87.9406 13.0816V6.25808L86.7984 10.1674L86.1266 12.6551L85.925 13.437L85.6562 13.5081L85.4547 13.437L84.6484 10.8782L83.8422 8.10612L83.3047 6.32916V6.11592H83.1703L83.3047 11.9444L83.4391 12.5841L83.7078 12.9395L84.2453 13.1527L84.7156 13.2238L84.7828 13.437L82.7 13.5081H81.6922L81.625 13.2948L82.4984 13.0816L82.8344 12.7262L82.9016 12.5841V8.10612L82.8344 6.68455L82.6328 6.25808L82.2297 6.04485L81.625 5.90269L81.6922 5.68945Z" fill="#161616"/>
<path d="M27.0844 5.61719L27.2187 5.68827H30.0406V5.97258L28.8312 6.11474L28.7641 9.31327H32.0562L31.9891 6.39905L31.8547 6.11474L30.7125 5.97258V5.68827H34.8781V5.97258L33.5344 6.11474V12.2986L33.6016 13.0804L33.8031 13.1515L34.8781 13.2226L34.9453 13.5069H30.7125L30.7797 13.2226L31.7875 13.1515L31.9219 13.0804L31.9891 12.654L32.0562 9.73974H28.7641L28.8312 13.0804L30.0406 13.2226L30.1078 13.5069H25.875L25.9422 13.2226L26.95 13.1515L27.2187 13.0804L27.2859 11.8721V6.11474L25.9422 5.97258V5.68827L27.0844 5.61719Z" fill="#161616"/>
<path d="M115.637 5.68945H118.459L118.66 6.25808L120.071 11.0914L120.273 10.5228L121.482 6.25808L121.616 5.76053L121.751 5.68945H124.573V5.97377L123.632 6.04485L123.363 6.11592L123.296 7.25318V12.8684L123.363 13.0816L123.498 13.1527L124.505 13.2238L124.573 13.5081H120.541L120.474 13.2948L121.751 13.1527L121.818 13.0816V6.187L120.609 10.4517L119.87 13.3659L119.802 13.5081H119.399L119.198 13.0105L117.787 8.1772L117.249 6.25808V6.11592H117.115L117.249 11.7311L117.384 12.5841L117.585 12.9395L118.055 13.1527L118.593 13.2238L118.727 13.437L118.593 13.5081L115.704 13.5792V13.2948L116.443 13.1527L116.779 12.7973L116.913 12.2997V11.0914L116.846 7.25318L116.779 6.61347L116.51 6.187L116.241 6.04485L115.637 5.90269V5.68945Z" fill="#161616"/>
<path d="M35.0117 5.68945H41.9992V8.8169H41.7977L41.6633 8.24828L41.4617 7.32426L41.1258 6.61347L40.7898 6.32916L40.2523 6.11592L39.8492 6.04485H38.1023L38.0352 6.25808L37.968 9.24337L38.9758 9.1723L39.5805 8.88798L39.8492 8.10612L39.9164 7.25318L40.1852 7.1821V11.7311L39.9164 11.66L39.8492 10.736L39.6477 10.0963L39.3117 9.74092L38.9086 9.59877L37.968 9.52769L38.0352 13.1527H40.0508L40.857 12.9395L41.3945 12.513L41.7977 11.66L42.1336 10.2385L42.4023 10.3096V13.5081H35.0117V13.2238L36.0195 13.1527L36.3555 13.0105L36.4227 12.8684V6.25808L36.3555 6.11592L36.0867 6.04485L35.0789 5.97377L35.0117 5.68945Z" fill="#161616"/>
<path d="M78.0789 5.54883H79.4898L80.1617 5.83314L80.7664 6.25961L81.1695 6.615L81.6398 7.32579L81.9758 8.10765L82.1773 9.17383V9.95569L81.9758 11.0929L81.5727 11.9459L81.0352 12.6567L80.4305 13.1542L79.7586 13.5096L79.1539 13.6518H78.0789L77.3398 13.3675L76.8023 13.0121L76.2648 12.5145L75.7273 11.6616L75.3914 10.6665L75.3242 10.1689V9.10275L75.593 7.96549L76.0633 7.04148L76.8023 6.18853L77.4742 5.76206L78.0789 5.54883ZM78.482 5.76206L77.9445 5.9753L77.6086 6.25961L77.2727 6.82824L77.0039 7.75226L76.8695 9.17383L76.9367 10.7376L77.2055 11.9459L77.6086 12.7988L78.0789 13.2253L78.3477 13.3675H79.2211L79.7586 13.0121L80.1617 12.5145L80.4305 11.7327L80.5648 10.8797V8.67628L80.3633 7.46795L80.0273 6.615L79.557 6.04638L79.2211 5.83314L78.9523 5.76206H78.482Z" fill="#161616"/>
<path d="M65.243 5.54883H66.5867L67.3258 5.83314L67.9305 6.25961L68.5352 6.89932L68.9383 7.6101L69.207 8.39197L69.3414 9.24491L69.2742 10.4532L69.0055 11.3773L68.6023 12.1591L68.1992 12.6567L67.4602 13.2253L66.6539 13.5807L66.318 13.6518H65.243L64.4367 13.3675L63.6977 12.7988L63.1602 12.1591L62.6898 11.164L62.4883 10.3822V8.88951L62.757 7.96549L63.1602 7.11255L63.8992 6.25961L64.6383 5.76206L65.243 5.54883ZM65.6461 5.76206L65.1086 5.9753L64.7055 6.33069L64.3023 7.18363L64.1008 8.10765L64.0336 8.74736V10.0978L64.168 11.2351L64.4367 12.1591L64.7727 12.7988L65.3102 13.2964L65.5117 13.3675H66.318L66.8555 13.0831L67.2586 12.5856L67.5273 11.9459L67.7289 10.8086V8.81844L67.5273 7.53902L67.1914 6.615L66.6539 5.9753L66.1164 5.76206H65.6461Z" fill="#161616"/>
<path d="M124.836 5.68945H131.42V8.74583H131.219L130.883 7.1821L130.547 6.54239L130.211 6.25808L129.472 6.04485L127.994 5.97377H127.658L127.591 9.24337L128.464 9.1723L129.002 8.95906L129.203 8.74583L129.405 7.96396L129.472 7.1821L129.741 7.25318V11.7311H129.472L129.337 10.5228L129.069 9.88308L128.531 9.59877L127.591 9.52769L127.658 13.1527H129.472L130.278 12.9395L130.816 12.5841L131.152 11.8733L131.487 10.5228L131.555 10.2385L131.823 10.3096V13.5081H124.836V13.2238L125.978 13.0816L126.112 12.8684V6.25808L125.911 6.04485L124.836 5.97377V5.68945Z" fill="#161616"/>
<path d="M68.4031 5.68945H70.7547L71.6953 6.96886L72.6359 8.31935L73.5766 9.59877L74.5172 10.9493V7.39534L74.3828 6.68455L74.1141 6.25808L73.6437 6.04485L72.9719 5.90269L73.0391 5.68945H76.1297L76.1969 5.90269L75.3906 6.11592L75.0547 6.40024L74.9203 6.75563L74.8531 7.32426V13.6502L74.7187 13.7213L74.45 13.437L73.5094 11.9444L72.4344 10.4517L71.4937 9.10122L70.15 7.25318L70.0828 7.1821L70.15 11.3757L70.2844 12.3708L70.5531 12.8684L71.0234 13.0816L71.7625 13.2238V13.437L69.7469 13.5081H68.4703L68.5375 13.2238L69.3437 12.9395L69.6797 12.5841L69.8141 12.0865V8.46151L69.7469 6.61347L69.4109 6.187L69.075 6.04485L68.4703 5.97377L68.3359 5.90269L68.4031 5.68945Z" fill="#161616"/>
<path d="M133.629 5.47461H134.502L135.241 5.75892L135.779 6.18539L135.98 6.39863L136.249 6.25647L136.652 5.47461H136.787V8.53098H136.585L136.115 7.18049L135.577 6.39863L134.973 5.97216L134.57 5.83H133.495L132.957 6.18539L132.688 6.75402V7.32265L132.957 7.89128L133.763 8.31775L135.577 8.8153L136.384 9.17069L136.988 9.66824L137.324 10.379L137.391 10.7344V11.7295L137.19 12.4403L136.787 13.0089L136.384 13.3643L135.712 13.6486H134.57L133.898 13.3643L133.226 12.7246L132.957 12.5825L132.554 13.2222L132.352 13.6486H132.218L132.151 13.0089V10.4501L132.218 10.0947L132.42 10.1658L132.89 11.5874L133.293 12.2981L133.763 12.8668L134.301 13.2222L134.771 13.3643H135.577L136.115 13.08L136.384 12.7246L136.518 12.3692V11.5874L136.182 10.8766L135.51 10.5212L133.36 9.81039L132.688 9.38392L132.352 9.02853L132.084 8.60206L131.949 8.03343V7.25157L132.218 6.46971L132.755 5.83L133.293 5.54569L133.629 5.47461Z" fill="#161616"/>
<path d="M100.519 5.33203L100.653 5.40311V9.09919H100.452L100.317 8.67272L100.048 7.46438L99.5781 6.46929L99.1078 6.04282L98.4359 5.82958H97.9656L97.4281 6.04282L97.025 6.39821L96.6891 7.10899L96.4875 7.89085L96.4203 8.31732V10.8051L96.6219 11.8002L97.0922 12.7953L97.6969 13.2217L97.9656 13.2928H98.7719L99.5109 13.0085L100.116 12.4399L100.452 11.658L100.72 10.1654H100.922V10.9472L100.72 11.8002L100.317 12.6531L99.8469 13.1507L99.175 13.506L98.6375 13.6482H97.6297L96.8234 13.435L96.1516 13.0085L95.6141 12.4399L95.1437 11.5869L94.875 10.3786V9.09919L95.0766 8.03301L95.5469 7.03791L96.0172 6.39821L96.7562 5.82958L97.4953 5.54527H98.7719L99.4437 5.90066L99.9141 6.32713L100.25 5.7585L100.519 5.33203Z" fill="#161616"/>
<path d="M61.7523 5.40625H61.9539V9.10233H61.7523L61.5508 8.17831L61.2148 7.04105L60.8117 6.40135L60.2742 5.97488L59.7367 5.83272H59.2664L58.7289 6.04596L58.393 6.40135L58.057 6.96998L57.8555 7.60968L57.7211 8.5337V10.595L57.9227 11.7322L58.1914 12.443L58.6617 13.0116L59.2664 13.296H60.0727L60.6773 13.0827L61.0805 12.7984L61.5508 12.2298L61.8195 11.519L62.0211 10.2396H62.2898L62.1555 11.4479L61.8195 12.3719L61.4836 12.8695L60.9461 13.296L60.2742 13.5803L59.9383 13.6513H58.9305L58.1914 13.4381L57.6539 13.1538L56.982 12.5141L56.5789 11.8033L56.3102 11.0214L56.1758 10.0974V9.31556L56.3773 8.10723L56.9148 6.96998L57.5195 6.25919L58.1914 5.76164L58.7961 5.54841H60.0727L60.8789 5.97488L61.282 6.33027L61.7523 5.40625Z" fill="#161616"/>
<path d="M112.397 5.61719L115.42 5.68827L115.353 5.97258L114.144 6.11474L114.077 6.47013V12.7961L114.144 13.0804L115.353 13.2226L115.42 13.5069H111.255V13.2226L112.262 13.1515L112.464 13.0804L112.531 12.7961V6.18581L112.061 6.04366L111.322 5.97258L111.188 5.75934L111.255 5.68827L112.397 5.61719Z" fill="#161616"/>
<path d="M91.1062 5.68945H95.3391L95.2719 5.97377L94.0625 6.11592L93.9953 6.187L93.9281 7.75073V11.5179L93.9953 13.0816L95.3391 13.2238V13.437H91.0391L91.1062 13.2238L92.3156 13.0816L92.3828 12.7973L92.45 9.88308V8.24828L92.3828 6.187L91.9125 6.04485L91.1062 5.97377V5.68945Z" fill="#161616"/>
</g>
<defs>
<clipPath id="clip0_3450_403013">
<rect width="137.6" height="16" fill="white"/>
</clipPath>
</defs>
</svg>
