<svg width="83" height="16" viewBox="0 0 83 16" fill="none" xmlns="http://www.w3.org/2000/svg">
<g clip-path="url(#clip0_3450_402997)">
<path d="M0.112546 10.8599L1.14828 10.7036V1.16195L0 1.02785L0.0675276 -1.45376e-05H7.31757L7.13743 2.88257L5.6964 2.83788L5.60636 1.02785H3.35482V5.31822H4.34548L4.57069 4.33504L5.56129 4.35733V7.30691H4.57069L4.32296 6.30146H3.3323V10.8375H5.60636L5.80907 8.87114L7.34014 8.91583L7.45262 11.9102H0.0675276L0.112546 10.8599Z" fill="#100F0D"/>
<path d="M8.12911 11.9551L8.17418 11.0836L8.9847 10.9273V4.91629L8.03906 4.82694V3.93311L10.4257 3.59796L10.6058 4.11183V4.44704C11.1687 3.84376 11.8667 3.48615 12.7673 3.48615C14.0733 3.48615 15.0189 4.26826 15.0189 5.81012V10.9273L15.8745 11.0836L15.8295 11.9551H13.015V6.21239C13.015 5.38554 12.7224 4.91629 11.9567 4.91629C11.7091 4.91629 11.529 4.96104 11.3263 5.02805C11.2138 5.13975 11.0786 5.27384 10.9886 5.40789V10.9049L11.8443 11.0614L11.7767 11.9329L8.12911 11.9551Z" fill="#100F0D"/>
<path d="M53.6332 11.9551L53.6781 11.0836L54.4887 10.9273V4.91629L53.543 4.82694V3.93311L55.9296 3.59796L56.1099 4.11183V4.44704C56.6726 3.84376 57.3707 3.48615 58.2713 3.48615C59.5772 3.48615 60.523 4.26826 60.523 5.81012V10.9273L61.3785 11.0836L61.3334 11.9551H58.519V6.21239C58.519 5.38554 58.2262 4.91629 57.4607 4.91629C57.2132 4.91629 57.0328 4.96104 56.8304 5.02805C56.7179 5.13975 56.5827 5.27384 56.4925 5.40789V10.9049L57.3481 11.0614L57.2806 11.9329L53.6332 11.9551Z" fill="#100F0D"/>
<path d="M20.3549 11.7758C20.0172 11.9099 19.4318 12.0664 18.6662 12.0664C17.6531 12.0664 16.73 11.6194 16.73 10.1445V4.87106L15.7617 4.71469L15.8067 3.66437L16.8876 3.6197L17.3603 2.01084L18.7563 1.94383V3.66437H20.2423L20.1297 4.71469L18.7563 4.87106V10.1223C18.7563 10.5468 19.0039 10.8373 19.4543 10.8373H20.2649L20.3549 11.7758Z" fill="#100F0D"/>
<path d="M76.711 11.9551L76.7561 11.0836L77.5216 10.9049V4.89396L76.6211 4.80459V3.91078L79.0976 3.57556L79.2554 4.15658V4.35763C79.9082 3.88838 80.7864 3.57556 81.8221 3.57556L82.1823 3.88838L81.9347 6.14533L80.5838 6.10058L80.4487 4.89396C80.1334 4.93869 79.8406 5.02805 79.5707 5.20682V10.9049L80.4262 11.0836L80.3586 11.9551H76.711Z" fill="#100F0D"/>
<path d="M41.2502 11.9551L41.2953 11.0836L42.0608 10.9049V4.89396L41.1602 4.80459V3.91078L43.6368 3.57556L43.7945 4.15658V4.35763C44.4473 3.88838 45.3254 3.57556 46.3612 3.57556L46.7214 3.88838L46.4737 6.14533L45.1229 6.10058L44.9879 4.89396C44.6726 4.93869 44.3797 5.02805 44.1097 5.20682V10.9049L44.9652 11.0836L44.8977 11.9551H41.2502Z" fill="#100F0D"/>
<path d="M20.9611 11.9551L21.0061 11.0836L21.7717 10.9049V4.89396L20.8711 4.80459V3.91078L23.3478 3.57556L23.5054 4.15658V4.35763C24.1584 3.88838 25.0365 3.57556 26.0721 3.57556L26.4325 3.88838L26.1848 6.14533L24.8338 6.10058L24.6986 4.89396C24.3834 4.93869 24.0908 5.02805 23.8207 5.20682V10.9049L24.6762 11.0836L24.6086 11.9551H20.9611Z" fill="#100F0D"/>
<path d="M28.7308 7.32912L31.2524 7.21731C31.2074 6.21185 31.0047 4.62527 30.014 4.62527C29.7664 4.62527 29.6087 4.66994 29.3161 4.82639C28.8884 5.49675 28.7308 6.74806 28.7308 7.32912ZM28.7757 8.2899C28.7757 9.71998 29.4062 10.8373 30.667 10.8373C31.32 10.8373 31.8153 10.7033 32.4233 10.4127L32.761 11.1949C32.153 11.6865 31.2299 12.0664 30.1041 12.0664C27.8975 12.0664 26.6367 10.1893 26.6367 7.75364C26.6367 5.69787 27.5598 3.44098 30.0591 3.44098C32.2657 3.44098 33.0761 5.45207 33.0761 7.70889L32.8735 8.24522L28.7757 8.2899Z" fill="#100F0D"/>
<path d="M63.719 7.32912L66.2407 7.21731C66.1956 6.21185 65.993 4.62527 65.0023 4.62527C64.7546 4.62527 64.597 4.66994 64.3043 4.82639C63.8765 5.49675 63.719 6.74806 63.719 7.32912ZM63.764 8.2899C63.764 9.71998 64.3945 10.8373 65.6553 10.8373C66.3081 10.8373 66.8036 10.7033 67.4114 10.4127L67.7491 11.1949C67.1413 11.6865 66.2182 12.0664 65.0924 12.0664C62.8858 12.0664 61.625 10.1893 61.625 7.75364C61.625 5.69787 62.5481 3.44098 65.0474 3.44098C67.2538 3.44098 68.0644 5.45207 68.0644 7.70889L67.8618 8.24522L63.764 8.2899Z" fill="#100F0D"/>
<path d="M49.0149 7.32912L51.5367 7.21731C51.4918 6.21185 51.2891 4.62527 50.2984 4.62527C50.0507 4.62527 49.8931 4.66994 49.6003 4.82639C49.1726 5.49675 48.9925 6.74806 49.0149 7.32912ZM49.0376 8.2899C49.0376 9.71998 49.6679 10.8373 50.9289 10.8373C51.5817 10.8373 52.0772 10.7033 52.685 10.4127L53.0227 11.1949C52.4149 11.6865 51.4918 12.0664 50.366 12.0664C48.1594 12.0664 46.8984 10.1893 46.8984 7.75364C46.8984 5.69787 47.8217 3.44098 50.321 3.44098C52.5274 3.44098 53.338 5.45207 53.338 7.70889L53.1354 8.24522L49.0376 8.2899Z" fill="#100F0D"/>
<path d="M73.7614 11.9545L73.5589 11.2395C72.9961 11.7535 72.4555 12.0664 71.6226 12.0664C70.3165 12.0664 69.1684 11.4183 69.1684 9.65296V4.66994L68.2227 4.58059V3.79846L70.9696 3.4856L71.1722 4.20069V9.40716C71.1722 10.3234 71.555 10.7926 72.2754 10.7926C72.4781 10.7926 72.7484 10.7702 72.9961 10.6809C73.1311 10.5468 73.2661 10.3905 73.3788 10.2116V4.69229L72.4106 4.60288V3.82088L75.18 3.508L75.3827 4.22311V10.9267L76.2383 11.0831L76.1258 11.9545H73.7614Z" fill="#100F0D"/>
<path d="M40.5726 7.55342C40.5726 5.0284 39.8296 3.44188 37.9383 3.44188C36.6998 3.44188 36.092 4.15692 35.8669 4.44739V4.20159L35.6642 3.4865L33.1875 3.82171V4.69319L34.1331 4.80494V14.9944L33.3225 15.1509L33.2775 16H36.9025L36.9701 15.1509L36.1144 14.9944V11.7767C36.4523 11.9778 36.9475 12.0895 37.4654 12.0895C40.55 12.0673 40.5726 8.96129 40.5726 7.55342ZM37.1952 10.8605C36.7674 10.8605 36.4072 10.7935 36.1371 10.6372V5.36355C36.2496 5.18483 36.3847 5.0284 36.5197 4.87195C36.7674 4.7826 36.9926 4.76021 37.2627 4.76021C38.3886 4.76021 38.5913 5.89988 38.5913 7.9333C38.5913 9.89966 38.2985 10.436 38.2085 10.6594C37.9157 10.7935 37.6004 10.8605 37.1952 10.8605Z" fill="#100F0D"/>
<path d="M81.5078 11.4423V11.554H81.5303C81.5754 11.554 81.5979 11.5316 81.5979 11.4869C81.5979 11.4423 81.5754 11.4423 81.5078 11.4423ZM81.3502 11.7551V11.6881L81.3953 11.6657V11.4199H81.3502V11.3528H81.5528C81.643 11.3528 81.7105 11.3752 81.7105 11.4645C81.7105 11.5316 81.6879 11.554 81.643 11.5762C81.6653 11.621 81.6879 11.6433 81.7105 11.6657H81.7329V11.7327H81.6203C81.5979 11.7103 81.5528 11.6657 81.5303 11.5986H81.5078V11.6657L81.5528 11.6881V11.7551H81.3502ZM81.5303 11.8668C81.6879 11.8668 81.8231 11.7551 81.8231 11.5762C81.8231 11.3975 81.7105 11.2858 81.5303 11.2858C81.3727 11.2858 81.2375 11.3975 81.2375 11.5762C81.2375 11.7551 81.3727 11.8668 81.5303 11.8668ZM81.5303 11.1741C81.778 11.1741 81.9356 11.3304 81.9356 11.5762C81.9356 11.8222 81.778 11.9785 81.5303 11.9785C81.2826 11.9785 81.125 11.822 81.125 11.5762C81.125 11.3528 81.2826 11.1741 81.5303 11.1741Z" fill="#100F0D"/>
</g>
<defs>
<clipPath id="clip0_3450_402997">
<rect width="82.1818" height="16" fill="white"/>
</clipPath>
</defs>
</svg>
