<svg width="72" height="72" viewBox="0 0 72 72" fill="none" xmlns="http://www.w3.org/2000/svg">
<path d="M59.6919 56.1596C59.711 49.3353 50.1756 43.7764 38.3939 43.7434C26.6123 43.7104 17.0459 49.2159 17.0268 56.0401C17.0077 62.8643 26.5431 68.4232 38.3247 68.4562C50.1064 68.4892 59.6728 62.9838 59.6919 56.1596Z" fill="#E4EAEE"/>
<path d="M52.2223 26.6139C51.8866 26.5655 51.6534 26.2542 51.7016 25.9183C51.7498 25.5823 52.0611 25.3487 52.3973 25.3968C53.0765 25.4939 53.8061 25.2221 54.2558 24.7045C54.4541 24.4766 54.5977 24.2015 54.6796 23.9089C54.58 23.9103 54.4803 23.9065 54.3807 23.8969C53.8307 23.8439 53.3491 23.6259 53.027 23.2825C52.5877 22.8143 52.473 22.1168 52.7479 21.5867C53.0952 20.9173 54.0075 20.6443 54.7412 20.9909C55.2155 21.2148 55.5851 21.6481 55.7973 22.2228C55.9779 22.0604 56.1241 21.8616 56.2165 21.6384C56.4883 20.9809 56.2794 20.1442 55.7304 19.692C55.4682 19.4761 55.4308 19.0887 55.6467 18.8265C55.8628 18.5643 56.2501 18.527 56.5121 18.7428C57.4769 19.5376 57.8305 20.953 57.3527 22.1081C57.0886 22.7474 56.5879 23.2632 55.9826 23.5763C55.9306 24.2824 55.6551 24.9692 55.184 25.5113C54.4562 26.3487 53.3217 26.7711 52.2234 26.614C52.2228 26.6139 52.2223 26.6139 52.2223 26.6139ZM54.1184 22.0738C53.9945 22.056 53.8674 22.0983 53.8392 22.1526C53.8078 22.213 53.8373 22.3495 53.9234 22.4413C54.0391 22.5646 54.2457 22.648 54.4974 22.6728C54.5496 22.6778 54.6019 22.6799 54.6543 22.6794C54.5564 22.4001 54.3961 22.1877 54.2157 22.1025C54.1851 22.088 54.1519 22.0787 54.1184 22.0738Z" fill="#2B5895"/>
<path d="M25.9997 58.1686C26.1511 57.4633 25.7686 56.7249 24.8463 56.1737C23.2332 55.2093 20.5803 55.1826 18.9208 56.1138L18.5312 53.1655C20.4165 52.1077 23.4302 52.1381 25.2625 53.2334C26.3102 53.8596 26.745 54.6986 26.5727 55.4998C26.3817 56.3894 26.1907 57.279 25.9997 58.1686Z" fill="#00357C"/>
<path d="M17.1245 55.473C16.9521 54.6473 17.4235 53.7872 18.5322 53.165L18.9217 56.1133C17.9458 56.6609 17.5308 57.4179 17.6826 58.1449C17.4965 57.2541 17.3105 56.3636 17.1245 55.473Z" fill="#00357C"/>
<path d="M18.5332 53.165C18.322 53.2894 18.1036 53.4181 17.8614 53.6339C17.6029 53.8641 17.454 54.0669 17.3747 54.1963C17.3171 54.2906 17.1819 54.5114 17.1209 54.8213C17.1021 54.9168 17.0895 55.0471 17.0899 55.1446C17.0904 55.2421 17.1091 55.3715 17.1243 55.4679L17.1251 55.4717C16.9534 54.6464 17.4249 53.7869 18.5332 53.165Z" fill="#2B5895"/>
<path d="M26.5738 55.4917C26.5914 55.3983 26.6131 55.272 26.61 55.1769C26.6084 55.1296 26.611 55.066 26.6049 55.019C26.5925 54.9244 26.578 54.7965 26.5483 54.7057C26.4926 54.5357 26.459 54.4332 26.3511 54.2507C26.2148 54.0203 26.0473 53.8465 26.0288 53.8273C25.9654 53.7625 25.7972 53.5904 25.5986 53.4486C25.3345 53.2601 25.2968 53.24 24.9366 53.0477C24.7219 52.9331 24.414 52.8257 24.1855 52.7422C24.0627 52.6973 23.8928 52.6566 23.7674 52.6203C23.7618 52.6187 23.1852 52.4566 22.3953 52.4032C22.1324 52.3854 21.5967 52.3654 20.9641 52.4309C20.5169 52.4772 20.0687 52.5674 19.6319 52.6987C19.5112 52.735 19.3503 52.7857 19.2341 52.8348C19.0196 52.9251 18.7382 53.0563 18.5312 53.1626C20.4165 52.1048 23.4302 52.1352 25.2627 53.2306C26.3099 53.8566 26.7446 54.6949 26.5731 55.4959C26.5731 55.4948 26.5736 55.4931 26.5738 55.4917Z" fill="#2B5895"/>
<path d="M26.0281 57.8697C26.0319 56.5292 24.1588 55.4372 21.8446 55.4307C19.5303 55.4242 17.6512 56.5057 17.6474 57.8462C17.6437 59.1867 19.5167 60.2787 21.831 60.2852C24.1452 60.2917 26.0244 59.2102 26.0281 57.8697Z" fill="#00357C"/>
<path d="M26.0329 47.7839C27.3118 48.5485 27.8426 49.5722 27.6332 50.5504L26.5749 55.4932C26.5902 55.3994 26.6142 55.2735 26.611 55.1785C26.6094 55.1311 26.6121 55.0675 26.606 55.0206C26.5935 54.9259 26.5791 54.798 26.5494 54.7072C26.4936 54.5372 26.4601 54.4347 26.3522 54.2522C26.2159 54.0218 26.0484 53.848 26.0299 53.8288C25.9665 53.764 25.7983 53.5919 25.5997 53.4501C25.3356 53.2616 25.2978 53.2415 24.9377 53.0492C24.723 52.9346 24.4151 52.8272 24.1866 52.7437C24.0638 52.6988 23.8938 52.6581 23.7684 52.6218C23.7628 52.6202 23.1862 52.4581 22.3964 52.4047C22.1335 52.3869 21.5978 52.367 20.9651 52.4325C20.518 52.4787 20.0698 52.5689 19.6329 52.7002C19.5122 52.7366 19.3513 52.7872 19.2352 52.8363C19.0207 52.9266 18.7393 53.0578 18.5323 53.1642C18.3164 51.5252 18.0286 49.3397 17.8125 47.7008C20.1145 46.4091 23.795 46.4463 26.0329 47.7839Z" fill="#2B5895"/>
<path d="M16.0889 50.5183C15.8791 49.5102 16.455 48.4606 17.8084 47.7012L18.5282 53.1645C18.317 53.2889 18.0987 53.4176 17.8564 53.6333C17.5979 53.8636 17.4491 54.0664 17.3698 54.1958C17.3121 54.2901 17.1769 54.5109 17.116 54.8208C17.0971 54.9163 17.0845 55.0466 17.0849 55.1441C17.0854 55.2415 17.1041 55.371 17.1193 55.4674C16.8103 53.9825 16.3981 52.003 16.0889 50.5183Z" fill="#2B5895"/>
<path d="M18.5519 53.171C20.4268 52.119 23.4243 52.1492 25.2467 53.2386C27.0692 54.3281 27.0265 56.0643 25.1516 57.1163C23.2767 58.1684 20.2792 58.1382 18.4567 57.0487C16.6342 55.9593 16.6768 54.2231 18.5519 53.171Z" fill="#2B5895"/>
<path d="M18.5519 53.171C20.4268 52.119 23.4243 52.1492 25.2467 53.2386C27.0692 54.3281 27.0265 56.0643 25.1516 57.1163C23.2767 58.1684 20.2792 58.1382 18.4567 57.0487C16.6342 55.9593 16.6768 54.2231 18.5519 53.171Z" fill="#00357C"/>
<path d="M17.6831 58.1446C17.497 57.2539 17.311 56.3633 17.125 55.4727C17.2459 56.051 17.6824 56.6124 18.4371 57.0636C20.2696 58.1589 23.2834 58.1895 25.1684 57.1315C25.9757 56.6784 26.4453 56.0992 26.5742 55.499C26.3831 56.3886 26.192 57.2781 26.0009 58.1678C25.8874 58.6962 25.4741 59.2061 24.7634 59.6048C23.1038 60.536 20.4509 60.5093 18.8378 59.5449C18.1737 59.1479 17.7893 58.6538 17.6831 58.1446Z" fill="#00357C"/>
<path d="M18.5283 53.1655L18.5463 53.1718C16.6714 54.2238 16.6288 55.96 18.4513 57.0495C20.2738 58.1389 23.2712 58.1693 25.1463 57.1171C27.0212 56.065 27.0638 54.3288 25.2413 53.2394C23.4188 52.15 20.4212 52.1196 18.5463 53.1718L18.5283 53.1655C20.4135 52.1077 23.4273 52.1381 25.2596 53.2334C27.0921 54.3288 27.0493 56.0745 25.1641 57.1323C23.2789 58.1901 20.2651 58.1597 18.4328 57.0643C16.6003 55.969 16.6431 54.2233 18.5283 53.1655Z" fill="#00357C"/>
<path d="M18.5463 53.1718C16.6714 54.2238 16.6288 55.96 18.4513 57.0495C20.2738 58.1389 23.2712 58.1693 25.1463 57.1171C27.0212 56.065 27.0638 54.3288 25.2413 53.2394C23.4186 52.15 20.4212 52.1196 18.5463 53.1718L18.5283 53.1655C20.4135 52.1077 23.4273 52.1381 25.2596 53.2334C27.0921 54.3288 27.0493 56.0745 25.1641 57.1323C23.2789 58.1901 20.2651 58.1597 18.4328 57.0643C16.6003 55.969 16.6431 54.2233 18.5283 53.1655L18.5463 53.1718Z" fill="#2B5895"/>
<path d="M25.1702 57.1286C25.3041 57.0553 25.7674 56.7859 26.1017 56.3976C26.4512 55.9915 26.5267 55.6925 26.5764 55.4948L26.5756 55.4991C26.447 56.0998 25.9775 56.6794 25.1696 57.1327C23.2844 58.1905 20.2706 58.1601 18.4383 57.0647C17.6831 56.6132 17.2464 56.0513 17.1259 55.4726C17.1257 55.4714 17.1253 55.4698 17.125 55.4688C17.1853 55.7147 17.3262 56.2908 18.1886 56.9C18.5893 57.183 19.0383 57.3669 19.1243 57.401C19.6424 57.6058 19.9693 57.681 20.3747 57.7644C20.6506 57.8214 21.0254 57.8561 21.3056 57.8836C21.4485 57.8975 21.6404 57.8967 21.784 57.9023C22.0699 57.9134 22.4532 57.8942 22.7368 57.8565C22.8757 57.8382 23.0621 57.8203 23.1994 57.7929C23.4621 57.7403 23.8124 57.667 24.0692 57.5901C24.6364 57.4207 25.0241 57.2085 25.1702 57.1286Z" fill="#2B5895"/>
<path d="M27.6299 50.5512C27.8391 49.573 27.3081 48.5495 26.0294 47.7849C23.7915 46.4471 20.111 46.4099 17.8088 47.7018L17.457 45.0307C19.963 43.6244 23.9693 43.665 26.4052 45.1212C27.7972 45.9533 28.3752 47.0675 28.1474 48.1323C27.9748 48.9386 27.8023 49.7449 27.6299 50.5512Z" fill="#2B5895"/>
<path d="M15.5887 48.0986C15.3604 47.0015 15.9873 45.8589 17.4603 45.0322L17.8121 47.7033C16.4587 48.4628 15.8828 49.5124 16.0926 50.5202C15.9246 49.7129 15.7567 48.9057 15.5887 48.0986Z" fill="#2B5895"/>
<path d="M18.4366 57.0578C18.3114 56.985 17.8787 56.7176 17.5667 56.3391C17.2412 55.9442 17.1708 55.6563 17.1241 55.4657L16.0938 50.5166C16.2408 51.2233 16.7743 51.9096 17.6965 52.4609C19.9344 53.7987 23.6149 53.8359 25.9171 52.544C26.9036 51.9905 27.477 51.2825 27.6341 50.5491C27.3088 52.0677 27.0292 54.1344 26.5459 55.6102C26.4937 55.7698 26.422 55.9883 26.1883 56.2891C25.9712 56.5686 25.7022 56.7777 25.5613 56.8774C25.133 57.1805 24.6587 57.406 24.0683 57.5873C23.1655 57.8645 22.2988 57.8893 22.2623 57.8902C21.9751 57.8975 21.5913 57.8999 21.3047 57.8804C21.0238 57.8612 20.649 57.8212 20.3739 57.7613C20.1138 57.7047 19.7646 57.632 19.5145 57.541C19.3971 57.4984 19.2375 57.4488 19.1236 57.3976C18.9136 57.304 18.6352 57.1735 18.4366 57.0578Z" fill="#2B5895"/>
<path d="M28.1975 47.6817C28.2031 45.6574 25.3746 44.0084 21.8798 43.9987C18.3849 43.9889 15.5472 45.6219 15.5415 47.6462C15.5358 49.6705 18.3644 51.3195 21.8592 51.3292C25.3541 51.339 28.1918 49.706 28.1975 47.6817Z" fill="#2B5895"/>
<path d="M16.0938 50.5173C15.9257 49.71 15.7579 48.9029 15.5898 48.0957C15.75 48.865 16.3304 49.612 17.3345 50.2122C19.7704 51.6684 23.7767 51.7089 26.2827 50.3027C27.3567 49.7001 27.9808 48.9294 28.1518 48.1308C27.9792 48.9371 27.8067 49.7434 27.6343 50.5497C27.4772 51.2833 26.9038 51.9912 25.9171 52.5449C23.6147 53.8368 19.9343 53.7996 17.6965 52.4618C16.7741 51.9103 16.2408 51.2241 16.0938 50.5173Z" fill="#2B5895"/>
<path d="M52.3356 57.0633C52.487 56.358 52.1045 55.6196 51.1822 55.0682C49.5692 54.1038 46.9163 54.0771 45.2567 55.0083L44.8672 52.06C46.7524 51.0022 49.7662 51.0326 51.5987 52.128C52.6463 52.7542 53.0811 53.5931 52.9089 54.3943C52.7178 55.2843 52.5267 56.1737 52.3356 57.0633Z" fill="#00357C"/>
<path d="M43.4604 54.3685C43.288 53.5428 43.7595 52.6827 44.8681 52.0605L45.2576 55.0088C44.2815 55.5564 43.8665 56.3136 44.0185 57.0404C43.8325 56.1498 43.6464 55.2591 43.4604 54.3685Z" fill="#00357C"/>
<path d="M52.3641 56.7642C52.3678 55.4237 50.4948 54.3317 48.1805 54.3253C45.8662 54.3188 43.9871 55.4002 43.9834 56.7407C43.9796 58.0813 45.8527 59.1732 48.1669 59.1797C50.4812 59.1862 52.3603 58.1047 52.3641 56.7642Z" fill="#00357C"/>
<path d="M52.918 54.0488C52.9222 52.5343 50.806 51.3006 48.1912 51.2932C45.5765 51.2859 43.4533 52.5078 43.4491 54.0223C43.4448 55.5369 45.5611 56.7706 48.1759 56.7779C50.7906 56.7852 52.9138 55.5634 52.918 54.0488Z" fill="#00357C"/>
<path d="M44.019 57.0411C43.833 56.1504 43.647 55.2598 43.4609 54.3691C43.5816 54.9475 44.0183 55.5089 44.7731 55.96C46.6055 57.0554 49.6193 57.086 51.5045 56.028C52.3119 55.5749 52.7814 54.9957 52.9103 54.3955C52.7192 55.2851 52.5281 56.1745 52.337 57.0643C52.2235 57.5927 51.8102 58.1026 51.0995 58.5013C49.4399 59.4325 46.787 59.4058 45.1739 58.4414C44.5097 58.0444 44.1252 57.5501 44.019 57.0411Z" fill="#00357C"/>
<path d="M44.8682 52.06L44.8862 52.0663C43.0112 53.1183 42.9686 54.8546 44.7911 55.944C46.6137 57.0334 49.611 57.0638 51.4859 56.0116C53.3608 54.9596 53.4035 53.2233 51.5809 52.1339C49.7584 51.0445 46.7613 51.0141 44.8862 52.0663L44.8682 52.06C46.7534 51.0022 49.7672 51.0326 51.5996 52.128C53.4321 53.2233 53.3893 54.969 51.5041 56.0268C49.6189 57.0846 46.6051 57.0542 44.7726 55.9588C42.9402 54.8635 42.9829 53.118 44.8682 52.06Z" fill="#00357C"/>
<path d="M37.445 63.4012C37.5964 62.6959 37.2139 61.9575 36.2916 61.4061C34.6785 60.4417 32.0256 60.415 30.3661 61.3462L29.9766 58.3979C31.8618 57.3401 34.8756 57.3705 36.708 58.4659C37.7557 59.0922 38.1903 59.9308 38.0182 60.7322C37.8271 61.622 37.6361 62.5116 37.445 63.4012Z" fill="#00357C"/>
<path d="M28.5737 60.7064C28.4013 59.8807 28.8727 59.0206 29.9814 58.3984L30.3709 61.3467C29.395 61.8943 28.9798 62.6515 29.1318 63.3783C28.9458 62.4875 28.7597 61.597 28.5737 60.7064Z" fill="#00357C"/>
<path d="M37.4813 63.1011C37.485 61.7606 35.612 60.6686 33.2977 60.6622C30.9834 60.6557 29.1043 61.7371 29.1005 63.0777C29.0968 64.4182 30.9698 65.5101 33.2841 65.5166C35.5984 65.5231 37.4775 64.4416 37.4813 63.1011Z" fill="#00357C"/>
<path d="M38.0313 60.3867C38.0355 58.8722 35.9193 57.6385 33.3045 57.6311C30.6897 57.6238 28.5666 58.8457 28.5624 60.3602C28.5581 61.8748 30.6744 63.1085 33.2891 63.1158C35.9039 63.1231 38.027 61.9013 38.0313 60.3867Z" fill="#00357C"/>
<path d="M29.1284 63.3751C28.9424 62.4844 28.7563 61.5938 28.5703 60.7031C28.6912 61.2815 29.1277 61.8429 29.8824 62.294C31.7149 63.3894 34.7287 63.42 36.6139 62.362C37.4212 61.9089 37.8907 61.3297 38.0197 60.7295C37.8286 61.6191 37.6375 62.5087 37.4464 63.3983C37.3329 63.9267 36.9196 64.4365 36.2088 64.8353C34.5493 65.7665 31.8964 65.7398 30.2833 64.7754C29.619 64.3785 29.2348 63.8842 29.1284 63.3751Z" fill="#00357C"/>
<path d="M29.9815 58.3979L29.9994 58.4042C28.1245 59.4562 28.0819 61.1925 29.9044 62.2819C31.7269 63.3713 34.7243 63.4017 36.5994 62.3495C38.4743 61.2974 38.5169 59.5612 36.6944 58.4718C34.8719 57.3824 31.8745 57.352 29.9996 58.4042L29.9815 58.3979C31.8667 57.3401 34.8804 57.3705 36.7129 58.4659C38.5454 59.5612 38.5026 61.3069 36.6174 62.3647C34.7321 63.4225 31.7184 63.3921 29.8859 62.2967C28.0534 61.2014 28.0962 59.4557 29.9815 58.3979Z" fill="#00357C"/>
<path d="M38.8022 51.0778C39.3678 51.6434 39.6487 52.2787 39.6487 52.9119C39.6487 52.9713 39.6466 53.0307 39.6405 53.0902C39.6364 53.1496 39.6282 53.2092 39.6179 53.2686C39.6118 53.3136 39.6015 53.3568 39.5912 53.4018C39.5891 53.4162 39.5851 53.4326 39.5809 53.4469C39.415 54.2256 39.2488 55.0044 39.0829 55.7831C38.7571 57.3017 38.4784 59.3674 37.9947 60.8428V60.8449C37.9907 60.8571 37.9865 60.8695 37.9825 60.8839V60.886C37.9825 60.89 37.9804 60.8921 37.9785 60.8942C37.9785 60.8982 37.9764 60.9024 37.9744 60.9064C37.9744 60.9064 37.9744 60.9064 37.9744 60.9085C37.9683 60.9228 37.9641 60.9371 37.958 60.9536C37.9477 60.9822 37.9355 61.0109 37.9231 61.0437C37.9231 61.0477 37.921 61.0519 37.9191 61.0559C37.917 61.0599 37.917 61.062 37.9149 61.0641C37.8985 61.0989 37.882 61.1359 37.8637 61.1749C37.8616 61.1789 37.8597 61.1831 37.8576 61.1871C37.8536 61.1932 37.8515 61.1993 37.8473 61.2035C37.8433 61.2096 37.8412 61.2138 37.8391 61.2199C37.8351 61.226 37.8309 61.2322 37.8288 61.2384C37.8144 61.2631 37.8001 61.2877 37.7837 61.3143C37.7816 61.3164 37.7816 61.3183 37.7797 61.3204C37.7757 61.3265 37.7694 61.3347 37.7654 61.3429C37.7654 61.3429 37.7654 61.3429 37.7654 61.345C37.7613 61.3511 37.7592 61.3553 37.7551 61.3593C37.7551 61.3614 37.753 61.3614 37.753 61.3633C37.753 61.3633 37.753 61.3654 37.7509 61.3674C37.7406 61.3817 37.7304 61.396 37.7201 61.4103C37.7079 61.4288 37.6936 61.4493 37.6791 61.4697C37.677 61.4737 37.6751 61.4779 37.6688 61.4819C37.6483 61.5127 37.6216 61.5434 37.5951 61.5763C37.5847 61.5906 37.5746 61.6028 37.5622 61.6152C37.5601 61.6192 37.5561 61.6255 37.55 61.6295C37.55 61.6295 37.5479 61.6295 37.5479 61.6316C37.5397 61.6398 37.5336 61.646 37.5275 61.6542C37.5152 61.6706 37.5009 61.687 37.4824 61.7034C37.4824 61.7034 37.4824 61.7034 37.4824 61.7055C37.4742 61.7137 37.466 61.724 37.4558 61.7321C37.4476 61.7382 37.4415 61.7464 37.4333 61.7546C37.4312 61.7586 37.4251 61.7649 37.4211 61.7689C37.4171 61.7729 37.415 61.775 37.4129 61.7771C37.4108 61.7792 37.4108 61.7792 37.4068 61.7811C37.3863 61.8037 37.3638 61.8241 37.3392 61.8468C37.3248 61.8611 37.3105 61.8734 37.2941 61.8858C37.2901 61.8898 37.2859 61.894 37.2819 61.898C37.2798 61.9001 37.2779 61.902 37.2758 61.9041C37.2675 61.9123 37.2572 61.9205 37.2471 61.9287C37.2431 61.9328 37.2368 61.937 37.2307 61.9431C37.2164 61.9553 37.202 61.9656 37.1877 61.9778C37.1734 61.9901 37.1591 62.0004 37.1448 62.0126C37.1386 62.0166 37.1344 62.0208 37.1283 62.0248C37.1262 62.0248 37.1243 62.0269 37.1222 62.0288C37.1182 62.035 37.1119 62.0391 37.1058 62.0411C37.1037 62.0451 37.1018 62.0472 37.0997 62.0472C37.0812 62.0594 37.0648 62.0718 37.0485 62.084C37.0218 62.1066 36.9952 62.1251 36.9666 62.1434C36.9584 62.1495 36.9502 62.1537 36.942 62.1598C36.9234 62.1742 36.9051 62.1885 36.8845 62.1988C36.8723 62.207 36.8599 62.2152 36.8476 62.2234C36.8415 62.2274 36.8354 62.2316 36.8272 62.2356C36.8108 62.2479 36.7944 62.2582 36.7779 62.2685C36.7758 62.2685 36.7758 62.2706 36.7739 62.2706C36.7718 62.2727 36.7678 62.2746 36.7657 62.2767C36.739 62.2931 36.7124 62.3095 36.6838 62.3239C36.6634 62.3382 36.6408 62.3506 36.6181 62.3628C36.5238 62.4161 36.4255 62.4673 36.325 62.5125C36.3147 62.5165 36.3046 62.5207 36.2943 62.5268C36.2717 62.535 36.2492 62.5453 36.2267 62.5576C36.2042 62.5679 36.1795 62.578 36.1549 62.5904C36.0873 62.617 36.0176 62.6479 35.9397 62.6765C35.9294 62.6805 35.9193 62.6847 35.909 62.6887C35.8803 62.701 35.8496 62.7134 35.8188 62.7235C35.4335 62.865 35.0195 62.9673 34.5933 63.0349C34.3986 63.0678 34.2019 63.0924 34.001 63.1086C33.9867 63.1107 33.9724 63.1107 33.956 63.1127C33.8924 63.1167 33.8269 63.123 33.7612 63.1249C33.7079 63.1289 33.6526 63.131 33.5972 63.1331H33.5787C33.4968 63.1352 33.4188 63.1352 33.343 63.1352C32.9823 63.1373 32.6217 63.1148 32.2692 63.0676C32.1934 63.0594 32.1176 63.0491 32.0437 63.0369C32.0047 63.0307 31.9679 63.0246 31.931 63.0164C31.8941 63.0103 31.8573 63.0042 31.8224 62.996C31.808 62.9939 31.7956 62.9899 31.7834 62.9878C31.64 62.9591 31.5006 62.9284 31.3612 62.8915C31.3591 62.8894 31.3572 62.8894 31.3551 62.8894C31.2915 62.873 31.2281 62.8566 31.1666 62.8402C30.7015 62.7069 30.269 62.5245 29.8858 62.295C29.8121 62.25 29.7403 62.2049 29.6727 62.1577C29.6542 62.1455 29.6358 62.1331 29.6173 62.1209C29.6051 62.1127 29.5927 62.1024 29.5805 62.0922C29.5764 62.0922 29.5743 62.0882 29.5702 62.0861C29.5333 62.0596 29.4964 62.0308 29.4615 62.0042C29.4329 61.9817 29.4061 61.9591 29.3796 61.9366C29.3448 61.9101 29.312 61.8812 29.2812 61.8505C29.2792 61.8484 29.2751 61.8465 29.2709 61.8423L29.2648 61.8362C29.2627 61.8322 29.2587 61.828 29.2545 61.8259C29.2341 61.8074 29.2116 61.7869 29.1909 61.7665C29.1766 61.7522 29.1623 61.7378 29.1499 61.7235C29.1459 61.7195 29.1417 61.7153 29.1377 61.7092C29.1274 61.701 29.1192 61.6928 29.113 61.6846C29.1027 61.6723 29.0905 61.6599 29.0783 61.6477C29.0722 61.6437 29.068 61.6374 29.064 61.6334C29.0661 61.6313 29.0661 61.6313 29.064 61.6313C29.0557 61.6231 29.0475 61.6129 29.0414 61.6047C29.0353 61.5986 29.0292 61.5904 29.0229 61.5843C29.0208 61.5822 29.0208 61.5803 29.0189 61.5782C29.0168 61.5761 29.0168 61.5761 29.0149 61.5742C29.0046 61.5619 28.9944 61.5495 28.9841 61.5373C28.9738 61.5251 28.9637 61.5127 28.9555 61.5026C28.9494 61.4922 28.9433 61.484 28.937 61.4758C28.9247 61.4594 28.9144 61.4451 28.9041 61.4308C28.898 61.4226 28.8919 61.4143 28.8856 61.4061C28.861 61.3693 28.8365 61.3324 28.8138 61.2975C28.8098 61.2914 28.8077 61.2853 28.8035 61.2791C28.8014 61.277 28.7995 61.2751 28.7995 61.273C28.7913 61.2608 28.7852 61.2505 28.7791 61.2383C28.7791 61.2383 28.777 61.2362 28.777 61.2343C28.7709 61.222 28.7627 61.2096 28.7565 61.1974C28.7544 61.1934 28.7525 61.1892 28.7525 61.1871C28.7485 61.1789 28.7443 61.1728 28.7403 61.1646C28.7342 61.1543 28.7281 61.1441 28.7239 61.1338C28.7157 61.1153 28.7055 61.097 28.6992 61.0805C28.6931 61.0683 28.687 61.0559 28.6828 61.0437C28.6788 61.0355 28.6746 61.0294 28.6725 61.0212C28.6622 60.9986 28.6542 60.9782 28.6479 60.9557C28.6418 60.9413 28.6357 60.9289 28.6315 60.9127C28.6273 60.9024 28.6254 60.8923 28.6212 60.8819C28.6191 60.8758 28.6172 60.8676 28.6151 60.8615C28.6151 60.8554 28.613 60.8493 28.611 60.8451C28.6089 60.839 28.607 60.8329 28.6049 60.8266C28.6009 60.8184 28.5988 60.8081 28.5988 60.8C28.5927 60.7815 28.5885 60.7653 28.5845 60.7488C28.5824 60.7448 28.5824 60.7406 28.5824 60.7385C28.5803 60.7303 28.5784 60.7242 28.5763 60.716C28.5742 60.712 28.5742 60.7078 28.5742 60.7038C28.5721 60.7017 28.5721 60.7017 28.5721 60.6998L28.3876 59.8185L28.236 59.0889L28.191 58.8738L28.1234 58.5499L27.9882 57.9003L27.8549 57.2568L27.7237 56.6319L27.6172 56.1092L27.5414 55.7506C27.3794 54.9678 27.2175 54.1851 27.0556 53.4043C27.0495 53.3797 27.0434 53.355 27.0392 53.3306C27.0352 53.308 27.031 53.2876 27.0269 53.2649C27.0166 53.2116 27.0084 53.1584 27.0044 53.103C27.0002 53.0784 26.9983 53.0558 26.9983 53.0312C26.9943 52.984 26.9922 52.9349 26.9922 52.8878C26.9922 51.9329 27.6336 50.9799 28.9102 50.2627C31.4166 48.8569 35.4228 48.8978 37.8574 50.3528C38.0069 50.4429 38.1463 50.5351 38.2775 50.6295C38.4087 50.7259 38.5295 50.8242 38.6422 50.9247C38.6976 50.9753 38.7509 51.0267 38.8022 51.0778Z" fill="#2B5895"/>
<path d="M54.5313 46.5774C54.5313 46.6286 54.5292 46.6799 54.5252 46.7332C54.5252 46.7435 54.5231 46.7536 54.5212 46.766C54.5191 46.8153 54.513 46.8644 54.5027 46.9155C54.4986 46.9524 54.4923 46.9873 54.4822 47.0242V47.0303C54.4801 47.0425 54.4761 47.0549 54.474 47.0672C54.4719 47.0815 54.4679 47.0979 54.4637 47.1122C54.2978 47.8909 54.1316 48.6698 53.9636 49.4484C53.6419 50.9588 53.3631 53.0102 52.8836 54.4835C52.8815 54.4978 52.8775 54.5101 52.8714 54.5246C52.8674 54.5328 52.8653 54.541 52.8632 54.5513C52.8653 54.5534 52.8632 54.5574 52.8611 54.5595C52.859 54.5698 52.8571 54.5799 52.8508 54.5902C52.8447 54.6107 52.8365 54.6332 52.8262 54.6578C52.8139 54.6926 52.7975 54.7296 52.7811 54.7665V54.7686C52.7729 54.785 52.7647 54.8033 52.7544 54.8197C52.7483 54.83 52.7441 54.8402 52.738 54.8526C52.7359 54.8566 52.7318 54.8608 52.7297 54.8669C52.7154 54.8915 52.7011 54.9181 52.6847 54.9469V54.949C52.6826 54.953 52.6805 54.9572 52.6765 54.9612C52.6683 54.9735 52.6601 54.9859 52.6518 55.0002C52.6497 55.0023 52.6478 55.0063 52.6457 55.0105C52.6272 55.0433 52.6068 55.0741 52.5821 55.1048C52.5781 55.113 52.5718 55.1212 52.5636 55.1294C52.5514 55.1499 52.5371 55.1684 52.5207 55.1867L52.5186 55.1888L52.5165 55.1909C52.5104 55.2031 52.5001 55.2155 52.4899 55.2257C52.4859 55.2297 52.4817 55.2339 52.4796 55.2379C52.4693 55.2522 52.4592 55.2666 52.4449 55.279C52.4387 55.2872 52.4305 55.2954 52.4244 55.3036C52.4059 55.3261 52.3876 55.3466 52.365 55.3691V55.3712C52.3486 55.3876 52.3322 55.404 52.3139 55.4224C52.3077 55.4285 52.3016 55.4346 52.2953 55.4409C52.285 55.4531 52.2707 55.4674 52.2585 55.4777C52.2319 55.5045 52.2052 55.5289 52.1766 55.5514C52.1704 55.5597 52.1622 55.5658 52.1561 55.57C52.1561 55.57 52.154 55.57 52.154 55.5721C52.1458 55.5824 52.1376 55.5885 52.1294 55.5946C52.0229 55.6868 51.8999 55.7769 51.7708 55.861C51.7687 55.8631 51.7668 55.8631 51.7647 55.865C51.7626 55.865 51.7626 55.8671 51.7607 55.8671C51.732 55.8856 51.7074 55.9039 51.6787 55.9224C51.6419 55.945 51.605 55.9675 51.5661 55.9879C51.5436 56.0044 51.521 56.0166 51.4985 56.029C51.4781 56.0412 51.4574 56.0515 51.4349 56.0618C51.3898 56.0865 51.3427 56.1109 51.2955 56.1336C51.2669 56.15 51.2361 56.1644 51.2075 56.1787C51.15 56.2054 51.0927 56.2299 51.0353 56.2545C50.9902 56.2749 50.943 56.2934 50.8959 56.312C50.8304 56.3385 50.7647 56.3631 50.6971 56.3878C50.6664 56.4 50.6356 56.4124 50.6028 56.4225C50.5699 56.4328 50.5373 56.4451 50.5044 56.4554C50.488 56.4594 50.4697 56.4657 50.4533 56.4718C50.1561 56.564 49.8466 56.6377 49.5291 56.691C49.5251 56.691 49.523 56.691 49.5209 56.6931C49.5065 56.6952 49.4901 56.6971 49.4758 56.7013C49.2791 56.7341 49.0823 56.7586 48.8816 56.775C48.8651 56.7771 48.8468 56.779 48.8283 56.779C48.814 56.7811 48.7997 56.7811 48.7832 56.783C48.7504 56.7851 48.7156 56.7871 48.6828 56.7892C48.6706 56.7892 48.6561 56.7913 48.6438 56.7913C48.5885 56.7953 48.5352 56.7974 48.4798 56.7995H48.4613C48.3794 56.8016 48.3015 56.8016 48.2257 56.8016C47.865 56.8037 47.5043 56.7811 47.1518 56.734C47.076 56.7237 47.0002 56.7155 46.9263 56.7032C46.8874 56.6971 46.8484 56.691 46.8115 56.6828C46.7747 56.6767 46.7398 56.6706 46.705 56.6623C46.6947 56.6603 46.6804 56.6562 46.6702 56.6541C46.5268 56.6276 46.3853 56.5948 46.2481 56.5579C46.244 56.5579 46.2399 56.5579 46.2358 56.5558C46.1723 56.5394 46.1088 56.523 46.0474 56.5067C45.7667 56.4248 45.5001 56.3244 45.2461 56.2075C45.2278 56.1993 45.2093 56.1911 45.1908 56.1829C45.1089 56.1439 45.0289 56.1029 44.951 56.062C44.9406 56.0559 44.9284 56.0498 44.9181 56.0435C44.8669 56.0168 44.8156 55.9902 44.7686 55.9616C44.7501 55.9513 44.7317 55.939 44.7132 55.9268C44.6722 55.9022 44.6189 55.8674 44.5555 55.8243C44.5433 55.8161 44.5309 55.8079 44.5186 55.7997C44.5125 55.7935 44.5064 55.7893 44.5003 55.7874C44.4881 55.7771 44.4738 55.767 44.4614 55.7588C44.4573 55.7567 44.4552 55.7548 44.4531 55.7527C44.4367 55.7404 44.4203 55.7261 44.402 55.7137C44.3773 55.6973 44.3548 55.679 44.3323 55.6604C44.3179 55.6501 44.3036 55.64 44.2912 55.6276C44.2872 55.6215 44.2809 55.6194 44.2769 55.6154C44.2339 55.5806 44.1929 55.5457 44.1539 55.5088C44.1253 55.4842 44.1007 55.4597 44.0741 55.433C44.068 55.4269 44.0619 55.4208 44.0556 55.4126C44.0434 55.4023 44.031 55.39 44.0208 55.3778C44.0208 55.3778 44.0187 55.3757 44.0168 55.3738C43.9922 55.3492 43.9697 55.3247 43.9471 55.3001C43.9286 55.2797 43.9122 55.2611 43.8979 55.2407C43.8835 55.2243 43.8692 55.21 43.8589 55.1935C43.8549 55.1874 43.8528 55.1832 43.8467 55.1792C43.8138 55.1382 43.7852 55.0992 43.7585 55.0583C43.7277 55.0173 43.7012 54.9764 43.6785 54.9354C43.658 54.9046 43.6416 54.8718 43.6273 54.8411C43.6191 54.8308 43.6151 54.8206 43.6109 54.8103C43.6109 54.8063 43.6088 54.8042 43.6069 54.8021L43.6048 54.8C43.6027 54.7939 43.6007 54.7878 43.5966 54.7815C43.5863 54.763 43.5782 54.7446 43.5719 54.7261C43.5412 54.6625 43.5187 54.5991 43.5001 54.5356C43.4879 54.5048 43.4797 54.472 43.4734 54.4412C43.4694 54.4372 43.4694 54.4309 43.4694 54.4269C43.4694 54.4229 43.4673 54.4187 43.4673 54.4147C43.4673 54.4126 43.4673 54.4126 43.4652 54.4107C43.4612 54.3963 43.457 54.3841 43.4549 54.3696C43.4549 54.3675 43.4549 54.3675 43.4549 54.3656L43.4509 54.3431L43.4488 54.3308L43.3791 54.007C43.3463 53.8369 43.3094 53.6627 43.2725 53.4865L42.8053 51.2446C42.7377 50.9228 42.672 50.6053 42.6086 50.2979L42.4242 49.4167C42.2582 48.6216 42.0921 47.8264 41.9283 47.0333C41.9262 47.021 41.9243 47.0086 41.9201 46.9964C41.918 46.9821 41.916 46.9678 41.914 46.9534C41.9119 46.9514 41.9119 46.9473 41.9119 46.9431C41.9057 46.9164 41.9016 46.8878 41.8975 46.8612C41.8893 46.8183 41.8853 46.7751 41.8811 46.7321C41.8832 46.7281 41.8811 46.7239 41.8811 46.7178C41.8771 46.6645 41.875 46.6092 41.875 46.5559C41.875 45.601 42.5145 44.6459 43.7911 43.9287C46.2975 42.5229 50.3037 42.5638 52.7404 44.0188C53.9371 44.733 54.5313 45.6572 54.5313 46.5774Z" fill="#2B5895"/>
<path d="M60.2065 37.7829C60.19 38.2788 60.0548 39.3342 59.9544 39.8096C59.8908 40.1088 59.8192 40.5125 59.7371 40.8077C59.5813 41.3815 59.3621 42.1418 59.1694 42.7013C58.946 43.349 58.5485 44.2772 58.4051 44.5682C58.2718 44.8387 58.108 45.2055 57.9625 45.4677C57.817 45.732 57.6304 46.0887 57.4788 46.351C57.3291 46.6113 57.1141 46.9515 56.9583 47.2097C56.6837 47.6565 56.6018 47.7692 55.8046 48.8492C55.6283 49.089 55.366 49.3922 55.1775 49.6238C54.7614 50.1361 54.1242 50.7674 53.8187 51.0706C53.6465 51.2408 52.9969 51.8493 52.294 52.3842C51.8822 52.6956 51.3616 53.0748 50.6013 53.5153L49.4291 54.1936L48.2548 54.8699L47.0826 55.5462L45.9103 56.2245L44.736 56.9008L43.5638 57.579L42.3916 58.2554L41.2173 58.9336L40.0451 59.6099L38.8975 60.2718C38.8893 60.2779 38.8811 60.284 38.8729 60.2882C38.3831 60.5484 37.7253 60.8927 37.213 61.1037C36.7192 61.3065 36.0428 61.5381 35.5223 61.6611C35.0243 61.7759 34.3543 61.9152 33.846 61.9582C33.4055 61.9972 32.8172 62.0258 32.3746 62.034C32.1183 62.038 31.7783 62.0197 31.5241 62.0033C30.2515 61.9254 28.815 61.6468 27.4787 61.2143C26.4356 60.8761 25.7451 60.5708 25.6691 60.538C25.415 60.4232 25.0728 60.2798 24.8248 60.1547C24.3616 59.9212 23.7469 59.5953 23.294 59.3411L21.3041 58.1853C21.2386 58.1464 21.1729 58.1074 21.1074 58.0666C20.9005 57.9415 20.6709 57.8042 20.4886 57.6894C20.2262 57.5193 19.8737 57.2919 19.6217 57.1034C19.1791 56.7756 18.5992 56.3267 18.1728 55.9784C17.9372 55.7857 17.64 55.5132 17.4187 55.302C17.1995 55.0951 16.9085 54.8144 16.7056 54.591C16.3573 54.2077 15.9043 53.6832 15.5784 53.2793C15.3836 53.0395 15.1501 52.6994 14.976 52.4432C14.8345 52.2362 14.6624 51.9473 14.5313 51.7342C14.5251 51.7239 13.98 50.7957 13.6644 49.9739C13.5168 49.5907 13.3447 49.0722 13.2279 48.6787C13.15 48.4205 13.0824 48.068 13.0209 47.8057C12.8979 47.2729 12.8261 46.5454 12.7914 46.0003C12.7585 45.4819 12.777 44.7851 12.7975 44.2646C12.8179 43.7851 12.9533 42.6948 13.0535 42.2215C13.1171 41.9182 13.1908 41.5104 13.2728 41.2133C13.4286 40.6353 13.652 39.8669 13.8465 39.3013C14.072 38.6475 14.4736 37.709 14.617 37.4159C14.7503 37.1434 14.9183 36.7745 15.0638 36.5082C15.2114 36.2418 15.3999 35.8811 15.5515 35.6187C15.7052 35.3545 15.9204 35.0102 16.0781 34.7518C16.3548 34.2989 16.4388 34.1842 17.2421 33.096C17.4226 32.8521 17.6869 32.5468 17.8774 32.3131C18.2975 31.7968 18.9389 31.1594 19.2484 30.852C19.4206 30.6799 20.0764 30.0672 20.7874 29.526C21.2014 29.2125 21.728 28.8314 22.4945 28.3846C22.5027 28.3805 22.5088 28.3764 22.517 28.3723L23.6482 27.7185L24.804 27.0525L25.9577 26.3844L27.1135 25.7184L28.2672 25.0524L29.423 24.3843L30.5767 23.7182L31.7325 23.0522L32.8883 22.3841L34.042 21.7181C34.5318 21.4557 35.1896 21.1114 35.704 20.9004C36.206 20.6935 36.8966 20.4599 37.4254 20.3328C37.9192 20.214 38.5873 20.0807 39.0935 20.0356C39.3497 20.011 39.6898 19.9782 39.946 19.97C40.3478 19.9597 40.8805 19.9556 41.2802 19.9803C42.022 20.0232 42.5651 20.0929 43.2454 20.2159C44.2291 20.3901 45.1123 20.6646 45.1205 20.6667C45.4176 20.7611 45.8152 20.8777 46.1062 20.9885C46.6206 21.1832 47.2988 21.4599 47.8029 21.6791C47.8111 21.6831 48.5959 22.0274 49.6862 22.6566L51.6761 23.8124C51.9199 23.9619 52.2519 24.1525 52.4916 24.3104C52.9056 24.587 53.4528 24.9642 53.8544 25.2592C54.4917 25.7243 55.338 26.4887 55.3462 26.495C55.7316 26.8578 56.2275 27.3619 56.5901 27.7472C56.7992 27.9685 57.0512 28.2862 57.2458 28.5177C57.2519 28.5259 57.7848 29.1652 58.3401 30.0731C58.8852 30.9665 59.1803 31.6715 59.2582 31.8663C59.4222 32.2761 59.6168 32.8336 59.7479 33.2556C59.8279 33.5138 59.8975 33.8684 59.961 34.1307C60.0922 34.6656 60.168 35.3992 60.2049 35.9485C60.2433 36.4978 60.2269 37.2336 60.2065 37.7829Z" fill="#D6DBF6"/>
<g filter="url(#filter0_b_5052_19835)">
<path d="M60.2065 37.7829C60.19 38.2788 60.0548 39.3342 59.9544 39.8096C59.8908 40.1088 59.8192 40.5125 59.7371 40.8077C59.5813 41.3815 59.3621 42.1418 59.1694 42.7013C58.946 43.349 58.5485 44.2772 58.4051 44.5682C58.2718 44.8387 58.108 45.2055 57.9625 45.4677C57.817 45.732 57.6304 46.0887 57.4788 46.351C57.3291 46.6113 57.1141 46.9515 56.9583 47.2097C56.6837 47.6565 56.6018 47.7692 55.8046 48.8492C55.6283 49.089 55.366 49.3922 55.1775 49.6238C54.7614 50.1361 54.1242 50.7674 53.8187 51.0706C53.6465 51.2408 52.9969 51.8493 52.294 52.3842C51.8822 52.6956 51.3616 53.0748 50.6013 53.5153L49.4291 54.1936L48.2548 54.8699L47.0826 55.5462L45.9103 56.2245L44.736 56.9008L43.5638 57.579L42.3916 58.2554L41.2173 58.9336L40.0451 59.6099L38.8975 60.2718C38.8893 60.2779 38.8811 60.284 38.8729 60.2882C38.3831 60.5484 37.7253 60.8927 37.213 61.1037C36.7192 61.3065 36.0428 61.5381 35.5223 61.6611C35.0243 61.7759 34.3543 61.9152 33.846 61.9582C33.4055 61.9972 32.8172 62.0258 32.3746 62.034C32.1183 62.038 31.7783 62.0197 31.5241 62.0033C30.2515 61.9254 28.815 61.6468 27.4787 61.2143C26.4356 60.8761 25.7451 60.5708 25.6691 60.538C25.415 60.4232 25.0728 60.2798 24.8248 60.1547C24.3616 59.9212 23.7469 59.5953 23.294 59.3411L21.3041 58.1853C21.2386 58.1464 21.1729 58.1074 21.1074 58.0666C20.9005 57.9415 20.6709 57.8042 20.4886 57.6894C20.2262 57.5193 19.8737 57.2919 19.6217 57.1034C19.1791 56.7756 18.5992 56.3267 18.1728 55.9784C17.9372 55.7857 17.64 55.5132 17.4187 55.302C17.1995 55.0951 16.9085 54.8144 16.7056 54.591C16.3573 54.2077 15.9043 53.6832 15.5784 53.2793C15.3836 53.0395 15.1501 52.6994 14.976 52.4432C14.8345 52.2362 14.6624 51.9473 14.5313 51.7342C14.5251 51.7239 13.98 50.7957 13.6644 49.9739C13.5168 49.5907 13.3447 49.0722 13.2279 48.6787C13.15 48.4205 13.0824 48.068 13.0209 47.8057C12.8979 47.2729 12.8261 46.5454 12.7914 46.0003C12.7585 45.4819 12.777 44.7851 12.7975 44.2646C12.8179 43.7851 12.9533 42.6948 13.0535 42.2215C13.1171 41.9182 13.1908 41.5104 13.2728 41.2133C13.4286 40.6353 13.652 39.8669 13.8465 39.3013C14.072 38.6475 14.4736 37.709 14.617 37.4159C14.7503 37.1434 14.9183 36.7745 15.0638 36.5082C15.2114 36.2418 15.3999 35.8811 15.5515 35.6187C15.7052 35.3545 15.9204 35.0102 16.0781 34.7518C16.3548 34.2989 16.4388 34.1842 17.2421 33.096C17.4226 32.8521 17.6869 32.5468 17.8774 32.3131C18.2975 31.7968 18.9389 31.1594 19.2484 30.852C19.4206 30.6799 20.0764 30.0672 20.7874 29.526C21.2014 29.2125 21.728 28.8314 22.4945 28.3846C22.5027 28.3805 22.5088 28.3764 22.517 28.3723L23.6482 27.7185L24.804 27.0525L25.9577 26.3844L27.1135 25.7184L28.2672 25.0524L29.423 24.3843L30.5767 23.7182L31.7325 23.0522L32.8883 22.3841L34.042 21.7181C34.5318 21.4557 35.1896 21.1114 35.704 20.9004C36.206 20.6935 36.8966 20.4599 37.4254 20.3328C37.9192 20.214 38.5873 20.0807 39.0935 20.0356C39.3497 20.011 39.6898 19.9782 39.946 19.97C40.3478 19.9597 40.8805 19.9556 41.2802 19.9803C42.022 20.0232 42.5651 20.0929 43.2454 20.2159C44.2291 20.3901 45.1123 20.6646 45.1205 20.6667C45.4176 20.7611 45.8152 20.8777 46.1062 20.9885C46.6206 21.1832 47.2988 21.4599 47.8029 21.6791C47.8111 21.6831 48.5959 22.0274 49.6862 22.6566L51.6761 23.8124C51.9199 23.9619 52.2519 24.1525 52.4916 24.3104C52.9056 24.587 53.4528 24.9642 53.8544 25.2592C54.4917 25.7243 55.338 26.4887 55.3462 26.495C55.7316 26.8578 56.2275 27.3619 56.5901 27.7472C56.7992 27.9685 57.0512 28.2862 57.2458 28.5177C57.2519 28.5259 57.7848 29.1652 58.3401 30.0731C58.8852 30.9665 59.1803 31.6715 59.2582 31.8663C59.4222 32.2761 59.6168 32.8336 59.7479 33.2556C59.8279 33.5138 59.8975 33.8684 59.961 34.1307C60.0922 34.6656 60.168 35.3992 60.2049 35.9485C60.2433 36.4978 60.2269 37.2336 60.2065 37.7829Z" fill="url(#paint0_linear_5052_19835)" fill-opacity="0.32"/>
</g>
<path d="M43.2818 24.6384L31.732 31.3047L29.7422 30.1489L41.2919 23.4805L43.2818 24.6384Z" fill="#2B5895"/>
<path d="M34.2949 34.9648C33.5884 35.3755 33.0845 35.8812 33.0768 35.8889L30.0625 37.6406C30.07 37.6329 30.5741 37.1273 31.2807 36.7166C32.1849 36.191 33.3907 35.4903 34.2949 34.9648Z" fill="#FFB0C8"/>
<path d="M31.2812 36.7157L34.2957 34.964C35.048 34.5268 33.6767 35.5837 34.5338 36.0785L33.8727 36.4441C33.0156 35.9493 32.0336 36.2785 31.2812 36.7157Z" fill="#00357C"/>
<path d="M33.8719 36.4467C34.0696 36.561 34.2607 36.7189 34.4408 36.9295C36.1342 38.9112 35.0233 43.4138 35.017 43.4397L30.0625 37.6425C30.0782 37.6264 32.2099 35.4871 33.8719 36.4467Z" fill="#ECF2FF"/>
<path d="M33.875 36.4457L34.5361 36.0801C34.7339 36.1941 34.9249 36.3522 35.105 36.5629C36.7985 38.5445 38.0409 41.661 38.0344 41.6868L35.0201 43.4386C35.0264 43.4128 36.1373 38.9103 34.4439 36.9285C34.2638 36.7178 34.0726 36.5597 33.875 36.4457Z" fill="#00357C"/>
<path d="M30.8594 35.5633L31.5205 35.1977C32.4433 34.6614 33.662 34.2901 34.8326 34.9657L34.1715 35.3313C33.0008 34.6557 31.7822 35.027 30.8594 35.5633Z" fill="#2B5895"/>
<path d="M34.1719 35.3314L34.833 34.9658C35.1319 35.1382 35.4251 35.3814 35.7065 35.7108C38.1236 38.5382 38.8436 42.2657 38.7577 42.5348L35.7432 44.2866C35.8292 44.0174 37.4623 38.9038 35.0452 36.0764C34.764 35.7469 34.4707 35.504 34.1719 35.3314Z" fill="#2B5895"/>
<path d="M34.1723 35.331C34.4711 35.5036 34.7644 35.7466 35.0458 36.076C37.4629 38.9034 35.8297 44.0171 35.7438 44.2862L35.0189 43.438C35.0252 43.4122 36.1361 38.9097 34.4427 36.9279C34.2626 36.7172 34.0715 36.5591 33.8738 36.4451C32.2118 35.4856 30.0801 37.625 30.0644 37.6407L29.3281 36.7794C29.4572 36.6414 31.905 34.0222 34.1723 35.331Z" fill="#809ABD"/>
<path d="M18.5886 28.2559C17.3542 28.9729 20.2897 32.7973 20.2972 32.8378L17.283 34.5896C17.2753 34.5491 16.3418 29.5678 17.5762 28.8506C18.4805 28.3252 17.6843 28.7814 18.5886 28.2559Z" fill="#FFB0C8"/>
<path d="M17.5781 28.8494L18.5905 28.2546C18.6838 28.2005 18.7893 28.1706 18.9086 28.169C19.0892 28.1666 19.2806 28.2295 19.4784 28.3435L18.466 28.9384C18.2682 28.8242 18.077 28.7615 17.8962 28.7639C17.7769 28.7653 17.6712 28.795 17.5781 28.8494Z" fill="#00357C"/>
<path d="M16.7969 27.3548L17.5221 26.9251C17.6674 26.8407 17.8356 26.7937 18.0295 26.7911C18.312 26.7873 18.6056 26.8832 18.9045 27.0558L18.1792 27.4854C17.8804 27.3129 17.5867 27.217 17.3043 27.2208C17.1104 27.2234 16.9422 27.2704 16.7969 27.3548Z" fill="#2B5895"/>
<path d="M18.4648 28.9406L19.4772 28.3457C21.1336 29.302 25.2396 32.7072 25.2691 32.7713L22.2549 34.5231C22.2252 34.4592 20.1212 29.897 18.4648 28.9406Z" fill="#00357C"/>
<path d="M18.4639 28.9402C20.1203 29.8965 22.2242 34.4587 22.2537 34.5228L17.2829 34.5904C17.2747 34.5466 16.1956 28.7882 17.8941 28.7657C18.0749 28.7632 18.2662 28.826 18.4639 28.9402Z" fill="#ECF2FF"/>
<path d="M18.1758 27.4873L18.901 27.0576C21.1681 28.3666 25.8814 32.4768 26.0091 32.7627L22.9948 34.5145C22.8671 34.2286 20.4428 28.7963 18.1758 27.4873Z" fill="#2B5895"/>
<path d="M18.1766 27.4866C20.4437 28.7956 22.8679 34.2276 22.9954 34.5136L22.2576 34.5235C22.2281 34.4594 20.1242 29.8972 18.4678 28.9409C18.2701 28.8266 18.0788 28.7639 17.898 28.7664C16.1995 28.7887 17.2786 34.5473 17.2868 34.5908L16.5595 34.6006C16.4753 34.2332 14.8764 27.2534 17.3017 27.2218C17.5841 27.2183 17.8778 27.3142 18.1766 27.4866Z" fill="#809ABD"/>
<path d="M15.918 48.593C15.9166 49.059 16.2443 49.6263 16.6497 49.8604L14.9856 50.8274C14.58 50.5933 14.2525 50.0258 14.2539 49.56C14.2546 49.3285 14.3364 49.1656 14.4681 49.089L16.1321 48.1221C16.0004 48.1986 15.9187 48.3615 15.918 48.593Z" fill="#FFB0C8"/>
<path d="M16.6485 49.8604C16.8525 49.9781 17.0375 49.9891 17.1709 49.9115L15.5068 50.8785C15.3734 50.9561 15.1886 50.9451 14.9844 50.8273C15.4836 50.5374 16.1493 50.1505 16.6485 49.8604Z" fill="#FFB0C8"/>
<path d="M14.4688 49.0897L16.1328 48.1227C16.2663 48.0452 16.4513 48.0562 16.6553 48.1739L14.9912 49.1409C14.7872 49.023 14.6024 49.012 14.4688 49.0897Z" fill="#563943"/>
<path d="M17.1738 49.9112L15.5097 50.8782C15.6414 50.8016 15.7232 50.6387 15.7239 50.4072C15.7251 49.9412 15.3976 49.3739 14.9922 49.1398L16.6563 48.1729C17.0619 48.4069 17.3894 48.9744 17.388 49.4403C17.3874 49.6717 17.3057 49.8347 17.1738 49.9112Z" fill="#563943"/>
<path d="M14.9905 49.1408C15.3959 49.3749 15.7236 49.9424 15.7222 50.4082C15.7208 50.8743 15.3912 51.062 14.9856 50.828C14.58 50.5939 14.2525 50.0264 14.2539 49.5606C14.2553 49.0945 14.5851 48.9066 14.9905 49.1408Z" fill="#00347D"/>
<path d="M21.3594 52.5566C21.5625 52.6738 21.7468 52.6847 21.8801 52.6073L20.216 53.5743C20.0827 53.6517 19.8985 53.6408 19.6953 53.5236C20.1945 53.2337 20.8602 52.8468 21.3594 52.5566Z" fill="#FFB0C8"/>
<path d="M20.6328 51.2893C20.6316 51.7553 20.9591 52.3226 21.3645 52.5567C20.8746 52.8414 20.3846 53.1261 19.8949 53.4108L19.7004 53.5238C19.2949 53.2898 18.9674 52.7223 18.9688 52.2564C19.5233 51.934 20.0781 51.6117 20.6328 51.2893C20.0781 51.6115 19.5235 51.934 18.9688 52.2562C18.9695 52.0248 19.0512 51.862 19.1829 51.7853L20.847 50.8184C20.7151 50.895 20.6334 51.0578 20.6328 51.2893Z" fill="#FFB0C8"/>
<path d="M19.1797 51.7852L20.8438 50.8181C20.9772 50.7405 21.1622 50.7515 21.3662 50.8692L19.7021 51.8362C19.4979 51.7185 19.3131 51.7075 19.1797 51.7852Z" fill="#563943"/>
<path d="M21.8832 52.6089L20.2191 53.5759C20.351 53.4992 20.4327 53.3364 20.4334 53.1046C20.4348 52.6386 20.1071 52.0713 19.7031 51.8381L21.3672 50.8711C21.7712 51.1043 22.0987 51.6716 22.0975 52.1376C22.0968 52.3694 22.0151 52.5324 21.8832 52.6089Z" fill="#563943"/>
<path d="M19.7052 51.8371C20.1092 52.0703 20.4367 52.6376 20.4355 53.1036C20.4342 53.5697 20.1045 53.7574 19.7004 53.5243C19.2949 53.2902 18.9674 52.7227 18.9688 52.2568C18.97 51.7908 19.2998 51.6029 19.7052 51.8371Z" fill="#00347D"/>
<path d="M13.7461 47.1438L15.4102 46.1768C16.261 45.6823 17.6909 45.8605 19.3095 46.795L17.6454 47.762C16.0266 46.8275 14.5969 46.6493 13.7461 47.1438Z" fill="#2B5895"/>
<path d="M17.6432 47.761C20.2451 49.2631 22.3494 52.1506 22.3435 54.2084C22.3377 56.268 20.224 56.7185 17.6221 55.2163C15.0202 53.7141 12.9159 50.8284 12.9219 48.7688C12.9277 46.7109 15.0413 46.2586 17.6432 47.761ZM14.9861 50.8282C15.3917 51.0623 15.7213 50.8745 15.7227 50.4085C15.724 49.9424 15.3964 49.3751 14.991 49.1411C14.5855 48.907 14.2558 49.0948 14.2545 49.5608C14.2531 50.0266 14.5806 50.594 14.9861 50.8282ZM19.697 53.5255C20.101 53.7587 20.4308 53.5709 20.432 53.1049C20.4334 52.6388 20.1057 52.0715 19.7017 51.8383C19.2961 51.6043 18.9665 51.792 18.9651 52.2581C18.9639 52.7239 19.2914 53.2912 19.697 53.5255Z" fill="#BBC0E6"/>
<path d="M23.1868 54.8683L21.5227 55.8353C22.0394 55.535 22.3425 54.9865 22.3447 54.2084C22.3505 52.1506 20.2464 49.2631 17.6445 47.7609L19.3086 46.7939C21.9105 48.2961 24.0148 51.1836 24.0088 53.2414C24.0066 54.0196 23.7033 54.568 23.1868 54.8683Z" fill="#2B5895"/>
<path d="M25.4924 47.5207C25.7776 47.6855 26.0071 48.083 26.0062 48.4093C26.0054 48.737 25.7743 48.8687 25.489 48.704C25.205 48.5401 24.9755 48.1424 24.9766 47.8147C24.9774 47.4884 25.2085 47.3567 25.4924 47.5207Z" fill="white"/>
<path d="M26.0125 47.2154C26.7846 47.6611 27.4092 48.7431 27.4067 49.63C27.4043 50.5186 26.7755 50.8768 26.0034 50.4313C25.2302 49.9848 24.6068 48.9036 24.6094 48.015C24.6118 47.1281 25.2392 46.7689 26.0125 47.2154ZM25.492 48.7024C25.7772 48.8671 26.0083 48.7354 26.0092 48.4077C26.0101 48.0814 25.7806 47.6839 25.4953 47.5191C25.2115 47.3551 24.9804 47.4868 24.9795 47.8131C24.9786 48.1408 25.2082 48.5383 25.492 48.7024Z" fill="#563943"/>
<path d="M15.2033 41.627C15.4871 41.7911 15.7167 42.1884 15.7158 42.5163C15.7149 42.8426 15.4838 42.9743 15.2 42.8103C14.9161 42.6463 14.6865 42.2487 14.6875 41.9226C14.6882 41.5949 14.9193 41.4632 15.2033 41.627Z" fill="white"/>
<path d="M15.7195 41.3245C16.4928 41.7709 17.1174 42.8528 17.115 43.74C17.1125 44.6285 16.4837 44.9868 15.7105 44.5403C14.9386 44.0946 14.3138 43.0126 14.3164 42.1241C14.3189 41.2371 14.9477 40.8787 15.7195 41.3245ZM15.2002 42.8121C15.4841 42.976 15.7152 42.8444 15.7161 42.5182C15.7169 42.1905 15.4874 41.7929 15.2036 41.6289C14.9196 41.4649 14.6886 41.5966 14.6878 41.9245C14.6869 42.2507 14.9164 42.6483 15.2002 42.8121Z" fill="#563943"/>
<path d="M37.5477 18.001L38.3086 18.4431C38.8043 18.7311 39.1121 19.343 39.1145 20.2118C39.1194 21.962 37.885 24.1003 36.3624 24.9793L35.6016 24.5372C37.124 23.6582 38.3586 21.5199 38.3537 19.7697C38.3512 18.9009 38.0435 18.289 37.5477 18.001Z" fill="#E8AF49"/>
<path d="M34.4015 25.1721L33.6406 24.73C34.143 25.0219 34.8382 24.9813 35.6043 24.5391L36.3651 24.9812C35.599 25.4236 34.9037 25.4641 34.4015 25.1721Z" fill="#E8AF49"/>
<path d="M35.5859 18.1923C36.3522 17.7498 37.0476 17.7093 37.5499 18.0012L38.3108 18.4433C37.8084 18.1514 37.1131 18.1919 36.3468 18.6343C36.1185 18.5016 35.8141 18.3248 35.5859 18.1923Z" fill="#FFD880"/>
<path d="M38.1991 16.8827L38.96 17.3248C38.2907 16.9358 37.3642 16.9896 36.3429 17.5791L35.582 17.137C36.6033 16.5475 37.5298 16.4937 38.1991 16.8827Z" fill="#E8AF49"/>
<path d="M32.832 22.9593C32.8272 21.2098 34.0616 19.0723 35.5842 18.1934L36.345 18.6355C34.8226 19.5144 33.588 21.6518 33.5931 23.4013C33.5955 24.271 33.9035 24.8833 34.3995 25.1716L33.6387 24.7295C33.1424 24.4412 32.8345 23.8288 32.832 22.9593Z" fill="#FFD880"/>
<path d="M35.666 18.2332C37.1884 17.3543 38.4311 18.0615 38.4361 19.811C38.441 21.5612 37.2066 23.6996 35.684 24.5785C34.1616 25.4574 32.919 24.7495 32.9141 22.9991C32.9092 21.2498 34.1436 19.1124 35.666 18.2332Z" fill="#E5B35A"/>
<path d="M33.7497 26.2907L32.9888 25.8486C32.3279 25.4645 31.9174 24.6486 31.9141 23.49C31.9074 21.1592 33.5535 18.3082 35.5825 17.1367L36.3434 17.5788C34.3142 18.7503 32.6683 21.6013 32.6749 23.9321C32.6783 25.0907 33.0887 25.9066 33.7497 26.2907Z" fill="#E8AF49"/>
<path d="M36.3442 17.5775C38.3739 16.4056 40.0294 17.3506 40.0359 19.6812C40.0425 22.0136 38.3978 24.863 36.3682 26.0349C34.339 27.2064 32.6823 26.263 32.6758 23.9306C32.6692 21.6 34.3153 18.749 36.3442 17.5775ZM36.3652 24.9794C37.8876 24.1004 39.1222 21.9621 39.1173 20.2119C39.1124 18.4624 37.8698 17.7551 36.3472 18.6341C34.8248 19.513 33.5902 21.6505 33.5953 23.4C33.6002 25.1502 34.8428 25.8583 36.3652 24.9794Z" fill="#FCCC6B"/>
<path d="M38.813 6.10561L38.8488 6.14456C38.8619 6.15888 38.8738 6.17425 38.8869 6.19102C38.894 6.20133 38.9035 6.21163 38.9092 6.22316C38.9139 6.2284 38.9176 6.23224 38.9211 6.23853L38.9209 6.24098C38.5332 5.92203 37.936 5.81059 37.1952 5.9781C35.5487 6.34997 33.8053 7.95607 33.31 9.56269C33.089 10.2778 33.1524 10.8745 33.4368 11.2816C33.3896 11.2436 33.3463 11.2043 33.3068 11.1616L33.2997 11.1539C33.2578 11.1085 33.2211 11.0608 33.187 11.0084C33.048 10.8032 32.9633 10.5501 32.9426 10.2572C32.9393 10.2172 32.9372 10.1758 32.9376 10.1347C32.9372 10.1134 32.9381 10.0911 32.939 10.0712C32.9374 10.0486 32.9381 10.0287 32.9402 10.0076C32.9437 9.92042 32.9536 9.82959 32.9685 9.73667C32.9802 9.66348 32.9957 9.5868 33.0139 9.51012C33.0303 9.44217 33.0494 9.37422 33.0709 9.30401C33.566 7.69756 35.3096 6.09129 36.9561 5.71941C37.0593 5.69618 37.1587 5.67889 37.2565 5.66544C37.3054 5.65863 37.3543 5.65443 37.4032 5.65007C37.4972 5.64256 37.5896 5.64133 37.6781 5.6436C37.8553 5.64832 38.0177 5.67347 38.1683 5.71697C38.2423 5.7374 38.3124 5.76395 38.3786 5.794C38.3798 5.79277 38.381 5.79417 38.381 5.79417C38.5501 5.87277 38.6946 5.97723 38.813 6.10561Z" fill="#E8AF49"/>
<path d="M38.9219 6.24243C38.9219 6.24243 38.9219 6.24243 38.9231 6.24121C38.9254 6.24628 38.9289 6.25274 38.9325 6.25658C38.929 6.25012 38.9266 6.2475 38.9219 6.24243Z" fill="#F4C76C"/>
<path d="M39 6.37305C39.0152 6.39733 39.0279 6.42405 39.0405 6.45078C39.0416 6.45462 39.0438 6.45968 39.0463 6.46475L39.0451 6.46597L39.0438 6.46475C39.0416 6.45724 39.0393 6.452 39.0358 6.44571C39.0245 6.42021 39.0129 6.39733 39 6.37305Z" fill="#F4C76C"/>
<path d="M38.8125 6.10645L38.8483 6.1454C38.8614 6.15972 38.8733 6.17509 38.8864 6.19186L38.8733 6.17754C38.8542 6.15186 38.8328 6.12845 38.8125 6.10645Z" fill="#FFD880"/>
<path d="M39 6.37402C39.0152 6.3983 39.0279 6.42503 39.0405 6.45175L39.0358 6.44651C39.0245 6.42118 39.0129 6.3983 39 6.37402Z" fill="#FFD880"/>
<path d="M38.8711 6.17773L38.8845 6.19236C38.8918 6.20288 38.9014 6.2134 38.9073 6.22516C38.8953 6.2093 38.8832 6.1936 38.8711 6.17773Z" fill="#FFD880"/>
<path d="M39.4573 9.00879C38.8724 10.3309 37.514 11.5792 36.1445 12.0484C36.2285 12.0093 36.3113 11.9665 36.3919 11.9211C36.4659 11.8816 36.5386 11.8409 36.6116 11.7976C36.627 11.7882 36.6409 11.7801 36.6563 11.7707C36.7318 11.7251 36.8072 11.6793 36.8804 11.6311C36.9547 11.5841 37.0264 11.5371 37.0972 11.4863C37.1562 11.4463 37.214 11.4049 37.272 11.3611C37.2848 11.3541 37.2963 11.3459 37.3068 11.3363C37.3519 11.3043 37.3955 11.2711 37.4381 11.2367C37.496 11.1953 37.5527 11.1503 37.6083 11.1038C37.6715 11.0526 37.7335 11.0002 37.7955 10.9478C37.9209 10.8418 38.0415 10.7305 38.1583 10.6154C38.1854 10.5929 38.2102 10.5676 38.2336 10.5436C38.3024 10.4778 38.3688 10.4093 38.4341 10.3394C38.4835 10.289 38.5318 10.2372 38.5777 10.1829C38.6076 10.1529 38.6352 10.1204 38.6626 10.0877C38.7775 9.96005 38.8853 9.82712 38.9892 9.6928C39.0458 9.61891 39.1 9.54503 39.1543 9.46852C39.2084 9.39464 39.2601 9.31796 39.3108 9.24023C39.3599 9.16861 39.4053 9.09543 39.4495 9.02119C39.4533 9.01735 39.4547 9.01368 39.4573 9.00879Z" fill="#FFD880"/>
<path d="M39.0391 6.44531L39.0438 6.45055C39.0448 6.4544 39.0471 6.45946 39.0495 6.46453C39.0495 6.46453 39.0495 6.46453 39.0508 6.46575C39.0679 6.50767 39.0848 6.55204 39.0979 6.59745C39.0836 6.55064 39.0679 6.50767 39.0483 6.46557L39.0471 6.46435C39.0448 6.45667 39.0426 6.4516 39.0391 6.44531Z" fill="#FFD880"/>
<path d="M39.7376 5.27246L40.3008 5.888C40.797 6.42843 40.9406 7.29428 40.6133 8.35697C39.9516 10.4984 37.6297 12.643 35.4318 13.1375C34.3272 13.3864 33.4621 13.1718 32.9599 12.6224L32.3906 12.0029C32.417 12.0313 32.4446 12.0588 32.4722 12.0836C32.4841 12.0965 32.4963 12.107 32.5084 12.1175C32.5361 12.1423 32.5663 12.1672 32.5953 12.1908C32.6317 12.2198 32.6717 12.2476 32.7106 12.2741C32.7775 12.318 32.847 12.3571 32.9194 12.3912C32.945 12.406 32.9719 12.417 32.999 12.428C33.0332 12.4444 33.0676 12.4582 33.1035 12.471C33.1515 12.4867 33.1995 12.5023 33.249 12.5168C33.276 12.5253 33.3045 12.5327 33.3342 12.5389C33.3613 12.5475 33.391 12.5538 33.4207 12.5599C33.4676 12.5693 33.5136 12.5774 33.562 12.5856C33.6152 12.594 33.6713 12.5999 33.7284 12.6048C33.8987 12.6203 34.0811 12.6202 34.2713 12.6055C34.3338 12.6006 34.3953 12.5943 34.4594 12.5856C34.5158 12.5791 34.5749 12.5702 34.6327 12.5601C34.6477 12.5582 34.6641 12.555 34.6804 12.552C34.7396 12.5407 34.7999 12.5281 34.8617 12.5145C35.2156 12.4352 35.5712 12.3134 35.9235 12.154C35.9681 12.1346 36.0112 12.1138 36.0545 12.093C36.0839 12.078 36.1144 12.0642 36.1436 12.0492L36.1448 12.0479C36.2288 12.0088 36.3116 11.966 36.3922 11.9206C36.4662 11.8811 36.5389 11.8404 36.6119 11.7971C36.6273 11.7877 36.6412 11.7796 36.6566 11.7702C36.7321 11.7246 36.8075 11.6789 36.8807 11.6307C36.9549 11.5837 37.0267 11.5367 37.0975 11.4859C37.1565 11.4459 37.2143 11.4045 37.2723 11.3606C37.2851 11.3536 37.2966 11.3454 37.3071 11.3358C37.3521 11.3038 37.3958 11.2707 37.4384 11.2362C37.4963 11.1948 37.553 11.1498 37.6086 11.1033C37.6718 11.0521 37.7338 10.9997 37.7958 10.9473C37.9212 10.8413 38.0418 10.7301 38.1586 10.6149C38.1857 10.5924 38.2105 10.5671 38.2339 10.5432C38.3027 10.4773 38.3691 10.4088 38.4344 10.339C38.4838 10.2885 38.5321 10.2368 38.578 10.1825C38.6079 10.1524 38.6355 10.1199 38.6629 10.0873C38.7778 9.95958 38.8856 9.82665 38.9895 9.69233C39.0461 9.61845 39.1003 9.54456 39.1546 9.46805C39.2087 9.39417 39.2604 9.31749 39.3111 9.23976C39.3602 9.16814 39.4056 9.09496 39.4498 9.02072C39.4536 9.01705 39.455 9.01339 39.4578 9.0085C39.459 9.00727 39.4578 9.00605 39.4578 9.00605L39.463 9.00133C39.4671 8.99522 39.4685 8.98911 39.4713 8.98422C39.5928 8.78562 39.7008 8.58282 39.794 8.37689C39.8145 8.33409 39.8337 8.29234 39.8503 8.2506C39.8695 8.20641 39.8887 8.16222 39.9055 8.11802C39.9263 8.06772 39.9458 8.01602 39.964 7.96554C39.9921 7.8892 40.0188 7.81165 40.0419 7.73532C40.1036 7.53689 40.1488 7.34388 40.1775 7.15908C40.1843 7.11436 40.1899 7.06843 40.1954 7.02249C40.1986 7.00764 40.1991 6.99262 40.201 6.97655C40.2133 6.85725 40.2194 6.73882 40.2188 6.62651C40.2171 6.51542 40.2089 6.40765 40.1944 6.30354C40.1811 6.20066 40.1602 6.09988 40.1329 6.00276L40.1331 6.00031C40.1188 5.9535 40.1057 5.90809 40.0887 5.86372C40.0732 5.81813 40.0548 5.77499 40.0353 5.73307C40.0365 5.73185 40.0354 5.73062 40.0342 5.72923C40.0262 5.71019 40.0157 5.69097 40.0064 5.67316C39.9914 5.64137 39.9754 5.60818 39.9567 5.57744C39.9334 5.53412 39.9064 5.49185 39.8781 5.45325C39.8592 5.42495 39.8391 5.39543 39.8178 5.36975C39.7926 5.33464 39.7663 5.30355 39.7376 5.27246Z" fill="#E8AF49"/>
<path d="M39.4572 9.00503C39.4572 9.00503 39.4585 9.00625 39.4572 9.00747C39.4599 9.00503 39.4599 9.00258 39.4625 9.00014L39.4572 9.00503ZM38.9219 6.24243C38.9266 6.24767 38.929 6.25012 38.9325 6.25658C38.9289 6.25274 38.9254 6.24628 38.9231 6.24121C38.9219 6.24243 38.9219 6.24243 38.9219 6.24243Z" fill="#F4C76C"/>
<path d="M37.2555 4.74821C35.0599 5.24271 32.7343 7.38854 32.0753 9.52756C31.7465 10.5941 31.8901 11.4599 32.3902 12.0018C32.4166 12.0302 32.4442 12.0577 32.4718 12.0825C32.4836 12.0954 32.4959 12.1059 32.5079 12.1164C32.5357 12.1412 32.5659 12.1661 32.5949 12.1897C32.6312 12.2187 32.6712 12.2465 32.7102 12.273C32.7771 12.3169 32.8466 12.356 32.9189 12.3901C32.9446 12.4049 32.9715 12.4159 32.9986 12.4269C33.0328 12.4433 33.0672 12.4571 33.103 12.4699C33.1511 12.4856 33.1991 12.5012 33.2485 12.5157C33.2756 12.5242 33.3041 12.5315 33.3338 12.5378C33.3622 12.5452 33.3905 12.5527 33.4202 12.5588C33.4672 12.5682 33.5132 12.5763 33.5615 12.5845C33.6148 12.5929 33.6709 12.5988 33.728 12.6037C33.8983 12.6192 34.0807 12.6191 34.2709 12.6044C34.3334 12.5995 34.3949 12.5932 34.459 12.5845C34.5154 12.578 34.5744 12.5691 34.6323 12.559C34.6473 12.557 34.6637 12.5539 34.68 12.5509C34.7392 12.5396 34.7994 12.527 34.8613 12.5134C35.2151 12.4341 35.5708 12.3123 35.9231 12.1529C35.9676 12.1335 36.0108 12.1127 36.0541 12.0919C36.0834 12.0769 36.114 12.0631 36.1432 12.0481L36.1444 12.0468C36.2272 12.0065 36.31 11.9637 36.3917 11.9195C36.4658 11.88 36.5384 11.8393 36.6115 11.796C36.6268 11.7866 36.6408 11.7785 36.6562 11.7691C36.7316 11.7235 36.8071 11.6778 36.8803 11.6295C36.9545 11.5826 37.0263 11.5356 37.097 11.4847C37.1561 11.4447 37.2139 11.4033 37.2719 11.3595C37.2846 11.3525 37.2962 11.3443 37.3067 11.3347C37.3517 11.3027 37.3954 11.2695 37.438 11.2351C37.4958 11.1937 37.5526 11.1487 37.6081 11.1022C37.6714 11.051 37.7334 10.9986 37.7954 10.9462C37.9208 10.8402 38.0413 10.7289 38.1582 10.6138C38.1852 10.5913 38.21 10.566 38.2335 10.542C38.3023 10.4762 38.3687 10.4077 38.434 10.3379C38.4834 10.2874 38.5316 10.2357 38.5776 10.1814C38.6074 10.1513 38.635 10.1188 38.6624 10.0862C38.7774 9.95847 38.8852 9.82555 38.9891 9.69122C39.0457 9.61734 39.0998 9.54345 39.1541 9.46695C39.2083 9.39306 39.26 9.31638 39.3106 9.23865C39.3597 9.16704 39.4051 9.09385 39.4493 9.01961C39.4532 9.01595 39.4546 9.01228 39.4574 9.00739C39.4586 9.00616 39.4574 9.00494 39.4574 9.00494L39.4626 9.00023C39.4666 8.99411 39.468 8.988 39.4708 8.98311C39.5924 8.78451 39.7003 8.58171 39.7936 8.37578C39.8141 8.33298 39.8333 8.29124 39.8499 8.24949C39.8691 8.2053 39.8883 8.16111 39.9051 8.11692C39.9258 8.06661 39.9454 8.01491 39.9636 7.96443C39.9917 7.8881 40.0184 7.81054 40.0415 7.73421C40.1031 7.53579 40.1484 7.34277 40.177 7.15797C40.1838 7.11326 40.1894 7.06732 40.195 7.02138C40.1982 7.00653 40.1987 6.99151 40.2006 6.97544C40.2128 6.85614 40.2189 6.73771 40.2184 6.6254C40.2167 6.51431 40.2085 6.40654 40.194 6.30244C40.1807 6.19955 40.1597 6.09877 40.1325 6.00165L40.1326 5.99921C40.1183 5.95239 40.1052 5.90698 40.0883 5.86261C40.0727 5.81702 40.0544 5.77388 40.0348 5.73196C40.0361 5.73074 40.035 5.72951 40.0338 5.72812C40.0258 5.70908 40.0153 5.68986 40.006 5.67205C39.991 5.64026 39.9749 5.60707 39.9562 5.57633C39.9318 5.53423 39.9059 5.49319 39.8776 5.45214C39.8588 5.42384 39.8387 5.39432 39.8174 5.36864C39.7926 5.33389 39.7664 5.30297 39.7377 5.27188L39.7365 5.27065C39.2352 4.71677 38.3664 4.49826 37.2555 4.74821ZM38.8481 6.14418C38.8612 6.15851 38.8731 6.17388 38.8862 6.19065C38.8934 6.20095 38.9028 6.21126 38.9086 6.22278C38.9133 6.22803 38.9169 6.23187 38.9204 6.23816L38.9203 6.2406L38.9215 6.24182C38.9215 6.24182 38.9215 6.24182 38.9227 6.2406C38.925 6.24567 38.9285 6.25213 38.9321 6.25597C38.9463 6.27658 38.9592 6.29824 38.972 6.32008C38.9755 6.32637 38.9802 6.33422 38.9837 6.34051C38.9908 6.35082 38.9954 6.36095 39.0011 6.37248C39.0163 6.39676 39.0291 6.42348 39.0417 6.45021C39.0427 6.45405 39.045 6.45911 39.0474 6.46418C39.0474 6.46418 39.0474 6.46418 39.0486 6.4654C39.0658 6.50732 39.0827 6.55169 39.0958 6.5971L39.097 6.59833C39.1093 6.63745 39.1213 6.67675 39.1309 6.71833C39.1405 6.7599 39.15 6.80392 39.1557 6.84671C39.173 6.9461 39.1798 7.05247 39.1791 7.16339C39.1793 7.19203 39.1779 7.22452 39.1767 7.25439C39.1744 7.31168 39.1695 7.37142 39.162 7.43098C39.1547 7.4881 39.1461 7.54644 39.1337 7.60583C39.1304 7.62574 39.1271 7.64548 39.1227 7.66399C39.1133 7.71098 39.1014 7.76059 39.0893 7.81002C39.0762 7.85823 39.063 7.90626 39.0472 7.95692C38.5507 9.56459 36.8071 11.1733 35.1594 11.5438C35.0876 11.5597 35.016 11.573 34.9468 11.584C34.8677 11.5971 34.79 11.6063 34.7161 11.6121C34.6672 11.6163 34.6209 11.6182 34.5736 11.6189C34.5273 11.6208 34.4824 11.6215 34.4387 11.6184C34.309 11.6156 34.1848 11.6007 34.0684 11.5759C33.9124 11.5422 33.7711 11.4903 33.6428 11.4215C33.5683 11.3798 33.499 11.3333 33.4363 11.2809C33.3891 11.2428 33.3458 11.2035 33.3063 11.1609L33.2992 11.1532C33.2573 11.1078 33.2206 11.0601 33.1865 11.0077C33.0475 10.8025 32.9628 10.5494 32.9422 10.2565C32.9388 10.2165 32.9367 10.1751 32.9371 10.134C32.9367 10.1127 32.9376 10.0903 32.9385 10.0704C32.9369 10.0479 32.9376 10.028 32.9397 10.0069C32.9432 9.91969 32.9532 9.82886 32.968 9.73594C32.9797 9.66275 32.9953 9.58607 33.0134 9.50939C33.0298 9.44144 33.0489 9.3735 33.0704 9.30328C33.5656 7.69683 35.3091 6.09056 36.9556 5.71869C37.0588 5.69545 37.1582 5.67816 37.256 5.66471C37.3049 5.6579 37.3538 5.65371 37.4027 5.64934C37.4967 5.64183 37.5891 5.64061 37.6777 5.64288C37.8548 5.64759 38.0172 5.67275 38.1678 5.71624C38.2418 5.73668 38.3119 5.76323 38.3781 5.79327C38.3793 5.79205 38.3805 5.79344 38.3805 5.79344C38.5657 5.87711 38.7208 5.99309 38.8434 6.13912L38.8481 6.14418Z" fill="#FCCC6B"/>
<path d="M38.9193 6.23782L38.9205 6.23904C38.9252 6.24428 38.9277 6.24673 38.9312 6.25319C38.9453 6.2738 38.9583 6.29546 38.971 6.31729C38.9745 6.32358 38.9792 6.33144 38.9827 6.33773C38.9899 6.34803 38.9944 6.35817 39.0002 6.36969C39.0129 6.39397 39.0245 6.41685 39.036 6.44236C39.0395 6.44882 39.0418 6.45388 39.044 6.4614L39.0452 6.46262C39.0648 6.50454 39.0805 6.54768 39.0949 6.59449L39.0961 6.59572C39.1083 6.63484 39.1191 6.67537 39.13 6.71572C39.1396 6.75729 39.149 6.8013 39.1548 6.8441C39.1721 6.94349 39.1789 7.04986 39.1782 7.16078C39.1783 7.18942 39.1769 7.22191 39.1757 7.25178C39.1735 7.30907 39.1686 7.36881 39.1611 7.42837C39.1537 7.48549 39.1452 7.54383 39.1328 7.60322C39.1294 7.62313 39.1261 7.64287 39.1218 7.66138C39.1123 7.70837 39.1004 7.75798 39.0884 7.80741C39.0753 7.85562 39.062 7.90365 39.0463 7.95431C38.5497 9.56198 36.8061 11.1707 35.1585 11.5412C35.0867 11.5571 35.0151 11.5703 34.9459 11.5813C34.8668 11.5944 34.789 11.6037 34.7152 11.6095C34.6662 11.6137 34.62 11.6156 34.5726 11.6163C34.5263 11.6182 34.4814 11.6189 34.4378 11.6158C34.308 11.613 34.1838 11.5981 34.0675 11.5733C33.9115 11.5396 33.7702 11.4877 33.6418 11.4189C33.5674 11.3772 33.4981 11.3307 33.4353 11.2783C33.151 10.8711 33.0876 10.2745 33.3085 9.55936C33.8039 7.95291 35.5473 6.34664 37.1937 5.97476C37.9343 5.8076 38.5314 5.91887 38.9193 6.23782Z" fill="#E5B35A"/>
<path d="M39 6.36914C39.0152 6.39342 39.0279 6.42014 39.0405 6.44687C39.0416 6.45071 39.0438 6.45578 39.0463 6.46084C39.0463 6.46084 39.0463 6.46084 39.0475 6.46207C39.0646 6.50399 39.0816 6.54835 39.0947 6.59377C39.0803 6.54696 39.0646 6.50399 39.0451 6.46189L39.0438 6.46067C39.0416 6.45316 39.0393 6.44792 39.0358 6.44163C39.0245 6.4163 39.0129 6.39342 39 6.36914Z" fill="#FFD880"/>
<path d="M38.9231 6.23828C38.9254 6.24335 38.9289 6.24981 38.9325 6.25365C38.929 6.24719 38.9266 6.24474 38.9219 6.2395C38.9219 6.2395 38.9219 6.2395 38.9231 6.23828Z" fill="#FFD880"/>
<path d="M28.2551 19.8676L28.2184 19.9059C28.2049 19.9198 28.1903 19.9326 28.1744 19.9467C28.1646 19.9544 28.1548 19.9646 28.1436 19.971C28.1387 19.9761 28.1351 19.9799 28.1289 19.9838H28.1265C28.421 19.577 28.4954 18.9742 28.2827 18.2451C27.81 16.6247 26.0994 14.9835 24.4656 14.5882C23.7382 14.4116 23.1466 14.5117 22.7578 14.8207C22.7929 14.7713 22.8294 14.7257 22.8696 14.6836L22.8769 14.6759C22.9196 14.6313 22.965 14.5917 23.0153 14.5545C23.2116 14.403 23.4589 14.303 23.7501 14.2644C23.7899 14.2586 23.831 14.2539 23.872 14.2518C23.8932 14.25 23.9157 14.2495 23.9356 14.2492C23.958 14.2462 23.9779 14.2457 23.9992 14.2465C24.0865 14.2446 24.1777 14.249 24.2713 14.2581C24.345 14.2652 24.4226 14.2761 24.5003 14.2893C24.5691 14.3016 24.6381 14.3162 24.7096 14.3335C26.3436 14.7288 28.0542 16.3702 28.5267 17.9904C28.5564 18.0921 28.5796 18.1901 28.5992 18.287C28.6089 18.3354 28.6163 18.384 28.6234 18.4325C28.6367 18.5258 28.6437 18.618 28.6468 18.7064C28.6531 18.8834 28.6379 19.0472 28.6037 19.2C28.5878 19.2753 28.5656 19.3468 28.5398 19.4147C28.541 19.4159 28.5398 19.4171 28.5398 19.4171C28.4711 19.5909 28.3758 19.7415 28.2551 19.8676Z" fill="#E8AF49"/>
<path d="M28.1279 19.9854C28.1279 19.9854 28.1279 19.9854 28.1292 19.9867C28.1239 19.9895 28.1171 19.9937 28.1133 19.9978C28.1199 19.9937 28.1226 19.9908 28.1279 19.9854Z" fill="#F4C76C"/>
<path d="M28.0001 20.0713C27.9767 20.0881 27.9509 20.1022 27.925 20.1165C27.9213 20.1179 27.9164 20.1204 27.9114 20.123L27.9102 20.1218L27.9114 20.1205C27.9187 20.1179 27.9238 20.1153 27.9299 20.1115C27.9545 20.0985 27.9767 20.0854 28.0001 20.0713Z" fill="#F4C76C"/>
<path d="M28.2565 19.8672L28.2198 19.9054C28.2063 19.9194 28.1917 19.9322 28.1758 19.9463L28.1892 19.9323C28.2137 19.9117 28.2357 19.8888 28.2565 19.8672Z" fill="#FFD880"/>
<path d="M28.0009 20.0723C27.9775 20.089 27.9516 20.1032 27.9258 20.1175L27.9307 20.1124C27.9553 20.0995 27.9775 20.0864 28.0009 20.0723Z" fill="#FFD880"/>
<path d="M28.1935 19.9326L28.1798 19.9469C28.1698 19.9547 28.1598 19.9651 28.1484 19.9717C28.1636 19.9588 28.1786 19.9458 28.1935 19.9326Z" fill="#FFD880"/>
<path d="M25.3982 20.6904C24.0426 20.188 22.7128 18.9091 22.1602 17.5713C22.2043 17.6527 22.2522 17.7327 22.3025 17.8102C22.3465 17.8817 22.3916 17.9517 22.4393 18.0219C22.4496 18.0366 22.4587 18.0502 22.469 18.0649C22.5191 18.1374 22.5694 18.2099 22.622 18.2799C22.6733 18.3512 22.7247 18.42 22.7799 18.4874C22.8236 18.5439 22.8683 18.5991 22.9156 18.6542C22.9233 18.6665 22.9324 18.6777 22.9425 18.6874C22.9771 18.7304 23.0129 18.772 23.0499 18.8123C23.0948 18.8675 23.1434 18.9213 23.1932 18.9739C23.2482 19.0338 23.3043 19.0925 23.3603 19.1512C23.4739 19.2698 23.5923 19.3831 23.7144 19.4928C23.7387 19.5185 23.7654 19.5416 23.7907 19.5636C23.8607 19.6282 23.9331 19.6902 24.0068 19.751C24.0602 19.7973 24.1147 19.8422 24.1718 19.8846C24.2036 19.9126 24.2379 19.9381 24.2721 19.9636C24.4066 20.0705 24.546 20.1699 24.6864 20.2654C24.7636 20.3175 24.8408 20.3669 24.9205 20.4163C24.9977 20.4658 25.0773 20.5127 25.158 20.5585C25.2326 20.603 25.3082 20.6439 25.3853 20.6834C25.3895 20.6869 25.3933 20.6879 25.3982 20.6904Z" fill="#FFD880"/>
<path d="M27.9295 20.1143L27.9247 20.1193C27.921 20.1207 27.9161 20.1232 27.911 20.1258C27.911 20.1258 27.911 20.1258 27.9098 20.127C27.8691 20.1466 27.8258 20.1661 27.7812 20.1822C27.827 20.1649 27.8691 20.1466 27.9098 20.1246L27.911 20.1233C27.9185 20.1207 27.9234 20.1181 27.9295 20.1143Z" fill="#FFD880"/>
<path d="M29.145 20.7387L28.5653 21.3387C28.0565 21.8672 27.2011 22.0641 26.12 21.8028C23.9419 21.2744 21.6583 19.0891 21.0293 16.9256C20.7128 15.8383 20.8736 14.9616 21.3912 14.4266L21.9744 13.8203C21.9475 13.8483 21.922 13.8776 21.899 13.9068C21.8867 13.9195 21.8771 13.9323 21.8673 13.9449C21.8443 13.974 21.8212 14.0056 21.7994 14.0362C21.7728 14.0741 21.7475 14.1159 21.7234 14.1564C21.6838 14.2259 21.6492 14.2977 21.6195 14.3719C21.6064 14.3985 21.597 14.4261 21.5875 14.4537C21.5734 14.489 21.5617 14.5241 21.5512 14.5604C21.5384 14.6093 21.5259 14.6582 21.5145 14.7083C21.5077 14.7359 21.5019 14.7648 21.4977 14.7948C21.4908 14.8224 21.4866 14.8524 21.4822 14.8825C21.4757 14.93 21.4705 14.9763 21.4652 15.025C21.4602 15.0788 21.4576 15.1349 21.4563 15.1924C21.4513 15.3634 21.4626 15.5454 21.4892 15.7344C21.4979 15.7965 21.508 15.8575 21.5206 15.9207C21.5306 15.9766 21.543 16.035 21.5568 16.0921C21.5596 16.1069 21.5638 16.1232 21.5678 16.1392C21.5828 16.1976 21.599 16.2571 21.6165 16.3178C21.7175 16.666 21.8611 17.0136 22.0417 17.3553C22.0638 17.3984 22.0871 17.4404 22.1105 17.4823C22.1273 17.5106 22.143 17.5403 22.1597 17.5686L22.161 17.5698C22.2052 17.6512 22.253 17.7312 22.3033 17.8087C22.3473 17.8802 22.3924 17.9502 22.4401 18.0204C22.4504 18.0351 22.4595 18.0487 22.4698 18.0634C22.5199 18.1359 22.5702 18.2084 22.6228 18.2784C22.6741 18.3497 22.7255 18.4185 22.7807 18.4859C22.8244 18.5424 22.8691 18.5976 22.9164 18.6528C22.9241 18.665 22.9332 18.6762 22.9433 18.6859C22.9779 18.7289 23.0137 18.7705 23.0507 18.8108C23.0956 18.866 23.1442 18.9198 23.194 18.9724C23.249 19.0323 23.3051 19.091 23.3611 19.1497C23.4747 19.2683 23.5931 19.3817 23.7152 19.4914C23.7395 19.517 23.7662 19.5401 23.7915 19.5621C23.8616 19.6267 23.9339 19.6887 24.0076 19.7495C24.061 19.7958 24.1155 19.8407 24.1726 19.8831C24.2044 19.9111 24.2387 19.9366 24.2729 19.9621C24.4074 20.069 24.5468 20.1684 24.6872 20.2639C24.7644 20.316 24.8416 20.3654 24.9213 20.4148C24.9985 20.4643 25.0781 20.5113 25.1588 20.557C25.2334 20.6016 25.3091 20.6424 25.3861 20.6819C25.3899 20.6856 25.3936 20.6868 25.3987 20.6891C25.3999 20.6903 25.4011 20.6891 25.4011 20.6891L25.4062 20.694C25.4125 20.6976 25.4187 20.6987 25.4238 20.7011C25.6296 20.8103 25.8387 20.9055 26.05 20.9858C26.094 21.0037 26.1368 21.0201 26.1796 21.0342C26.2249 21.0506 26.2701 21.0672 26.3153 21.0812C26.3669 21.0988 26.4196 21.1151 26.4711 21.1303C26.549 21.1535 26.628 21.1755 26.7057 21.1939C26.9076 21.2431 27.1029 21.2765 27.2891 21.2936C27.3342 21.2976 27.3803 21.3004 27.4266 21.3032C27.4416 21.3053 27.4566 21.3051 27.4727 21.306C27.5925 21.3109 27.7111 21.3097 27.8233 21.3023C27.9342 21.2938 28.0411 21.2789 28.1441 21.258C28.246 21.2382 28.3452 21.2112 28.4406 21.178H28.443C28.4888 21.1609 28.5333 21.1448 28.5766 21.1252C28.6212 21.1069 28.6631 21.0859 28.7038 21.0639C28.705 21.0651 28.7062 21.0639 28.7074 21.0627C28.726 21.0536 28.7445 21.0419 28.7616 21.0316C28.7923 21.0147 28.8245 20.9965 28.854 20.9761C28.8959 20.9502 28.9364 20.9207 28.9731 20.8899C29.0002 20.8693 29.0283 20.8475 29.0528 20.8246C29.0863 20.7974 29.1157 20.7692 29.145 20.7387Z" fill="#E8AF49"/>
<path d="M25.4009 20.69C25.4009 20.69 25.3997 20.6912 25.3984 20.69C25.4011 20.6924 25.4035 20.6924 25.4061 20.6949L25.4009 20.69ZM28.1252 19.9854C28.1203 19.9904 28.1179 19.993 28.1118 19.9969C28.1154 19.993 28.1216 19.9892 28.1264 19.9866C28.1252 19.9854 28.1252 19.9854 28.1252 19.9854Z" fill="#F4C76C"/>
<path d="M29.512 18.2297C28.8832 16.0689 26.5982 13.8797 24.4225 13.3538C23.3378 13.0914 22.4824 13.2881 21.9724 13.8205C21.9455 13.8485 21.92 13.8778 21.8969 13.907C21.8847 13.9197 21.8751 13.9325 21.8653 13.9451C21.8422 13.9742 21.8192 14.0058 21.7974 14.0364C21.7708 14.0743 21.7455 14.1161 21.7214 14.1566C21.6817 14.2261 21.6471 14.2979 21.6174 14.3721C21.6043 14.3987 21.5949 14.4263 21.5855 14.4539C21.5713 14.4892 21.5596 14.5243 21.5491 14.5606C21.5364 14.6095 21.5238 14.6584 21.5125 14.7085C21.5057 14.7361 21.4999 14.765 21.4957 14.795C21.4901 14.8238 21.4845 14.8526 21.4802 14.8827C21.4737 14.9302 21.4685 14.9765 21.4632 15.0252C21.4581 15.079 21.4555 15.1351 21.4543 15.1926C21.4492 15.3636 21.4606 15.5456 21.4871 15.7346C21.4959 15.7967 21.506 15.8577 21.5186 15.9209C21.5285 15.9768 21.5409 16.0352 21.5547 16.0923C21.5575 16.1071 21.5617 16.1234 21.5657 16.1394C21.5808 16.1978 21.597 16.2574 21.6145 16.318C21.7154 16.6663 21.859 17.0138 22.0396 17.3555C22.0618 17.3986 22.085 17.4406 22.1084 17.4825C22.1252 17.5108 22.1409 17.5405 22.1577 17.5688L22.1589 17.57C22.2043 17.6502 22.2522 17.7302 22.3013 17.809C22.3453 17.8804 22.3904 17.9504 22.438 18.0207C22.4484 18.0353 22.4574 18.0489 22.4677 18.0636C22.5179 18.1361 22.5682 18.2086 22.6208 18.2786C22.6721 18.3499 22.7235 18.4187 22.7787 18.4862C22.8223 18.5426 22.867 18.5978 22.9144 18.653C22.9221 18.6652 22.9311 18.6764 22.9413 18.6861C22.9759 18.7291 23.0117 18.7707 23.0487 18.811C23.0936 18.8662 23.1421 18.92 23.1919 18.9726C23.2469 19.0325 23.303 19.0912 23.3591 19.1499C23.4726 19.2685 23.5911 19.3819 23.7131 19.4916C23.7374 19.5172 23.7641 19.5403 23.7895 19.5623C23.8595 19.6269 23.9318 19.6889 24.0055 19.7497C24.059 19.796 24.1135 19.8409 24.1706 19.8833C24.2024 19.9113 24.2366 19.9368 24.2709 19.9623C24.4054 20.0692 24.5448 20.1686 24.6852 20.2641C24.7624 20.3162 24.8396 20.3656 24.9192 20.415C24.9965 20.4645 25.0761 20.5115 25.1568 20.5572C25.2314 20.6018 25.307 20.6426 25.384 20.6821C25.3879 20.6858 25.3916 20.687 25.3966 20.6893C25.3978 20.6905 25.3991 20.6893 25.3991 20.6893L25.4041 20.6942C25.4104 20.6978 25.4167 20.6989 25.4218 20.7013C25.6275 20.8105 25.8366 20.9057 26.048 20.986C26.092 21.0039 26.1348 21.0203 26.1776 21.0344C26.2228 21.0508 26.2681 21.0674 26.3133 21.0814C26.3648 21.0991 26.4176 21.1153 26.4691 21.1305C26.547 21.1537 26.626 21.1757 26.7037 21.1941C26.9056 21.2433 27.1009 21.2767 27.2871 21.2938C27.3322 21.2978 27.3783 21.3006 27.4246 21.3034C27.4396 21.3055 27.4546 21.3053 27.4707 21.3062C27.5905 21.3111 27.7091 21.3099 27.8212 21.3025C27.9321 21.294 28.039 21.2791 28.1421 21.2582C28.2439 21.2384 28.3431 21.2114 28.4385 21.1782H28.441C28.4867 21.1611 28.5313 21.145 28.5746 21.1254C28.6191 21.1071 28.661 21.0861 28.7017 21.0641C28.703 21.0653 28.7042 21.0641 28.7054 21.0629C28.7239 21.0538 28.7424 21.0421 28.7596 21.0318C28.7903 21.0149 28.8224 20.9967 28.852 20.9763C28.8925 20.9492 28.932 20.9209 28.9711 20.8901C28.9982 20.8695 29.0263 20.8477 29.0507 20.8248C29.0839 20.7979 29.1131 20.7698 29.1424 20.7392L29.1437 20.738C29.6654 20.2037 29.8299 19.3232 29.512 18.2297ZM28.2169 19.9055C28.2034 19.9195 28.1887 19.9323 28.1728 19.9464C28.1631 19.9541 28.1533 19.9642 28.1421 19.9707C28.1372 19.9757 28.1335 19.9796 28.1274 19.9834H28.125L28.1238 19.9847C28.1238 19.9847 28.1238 19.9847 28.125 19.9859C28.1201 19.9885 28.1138 19.9923 28.1103 19.9962C28.0907 20.0116 28.0698 20.0257 28.0488 20.0398C28.0427 20.0437 28.0354 20.0489 28.0291 20.0528C28.0193 20.0605 28.0093 20.0657 27.9983 20.0722C27.9749 20.0889 27.9491 20.1031 27.9232 20.1174C27.9196 20.1188 27.9147 20.1212 27.9096 20.1239C27.9096 20.1239 27.9096 20.1239 27.9084 20.1251C27.8677 20.1447 27.8244 20.1642 27.7798 20.1803L27.7786 20.1815C27.7402 20.196 27.7019 20.2107 27.6611 20.2227C27.6202 20.2348 27.5767 20.247 27.5344 20.2554C27.4364 20.2786 27.3306 20.2922 27.2197 20.2984C27.191 20.3003 27.1585 20.301 27.1287 20.3015C27.0714 20.3027 27.0115 20.3015 26.9514 20.2978C26.8939 20.294 26.8352 20.2891 26.7751 20.2804C26.755 20.2783 26.7351 20.2762 26.7163 20.2729C26.6688 20.2664 26.6186 20.2575 26.5685 20.2486C26.5196 20.2384 26.4707 20.2281 26.4193 20.2156C24.7841 19.8189 23.0711 18.1779 22.5996 16.5562C22.5794 16.4855 22.5617 16.4149 22.5465 16.3466C22.5285 16.2684 22.5146 16.1913 22.5042 16.118C22.4969 16.0694 22.4922 16.0235 22.4887 15.9761C22.484 15.93 22.4805 15.8853 22.4808 15.8416C22.4756 15.712 22.4829 15.5871 22.5002 15.4694C22.5243 15.3117 22.5673 15.1674 22.6281 15.035C22.6651 14.9581 22.7072 14.886 22.7558 14.8202C22.7909 14.7707 22.8274 14.7251 22.8676 14.683L22.8749 14.6754C22.9175 14.6308 22.9629 14.5912 23.0132 14.554C23.2096 14.4025 23.4569 14.3024 23.7481 14.2638C23.7879 14.2581 23.829 14.2534 23.87 14.2513C23.8911 14.2495 23.9137 14.249 23.9336 14.2486C23.9559 14.2457 23.9758 14.2451 23.9972 14.246C24.0845 14.2441 24.1757 14.2485 24.2693 14.2575C24.343 14.2647 24.4206 14.2755 24.4983 14.2888C24.5671 14.301 24.6361 14.3157 24.7075 14.333C26.3416 14.7283 28.0521 16.3697 28.5246 17.9899C28.5543 18.0916 28.5776 18.1896 28.5971 18.2865C28.6069 18.3349 28.6142 18.3834 28.6214 18.432C28.6347 18.5253 28.6417 18.6175 28.6448 18.7059C28.6511 18.8828 28.6359 19.0467 28.6017 19.1995C28.5858 19.2748 28.5636 19.3462 28.5377 19.4142C28.539 19.4154 28.5377 19.4166 28.5377 19.4166C28.4658 19.6065 28.3594 19.7686 28.2212 19.8999L28.2169 19.9055Z" fill="#FCCC6B"/>
<path d="M28.1302 19.9826L28.129 19.9838C28.1241 19.9888 28.1216 19.9915 28.1155 19.9953C28.0959 20.0107 28.075 20.0248 28.054 20.039C28.0479 20.0428 28.0406 20.0481 28.0343 20.0519C28.0245 20.0596 28.0145 20.0648 28.0035 20.0713C27.9801 20.0854 27.9579 20.0985 27.9333 20.1115C27.9272 20.1153 27.9221 20.1179 27.9148 20.1205L27.9136 20.1218C27.8729 20.1438 27.831 20.1621 27.785 20.1794L27.7838 20.1806C27.7454 20.1951 27.7057 20.2086 27.6662 20.2219C27.6254 20.2339 27.5819 20.2461 27.5396 20.2545C27.4416 20.2777 27.3358 20.2914 27.2249 20.2975C27.1962 20.2994 27.1637 20.3001 27.1339 20.3006C27.0766 20.3019 27.0166 20.3006 26.9566 20.297C26.8991 20.2931 26.8404 20.2882 26.7803 20.2795C26.7602 20.2774 26.7403 20.2753 26.7215 20.272C26.6739 20.2655 26.6238 20.2566 26.5737 20.2477C26.5248 20.2376 26.4759 20.2273 26.4245 20.2147C24.7892 19.818 23.0762 18.177 22.6048 16.5553C22.5846 16.4846 22.5669 16.414 22.5517 16.3457C22.5337 16.2675 22.5197 16.1905 22.5094 16.1171C22.5021 16.0685 22.4974 16.0226 22.4939 15.9753C22.4892 15.9291 22.4857 15.8844 22.486 15.8408C22.4808 15.7112 22.4881 15.5863 22.5054 15.4685C22.5295 15.3108 22.5725 15.1665 22.6333 15.0341C22.6703 14.9573 22.7124 14.8851 22.761 14.8193C23.1498 14.5103 23.7414 14.4104 24.4687 14.5868C26.1028 14.9821 27.8133 16.6233 28.2858 18.2437C28.4991 18.9728 28.4247 19.5757 28.1302 19.9826Z" fill="#E5B35A"/>
<path d="M28.0037 20.0713C27.9803 20.0881 27.9544 20.1022 27.9286 20.1165C27.9249 20.1179 27.92 20.1204 27.9149 20.123C27.9149 20.123 27.9149 20.123 27.9137 20.1242C27.873 20.1438 27.8297 20.1633 27.7852 20.1794C27.8309 20.1621 27.873 20.1438 27.9137 20.1218L27.9149 20.1205C27.9223 20.1179 27.9273 20.1153 27.9335 20.1115C27.9581 20.0985 27.9803 20.0854 28.0037 20.0713Z" fill="#FFD880"/>
<path d="M28.1331 19.9847C28.1278 19.9876 28.121 19.9917 28.1172 19.9959C28.1238 19.9917 28.1265 19.9889 28.1318 19.9834C28.1318 19.9834 28.1318 19.9834 28.1331 19.9847Z" fill="#FFD880"/>
<defs>
<filter id="filter0_b_5052_19835" x="9.225" y="16.4135" width="54.55" height="49.1691" filterUnits="userSpaceOnUse" color-interpolation-filters="sRGB">
<feFlood flood-opacity="0" result="BackgroundImageFix"/>
<feGaussianBlur in="BackgroundImageFix" stdDeviation="1.77422"/>
<feComposite in2="SourceAlpha" operator="in" result="effect1_backgroundBlur_5052_19835"/>
<feBlend mode="normal" in="SourceGraphic" in2="effect1_backgroundBlur_5052_19835" result="shape"/>
</filter>
<linearGradient id="paint0_linear_5052_19835" x1="36.5008" y1="19.9619" x2="36.5008" y2="62.0346" gradientUnits="userSpaceOnUse">
<stop stop-color="#00357C"/>
<stop offset="1" stop-color="#ECF2FF"/>
</linearGradient>
</defs>
</svg>
