<svg width="20" height="20" viewBox="0 0 20 20" fill="none" xmlns="http://www.w3.org/2000/svg">
<path fill-rule="evenodd" clip-rule="evenodd" d="M9.73175 3.67843V2.81857C9.73175 2.41364 9.60677 2.0487 9.40681 1.78874C9.22684 1.55378 8.98188 1.40381 8.72192 1.40381H1.24818C0.988228 1.40381 0.743269 1.54878 0.563299 1.78874C0.363333 2.0487 0.238354 2.41364 0.238354 2.81857C0.238354 5.70808 -0.251563 16.3263 0.173365 18.331C0.948234 14.9465 2.06805 11.6371 3.07788 8.31264C3.25784 7.72274 3.5328 7.14284 3.92273 6.66292C4.29767 6.203 4.7376 5.91805 5.14253 5.91805H17.1855C17.1455 5.13318 17.0705 4.00837 16.2207 4.00837H10.0617C9.88173 4.00837 9.73175 3.85839 9.73175 3.67843Z" fill="#00A3A2"/>
<path fill-rule="evenodd" clip-rule="evenodd" d="M19.895 6.74792C19.645 6.19302 6.77222 6.57295 5.14249 6.57295C4.5226 6.57295 3.86271 7.97272 3.71273 8.46763L3.70773 8.48763C3.38779 9.54245 2.33796 13.0469 1.60309 15.7064L3.11783 13.2168C3.8927 12.307 3.94269 11.992 5.1125 11.992H18.7002L19.83 8.28266C19.955 7.86773 20.085 7.16285 19.895 6.75292V6.74792Z" fill="#00B8B7"/>
<path fill-rule="evenodd" clip-rule="evenodd" d="M19.7251 12.6468H5.11253C4.59262 12.6468 3.94273 13.1218 3.68277 13.5517L0.96323 18.0309C0.873245 18.1759 0.833252 18.3059 0.833252 18.4109C0.833252 18.4709 0.84325 18.5209 0.898241 18.5558C0.943233 18.5808 1.00822 18.5958 1.10321 18.5958H15.7157C15.9457 18.5958 16.2257 18.4959 16.4856 18.3309C16.7556 18.1609 17.0005 17.936 17.1505 17.686L19.87 13.2068C19.96 13.0618 20 12.9318 20 12.8268C20 12.6618 19.875 12.6418 19.7301 12.6418L19.7251 12.6468Z" fill="#80DBDB"/>
</svg>
