<svg width="60" height="16" viewBox="0 0 60 16" fill="none" xmlns="http://www.w3.org/2000/svg">
<g clip-path="url(#clip0_3450_402979)">
<path d="M33.9908 5.3918C33.9908 3.67328 34.0208 2.07328 34.1108 0.591797L29.5208 1.45106V1.86587L29.9708 1.92513C30.3008 1.95476 30.5108 2.07328 30.6308 2.25106C30.7508 2.45846 30.8408 2.75476 30.9008 3.1992C30.9608 4.05846 31.0208 6.01402 30.9908 9.0955C30.9908 12.1474 30.9608 14.0733 30.9008 14.814C32.5508 15.1696 33.8408 15.3177 34.8008 15.3177C36.6008 15.3177 38.0108 14.814 39.0308 13.777C40.0508 12.7696 40.5908 11.3474 40.5908 9.59921C40.5908 8.20661 40.2008 7.05106 39.4208 6.13254C38.6408 5.21402 37.6508 4.76958 36.4808 4.76958C35.7008 4.76958 34.8908 4.97698 33.9908 5.3918ZM34.0808 14.5177C34.0208 13.5696 33.9608 10.7251 33.9608 6.07328C34.2308 5.98439 34.5908 5.92513 35.0408 5.92513C35.7608 5.92513 36.3308 6.28069 36.7508 7.02143C37.1708 7.76217 37.3808 8.65106 37.3808 9.77698C37.3808 11.1696 37.1408 12.2955 36.6608 13.2437C36.1808 14.1622 35.5808 14.6362 34.8308 14.6362C34.5908 14.577 34.3508 14.5474 34.0808 14.5177ZM12.3008 0.888093H0.300781V1.48069L0.930781 1.53995C1.41078 1.62883 1.74078 1.80661 1.95078 2.07328C2.16078 2.36957 2.28078 2.84365 2.31078 3.4955C2.55078 6.6955 2.55078 9.68809 2.31078 12.4437C2.25078 13.0955 2.13078 13.5696 1.95078 13.8659C1.74078 14.1622 1.41078 14.3399 0.930781 14.3992L0.300781 14.4881V15.0807H8.04078V14.4881L7.23078 14.4288C7.03313 14.4125 6.84086 14.3568 6.66557 14.2652C6.49027 14.1735 6.33557 14.0478 6.21078 13.8955C6.00078 13.5992 5.88078 13.1251 5.85078 12.4733C5.76078 11.2881 5.70078 9.92513 5.70078 8.41402L7.32078 8.44365C8.19078 8.47328 8.79078 9.12513 9.09078 10.4288H9.69078V5.5992H9.09078C8.79078 6.87328 8.22078 7.52513 7.32078 7.55476L5.70078 7.58439C5.70078 4.91772 5.76078 3.02143 5.85078 1.86587H8.22078C9.90078 1.86587 11.0408 2.93254 11.7008 5.06587L12.4208 4.85846L12.3008 0.888093ZM10.8908 10.014C10.8908 11.5548 11.3408 12.8288 12.2108 13.8362C13.0808 14.8437 14.3708 15.3177 15.9908 15.3177C17.6108 15.3177 18.9308 14.814 19.8908 13.777C20.8508 12.7696 21.3008 11.4955 21.3008 9.95476C21.3008 8.41402 20.8508 7.13995 19.9808 6.13254C19.1108 5.12513 17.8208 4.65106 16.2008 4.65106C14.5808 4.65106 13.2608 5.15476 12.3008 6.1918C11.3408 7.1992 10.8908 8.47328 10.8908 10.014ZM17.5808 6.63624C17.9408 7.4955 18.0908 8.62143 18.0908 9.98439C18.0908 13.1251 17.4308 14.6659 16.1408 14.6659C15.4808 14.6659 14.9708 14.2214 14.6108 13.3325C14.2508 12.4437 14.1008 11.3177 14.1008 9.98439C14.1008 6.87328 14.7608 5.33254 16.0508 5.33254C16.7108 5.30291 17.2208 5.74735 17.5808 6.63624ZM42.9308 13.8362C43.9208 14.814 45.1808 15.3177 46.6808 15.3177C47.6108 15.3177 48.4208 15.1399 49.1408 14.7548C49.8608 14.3992 50.4308 13.9548 50.8208 13.4214L50.5208 13.0659C49.8608 13.5696 49.1108 13.8066 48.2408 13.8066C47.0408 13.8066 46.1108 13.4214 45.4808 12.6214C44.8208 11.8214 44.5208 10.814 44.5808 9.51032H51.0008C51.0008 8.08809 50.6408 6.93254 49.8908 6.01402C49.1408 5.12513 48.0908 4.68069 46.7408 4.68069C45.0608 4.68069 43.7708 5.21402 42.8408 6.25106C41.9108 7.28809 41.4608 8.56217 41.4608 10.0733C41.4608 11.614 41.9408 12.8585 42.9308 13.8362ZM45.1508 6.39921C45.4808 5.68809 45.9008 5.33254 46.4708 5.33254C47.3708 5.33254 47.8208 6.45846 47.8208 8.73995L44.6408 8.79921C44.6708 7.91032 44.8208 7.11032 45.1508 6.39921ZM59.0708 5.21402C58.2608 4.85846 57.2408 4.65106 56.0108 4.65106C54.7508 4.65106 53.7608 4.97698 53.0108 5.5992C52.2608 6.22143 51.8708 6.9918 51.8708 7.91032C51.8708 8.71032 52.1108 9.33254 52.5608 9.77698C53.0108 10.2214 53.7308 10.6066 54.6608 10.9325C55.5008 11.2288 56.1008 11.5251 56.4008 11.7918C56.7008 12.0881 56.8808 12.414 56.8808 12.8585C56.8808 13.2733 56.7308 13.6585 56.4008 13.9548C56.1008 14.2807 55.6808 14.4288 55.1408 14.4288C53.8208 14.4288 52.8308 13.4807 52.1408 11.5844L51.6308 11.7325L51.7508 14.6955C52.8308 15.1103 54.0308 15.3177 55.3508 15.3177C56.7308 15.3177 57.7808 15.0214 58.5608 14.3992C59.3408 13.8066 59.7308 12.9474 59.7308 11.8807C59.7308 11.1696 59.5508 10.577 59.1608 10.1325C58.7708 9.68809 58.1408 9.30291 57.2408 8.94735C56.2508 8.5918 55.5608 8.26587 55.2008 7.96958C54.8408 7.67328 54.6608 7.31772 54.6608 6.87328C54.6608 6.42883 54.7808 6.07328 55.0508 5.77698C55.3208 5.48069 55.6508 5.36217 56.0708 5.36217C57.2708 5.36217 58.1408 6.22143 58.6808 7.91032L59.1908 7.76217L59.0708 5.21402ZM30.2108 4.94735C29.7908 4.73995 29.3408 4.65106 28.8308 4.65106C28.3208 4.65106 27.8108 4.85846 27.2408 5.27328C26.6708 5.68809 26.2508 6.25106 25.9208 7.02143L25.9508 4.65106L21.3908 5.53995V5.95476L21.8408 5.98439C22.4108 6.04365 22.7408 6.48809 22.8008 7.28809C22.9808 9.12513 22.9808 11.0807 22.8008 13.1548C22.7408 13.9548 22.4108 14.3696 21.8408 14.4585L21.3908 14.5177V15.0807H27.7508V14.5177L26.9408 14.4585C26.3708 14.3992 26.0408 13.9548 25.9808 13.1548C25.8008 11.4362 25.7708 9.59921 25.9208 7.70291C26.1008 7.40661 26.4908 7.22883 27.0908 7.16958C27.6908 7.11032 28.3808 7.28809 29.1008 7.70291L30.2108 4.94735Z" fill="#5A5A5A"/>
</g>
<defs>
<clipPath id="clip0_3450_402979">
<rect width="60" height="16" fill="white"/>
</clipPath>
</defs>
</svg>
