<svg width="70" height="16" viewBox="0 0 70 16" fill="none" xmlns="http://www.w3.org/2000/svg">
<g clip-path="url(#clip0_3450_402981)">
<path d="M8.93204 3.65026V12.3493C8.93204 13.3278 9.32073 14.2661 10.0126 14.958C10.7045 15.6499 11.6429 16.0386 12.6214 16.0386C13.5998 16.0386 14.5382 15.6499 15.2301 14.958C15.922 14.2661 16.3107 13.3278 16.3107 12.3493V3.65026C16.3107 2.67179 15.922 1.7334 15.2301 1.04151C14.5382 0.349633 13.5998 -0.0390625 12.6214 -0.0390625C11.6429 -0.0390625 10.7045 0.349633 10.0126 1.04151C9.32073 1.7334 8.93204 2.67179 8.93204 3.65026ZM11.5728 12.3493V3.65026C11.5712 3.51052 11.5989 3.372 11.654 3.24358C11.7091 3.11517 11.7905 2.99971 11.8929 2.90462C11.9953 2.80953 12.1165 2.73691 12.2486 2.69143C12.3808 2.64596 12.521 2.62862 12.6602 2.64055C12.794 2.63623 12.9272 2.65939 13.0516 2.70861C13.1761 2.75782 13.2891 2.83204 13.3838 2.92668C13.4784 3.02131 13.5526 3.13435 13.6018 3.25881C13.6511 3.38326 13.6742 3.51649 13.6699 3.65026V12.3493C13.6659 12.6158 13.5582 12.8703 13.3697 13.0588C13.1812 13.2473 12.9267 13.355 12.6602 13.359C12.5225 13.3642 12.3851 13.3422 12.2559 13.2942C12.1267 13.2463 12.0082 13.1733 11.9072 13.0796C11.8062 12.9858 11.7247 12.873 11.6673 12.7477C11.6099 12.6224 11.5778 12.487 11.5728 12.3493ZM37.5922 0.155112H30.1359V2.79589H32.5437V15.7668H35.1845V2.79589H37.5922V0.155112ZM45.3592 0.155112V12.3493C45.3592 12.6171 45.2528 12.8739 45.0635 13.0633C44.8741 13.2526 44.6173 13.359 44.3495 13.359C44.0817 13.359 43.8249 13.2526 43.6355 13.0633C43.4462 12.8739 43.3398 12.6171 43.3398 12.3493V0.155112H40.6214V12.3493C40.6214 13.3381 41.0141 14.2863 41.7133 14.9855C42.4125 15.6847 43.3607 16.0774 44.3495 16.0774C45.3383 16.0774 46.2866 15.6847 46.9857 14.9855C47.6849 14.2863 48.0777 13.3381 48.0777 12.3493V0.155112H45.3592ZM69.5146 2.79589V0.155112H62.9903V15.7668H69.5146V13.126H65.6311V9.08715H68.1165V6.44637H65.6311V2.79589H69.5146ZM27.6505 15.7668H24.8544L22.9126 8.38812C23.3971 8.29226 23.8329 8.03031 24.1448 7.64745C24.4568 7.2646 24.6253 6.78487 24.6214 6.29103V3.88327C24.6245 3.7396 24.5986 3.59678 24.5451 3.46341C24.4916 3.33005 24.4116 3.2089 24.31 3.10729C24.2083 3.00568 24.0872 2.9257 23.9538 2.87218C23.8205 2.81866 23.6776 2.79271 23.534 2.79589H22.5243V15.7668H19.8835V0.155112H23.534C24.4987 0.146461 25.4286 0.515266 26.1252 1.1828C26.8217 1.85033 27.2297 2.7637 27.2621 3.72793V6.21336C27.2976 6.85838 27.1828 7.50281 26.9267 8.09587C26.6706 8.68892 26.2802 9.21439 25.7864 9.63084L27.6505 15.7668ZM57.0874 0.155112V8.6988L54.3689 0.155112H51.6505V15.7668H54.3689V8.15511L56.8544 15.7668H59.8058V0.155112H57.0874ZM0 0.388122V15.9998H2.79612V9.32016H5.35922V6.67938H2.79612V3.0289H6.83495V0.388122H0Z" fill="#202020"/>
</g>
<defs>
<clipPath id="clip0_3450_402981">
<rect width="69.5146" height="16" fill="white"/>
</clipPath>
</defs>
</svg>
