<svg width="180" height="59" viewBox="0 0 180 59" fill="none" xmlns="http://www.w3.org/2000/svg">
<g clip-path="url(#clip0_1144_24491)">
<rect y="0.386719" width="180" height="58" rx="12" fill="black"/>
<path d="M180.762 60.3702H-0.439433C-4.49835 60.3702 -7.6875 56.9611 -7.6875 52.6222V6.13465C-7.6875 1.79581 -4.49835 -1.61328 -0.439433 -1.61328H180.762C184.821 -1.61328 188.01 1.79581 188.01 6.13465V52.6222C188.01 56.9611 184.821 60.3702 180.762 60.3702Z" fill="black"/>
<path d="M61.0239 14.1918C61.0239 15.4314 60.7339 16.5161 60.0091 17.2909C59.1394 18.2207 58.1246 18.6856 56.82 18.6856C55.5153 18.6856 54.5006 18.2207 53.6308 17.2909C52.7611 16.3612 52.3262 15.2765 52.3262 13.8818C52.3262 12.4872 52.7611 11.4025 53.6308 10.4728C54.5006 9.543 55.5153 9.07812 56.82 9.07812C57.3998 9.07812 57.9797 9.23308 58.5595 9.543C59.1394 9.85292 59.5742 10.1628 59.8642 10.6277L59.1393 11.4025C58.5595 10.6277 57.8347 10.3178 56.82 10.3178C55.9502 10.3178 55.0804 10.6277 54.5006 11.4025C53.7758 12.0223 53.4859 12.9521 53.4859 14.0368C53.4859 15.1215 53.7758 16.0513 54.5006 16.6711C55.2254 17.2909 55.9502 17.7558 56.82 17.7558C57.8347 17.7558 58.5595 17.4459 59.2843 16.6711C59.7192 16.2062 60.0091 15.5864 60.0091 14.8116H56.82V13.5719H61.0239V14.1918ZM67.6921 10.3178H63.7781V13.262H67.4021V14.3467H63.7781V17.2909H67.6921V18.5306H62.6184V9.23308H67.6921V10.3178ZM72.4758 18.5306H71.3161V10.3178H68.8518V9.23308H74.9401V10.3178H72.4758V18.5306ZM79.144 18.5306V9.23308H80.3037V18.5306H79.144ZM85.2324 18.5306H84.0727V10.3178H81.6084V9.23308H87.5518V10.3178H85.0874V18.5306H85.2324ZM99.0037 17.2909C98.1339 18.2207 97.1192 18.6856 95.8146 18.6856C94.5099 18.6856 93.4952 18.2207 92.6254 17.2909C91.7556 16.3612 91.3208 15.2765 91.3208 13.8818C91.3208 12.4872 91.7556 11.4025 92.6254 10.4728C93.4952 9.543 94.5099 9.07812 95.8146 9.07812C97.1192 9.07812 98.1339 9.543 99.0037 10.4728C99.8735 11.4025 100.308 12.4872 100.308 13.8818C100.308 15.2765 99.8735 16.3612 99.0037 17.2909ZM93.4952 16.5161C94.075 17.136 94.9448 17.6009 95.8146 17.6009C96.6843 17.6009 97.5541 17.2909 98.1339 16.5161C98.7138 15.8963 99.1487 14.9666 99.1487 13.8818C99.1487 12.7971 98.8588 11.8674 98.1339 11.2475C97.5541 10.6277 96.6843 10.1628 95.8146 10.1628C94.9448 10.1628 94.075 10.4728 93.4952 11.2475C92.9153 11.8674 92.4805 12.7971 92.4805 13.8818C92.4805 14.9666 92.7704 15.8963 93.4952 16.5161ZM101.903 18.5306V9.23308H103.208L107.411 16.5161V9.23308H108.571V18.5306H107.411L102.918 10.9376V18.5306H101.903Z" fill="white" stroke="white" stroke-width="0.289923" stroke-miterlimit="10"/>
<path d="M91.0312 32.1678C87.5521 32.1678 84.7978 34.9571 84.7978 38.831C84.7978 42.5501 87.5521 45.4943 91.0312 45.4943C94.5102 45.4943 97.2645 42.705 97.2645 38.831C97.2645 34.8021 94.5102 32.1678 91.0312 32.1678ZM91.0312 42.705C89.1467 42.705 87.5521 41.0005 87.5521 38.6761C87.5521 36.3517 89.1467 34.6472 91.0312 34.6472C92.9157 34.6472 94.5102 36.1967 94.5102 38.6761C94.5102 41.0005 92.9157 42.705 91.0312 42.705ZM77.5498 32.1678C74.0707 32.1678 71.3164 34.9571 71.3164 38.831C71.3164 42.5501 74.0707 45.4943 77.5498 45.4943C81.0288 45.4943 83.7831 42.705 83.7831 38.831C83.7831 34.8021 81.0288 32.1678 77.5498 32.1678ZM77.5498 42.705C75.6653 42.705 74.0707 41.0005 74.0707 38.6761C74.0707 36.3517 75.6653 34.6472 77.5498 34.6472C79.4343 34.6472 81.0288 36.1967 81.0288 38.6761C81.0288 41.0005 79.4343 42.705 77.5498 42.705ZM61.4591 34.1823V36.9715H67.6924C67.5474 38.5211 66.9676 39.7608 66.2428 40.5356C65.373 41.4653 63.9234 42.5501 61.4591 42.5501C57.5451 42.5501 54.6459 39.2959 54.6459 35.112C54.6459 30.9282 57.6901 27.674 61.4591 27.674C63.4885 27.674 65.0831 28.6038 66.2428 29.6885L68.1273 27.674C66.5327 26.1244 64.5032 24.8848 61.604 24.8848C56.3854 24.8848 51.8916 29.5335 51.8916 35.112C51.8916 40.6905 56.3854 45.3393 61.604 45.3393C64.5032 45.3393 66.5327 44.4096 68.2722 42.3951C70.0118 40.5356 70.5916 37.9013 70.5916 35.8868C70.5916 35.267 70.5916 34.6472 70.4467 34.1823H61.4591ZM127.271 36.3517C126.692 34.8021 125.242 32.1678 122.053 32.1678C118.864 32.1678 116.254 34.8021 116.254 38.831C116.254 42.5501 118.864 45.4943 122.343 45.4943C125.097 45.4943 126.837 43.6348 127.416 42.5501L125.387 41.0005C124.662 42.0852 123.792 42.86 122.343 42.86C120.893 42.86 120.023 42.2401 119.299 40.8455L127.561 37.1265L127.271 36.3517ZM118.864 38.5211C118.864 36.0418 120.748 34.6472 122.053 34.6472C123.068 34.6472 124.082 35.267 124.372 36.0418L118.864 38.5211ZM112.051 44.8744H114.805V25.5046H112.051V44.8744ZM107.702 33.5625C106.977 32.7877 105.817 32.0129 104.368 32.0129C101.323 32.0129 98.4242 34.9571 98.4242 38.6761C98.4242 42.3951 101.178 45.1844 104.368 45.1844C105.817 45.1844 106.977 44.4096 107.557 43.6348H107.702V44.5645C107.702 47.0439 106.397 48.4385 104.368 48.4385C102.773 48.4385 101.613 47.1988 101.323 46.1141L99.004 47.1988C99.7288 48.9034 101.468 51.0728 104.513 51.0728C107.702 51.0728 110.311 49.0583 110.311 44.2546V32.4777H107.702V33.5625ZM104.513 42.705C102.628 42.705 101.033 41.0005 101.033 38.6761C101.033 36.3517 102.628 34.6472 104.513 34.6472C106.397 34.6472 107.847 36.3517 107.847 38.6761C107.847 41.0005 106.397 42.705 104.513 42.705ZM139.883 25.5046H133.36V44.8744H136.114V37.5914H139.883C142.927 37.5914 145.827 35.267 145.827 31.548C145.827 27.829 142.927 25.5046 139.883 25.5046ZM140.028 34.8021H136.114V28.1389H140.028C142.058 28.1389 143.217 29.9984 143.217 31.393C143.072 33.0976 141.913 34.8021 140.028 34.8021ZM156.699 32.0129C154.669 32.0129 152.64 32.9426 151.915 34.9571L154.379 36.0418C154.959 34.9571 155.829 34.6472 156.844 34.6472C158.293 34.6472 159.598 35.5769 159.743 37.1265V37.2815C159.308 36.9715 158.148 36.5067 156.989 36.5067C154.379 36.5067 151.77 38.0563 151.77 40.8455C151.77 43.4798 153.944 45.1844 156.264 45.1844C158.148 45.1844 159.018 44.2546 159.743 43.3248H159.888V44.8744H162.497V37.4364C162.207 34.0273 159.743 32.0129 156.699 32.0129ZM156.409 42.705C155.539 42.705 154.234 42.2401 154.234 41.0005C154.234 39.4509 155.829 38.986 157.134 38.986C158.293 38.986 158.873 39.2959 159.598 39.6058C159.308 41.4653 157.858 42.705 156.409 42.705ZM171.63 32.4777L168.585 40.8455H168.441L165.251 32.4777H162.352L167.136 44.2546L164.382 50.7629H167.136L174.529 32.4777H171.63ZM147.276 44.8744H150.03V25.5046H147.276V44.8744Z" fill="white"/>
<path d="M7.38844 10.0098C6.95355 10.4746 6.80859 11.2494 6.80859 12.1792V46.4251C6.80859 47.3548 7.09852 48.1296 7.5334 48.5945L7.67836 48.7494L25.6536 29.5346V29.2246L7.38844 10.0098Z" fill="url(#paint0_linear_1144_24491)"/>
<path d="M31.4522 36.0426L25.5088 29.6893V29.2244L31.4522 22.8711L31.5972 23.0261L38.7003 27.3649C40.7297 28.6046 40.7297 30.619 38.7003 31.8587L31.4522 36.0426Z" fill="url(#paint1_linear_1144_24491)"/>
<path d="M31.5967 35.8872L25.5084 29.3789L7.38818 48.7487C8.11299 49.5235 9.12772 49.5235 10.4324 48.9037L31.5967 35.8872Z" fill="url(#paint2_linear_1144_24491)"/>
<path d="M31.5967 22.871L10.4324 10.0094C9.12772 9.2346 8.11299 9.38955 7.38818 10.1643L25.5084 29.3792L31.5967 22.871Z" fill="url(#paint3_linear_1144_24491)"/>
<path opacity="0.2" d="M31.4518 35.7324L10.4324 48.439C9.27268 49.2138 8.25795 49.0589 7.53315 48.439L7.38818 48.594L7.53315 48.749C8.25795 49.3688 9.27268 49.5237 10.4324 48.749L31.4518 35.7324Z" fill="black"/>
<path opacity="0.12" d="M7.38844 48.4388C6.95355 47.9739 6.80859 47.1992 6.80859 46.2694V46.4244C6.80859 47.3541 7.09852 48.1289 7.5334 48.5938V48.4388H7.38844ZM38.7001 31.3934L31.452 35.7322L31.597 35.8872L38.7001 31.5483C39.7148 30.9285 40.1497 30.1537 40.1497 29.3789C40.1497 30.1537 39.5699 30.7735 38.7001 31.3934Z" fill="black"/>
<path opacity="0.25" d="M10.4326 10.1646L38.7001 27.365C39.5699 27.9848 40.1497 28.6046 40.1497 29.3794C40.1497 28.6046 39.7148 27.8298 38.7001 27.21L10.4326 10.0096C8.40317 8.76993 6.80859 9.69968 6.80859 12.179V12.334C6.80859 10.0096 8.40317 8.92489 10.4326 10.1646Z" fill="white"/>
<path d="M176.101 57.187H4.85004C1.01402 57.187 -2 54.173 -2 50.337V9.23676C-2 5.40074 1.01402 2.38672 4.85004 2.38672H176.101C179.937 2.38672 182.951 5.40074 182.951 9.23676V50.337C182.951 54.173 179.937 57.187 176.101 57.187Z" fill="black"/>
<path d="M62.9383 16.3609C62.9383 17.4569 62.6643 18.4159 61.9793 19.1009C61.1573 19.9229 60.1983 20.3339 58.9653 20.3339C57.7323 20.3339 56.7733 19.9229 55.9513 19.1009C55.1293 18.2789 54.7183 17.3199 54.7183 16.0869C54.7183 14.8539 55.1293 13.8949 55.9513 13.0729C56.7733 12.2508 57.7323 11.8398 58.9653 11.8398C59.5133 11.8398 60.0613 11.9768 60.6093 12.2508C61.1573 12.5248 61.5683 12.7988 61.8423 13.2099L61.1573 13.8949C60.6093 13.2099 59.9243 12.9358 58.9653 12.9358C58.1433 12.9358 57.3213 13.2099 56.7733 13.8949C56.0883 14.4429 55.8143 15.2649 55.8143 16.2239C55.8143 17.1829 56.0883 18.0049 56.7733 18.5529C57.4583 19.1009 58.1433 19.5119 58.9653 19.5119C59.9243 19.5119 60.6093 19.2379 61.2943 18.5529C61.7053 18.1419 61.9793 17.5939 61.9793 16.9089H58.9653V15.8129H62.9383V16.3609ZM69.2403 12.9358H65.5413V15.5389H68.9663V16.4979H65.5413V19.1009H69.2403V20.1969H64.4453V11.9768H69.2403V12.9358ZM73.7614 20.1969H72.6654V12.9358H70.3364V11.9768H76.0904V12.9358H73.7614V20.1969ZM80.0634 20.1969V11.9768H81.1594V20.1969H80.0634ZM85.8174 20.1969H84.7214V12.9358H82.3924V11.9768H88.0095V12.9358H85.6804V20.1969H85.8174ZM98.8325 19.1009C98.0105 19.9229 97.0515 20.3339 95.8185 20.3339C94.5855 20.3339 93.6265 19.9229 92.8045 19.1009C91.9825 18.2789 91.5715 17.3199 91.5715 16.0869C91.5715 14.8539 91.9825 13.8949 92.8045 13.0729C93.6265 12.2508 94.5855 11.8398 95.8185 11.8398C97.0515 11.8398 98.0105 12.2508 98.8325 13.0729C99.6545 13.8949 100.066 14.8539 100.066 16.0869C100.066 17.3199 99.6545 18.2789 98.8325 19.1009ZM93.6265 18.4159C94.1745 18.9639 94.9965 19.3749 95.8185 19.3749C96.6405 19.3749 97.4625 19.1009 98.0105 18.4159C98.5585 17.8679 98.9695 17.0459 98.9695 16.0869C98.9695 15.1279 98.6955 14.3059 98.0105 13.7579C97.4625 13.2099 96.6405 12.7988 95.8185 12.7988C94.9965 12.7988 94.1745 13.0729 93.6265 13.7579C93.0785 14.3059 92.6675 15.1279 92.6675 16.0869C92.6675 17.0459 92.9415 17.8679 93.6265 18.4159ZM101.573 20.1969V11.9768H102.806L106.779 18.4159V11.9768H107.875V20.1969H106.779L102.532 13.4839V20.1969H101.573Z" fill="white" stroke="white" stroke-width="0.274002" stroke-miterlimit="10"/>
<path d="M91.2973 32.2515C88.0093 32.2515 85.4063 34.7176 85.4063 38.1426C85.4063 41.4306 88.0093 44.0336 91.2973 44.0336C94.5854 44.0336 97.1884 41.5676 97.1884 38.1426C97.1884 34.5806 94.5854 32.2515 91.2973 32.2515ZM91.2973 41.5676C89.5163 41.5676 88.0093 40.0606 88.0093 38.0056C88.0093 35.9506 89.5163 34.4435 91.2973 34.4435C93.0784 34.4435 94.5854 35.8136 94.5854 38.0056C94.5854 40.0606 93.0784 41.5676 91.2973 41.5676ZM78.5563 32.2515C75.2683 32.2515 72.6652 34.7176 72.6652 38.1426C72.6652 41.4306 75.2683 44.0336 78.5563 44.0336C81.8443 44.0336 84.4473 41.5676 84.4473 38.1426C84.4473 34.5806 81.8443 32.2515 78.5563 32.2515ZM78.5563 41.5676C76.7753 41.5676 75.2683 40.0606 75.2683 38.0056C75.2683 35.9506 76.7753 34.4435 78.5563 34.4435C80.3373 34.4435 81.8443 35.8136 81.8443 38.0056C81.8443 40.0606 80.3373 41.5676 78.5563 41.5676ZM63.3492 34.0325V36.4986H69.2402C69.1032 37.8686 68.5552 38.9646 67.8702 39.6496C67.0482 40.4716 65.6782 41.4306 63.3492 41.4306C59.6502 41.4306 56.9101 38.5536 56.9101 34.8546C56.9101 31.1555 59.7872 28.2785 63.3492 28.2785C65.2672 28.2785 66.7742 29.1005 67.8702 30.0595L69.6512 28.2785C68.1442 26.9085 66.2262 25.8125 63.4862 25.8125C58.5542 25.8125 54.3071 29.9225 54.3071 34.8546C54.3071 39.7866 58.5542 43.8966 63.4862 43.8966C66.2262 43.8966 68.1442 43.0746 69.7882 41.2936C71.4322 39.6496 71.9802 37.3206 71.9802 35.5396C71.9802 34.9916 71.9802 34.4436 71.8432 34.0325H63.3492ZM125.548 35.9506C125 34.5806 123.63 32.2515 120.616 32.2515C117.602 32.2515 115.135 34.5806 115.135 38.1426C115.135 41.4306 117.601 44.0336 120.89 44.0336C123.493 44.0336 125.137 42.3896 125.685 41.4306L123.767 40.0606C123.082 41.0196 122.26 41.7046 120.89 41.7046C119.52 41.7046 118.698 41.1566 118.013 39.9236L125.822 36.6356L125.548 35.9506ZM117.602 37.8686C117.602 35.6766 119.383 34.4435 120.616 34.4435C121.575 34.4435 122.534 34.9916 122.808 35.6766L117.602 37.8686ZM111.162 43.4856H113.765V26.3605H111.162V43.4856ZM107.052 33.4845C106.367 32.7995 105.271 32.1145 103.901 32.1145C101.024 32.1145 98.2844 34.7176 98.2844 38.0056C98.2844 41.2936 100.887 43.7596 103.901 43.7596C105.271 43.7596 106.367 43.0746 106.915 42.3896H107.052V43.2116C107.052 45.4036 105.819 46.6366 103.901 46.6366C102.394 46.6366 101.298 45.5406 101.024 44.5816L98.8324 45.5406C99.5174 47.0476 101.161 48.9656 104.038 48.9656C107.052 48.9656 109.518 47.1846 109.518 42.9376V32.5255H107.052V33.4845ZM104.038 41.5676C102.257 41.5676 100.75 40.0606 100.75 38.0056C100.75 35.9506 102.257 34.4435 104.038 34.4435C105.819 34.4435 107.189 35.9506 107.189 38.0056C107.189 40.0606 105.819 41.5676 104.038 41.5676ZM137.467 26.3605H131.302V43.4856H133.905V37.0466H137.467C140.344 37.0466 143.084 34.9916 143.084 31.7035C143.084 28.4155 140.344 26.3605 137.467 26.3605ZM137.604 34.5806H133.905V28.6895H137.604C139.522 28.6895 140.618 30.3335 140.618 31.5665C140.481 33.0735 139.385 34.5806 137.604 34.5806ZM153.359 32.1145C151.441 32.1145 149.523 32.9365 148.838 34.7176L151.167 35.6766C151.715 34.7176 152.537 34.4435 153.496 34.4435C154.866 34.4435 156.099 35.2656 156.236 36.6356V36.7726C155.825 36.4986 154.729 36.0876 153.633 36.0876C151.167 36.0876 148.701 37.4576 148.701 39.9236C148.701 42.2526 150.756 43.7596 152.948 43.7596C154.729 43.7596 155.551 42.9376 156.236 42.1156H156.373V43.4856H158.839V36.9096C158.565 33.8955 156.236 32.1145 153.359 32.1145ZM153.085 41.5676C152.263 41.5676 151.03 41.1566 151.03 40.0606C151.03 38.6906 152.537 38.2796 153.77 38.2796C154.866 38.2796 155.414 38.5536 156.099 38.8276C155.825 40.4716 154.455 41.5676 153.085 41.5676ZM167.47 32.5255L164.593 39.9236H164.456L161.442 32.5255H158.702L163.223 42.9376L160.62 48.6916H163.223L170.21 32.5255H167.47ZM144.454 43.4856H147.057V26.3605H144.454V43.4856Z" fill="white"/>
<path d="M12.2482 12.6641C11.8372 13.0751 11.7002 13.7601 11.7002 14.5821V44.8593C11.7002 45.6813 11.9742 46.3663 12.3852 46.7773L12.5222 46.9143L29.5103 29.9262V29.6522L12.2482 12.6641Z" fill="url(#paint4_linear_1144_24491)"/>
<path d="M34.9906 35.6802L29.3735 30.0632V29.6522L34.9906 24.0352L35.1276 24.1722L41.8406 28.0082C43.7586 29.1042 43.7586 30.8852 41.8406 31.9812L34.9906 35.6802Z" fill="url(#paint5_linear_1144_24491)"/>
<path d="M35.1272 35.5431L29.3731 29.7891L12.248 46.9142C12.9331 47.5992 13.8921 47.5992 15.1251 47.0512L35.1272 35.5431Z" fill="url(#paint6_linear_1144_24491)"/>
<path d="M35.1272 24.0343L15.1251 12.6632C13.8921 11.9782 12.9331 12.1152 12.248 12.8002L29.3731 29.7883L35.1272 24.0343Z" fill="url(#paint7_linear_1144_24491)"/>
<path opacity="0.2" d="M34.9902 35.4062L15.1251 46.6403C14.0291 47.3253 13.0701 47.1883 12.385 46.6403L12.248 46.7773L12.385 46.9143C13.0701 47.4623 14.0291 47.5993 15.1251 46.9143L34.9902 35.4062Z" fill="black"/>
<path opacity="0.12" d="M12.2482 46.6402C11.8372 46.2292 11.7002 45.5442 11.7002 44.7222V44.8592C11.7002 45.6812 11.9742 46.3662 12.3852 46.7772V46.6402H12.2482ZM41.8404 31.5701L34.9903 35.4061L35.1273 35.5431L41.8404 31.7071C42.7994 31.1591 43.2104 30.4741 43.2104 29.7891C43.2104 30.4741 42.6624 31.0221 41.8404 31.5701Z" fill="black"/>
<path opacity="0.25" d="M15.1252 12.8L41.8404 28.0071C42.6624 28.5551 43.2104 29.1031 43.2104 29.7881C43.2104 29.1031 42.7994 28.4181 41.8404 27.8701L15.1252 12.663C13.2072 11.567 11.7002 12.389 11.7002 14.5811V14.7181C11.7002 12.663 13.2072 11.704 15.1252 12.8Z" fill="white"/>
</g>
<defs>
<linearGradient id="paint0_linear_1144_24491" x1="23.914" y1="11.8848" x2="-2.03485" y2="36.1581" gradientUnits="userSpaceOnUse">
<stop stop-color="#00A0FF"/>
<stop offset="0.007" stop-color="#00A1FF"/>
<stop offset="0.26" stop-color="#00BEFF"/>
<stop offset="0.512" stop-color="#00D2FF"/>
<stop offset="0.76" stop-color="#00DFFF"/>
<stop offset="1" stop-color="#00E3FF"/>
</linearGradient>
<linearGradient id="paint1_linear_1144_24491" x1="41.3589" y1="29.3809" x2="6.28257" y2="29.3809" gradientUnits="userSpaceOnUse">
<stop stop-color="#FFE000"/>
<stop offset="0.409" stop-color="#FFBD00"/>
<stop offset="0.775" stop-color="#FFA500"/>
<stop offset="1" stop-color="#FF9C00"/>
</linearGradient>
<linearGradient id="paint2_linear_1144_24491" x1="28.3018" y1="32.9368" x2="-6.88546" y2="65.8538" gradientUnits="userSpaceOnUse">
<stop stop-color="#FF3A44"/>
<stop offset="1" stop-color="#C31162"/>
</linearGradient>
<linearGradient id="paint3_linear_1144_24491" x1="2.89003" y1="-1.33978" x2="18.6035" y2="13.3599" gradientUnits="userSpaceOnUse">
<stop stop-color="#32A071"/>
<stop offset="0.069" stop-color="#2DA771"/>
<stop offset="0.476" stop-color="#15CF74"/>
<stop offset="0.801" stop-color="#06E775"/>
<stop offset="1" stop-color="#00F076"/>
</linearGradient>
<linearGradient id="paint4_linear_1144_24491" x1="27.8663" y1="14.3218" x2="4.87344" y2="37.3132" gradientUnits="userSpaceOnUse">
<stop stop-color="#00A0FF"/>
<stop offset="0.007" stop-color="#00A1FF"/>
<stop offset="0.26" stop-color="#00BEFF"/>
<stop offset="0.512" stop-color="#00D2FF"/>
<stop offset="0.76" stop-color="#00DFFF"/>
<stop offset="1" stop-color="#00E3FF"/>
</linearGradient>
<linearGradient id="paint5_linear_1144_24491" x1="44.3532" y1="29.7906" x2="11.2031" y2="29.7906" gradientUnits="userSpaceOnUse">
<stop stop-color="#FFE000"/>
<stop offset="0.409" stop-color="#FFBD00"/>
<stop offset="0.775" stop-color="#FFA500"/>
<stop offset="1" stop-color="#FF9C00"/>
</linearGradient>
<linearGradient id="paint6_linear_1144_24491" x1="32.0132" y1="32.9346" x2="0.834515" y2="64.1132" gradientUnits="userSpaceOnUse">
<stop stop-color="#FF3A44"/>
<stop offset="1" stop-color="#C31162"/>
</linearGradient>
<linearGradient id="paint7_linear_1144_24491" x1="7.99691" y1="2.62931" x2="21.9203" y2="16.5527" gradientUnits="userSpaceOnUse">
<stop stop-color="#32A071"/>
<stop offset="0.069" stop-color="#2DA771"/>
<stop offset="0.476" stop-color="#15CF74"/>
<stop offset="0.801" stop-color="#06E775"/>
<stop offset="1" stop-color="#00F076"/>
</linearGradient>
<clipPath id="clip0_1144_24491">
<rect y="0.386719" width="180" height="58" rx="12" fill="white"/>
</clipPath>
</defs>
</svg>
