<svg width="90" height="31" viewBox="0 0 90 31" fill="none" xmlns="http://www.w3.org/2000/svg">
<mask id="mask0_1580_42005" style="mask-type:luminance" maskUnits="userSpaceOnUse" x="0" y="1" width="90" height="30">
<path d="M90 1H0V30.6058H90V1Z" fill="white"/>
</mask>
<g mask="url(#mask0_1580_42005)">
<path d="M14.0594 30.6056C21.3295 30.6056 26.8915 25.7881 26.8915 17.8174V15.5838H13.8404V20.7954H20.8039C19.8842 23.2918 17.6068 24.8246 14.147 24.8246C9.11047 24.8246 5.95719 21.5838 5.95719 17.1604C5.95719 12.6056 9.24186 9.36475 13.6214 9.36475C16.5557 9.36475 18.8769 10.7224 19.9718 12.4304L25.0083 9.53994C22.8185 6.03629 18.6141 3.58373 13.6214 3.58373C6.00097 3.53994 0.000976562 9.58374 0.000976562 17.1166C0.000976562 24.6057 5.8696 30.6056 14.0594 30.6056Z" fill="#00357C"/>
<path d="M37.3583 21.7149H34.424H30.9643V16.328H39.1102C40.7745 16.2842 42.1759 14.7952 42.1759 12.8682C42.1759 11.0288 40.9497 9.5835 39.373 9.40831H30.9204V3.5835H34.3803H39.0226C39.1978 3.5835 39.4167 3.5835 39.5919 3.5835H40.0299V3.62729C44.6722 4.10904 48.3073 8.05065 48.3073 12.8682C48.3073 16.1966 46.2926 19.2185 43.3146 20.7076L49.0518 30.6492H42.4386L37.3583 21.7149Z" fill="#00357C"/>
<path d="M60.3075 30.4316V9.27832H54.1323V30.4316H60.3075Z" fill="#00357C"/>
<path d="M70.6001 22.1099V30.6062H64.4248V3.54053H74.673C80.0161 3.54053 84.1328 7.65731 84.1328 12.8252C84.1328 17.9493 80.0161 22.1099 74.673 22.1099H70.6001ZM70.6001 16.3289H74.673C76.5563 16.3289 77.9577 14.8398 77.9577 12.869C77.9577 10.8982 76.5563 9.40914 74.673 9.40914H70.6001V16.3289Z" fill="#00357C"/>
<path d="M57.2424 1C57.6365 1.0438 57.9869 1.21898 58.2059 1.61314C59.038 2.92701 59.8701 4.28467 60.7022 5.59855C60.8774 5.86131 61.0526 6.16788 61.2278 6.43066C61.403 6.69343 61.4467 6.91241 61.2278 7.17518C61.0526 7.39416 60.8336 7.48176 60.4832 7.35037C59.6073 7.0876 58.7315 6.82482 57.8117 6.51825C57.3737 6.38686 56.9796 6.38686 56.5416 6.51825C55.6657 6.82482 54.7898 7.0876 53.9139 7.35037C53.6512 7.43796 53.3445 7.43796 53.1693 7.17518C52.9941 6.95621 52.9942 6.69343 53.2132 6.38686C54.2205 4.76642 55.2277 3.18979 56.1912 1.56934C56.454 1.21898 56.7607 1 57.2424 1Z" fill="#00B8B7"/>
<path d="M87.7663 8.00768C87.4597 8.00768 87.1531 7.96389 86.8904 7.8325C86.6276 7.70111 86.3648 7.56972 86.1896 7.35074C85.9707 7.13176 85.8392 6.91279 85.7079 6.65001C85.5765 6.38724 85.5327 6.08067 85.5327 5.7741C85.5327 5.46753 85.5765 5.16096 85.7079 4.89819C85.8392 4.63541 85.9707 4.37264 86.1896 4.19745C86.4086 4.02228 86.6276 3.84709 86.8904 3.7157C87.1531 3.58432 87.4597 3.54053 87.7663 3.54053C88.0728 3.54053 88.3794 3.58432 88.6422 3.7157C88.905 3.84709 89.1678 3.97848 89.343 4.19745C89.5619 4.41644 89.6933 4.63541 89.8247 4.89819C89.9561 5.16096 89.9999 5.46753 89.9999 5.7741C89.9999 6.08067 89.9561 6.38724 89.8247 6.65001C89.6933 6.91279 89.5619 7.17556 89.343 7.35074C89.1239 7.56972 88.905 7.70111 88.6422 7.8325C88.3356 7.96389 88.0728 8.00768 87.7663 8.00768ZM87.7663 7.70111C88.1167 7.70111 88.467 7.61351 88.7298 7.43834C89.0363 7.26315 89.2554 7.04418 89.4306 6.7376C89.6057 6.43104 89.6933 6.12446 89.6933 5.7741C89.6933 5.42374 89.6057 5.07338 89.4306 4.8106C89.2554 4.50403 89.0363 4.28505 88.7298 4.10986C88.4232 3.93469 88.1167 3.84709 87.7663 3.84709C87.4159 3.84709 87.0655 3.93469 86.8028 4.10986C86.54 4.28505 86.2772 4.50403 86.102 4.8106C85.9268 5.11716 85.8392 5.42374 85.8392 5.7741C85.8392 6.12446 85.9268 6.47483 86.102 6.7376C86.2772 7.04418 86.4962 7.26315 86.8028 7.43834C87.0655 7.61351 87.3722 7.70111 87.7663 7.70111ZM87.0218 6.7814V4.723H87.9415C88.0728 4.723 88.1604 4.7668 88.2919 4.8106C88.4232 4.85439 88.467 4.94199 88.5108 5.02958C88.5546 5.11716 88.5984 5.24855 88.5984 5.37994C88.5984 5.51133 88.5546 5.64271 88.5108 5.7303C88.467 5.8179 88.3794 5.90549 88.2919 5.94929C88.2043 5.99308 88.0728 6.03688 87.9415 6.03688H87.1531V5.8179H87.8976C88.0291 5.8179 88.1167 5.7741 88.2043 5.68651C88.2918 5.59891 88.3356 5.51133 88.3356 5.37994C88.3356 5.24855 88.2918 5.16096 88.2043 5.07338C88.1167 4.98578 88.0291 4.94199 87.8976 4.94199H87.2846V6.7814H87.0218ZM88.1604 5.86169L88.686 6.8252H88.3794L87.8976 5.86169H88.1604Z" fill="#00357C"/>
</g>
</svg>
