<svg width="335" height="397" viewBox="0 0 335 397" fill="none" xmlns="http://www.w3.org/2000/svg">
<g clip-path="url(#clip0_4197_200999)">
<rect width="335" height="396.27" rx="12" fill="#F7F7FC"/>
<path d="M37.572 52.6348V36.3042H41.5191V42.8587H47.9541V36.3042H51.8932V52.6348H47.9541V46.0722H41.5191V52.6348H37.572ZM54.3691 52.6348V40.3868H58.2683V52.6348H54.3691ZM56.3227 38.9595C55.7752 38.9595 55.3047 38.7788 54.9113 38.4173C54.5179 38.0505 54.3212 37.6093 54.3212 37.0936C54.3212 36.5833 54.5179 36.1474 54.9113 35.7859C55.3047 35.4191 55.7752 35.2357 56.3227 35.2357C56.8756 35.2357 57.346 35.4191 57.7341 35.7859C58.1275 36.1474 58.3241 36.5833 58.3241 37.0936C58.3241 37.6093 58.1275 38.0505 57.7341 38.4173C57.346 38.7788 56.8756 38.9595 56.3227 38.9595ZM66.4595 57.4829C65.2953 57.4829 64.2986 57.3208 63.4693 56.9965C62.64 56.6722 61.9888 56.2283 61.5157 55.6649C61.0426 55.1014 60.7582 54.4635 60.6625 53.7511L64.3544 53.5438C64.4235 53.7936 64.5511 54.0116 64.7372 54.1977C64.9285 54.3837 65.1757 54.5272 65.4787 54.6282C65.7871 54.7292 66.1485 54.7797 66.5632 54.7797C67.2171 54.7797 67.7566 54.6203 68.1819 54.3013C68.6125 53.9877 68.8278 53.4375 68.8278 52.6507V50.4978H68.6922C68.5381 50.8752 68.3042 51.2128 67.9905 51.5104C67.6769 51.8081 67.2862 52.042 66.8184 52.2121C66.3559 52.3823 65.8243 52.4673 65.2236 52.4673C64.3305 52.4673 63.5118 52.26 62.7676 51.8453C62.0287 51.4254 61.436 50.7768 60.9894 49.8997C60.5482 49.0173 60.3276 47.8823 60.3276 46.4949C60.3276 45.0649 60.5562 43.8874 61.0133 42.9624C61.4705 42.0321 62.0686 41.3437 62.8075 40.8972C63.5517 40.4506 64.3518 40.2274 65.2076 40.2274C65.8509 40.2274 66.4011 40.339 66.8582 40.5623C67.3207 40.7802 67.7008 41.062 67.9985 41.4075C68.2962 41.753 68.5221 42.1119 68.6763 42.484H68.7879V40.3868H72.6712V52.6826C72.6712 53.7192 72.4107 54.5937 71.8898 55.306C71.3688 56.0184 70.6405 56.5579 69.7049 56.9247C68.7693 57.2968 67.6875 57.4829 66.4595 57.4829ZM66.5791 49.6286C67.0523 49.6286 67.4563 49.5037 67.7912 49.2538C68.1261 49.004 68.3839 48.6452 68.5646 48.1773C68.7454 47.7095 68.8358 47.1487 68.8358 46.4949C68.8358 45.8304 68.7454 45.2589 68.5646 44.7805C68.3892 44.2967 68.1314 43.9246 67.7912 43.6641C67.4563 43.4036 67.0523 43.2734 66.5791 43.2734C66.0954 43.2734 65.6861 43.4063 65.3512 43.6721C65.0163 43.9379 64.7611 44.3127 64.5857 44.7964C64.4156 45.2748 64.3305 45.841 64.3305 46.4949C64.3305 47.1487 64.4182 47.7095 64.5936 48.1773C64.7691 48.6452 65.0216 49.004 65.3512 49.2538C65.6861 49.5037 66.0954 49.6286 66.5791 49.6286ZM79.0563 45.6496V52.6348H75.1571V36.3042H78.9287V42.6355H79.0643C79.3407 41.8806 79.7926 41.2905 80.4199 40.8653C81.0525 40.44 81.8259 40.2274 82.7403 40.2274C83.6015 40.2274 84.351 40.4187 84.9889 40.8015C85.6268 41.1789 86.1212 41.7132 86.4721 42.4042C86.8282 43.0953 87.0037 43.9033 86.9983 44.8283V52.6348H83.0991V45.5938C83.1044 44.9134 82.9343 44.3818 82.5888 43.999C82.2432 43.6163 81.7568 43.4249 81.1295 43.4249C80.7202 43.4249 80.3587 43.5153 80.0451 43.696C79.7368 43.8714 79.4949 44.1239 79.3195 44.4535C79.1494 44.7831 79.0616 45.1818 79.0563 45.6496ZM94.2566 52.6348V36.3042H101.003C102.225 36.3042 103.28 36.5248 104.168 36.966C105.061 37.4019 105.75 38.0292 106.233 38.8479C106.717 39.6612 106.959 40.626 106.959 41.7424C106.959 42.8747 106.712 43.8369 106.217 44.629C105.723 45.4157 105.021 46.0164 104.112 46.4311C103.203 46.8404 102.127 47.0451 100.883 47.0451H96.6169V43.9352H100.149C100.745 43.9352 101.242 43.8581 101.64 43.704C102.044 43.5445 102.35 43.3053 102.557 42.9863C102.765 42.6621 102.868 42.2474 102.868 41.7424C102.868 41.2374 102.765 40.8201 102.557 40.4905C102.35 40.1556 102.044 39.9057 101.64 39.7409C101.236 39.5708 100.739 39.4858 100.149 39.4858H98.2037V52.6348H94.2566ZM103.451 45.1712L107.517 52.6348H103.211L99.2243 45.1712H103.451ZM114.608 52.866C113.327 52.866 112.221 52.6135 111.291 52.1085C110.366 51.5982 109.654 50.8725 109.154 49.9316C108.659 48.9854 108.412 47.861 108.412 46.5586C108.412 45.2934 108.662 44.1877 109.162 43.2415C109.662 42.2899 110.366 41.551 111.275 41.0247C112.184 40.4932 113.255 40.2274 114.488 40.2274C115.36 40.2274 116.158 40.3629 116.881 40.634C117.604 40.9051 118.228 41.3065 118.754 41.8381C119.281 42.3697 119.69 43.0262 119.982 43.8076C120.275 44.5838 120.421 45.4742 120.421 46.4789V47.4517H109.776V45.1871H116.793C116.788 44.7725 116.689 44.403 116.498 44.0788C116.306 43.7545 116.043 43.502 115.708 43.3212C115.379 43.1352 114.999 43.0421 114.568 43.0421C114.132 43.0421 113.742 43.1405 113.396 43.3372C113.05 43.5286 112.777 43.7917 112.575 44.1266C112.373 44.4562 112.266 44.831 112.256 45.2509V47.5554C112.256 48.0551 112.354 48.4936 112.551 48.8711C112.747 49.2432 113.027 49.5329 113.388 49.7402C113.75 49.9476 114.18 50.0512 114.68 50.0512C115.025 50.0512 115.339 50.0034 115.621 49.9077C115.902 49.812 116.144 49.6711 116.346 49.4851C116.548 49.299 116.7 49.0704 116.801 48.7993L120.381 48.903C120.232 49.7057 119.905 50.4047 119.4 51.0001C118.901 51.5902 118.244 52.05 117.431 52.3796C116.617 52.7039 115.677 52.866 114.608 52.866ZM129.326 40.3868V43.2574H121.599V40.3868H129.326ZM123.218 37.4524H127.117V48.7834C127.117 49.0226 127.154 49.2166 127.229 49.3655C127.308 49.509 127.423 49.6127 127.572 49.6764C127.72 49.7349 127.899 49.7642 128.106 49.7642C128.255 49.7642 128.412 49.7509 128.576 49.7243C128.746 49.6924 128.874 49.6658 128.959 49.6445L129.549 52.4593C129.363 52.5125 129.1 52.5789 128.76 52.6587C128.425 52.7384 128.023 52.7889 127.556 52.8102C126.641 52.8527 125.857 52.7464 125.203 52.4912C124.555 52.2308 124.058 51.8267 123.712 51.2792C123.372 50.7317 123.207 50.0432 123.218 49.214V37.4524ZM139.218 47.3481V40.3868H143.109V52.6348H139.393V50.3542H139.265C138.994 51.1038 138.532 51.6992 137.878 52.1404C137.229 52.5763 136.445 52.7942 135.526 52.7942C134.691 52.7942 133.957 52.6029 133.325 52.2201C132.692 51.8374 132.2 51.3031 131.85 50.6174C131.499 49.9263 131.321 49.1183 131.315 48.1933V40.3868H135.215V47.4278C135.22 48.0923 135.395 48.6159 135.741 48.9987C136.086 49.3814 136.557 49.5728 137.152 49.5728C137.54 49.5728 137.889 49.4877 138.197 49.3176C138.511 49.1422 138.758 48.8897 138.938 48.5601C139.124 48.2252 139.218 47.8212 139.218 47.3481ZM145.591 52.6348V40.3868H149.378V42.6195H149.506C149.729 41.8115 150.093 41.2108 150.598 40.8174C151.103 40.4187 151.691 40.2194 152.361 40.2194C152.541 40.2194 152.727 40.2327 152.919 40.2592C153.11 40.2805 153.288 40.3151 153.453 40.3629V43.7518C153.267 43.688 153.022 43.6375 152.719 43.6003C152.422 43.5631 152.156 43.5445 151.922 43.5445C151.459 43.5445 151.042 43.6482 150.67 43.8555C150.303 44.0575 150.014 44.3419 149.801 44.7087C149.594 45.0702 149.49 45.4955 149.49 45.9845V52.6348H145.591ZM158.941 45.6496V52.6348H155.042V40.3868H158.75V42.6355H158.885C159.156 41.8859 159.619 41.2985 160.273 40.8732C160.926 40.4426 161.705 40.2274 162.609 40.2274C163.47 40.2274 164.217 40.4214 164.85 40.8094C165.488 41.1922 165.982 41.7291 166.333 42.4202C166.689 43.1059 166.864 43.9086 166.859 44.8283V52.6348H162.96V45.5938C162.965 44.9134 162.792 44.3818 162.442 43.999C162.096 43.6163 161.615 43.4249 160.998 43.4249C160.589 43.4249 160.227 43.5153 159.914 43.696C159.605 43.8714 159.366 44.1239 159.196 44.4535C159.031 44.7831 158.946 45.1818 158.941 45.6496ZM179.966 44.1266L176.386 44.2223C176.349 43.9671 176.248 43.7412 176.083 43.5445C175.918 43.3425 175.703 43.1857 175.437 43.074C175.177 42.9571 174.874 42.8986 174.528 42.8986C174.076 42.8986 173.691 42.989 173.372 43.1697C173.058 43.3505 172.904 43.595 172.909 43.9033C172.904 44.1425 173 44.3499 173.196 44.5253C173.398 44.7007 173.757 44.8416 174.273 44.9479L176.633 45.3945C177.856 45.6284 178.765 46.0164 179.36 46.5586C179.961 47.1009 180.264 47.8185 180.269 48.7116C180.264 49.5515 180.014 50.2825 179.52 50.9044C179.031 51.5264 178.361 52.0101 177.51 52.3557C176.66 52.6959 175.687 52.866 174.592 52.866C172.843 52.866 171.463 52.5072 170.453 51.7895C169.449 51.0666 168.875 50.0991 168.731 48.887L172.582 48.7913C172.667 49.2379 172.888 49.5781 173.244 49.812C173.6 50.0459 174.055 50.1629 174.608 50.1629C175.107 50.1629 175.514 50.0698 175.828 49.8838C176.141 49.6977 176.301 49.4505 176.306 49.1422C176.301 48.8658 176.179 48.6452 175.939 48.4804C175.7 48.3102 175.325 48.1773 174.815 48.0817L172.678 47.675C171.45 47.4517 170.536 47.0397 169.935 46.439C169.334 45.833 169.037 45.0622 169.042 44.1266C169.037 43.3079 169.255 42.6089 169.696 42.0295C170.137 41.4447 170.764 40.9982 171.578 40.6898C172.391 40.3815 173.351 40.2274 174.456 40.2274C176.115 40.2274 177.423 40.5755 178.379 41.2719C179.336 41.963 179.865 42.9146 179.966 44.1266ZM192.148 52.882C191 52.882 190.009 52.6773 189.174 52.268C188.345 51.8586 187.707 51.3084 187.26 50.6174C186.814 49.921 186.591 49.1475 186.591 48.297C186.591 47.6697 186.713 47.1168 186.957 46.6384C187.207 46.1546 187.55 45.7107 187.986 45.3067C188.427 44.8974 188.94 44.4961 189.525 44.1027L192.954 41.9099C193.342 41.6653 193.616 41.4075 193.775 41.1364C193.94 40.8653 194.022 40.5942 194.022 40.323C194.022 40.0307 193.908 39.7649 193.679 39.5256C193.456 39.2864 193.124 39.1695 192.683 39.1748C192.401 39.1748 192.156 39.2333 191.949 39.3502C191.742 39.4672 191.58 39.624 191.463 39.8207C191.351 40.0174 191.295 40.2406 191.295 40.4905C191.295 40.8148 191.388 41.147 191.574 41.4872C191.76 41.8275 192.01 42.1889 192.324 42.5717C192.643 42.9544 192.996 43.3771 193.384 43.8395L201.207 52.6348H197.236L190.689 45.53C190.317 45.1154 189.926 44.6502 189.517 44.1346C189.108 43.6189 188.762 43.0554 188.48 42.4441C188.199 41.8275 188.058 41.1576 188.058 40.4347C188.058 39.6213 188.249 38.8851 188.632 38.2259C189.015 37.5667 189.552 37.0431 190.243 36.655C190.939 36.2617 191.75 36.065 192.675 36.065C193.568 36.065 194.339 36.2484 194.987 36.6152C195.636 36.982 196.135 37.4684 196.486 38.0744C196.837 38.6804 197.012 39.3449 197.012 40.0679C197.012 40.8334 196.824 41.5377 196.446 42.181C196.069 42.8189 195.535 43.385 194.844 43.8794L191.487 46.2796C191.13 46.5347 190.851 46.8085 190.649 47.1009C190.447 47.3879 190.346 47.7016 190.346 48.0418C190.346 48.3926 190.429 48.6983 190.593 48.9588C190.764 49.2193 191.003 49.4239 191.311 49.5728C191.619 49.7216 191.981 49.7961 192.396 49.7961C192.948 49.7961 193.501 49.6658 194.054 49.4053C194.607 49.1395 195.112 48.7674 195.569 48.289C196.026 47.8052 196.393 47.2338 196.67 46.5746C196.946 45.9101 197.084 45.1818 197.084 44.3897H200.226C200.226 45.3679 200.122 46.2769 199.915 47.1168C199.708 47.9514 199.397 48.701 198.982 49.3655C198.573 50.0246 198.065 50.5722 197.459 51.0081C197.268 51.1144 197.082 51.2154 196.901 51.3111C196.72 51.4068 196.534 51.5078 196.343 51.6141C195.715 52.066 195.035 52.3902 194.301 52.5869C193.573 52.7836 192.855 52.882 192.148 52.882ZM216.058 41.2002C216.005 40.6154 215.768 40.1609 215.348 39.8366C214.934 39.507 214.341 39.3422 213.57 39.3422C213.06 39.3422 212.635 39.4087 212.294 39.5416C211.954 39.6745 211.699 39.8579 211.529 40.0918C211.359 40.3204 211.271 40.5835 211.266 40.8812C211.255 41.1257 211.303 41.341 211.409 41.5271C211.521 41.7132 211.68 41.878 211.888 42.0215C212.1 42.1597 212.356 42.282 212.653 42.3883C212.951 42.4946 213.286 42.5876 213.658 42.6674L215.061 42.9863C215.869 43.1618 216.582 43.3957 217.198 43.688C217.82 43.9804 218.341 44.3286 218.761 44.7326C219.187 45.1366 219.508 45.6018 219.726 46.1281C219.944 46.6543 220.056 47.2444 220.061 47.8983C220.056 48.9296 219.795 49.8147 219.28 50.5536C218.764 51.2925 218.022 51.8586 217.055 52.252C216.093 52.6454 214.931 52.8421 213.57 52.8421C212.204 52.8421 211.013 52.6374 209.998 52.2281C208.983 51.8188 208.193 51.1968 207.63 50.3622C207.066 49.5276 206.777 48.4724 206.761 47.1966H210.54C210.572 47.7228 210.713 48.1614 210.963 48.5123C211.213 48.8631 211.556 49.1289 211.991 49.3096C212.433 49.4904 212.943 49.5808 213.522 49.5808C214.054 49.5808 214.506 49.509 214.878 49.3655C215.255 49.2219 215.545 49.0226 215.747 48.7674C215.949 48.5123 216.053 48.2199 216.058 47.8903C216.053 47.582 215.957 47.3188 215.771 47.1009C215.585 46.8776 215.298 46.6862 214.91 46.5267C214.527 46.362 214.038 46.2104 213.443 46.0722L211.736 45.6735C210.322 45.3493 209.209 44.8256 208.395 44.1027C207.582 43.3744 207.178 42.3909 207.183 41.1523C207.178 40.1423 207.449 39.2572 207.997 38.497C208.544 37.7368 209.302 37.1441 210.269 36.7188C211.237 36.2936 212.34 36.0809 213.578 36.0809C214.843 36.0809 215.941 36.2962 216.871 36.7268C217.807 37.1521 218.533 37.7501 219.048 38.5209C219.564 39.2917 219.827 40.1848 219.838 41.2002H216.058ZM228.968 40.3868V43.2574H221.241V40.3868H228.968ZM222.86 37.4524H226.759V48.7834C226.759 49.0226 226.796 49.2166 226.871 49.3655C226.951 49.509 227.065 49.6127 227.214 49.6764C227.362 49.7349 227.541 49.7642 227.748 49.7642C227.897 49.7642 228.054 49.7509 228.218 49.7243C228.388 49.6924 228.516 49.6658 228.601 49.6445L229.191 52.4593C229.005 52.5125 228.742 52.5789 228.402 52.6587C228.067 52.7384 227.666 52.7889 227.198 52.8102C226.283 52.8527 225.499 52.7464 224.845 52.4912C224.197 52.2308 223.7 51.8267 223.354 51.2792C223.014 50.7317 222.849 50.0432 222.86 49.214V37.4524ZM234.41 52.8421C233.629 52.8421 232.935 52.7118 232.329 52.4514C231.728 52.1856 231.252 51.7869 230.902 51.2553C230.556 50.7184 230.383 50.0459 230.383 49.2379C230.383 48.5574 230.503 47.9833 230.742 47.5155C230.981 47.0477 231.311 46.6676 231.731 46.3752C232.151 46.0829 232.635 45.8623 233.182 45.7134C233.73 45.5592 234.314 45.4556 234.936 45.4024C235.633 45.3386 236.194 45.2722 236.619 45.2031C237.044 45.1287 237.352 45.025 237.544 44.8921C237.741 44.7539 237.839 44.5598 237.839 44.31V44.2701C237.839 43.8608 237.698 43.5445 237.416 43.3212C237.135 43.098 236.754 42.9863 236.276 42.9863C235.76 42.9863 235.346 43.098 235.032 43.3212C234.718 43.5445 234.519 43.8528 234.434 44.2462L230.838 44.1186C230.944 43.3744 231.218 42.7099 231.659 42.1251C232.106 41.5351 232.717 41.0726 233.493 40.7377C234.275 40.3975 235.213 40.2274 236.308 40.2274C237.089 40.2274 237.81 40.3204 238.469 40.5064C239.128 40.6872 239.702 40.953 240.191 41.3038C240.68 41.6494 241.058 42.0746 241.323 42.5797C241.595 43.0847 241.73 43.6615 241.73 44.31V52.6348H238.062V50.9283H237.966C237.749 51.343 237.469 51.6938 237.129 51.9809C236.794 52.268 236.398 52.4833 235.941 52.6268C235.489 52.7703 234.979 52.8421 234.41 52.8421ZM235.614 50.2904C236.034 50.2904 236.412 50.2054 236.746 50.0353C237.087 49.8652 237.358 49.6313 237.56 49.3336C237.762 49.0306 237.863 48.6797 237.863 48.281V47.1168C237.751 47.1753 237.616 47.2285 237.456 47.2763C237.302 47.3241 237.132 47.3693 236.946 47.4119C236.76 47.4544 236.568 47.4916 236.372 47.5235C236.175 47.5554 235.986 47.5846 235.806 47.6112C235.439 47.6697 235.125 47.76 234.865 47.8823C234.609 48.0046 234.413 48.1641 234.275 48.3607C234.142 48.5521 234.075 48.7807 234.075 49.0465C234.075 49.4505 234.219 49.7588 234.506 49.9715C234.798 50.1841 235.168 50.2904 235.614 50.2904ZM244.114 52.6348V36.3042H248.014V42.484H248.093C248.253 42.1119 248.479 41.753 248.771 41.4075C249.069 41.062 249.446 40.7802 249.903 40.5623C250.366 40.339 250.919 40.2274 251.562 40.2274C252.413 40.2274 253.207 40.4506 253.946 40.8972C254.69 41.3437 255.291 42.0321 255.748 42.9624C256.205 43.8927 256.434 45.0782 256.434 46.5188C256.434 47.9062 256.213 49.0678 255.772 50.0034C255.336 50.939 254.746 51.6407 254.002 52.1085C253.263 52.5763 252.442 52.8102 251.538 52.8102C250.921 52.8102 250.387 52.7092 249.935 52.5072C249.483 52.3052 249.103 52.0394 248.795 51.7098C248.492 51.3802 248.258 51.0267 248.093 50.6493H247.974V52.6348H244.114ZM247.934 46.5108C247.934 47.17 248.022 47.7441 248.197 48.2332C248.378 48.7222 248.636 49.1023 248.97 49.3734C249.311 49.6392 249.717 49.7721 250.19 49.7721C250.669 49.7721 251.076 49.6392 251.41 49.3734C251.745 49.1023 251.998 48.7222 252.168 48.2332C252.343 47.7441 252.431 47.17 252.431 46.5108C252.431 45.8516 252.343 45.2802 252.168 44.7964C251.998 44.3127 251.745 43.9379 251.41 43.6721C251.081 43.4063 250.674 43.2734 250.19 43.2734C249.712 43.2734 249.305 43.4036 248.97 43.6641C248.636 43.9246 248.378 44.2967 248.197 44.7805C248.022 45.2642 247.934 45.841 247.934 46.5108ZM258.477 52.6348V40.3868H262.377V52.6348H258.477ZM260.431 38.9595C259.883 38.9595 259.413 38.7788 259.02 38.4173C258.626 38.0505 258.43 37.6093 258.43 37.0936C258.43 36.5833 258.626 36.1474 259.02 35.7859C259.413 35.4191 259.883 35.2357 260.431 35.2357C260.984 35.2357 261.454 35.4191 261.842 35.7859C262.236 36.1474 262.432 36.5833 262.432 37.0936C262.432 37.6093 262.236 38.0505 261.842 38.4173C261.454 38.7788 260.984 38.9595 260.431 38.9595ZM268.758 36.3042V52.6348H264.859V36.3042H268.758ZM271.24 52.6348V40.3868H275.139V52.6348H271.24ZM273.193 38.9595C272.646 38.9595 272.175 38.7788 271.782 38.4173C271.388 38.0505 271.192 37.6093 271.192 37.0936C271.192 36.5833 271.388 36.1474 271.782 35.7859C272.175 35.4191 272.646 35.2357 273.193 35.2357C273.746 35.2357 274.217 35.4191 274.605 35.7859C274.998 36.1474 275.195 36.5833 275.195 37.0936C275.195 37.6093 274.998 38.0505 274.605 38.4173C274.217 38.7788 273.746 38.9595 273.193 38.9595ZM284.534 40.3868V43.2574H276.807V40.3868H284.534ZM278.426 37.4524H282.325V48.7834C282.325 49.0226 282.363 49.2166 282.437 49.3655C282.517 49.509 282.631 49.6127 282.78 49.6764C282.929 49.7349 283.107 49.7642 283.314 49.7642C283.463 49.7642 283.62 49.7509 283.785 49.7243C283.955 49.6924 284.082 49.6658 284.167 49.6445L284.757 52.4593C284.571 52.5125 284.308 52.5789 283.968 52.6587C283.633 52.7384 283.232 52.7889 282.764 52.8102C281.85 52.8527 281.065 52.7464 280.412 52.4912C279.763 52.2308 279.266 51.8267 278.921 51.2792C278.58 50.7317 278.415 50.0432 278.426 49.214V37.4524ZM288.908 57.2277C288.44 57.2277 287.999 57.1905 287.584 57.1161C287.17 57.047 286.813 56.954 286.516 56.837L287.377 54.0063C287.76 54.1339 288.105 54.2083 288.413 54.2295C288.727 54.2508 288.996 54.2003 289.219 54.078C289.447 53.9611 289.623 53.7511 289.745 53.4481L289.897 53.0813L285.543 40.3868H289.625L291.882 49.1262H292.01L294.298 40.3868H298.405L293.788 53.8069C293.565 54.4767 293.248 55.0668 292.839 55.5771C292.435 56.0928 291.911 56.4968 291.268 56.7892C290.63 57.0816 289.843 57.2277 288.908 57.2277Z" fill="#00B8B7"/>
<path d="M59.6924 77.811C58.7914 77.811 58.0178 77.6132 57.3715 77.2176C56.7291 76.822 56.2336 76.2756 55.885 75.5783C55.5403 74.8772 55.368 74.0703 55.368 73.1576C55.368 72.241 55.5442 71.4322 55.8968 70.731C56.2493 70.026 56.7468 69.4776 57.3892 69.0859C58.0355 68.6903 58.7993 68.4925 59.6806 68.4925C60.4131 68.4925 61.0613 68.6276 61.6254 68.8979C62.1934 69.1642 62.6458 69.5422 62.9826 70.0318C63.3195 70.5176 63.5114 71.0855 63.5584 71.7357H61.5255C61.4433 71.301 61.2474 70.9386 60.938 70.6488C60.6324 70.355 60.2231 70.2081 59.71 70.2081C59.2752 70.2081 58.8933 70.3256 58.5643 70.5606C58.2352 70.7917 57.9787 71.1247 57.7946 71.5595C57.6144 71.9943 57.5243 72.5152 57.5243 73.1224C57.5243 73.7373 57.6144 74.2661 57.7946 74.7088C57.9747 75.1475 58.2274 75.4863 58.5525 75.7252C58.8815 75.9602 59.2674 76.0778 59.71 76.0778C60.0233 76.0778 60.3034 76.019 60.5502 75.9015C60.8009 75.7801 61.0104 75.6058 61.1789 75.3786C61.3473 75.1514 61.4628 74.8752 61.5255 74.5501H63.5584C63.5075 75.1886 63.3195 75.7546 62.9944 76.2481C62.6693 76.7378 62.2267 77.1216 61.6665 77.3997C61.1064 77.6739 60.4483 77.811 59.6924 77.811ZM69.2415 77.811C68.3602 77.811 67.5964 77.6171 66.9501 77.2294C66.3038 76.8416 65.8024 76.2991 65.446 75.6018C65.0934 74.9046 64.9172 74.0899 64.9172 73.1576C64.9172 72.2254 65.0934 71.4087 65.446 70.7075C65.8024 70.0064 66.3038 69.4619 66.9501 69.0741C67.5964 68.6864 68.3602 68.4925 69.2415 68.4925C70.1229 68.4925 70.8867 68.6864 71.533 69.0741C72.1793 69.4619 72.6787 70.0064 73.0312 70.7075C73.3877 71.4087 73.5659 72.2254 73.5659 73.1576C73.5659 74.0899 73.3877 74.9046 73.0312 75.6018C72.6787 76.2991 72.1793 76.8416 71.533 77.2294C70.8867 77.6171 70.1229 77.811 69.2415 77.811ZM69.2533 76.1071C69.7312 76.1071 70.1307 75.9759 70.4519 75.7135C70.7731 75.4471 71.012 75.0907 71.1687 74.6441C71.3293 74.1976 71.4096 73.7001 71.4096 73.1517C71.4096 72.5994 71.3293 72.1 71.1687 71.6535C71.012 71.203 70.7731 70.8446 70.4519 70.5783C70.1307 70.3119 69.7312 70.1787 69.2533 70.1787C68.7637 70.1787 68.3563 70.3119 68.0312 70.5783C67.71 70.8446 67.4691 71.203 67.3085 71.6535C67.1518 72.1 67.0735 72.5994 67.0735 73.1517C67.0735 73.7001 67.1518 74.1976 67.3085 74.6441C67.4691 75.0907 67.71 75.4471 68.0312 75.7135C68.3563 75.9759 68.7637 76.1071 69.2533 76.1071ZM75.3712 77.6348V68.61H77.4041V70.1435H77.5099C77.6979 69.6264 78.0093 69.223 78.4441 68.9331C78.8788 68.6394 79.3979 68.4925 80.0011 68.4925C80.6121 68.4925 81.1272 68.6413 81.5463 68.939C81.9694 69.2328 82.2671 69.6343 82.4394 70.1435H82.5334C82.7332 69.6421 83.0701 69.2426 83.544 68.9449C84.0219 68.6433 84.5879 68.4925 85.242 68.4925C86.0724 68.4925 86.7501 68.7549 87.275 69.2798C87.7998 69.8047 88.0623 70.5704 88.0623 71.5771V77.6348H85.9295V71.9061C85.9295 71.346 85.7806 70.9367 85.4829 70.6782C85.1852 70.4157 84.821 70.2845 84.3901 70.2845C83.877 70.2845 83.4755 70.4451 83.1856 70.7663C82.8997 71.0836 82.7567 71.4968 82.7567 72.006V77.6348H80.6709V71.818C80.6709 71.3519 80.5299 70.9798 80.2478 70.7017C79.9697 70.4235 79.6055 70.2845 79.155 70.2845C78.8495 70.2845 78.5714 70.3628 78.3207 70.5195C78.07 70.6723 77.8702 70.8897 77.7214 71.1717C77.5725 71.4498 77.4981 71.7749 77.4981 72.147V77.6348H75.3712ZM90.3141 77.6348V65.6017H92.441V70.1024H92.5291C92.6388 69.883 92.7935 69.6499 92.9933 69.4032C93.1931 69.1525 93.4634 68.939 93.8041 68.7627C94.1449 68.5826 94.5797 68.4925 95.1085 68.4925C95.8057 68.4925 96.4344 68.6707 96.9945 69.0271C97.5586 69.3797 98.0051 69.9026 98.3342 70.5959C98.6671 71.2853 98.8336 72.1314 98.8336 73.1341C98.8336 74.1251 98.671 74.9673 98.3459 75.6606C98.0208 76.3539 97.5782 76.8827 97.018 77.247C96.4579 77.6113 95.8234 77.7934 95.1144 77.7934C94.5973 77.7934 94.1684 77.7072 93.8276 77.5349C93.4869 77.3625 93.2127 77.1549 93.0051 76.9121C92.8014 76.6653 92.6427 76.4322 92.5291 76.2129H92.4058V77.6348H90.3141ZM92.3999 73.1224C92.3999 73.706 92.4821 74.2172 92.6467 74.6559C92.8151 75.0946 93.056 75.4373 93.3693 75.6841C93.6866 75.9269 94.0705 76.0484 94.5209 76.0484C94.991 76.0484 95.3846 75.923 95.7019 75.6723C96.0192 75.4177 96.2581 75.0711 96.4187 74.6324C96.5833 74.1898 96.6655 73.6864 96.6655 73.1224C96.6655 72.5622 96.5852 72.0648 96.4246 71.63C96.264 71.1952 96.0251 70.8544 95.7078 70.6076C95.3905 70.3609 94.9949 70.2375 94.5209 70.2375C94.0666 70.2375 93.6807 70.357 93.3635 70.5959C93.0462 70.8348 92.8053 71.1697 92.6408 71.6006C92.4802 72.0315 92.3999 72.5387 92.3999 73.1224ZM100.642 77.6348V68.61H102.769V77.6348H100.642ZM101.711 67.3291C101.374 67.3291 101.084 67.2175 100.842 66.9942C100.599 66.767 100.477 66.4948 100.477 66.1775C100.477 65.8563 100.599 65.5841 100.842 65.3608C101.084 65.1336 101.374 65.02 101.711 65.02C102.052 65.02 102.342 65.1336 102.581 65.3608C102.824 65.5841 102.945 65.8563 102.945 66.1775C102.945 66.4948 102.824 66.767 102.581 66.9942C102.342 67.2175 102.052 67.3291 101.711 67.3291ZM107.083 72.3468V77.6348H104.956V68.61H106.989V70.1435H107.095C107.302 69.6382 107.633 69.2367 108.088 68.939C108.546 68.6413 109.112 68.4925 109.786 68.4925C110.408 68.4925 110.951 68.6256 111.413 68.892C111.879 69.1584 112.24 69.5442 112.494 70.0495C112.753 70.5548 112.88 71.1678 112.876 71.8885V77.6348H110.749V72.2175C110.749 71.6143 110.592 71.1423 110.279 70.8015C109.97 70.4608 109.541 70.2904 108.992 70.2904C108.62 70.2904 108.289 70.3726 107.999 70.5371C107.713 70.6977 107.488 70.9308 107.324 71.2363C107.163 71.5419 107.083 71.912 107.083 72.3468ZM119.034 77.811C118.129 77.811 117.347 77.623 116.689 77.247C116.035 76.867 115.532 76.3304 115.179 75.6371C114.827 74.9399 114.65 74.1192 114.65 73.1752C114.65 72.2469 114.827 71.4322 115.179 70.731C115.536 70.026 116.033 69.4776 116.672 69.0859C117.31 68.6903 118.06 68.4925 118.922 68.4925C119.478 68.4925 120.003 68.5826 120.497 68.7627C120.994 68.939 121.433 69.2132 121.813 69.5853C122.197 69.9574 122.498 70.4314 122.718 71.0072C122.937 71.5791 123.047 72.2606 123.047 73.0519V73.704H115.649V72.2704H121.008C121.004 71.863 120.916 71.5007 120.743 71.1834C120.571 70.8623 120.33 70.6096 120.021 70.4255C119.715 70.2414 119.359 70.1494 118.951 70.1494C118.517 70.1494 118.135 70.2551 117.806 70.4666C117.477 70.6742 117.22 70.9484 117.036 71.2892C116.856 71.6261 116.764 71.9962 116.76 72.3997V73.6512C116.76 74.176 116.856 74.6265 117.048 75.0025C117.24 75.3747 117.508 75.6606 117.853 75.8604C118.197 76.0562 118.601 76.1541 119.063 76.1541C119.372 76.1541 119.652 76.111 119.903 76.0249C120.154 75.9348 120.371 75.8036 120.555 75.6312C120.739 75.4589 120.879 75.2454 120.973 74.9908L122.958 75.2141C122.833 75.7389 122.594 76.1972 122.242 76.5889C121.893 76.9767 121.446 77.2783 120.902 77.4938C120.358 77.7053 119.735 77.811 119.034 77.811ZM128.195 77.7934C127.486 77.7934 126.851 77.6113 126.291 77.247C125.731 76.8827 125.289 76.3539 124.963 75.6606C124.638 74.9673 124.476 74.1251 124.476 73.1341C124.476 72.1314 124.64 71.2853 124.969 70.5959C125.302 69.9026 125.751 69.3797 126.315 69.0271C126.879 68.6707 127.508 68.4925 128.201 68.4925C128.73 68.4925 129.164 68.5826 129.505 68.7627C129.846 68.939 130.116 69.1525 130.316 69.4032C130.516 69.6499 130.671 69.883 130.78 70.1024H130.868V65.6017H133.001V77.6348H130.909V76.2129H130.78C130.671 76.4322 130.512 76.6653 130.304 76.9121C130.097 77.1549 129.823 77.3625 129.482 77.5349C129.141 77.7072 128.712 77.7934 128.195 77.7934ZM128.788 76.0484C129.239 76.0484 129.623 75.9269 129.94 75.6841C130.257 75.4373 130.498 75.0946 130.663 74.6559C130.827 74.2172 130.909 73.706 130.909 73.1224C130.909 72.5387 130.827 72.0315 130.663 71.6006C130.502 71.1697 130.263 70.8348 129.946 70.5959C129.633 70.357 129.247 70.2375 128.788 70.2375C128.314 70.2375 127.919 70.3609 127.602 70.6076C127.284 70.8544 127.045 71.1952 126.885 71.63C126.724 72.0648 126.644 72.5622 126.644 73.1224C126.644 73.6864 126.724 74.1898 126.885 74.6324C127.049 75.0711 127.29 75.4177 127.607 75.6723C127.929 75.923 128.322 76.0484 128.788 76.0484ZM139.372 77.6348V68.61H141.499V77.6348H139.372ZM140.441 67.3291C140.104 67.3291 139.814 67.2175 139.571 66.9942C139.329 66.767 139.207 66.4948 139.207 66.1775C139.207 65.8563 139.329 65.5841 139.571 65.3608C139.814 65.1336 140.104 65.02 140.441 65.02C140.782 65.02 141.072 65.1336 141.311 65.3608C141.553 65.5841 141.675 65.8563 141.675 66.1775C141.675 66.4948 141.553 66.767 141.311 66.9942C141.072 67.2175 140.782 67.3291 140.441 67.3291ZM145.813 72.3468V77.6348H143.686V68.61H145.719V70.1435H145.824C146.032 69.6382 146.363 69.2367 146.817 68.939C147.276 68.6413 147.842 68.4925 148.515 68.4925C149.138 68.4925 149.681 68.6256 150.143 68.892C150.609 69.1584 150.969 69.5442 151.224 70.0495C151.483 70.5548 151.61 71.1678 151.606 71.8885V77.6348H149.479V72.2175C149.479 71.6143 149.322 71.1423 149.009 70.8015C148.7 70.4608 148.271 70.2904 147.722 70.2904C147.35 70.2904 147.019 70.3726 146.729 70.5371C146.443 70.6977 146.218 70.9308 146.054 71.2363C145.893 71.5419 145.813 71.912 145.813 72.3468ZM161.809 77.811C160.927 77.811 160.164 77.6171 159.517 77.2294C158.871 76.8416 158.37 76.2991 158.013 75.6018C157.661 74.9046 157.484 74.0899 157.484 73.1576C157.484 72.2254 157.661 71.4087 158.013 70.7075C158.37 70.0064 158.871 69.4619 159.517 69.0741C160.164 68.6864 160.927 68.4925 161.809 68.4925C162.69 68.4925 163.454 68.6864 164.1 69.0741C164.747 69.4619 165.246 70.0064 165.599 70.7075C165.955 71.4087 166.133 72.2254 166.133 73.1576C166.133 74.0899 165.955 74.9046 165.599 75.6018C165.246 76.2991 164.747 76.8416 164.1 77.2294C163.454 77.6171 162.69 77.811 161.809 77.811ZM161.821 76.1071C162.298 76.1071 162.698 75.9759 163.019 75.7135C163.34 75.4471 163.579 75.0907 163.736 74.6441C163.897 74.1976 163.977 73.7001 163.977 73.1517C163.977 72.5994 163.897 72.1 163.736 71.6535C163.579 71.203 163.34 70.8446 163.019 70.5783C162.698 70.3119 162.298 70.1787 161.821 70.1787C161.331 70.1787 160.924 70.3119 160.598 70.5783C160.277 70.8446 160.036 71.203 159.876 71.6535C159.719 72.1 159.641 72.5994 159.641 73.1517C159.641 73.7001 159.719 74.1976 159.876 74.6441C160.036 75.0907 160.277 75.4471 160.598 75.7135C160.924 75.9759 161.331 76.1071 161.821 76.1071ZM170.065 72.3468V77.6348H167.938V68.61H169.971V70.1435H170.077C170.285 69.6382 170.616 69.2367 171.07 68.939C171.528 68.6413 172.094 68.4925 172.768 68.4925C173.391 68.4925 173.933 68.6256 174.396 68.892C174.862 69.1584 175.222 69.5442 175.477 70.0495C175.735 70.5548 175.863 71.1678 175.859 71.8885V77.6348H173.732V72.2175C173.732 71.6143 173.575 71.1423 173.262 70.8015C172.952 70.4608 172.523 70.2904 171.975 70.2904C171.603 70.2904 171.272 70.3726 170.982 70.5371C170.696 70.6977 170.471 70.9308 170.306 71.2363C170.146 71.5419 170.065 71.912 170.065 72.3468ZM182.016 77.811C181.111 77.811 180.33 77.623 179.672 77.247C179.018 76.867 178.514 76.3304 178.162 75.6371C177.809 74.9399 177.633 74.1192 177.633 73.1752C177.633 72.2469 177.809 71.4322 178.162 70.731C178.518 70.026 179.016 69.4776 179.654 69.0859C180.293 68.6903 181.043 68.4925 181.905 68.4925C182.461 68.4925 182.986 68.5826 183.479 68.7627C183.977 68.939 184.415 69.2132 184.795 69.5853C185.179 69.9574 185.481 70.4314 185.7 71.0072C185.92 71.5791 186.029 72.2606 186.029 73.0519V73.704H178.632V72.2704H183.99C183.986 71.863 183.898 71.5007 183.726 71.1834C183.554 70.8623 183.313 70.6096 183.003 70.4255C182.698 70.2414 182.341 70.1494 181.934 70.1494C181.499 70.1494 181.117 70.2551 180.788 70.4666C180.459 70.6742 180.203 70.9484 180.019 71.2892C179.838 71.6261 179.746 71.9962 179.742 72.3997V73.6512C179.742 74.176 179.838 74.6265 180.03 75.0025C180.222 75.3747 180.491 75.6606 180.835 75.8604C181.18 76.0562 181.583 76.1541 182.046 76.1541C182.355 76.1541 182.635 76.111 182.886 76.0249C183.136 75.9348 183.354 75.8036 183.538 75.6312C183.722 75.4589 183.861 75.2454 183.955 74.9908L185.941 75.2141C185.816 75.7389 185.577 76.1972 185.224 76.5889C184.876 76.9767 184.429 77.2783 183.885 77.4938C183.34 77.7053 182.717 77.811 182.016 77.811ZM191.933 77.6348V68.61H194.06V77.6348H191.933ZM193.002 67.3291C192.665 67.3291 192.375 67.2175 192.132 66.9942C191.89 66.767 191.768 66.4948 191.768 66.1775C191.768 65.8563 191.89 65.5841 192.132 65.3608C192.375 65.1336 192.665 65.02 193.002 65.02C193.343 65.02 193.633 65.1336 193.872 65.3608C194.114 65.5841 194.236 65.8563 194.236 66.1775C194.236 66.4948 194.114 66.767 193.872 66.9942C193.633 67.2175 193.343 67.3291 193.002 67.3291ZM198.374 72.3468V77.6348H196.247V68.61H198.28V70.1435H198.385C198.593 69.6382 198.924 69.2367 199.378 68.939C199.837 68.6413 200.403 68.4925 201.076 68.4925C201.699 68.4925 202.242 68.6256 202.704 68.892C203.17 69.1584 203.53 69.5442 203.785 70.0495C204.043 70.5548 204.171 71.1678 204.167 71.8885V77.6348H202.04V72.2175C202.04 71.6143 201.883 71.1423 201.57 70.8015C201.26 70.4608 200.832 70.2904 200.283 70.2904C199.911 70.2904 199.58 70.3726 199.29 70.5371C199.004 70.6977 198.779 70.9308 198.615 71.2363C198.454 71.5419 198.374 71.912 198.374 72.3468ZM214.067 68.61L210.853 77.6348H208.503L205.289 68.61H207.557L209.631 75.3139H209.725L211.805 68.61H214.067ZM219.227 77.811C218.322 77.811 217.541 77.623 216.883 77.247C216.229 76.867 215.725 76.3304 215.373 75.6371C215.02 74.9399 214.844 74.1192 214.844 73.1752C214.844 72.2469 215.02 71.4322 215.373 70.731C215.729 70.026 216.227 69.4776 216.865 69.0859C217.504 68.6903 218.254 68.4925 219.116 68.4925C219.672 68.4925 220.197 68.5826 220.69 68.7627C221.188 68.939 221.626 69.2132 222.006 69.5853C222.39 69.9574 222.692 70.4314 222.911 71.0072C223.131 71.5791 223.24 72.2606 223.24 73.0519V73.704H215.843V72.2704H221.201C221.198 71.863 221.109 71.5007 220.937 71.1834C220.765 70.8623 220.524 70.6096 220.214 70.4255C219.909 70.2414 219.552 70.1494 219.145 70.1494C218.71 70.1494 218.328 70.2551 217.999 70.4666C217.67 70.6742 217.414 70.9484 217.23 71.2892C217.049 71.6261 216.957 71.9962 216.953 72.3997V73.6512C216.953 74.176 217.049 74.6265 217.241 75.0025C217.433 75.3747 217.702 75.6606 218.046 75.8604C218.391 76.0562 218.794 76.1541 219.257 76.1541C219.566 76.1541 219.846 76.111 220.097 76.0249C220.348 75.9348 220.565 75.8036 220.749 75.6312C220.933 75.4589 221.072 75.2454 221.166 74.9908L223.152 75.2141C223.027 75.7389 222.788 76.1972 222.435 76.5889C222.087 76.9767 221.64 77.2783 221.096 77.4938C220.551 77.7053 219.928 77.811 219.227 77.811ZM232.173 70.9954L230.234 71.207C230.179 71.0111 230.083 70.827 229.946 70.6547C229.813 70.4823 229.632 70.3432 229.405 70.2375C229.178 70.1317 228.9 70.0789 228.571 70.0789C228.128 70.0789 227.756 70.1748 227.454 70.3668C227.157 70.5587 227.01 70.8074 227.014 71.1129C227.01 71.3754 227.106 71.5889 227.302 71.7534C227.501 71.9179 227.831 72.053 228.289 72.1588L229.828 72.4878C230.682 72.6719 231.317 72.9637 231.732 73.3633C232.151 73.7628 232.363 74.2857 232.366 74.932C232.363 75.5 232.196 76.0014 231.867 76.4362C231.542 76.867 231.089 77.2039 230.51 77.4467C229.93 77.6896 229.264 77.811 228.512 77.811C227.407 77.811 226.518 77.5799 225.845 77.1177C225.171 76.6516 224.769 76.0033 224.64 75.1729L226.714 74.9732C226.808 75.3805 227.008 75.688 227.313 75.8956C227.619 76.1032 228.017 76.207 228.506 76.207C229.012 76.207 229.417 76.1032 229.722 75.8956C230.032 75.688 230.187 75.4314 230.187 75.1259C230.187 74.8674 230.087 74.6539 229.887 74.4855C229.691 74.3171 229.386 74.1878 228.97 74.0977L227.431 73.7746C226.565 73.5944 225.925 73.2908 225.51 72.8638C225.094 72.433 224.889 71.8885 224.893 71.2305C224.889 70.6742 225.04 70.1924 225.345 69.7851C225.655 69.3738 226.084 69.0565 226.632 68.8332C227.184 68.6061 227.821 68.4925 228.541 68.4925C229.599 68.4925 230.431 68.7177 231.039 69.1681C231.65 69.6186 232.028 70.2277 232.173 70.9954ZM238.627 68.61V70.2551H233.439V68.61H238.627ZM234.72 66.4478H236.847V74.9203C236.847 75.2062 236.89 75.4256 236.976 75.5783C237.066 75.7272 237.183 75.829 237.328 75.8839C237.473 75.9387 237.634 75.9661 237.81 75.9661C237.943 75.9661 238.065 75.9563 238.174 75.9367C238.288 75.9172 238.374 75.8995 238.433 75.8839L238.791 77.5466C238.678 77.5858 238.515 77.6289 238.304 77.6759C238.096 77.7229 237.841 77.7503 237.54 77.7582C237.007 77.7738 236.527 77.6935 236.1 77.5173C235.673 77.3371 235.335 77.059 235.084 76.6829C234.837 76.3069 234.716 75.8369 234.72 75.2728V66.4478ZM240.406 77.6348V68.61H242.439V70.1435H242.544C242.732 69.6264 243.044 69.223 243.479 68.9331C243.913 68.6394 244.432 68.4925 245.036 68.4925C245.647 68.4925 246.162 68.6413 246.581 68.939C247.004 69.2328 247.302 69.6343 247.474 70.1435H247.568C247.768 69.6421 248.105 69.2426 248.578 68.9449C249.056 68.6433 249.622 68.4925 250.276 68.4925C251.107 68.4925 251.785 68.7549 252.309 69.2798C252.834 69.8047 253.097 70.5704 253.097 71.5771V77.6348H250.964V71.9061C250.964 71.346 250.815 70.9367 250.517 70.6782C250.22 70.4157 249.855 70.2845 249.425 70.2845C248.911 70.2845 248.51 70.4451 248.22 70.7663C247.934 71.0836 247.791 71.4968 247.791 72.006V77.6348H245.705V71.818C245.705 71.3519 245.564 70.9798 245.282 70.7017C245.004 70.4235 244.64 70.2845 244.189 70.2845C243.884 70.2845 243.606 70.3628 243.355 70.5195C243.104 70.6723 242.905 70.8897 242.756 71.1717C242.607 71.4498 242.533 71.7749 242.533 72.147V77.6348H240.406ZM259.25 77.811C258.345 77.811 257.564 77.623 256.906 77.247C256.251 76.867 255.748 76.3304 255.396 75.6371C255.043 74.9399 254.867 74.1192 254.867 73.1752C254.867 72.2469 255.043 71.4322 255.396 70.731C255.752 70.026 256.249 69.4776 256.888 69.0859C257.526 68.6903 258.276 68.4925 259.138 68.4925C259.694 68.4925 260.219 68.5826 260.713 68.7627C261.21 68.939 261.649 69.2132 262.029 69.5853C262.413 69.9574 262.714 70.4314 262.934 71.0072C263.153 71.5791 263.263 72.2606 263.263 73.0519V73.704H255.866V72.2704H261.224C261.22 71.863 261.132 71.5007 260.96 71.1834C260.787 70.8623 260.546 70.6096 260.237 70.4255C259.931 70.2414 259.575 70.1494 259.168 70.1494C258.733 70.1494 258.351 70.2551 258.022 70.4666C257.693 70.6742 257.436 70.9484 257.252 71.2892C257.072 71.6261 256.98 71.9962 256.976 72.3997V73.6512C256.976 74.176 257.072 74.6265 257.264 75.0025C257.456 75.3747 257.724 75.6606 258.069 75.8604C258.414 76.0562 258.817 76.1541 259.279 76.1541C259.589 76.1541 259.869 76.111 260.119 76.0249C260.37 75.9348 260.588 75.8036 260.772 75.6312C260.956 75.4589 261.095 75.2454 261.189 74.9908L263.175 75.2141C263.049 75.7389 262.81 76.1972 262.458 76.5889C262.109 76.9767 261.663 77.2783 261.118 77.4938C260.574 77.7053 259.951 77.811 259.25 77.811ZM267.189 72.3468V77.6348H265.062V68.61H267.095V70.1435H267.201C267.408 69.6382 267.739 69.2367 268.194 68.939C268.652 68.6413 269.218 68.4925 269.892 68.4925C270.515 68.4925 271.057 68.6256 271.519 68.892C271.986 69.1584 272.346 69.5442 272.6 70.0495C272.859 70.5548 272.986 71.1678 272.982 71.8885V77.6348H270.855V72.2175C270.855 71.6143 270.699 71.1423 270.385 70.8015C270.076 70.4608 269.647 70.2904 269.099 70.2904C268.727 70.2904 268.396 70.3726 268.106 70.5371C267.82 70.6977 267.595 70.9308 267.43 71.2363C267.269 71.5419 267.189 71.912 267.189 72.3468ZM279.651 68.61V70.2551H274.463V68.61H279.651ZM275.744 66.4478H277.871V74.9203C277.871 75.2062 277.914 75.4256 278 75.5783C278.09 75.7272 278.208 75.829 278.353 75.8839C278.498 75.9387 278.658 75.9661 278.834 75.9661C278.968 75.9661 279.089 75.9563 279.199 75.9367C279.312 75.9172 279.398 75.8995 279.457 75.8839L279.816 77.5466C279.702 77.5858 279.539 77.6289 279.328 77.6759C279.12 77.7229 278.866 77.7503 278.564 77.7582C278.031 77.7738 277.552 77.6935 277.125 77.5173C276.698 77.3371 276.359 77.059 276.108 76.6829C275.861 76.3069 275.74 75.8369 275.744 75.2728V66.4478Z" fill="#282C3F"/>
<rect width="260" height="260" transform="translate(37 104.635)" fill="#F7F7FC"/>
<line x1="56.4542" y1="-28.0801" x2="56.4542" y2="352.465" stroke="url(#paint0_linear_4197_200999)" stroke-opacity="0.52" stroke-width="1.18182"/>
<path d="M200.207 141.701C204.55 141.701 208.066 138.185 208.066 133.842C208.066 133.717 208.149 133.635 208.273 133.635C208.397 133.635 208.48 133.717 208.48 133.842C208.48 138.185 211.995 141.701 216.339 141.701C216.463 141.701 216.545 141.783 216.545 141.907C216.545 142.032 216.463 142.114 216.339 142.114C211.995 142.114 208.48 145.63 208.48 149.973C208.48 150.097 208.397 150.18 208.273 150.18C208.149 150.18 208.066 150.097 208.066 149.973C208.066 145.63 204.55 142.114 200.207 142.114C200.083 142.114 200 142.032 200 141.907C200 141.783 200.083 141.701 200.207 141.701Z" fill="url(#paint1_linear_4197_200999)"/>
<g filter="url(#filter0_f_4197_200999)">
<ellipse cx="177.592" cy="221.285" rx="50.8182" ry="49.6364" fill="#F7F7FC"/>
</g>
<path opacity="0.1" fill-rule="evenodd" clip-rule="evenodd" d="M111.132 152.906V176.857L87.1797 176.857V178.039L111.132 178.039V191.437H87.1797V192.619H111.132V206.016H87.1797V207.197H111.132V220.596H87.1797V221.778H111.132V235.174H87.1797V236.356H111.132V249.754H87.1797V250.936H111.132V264.332H87.1797V265.514H111.132V278.912H87.1797V280.094H111.132V293.492H87.1797V294.674H111.132V308.07H87.1797V309.252H111.132V332.543H112.314V309.252H125.714V332.543H126.896V309.252H140.293V332.543H141.474V309.252H154.871V332.543H156.053V309.252H169.449V332.543H170.631V309.252L184.027 309.252V332.543H185.209V309.252H198.609V332.543H199.791V309.252H213.187V332.543H214.369V309.252H227.765V332.543H228.947V309.252H242.343V332.543H243.525V309.252H266.816V308.07H243.525V294.674H266.816V293.492H243.525V280.094H266.816V278.912H243.525V265.514H266.816V264.332H243.525V250.936H266.816V249.754H243.525V236.356H266.816V235.174H243.525V221.778H266.816V220.596H243.525V207.197H266.816V206.016H243.525V192.619H266.816V191.438H243.525V178.039L266.816 178.039V176.857L243.525 176.857V152.906H242.343V176.857H228.947V152.906H227.765V176.857H214.369V152.906H213.187V176.857H199.791V152.906H198.609V176.857H185.209V152.906H184.027V176.857H170.631V152.906H169.449V176.857H156.053V152.906H154.871V176.857L141.474 176.857V152.906H140.293V176.857H126.896V152.906H125.714V176.857H112.314V152.906H111.132ZM242.343 308.07V294.674H228.947V308.07H242.343ZM227.765 308.07V294.674H214.369V308.07H227.765ZM213.187 308.07V294.674H199.791V308.07H213.187ZM198.609 308.07V294.674H185.209V308.07H198.609ZM184.027 308.07V294.674L170.631 294.674V308.07L184.027 308.07ZM169.449 308.07V294.674H156.053V308.07H169.449ZM154.871 308.07V294.674H141.474V308.07H154.871ZM140.293 308.07V294.674H126.896V308.07H140.293ZM125.714 308.07V294.674H112.314V308.07H125.714ZM125.714 293.492H112.314V280.094H125.714V293.492ZM140.293 293.492H126.896V280.094H140.293V293.492ZM154.871 293.492H141.474V280.094H154.871V293.492ZM169.449 293.492H156.053V280.094H169.449V293.492ZM184.027 293.492L170.631 293.492V280.094L184.027 280.094V293.492ZM198.609 293.492H185.209V280.094H198.609V293.492ZM213.187 293.492H199.791V280.094H213.187V293.492ZM227.765 293.492H214.369V280.094H227.765V293.492ZM242.343 293.492H228.947V280.094H242.343V293.492ZM242.343 278.912V265.514H228.947V278.912H242.343ZM227.765 278.912V265.514H214.369V278.912H227.765ZM213.187 278.912V265.514H199.791V278.912H213.187ZM198.609 278.912V265.514H185.209V278.912H198.609ZM184.027 278.912V265.514L170.631 265.514V278.912L184.027 278.912ZM169.449 278.912V265.514H156.053V278.912H169.449ZM154.871 278.912V265.514H141.474V278.912H154.871ZM140.293 278.912V265.514H126.896V278.912H140.293ZM125.714 278.912V265.514H112.314V278.912H125.714ZM125.714 264.332H112.314V250.936H125.714V264.332ZM140.293 264.332H126.896V250.936H140.293V264.332ZM154.871 264.332H141.474V250.936H154.871V264.332ZM169.449 264.332H156.053V250.936H169.449V264.332ZM184.027 264.332L170.631 264.332V250.936L184.027 250.936V264.332ZM198.609 264.332H185.209V250.936H198.609V264.332ZM213.187 264.332H199.791V250.936H213.187V264.332ZM227.765 264.332H214.369V250.936H227.765V264.332ZM242.343 264.332H228.947V250.936H242.343V264.332ZM242.343 249.754V236.356H228.947V249.754H242.343ZM227.765 249.754V236.356H214.369V249.754H227.765ZM213.187 249.754V236.356H199.791V249.754H213.187ZM198.609 249.754V236.356H185.209V249.754H198.609ZM184.027 249.754V236.356L170.631 236.356V249.754L184.027 249.754ZM169.449 249.754V236.356H156.053V249.754H169.449ZM154.871 249.754V236.356H141.474V249.754H154.871ZM140.293 249.754V236.356H126.896V249.754H140.293ZM125.714 249.754V236.356H112.314V249.754H125.714ZM125.714 235.174H112.314V221.778H125.714V235.174ZM140.293 235.174H126.896V221.778H140.293V235.174ZM154.871 235.174H141.474V221.778H154.871V235.174ZM169.449 235.174H156.053V221.778H169.449V235.174ZM184.027 235.174L170.631 235.174V221.778L184.027 221.778V235.174ZM198.609 235.174H185.209V221.778H198.609V235.174ZM213.187 235.174H199.791V221.778H213.187V235.174ZM227.765 235.174H214.369V221.778H227.765V235.174ZM242.343 235.174H228.947V221.778H242.343V235.174ZM242.343 220.596V207.197L228.947 207.197V220.596H242.343ZM227.765 220.596V207.197H214.369V220.596H227.765ZM213.187 220.596V207.197H199.791V220.596H213.187ZM198.609 220.596V207.197H185.209V220.596H198.609ZM184.027 220.596V207.197L170.631 207.197V220.596L184.027 220.596ZM169.449 220.596V207.197H156.053V220.596H169.449ZM154.871 220.596V207.197H141.474V220.596H154.871ZM140.293 220.596V207.197H126.896V220.596H140.293ZM125.714 220.596V207.197L112.314 207.197V220.596H125.714ZM125.714 206.016H112.314V192.619L125.714 192.619V206.016ZM140.293 206.016L126.896 206.016V192.619H140.293V206.016ZM154.871 206.016H141.474V192.619H154.871V206.016ZM169.449 206.016H156.053V192.619H169.449V206.016ZM184.027 206.016H170.631V192.619L184.027 192.619V206.016ZM198.609 206.016H185.209V192.619H198.609V206.016ZM213.187 206.016H199.791V192.619H213.187V206.016ZM227.765 206.016L214.369 206.016V192.619H227.765V206.016ZM242.343 206.016H228.947V192.619L242.343 192.619V206.016ZM242.343 191.438V178.039H228.947V191.438H242.343ZM227.765 191.438V178.039H214.369V191.437L227.765 191.438ZM213.187 191.437V178.039H199.791V191.437H213.187ZM198.609 191.437V178.039H185.209V191.437H198.609ZM184.027 191.437V178.039H170.631V191.437H184.027ZM169.449 191.437V178.039H156.053V191.437H169.449ZM154.871 191.437V178.039L141.474 178.039V191.437H154.871ZM140.293 191.437V178.039H126.896V191.437L140.293 191.437ZM125.714 191.437V178.039H112.314V191.437H125.714Z" fill="url(#paint2_radial_4197_200999)"/>
<path d="M231.957 133.829C231.957 129.913 235.132 126.738 239.048 126.738H260.321H281.593C285.51 126.738 288.684 129.913 288.684 133.829V351.284H231.957V133.829Z" fill="url(#paint3_linear_4197_200999)"/>
<path d="M243.127 107.87V116.465H241.054V109.809H241.004L239.082 110.984V109.188L241.201 107.87H243.127ZM248.473 116.582C248.003 116.582 247.553 116.507 247.122 116.356C246.691 116.202 246.308 115.958 245.972 115.625C245.636 115.29 245.372 114.85 245.179 114.308C244.986 113.762 244.89 113.098 244.893 112.314C244.896 111.606 244.983 110.971 245.153 110.409C245.324 109.844 245.568 109.364 245.884 108.969C246.203 108.575 246.583 108.274 247.025 108.067C247.47 107.857 247.967 107.752 248.515 107.752C249.117 107.752 249.647 107.87 250.106 108.105C250.567 108.337 250.937 108.65 251.214 109.045C251.491 109.437 251.654 109.873 251.705 110.354H249.661C249.599 110.083 249.464 109.877 249.254 109.737C249.047 109.595 248.8 109.523 248.515 109.523C247.989 109.523 247.596 109.751 247.336 110.207C247.078 110.663 246.947 111.273 246.941 112.037H246.996C247.113 111.78 247.283 111.559 247.504 111.374C247.725 111.189 247.978 111.048 248.263 110.95C248.551 110.85 248.856 110.799 249.178 110.799C249.693 110.799 250.148 110.918 250.542 111.156C250.937 111.394 251.246 111.72 251.47 112.134C251.693 112.545 251.804 113.016 251.801 113.548C251.804 114.147 251.664 114.676 251.381 115.134C251.099 115.591 250.707 115.946 250.206 116.2C249.708 116.455 249.131 116.582 248.473 116.582ZM248.461 114.988C248.715 114.988 248.943 114.927 249.145 114.807C249.346 114.687 249.504 114.523 249.619 114.316C249.734 114.109 249.79 113.875 249.787 113.615C249.79 113.352 249.734 113.119 249.619 112.914C249.507 112.71 249.35 112.548 249.149 112.428C248.95 112.307 248.722 112.247 248.465 112.247C248.277 112.247 248.102 112.282 247.94 112.352C247.778 112.422 247.637 112.52 247.516 112.646C247.399 112.769 247.306 112.914 247.239 113.082C247.172 113.247 247.137 113.426 247.134 113.619C247.137 113.874 247.196 114.105 247.311 114.312C247.425 114.519 247.582 114.684 247.781 114.807C247.979 114.927 248.206 114.988 248.461 114.988ZM257.122 111.378V112.956H253.143V111.378H257.122ZM262.528 107.87V116.465H260.455V109.809H260.405L258.482 110.984V109.188L260.602 107.87H262.528ZM267.786 116.582C267.117 116.582 266.52 116.476 265.994 116.263C265.47 116.048 265.059 115.757 264.76 115.39C264.463 115.021 264.315 114.604 264.315 114.14C264.315 113.784 264.4 113.459 264.571 113.162C264.742 112.865 264.972 112.619 265.263 112.423C265.557 112.225 265.885 112.097 266.245 112.041V111.974C265.773 111.888 265.385 111.668 265.083 111.315C264.784 110.963 264.634 110.55 264.634 110.077C264.634 109.63 264.77 109.231 265.041 108.881C265.315 108.531 265.689 108.256 266.162 108.054C266.637 107.853 267.179 107.752 267.786 107.752C268.393 107.752 268.933 107.853 269.406 108.054C269.881 108.256 270.255 108.531 270.526 108.881C270.8 109.231 270.938 109.63 270.938 110.077C270.938 110.553 270.785 110.967 270.48 111.32C270.178 111.669 269.793 111.888 269.326 111.974V112.041C269.684 112.097 270.009 112.225 270.3 112.423C270.593 112.619 270.826 112.865 270.996 113.162C271.17 113.459 271.256 113.784 271.256 114.14C271.256 114.604 271.107 115.021 270.807 115.39C270.508 115.757 270.097 116.048 269.574 116.263C269.053 116.476 268.457 116.582 267.786 116.582ZM267.786 115.109C268.04 115.109 268.264 115.062 268.457 114.967C268.65 114.869 268.801 114.733 268.91 114.559C269.022 114.386 269.078 114.19 269.078 113.972C269.078 113.748 269.022 113.549 268.91 113.376C268.799 113.203 268.645 113.067 268.449 112.969C268.256 112.868 268.035 112.818 267.786 112.818C267.54 112.818 267.318 112.868 267.123 112.969C266.927 113.067 266.773 113.203 266.661 113.376C266.549 113.549 266.493 113.748 266.493 113.972C266.493 114.19 266.548 114.386 266.657 114.559C266.769 114.73 266.921 114.864 267.114 114.962C267.31 115.06 267.534 115.109 267.786 115.109ZM267.786 111.353C268.004 111.353 268.197 111.308 268.365 111.219C268.536 111.129 268.668 111.005 268.764 110.845C268.862 110.686 268.91 110.505 268.91 110.304C268.91 110.102 268.862 109.925 268.764 109.771C268.668 109.617 268.537 109.497 268.369 109.41C268.201 109.32 268.007 109.276 267.786 109.276C267.567 109.276 267.373 109.32 267.202 109.41C267.032 109.497 266.899 109.617 266.804 109.771C266.709 109.925 266.661 110.102 266.661 110.304C266.661 110.505 266.709 110.686 266.804 110.845C266.902 111.002 267.036 111.127 267.207 111.219C267.377 111.308 267.57 111.353 267.786 111.353ZM277.229 114.853V114.4C277.229 114.047 277.304 113.722 277.455 113.422C277.609 113.123 277.831 112.882 278.122 112.7C278.413 112.518 278.769 112.428 279.188 112.428C279.616 112.428 279.976 112.518 280.267 112.7C280.561 112.879 280.782 113.119 280.93 113.418C281.081 113.715 281.157 114.042 281.157 114.4V114.853C281.157 115.206 281.081 115.532 280.93 115.831C280.779 116.13 280.557 116.371 280.263 116.553C279.969 116.735 279.611 116.826 279.188 116.826C278.763 116.826 278.405 116.735 278.114 116.553C277.823 116.371 277.602 116.13 277.451 115.831C277.303 115.532 277.229 115.206 277.229 114.853ZM278.567 114.4V114.853C278.567 115.032 278.611 115.204 278.697 115.369C278.787 115.535 278.951 115.617 279.188 115.617C279.432 115.617 279.596 115.537 279.679 115.378C279.763 115.216 279.805 115.041 279.805 114.853V114.4C279.805 114.213 279.765 114.036 279.684 113.871C279.605 113.703 279.44 113.619 279.188 113.619C278.953 113.619 278.791 113.703 278.702 113.871C278.612 114.036 278.567 114.213 278.567 114.4ZM272.772 109.935V109.481C272.772 109.123 272.848 108.796 273.002 108.499C273.159 108.2 273.383 107.961 273.674 107.782C273.965 107.6 274.317 107.509 274.731 107.509C275.159 107.509 275.519 107.6 275.81 107.782C276.104 107.961 276.326 108.2 276.477 108.499C276.628 108.796 276.704 109.123 276.704 109.481V109.935C276.704 110.293 276.627 110.62 276.473 110.917C276.322 111.213 276.1 111.45 275.806 111.626C275.512 111.802 275.154 111.89 274.731 111.89C274.309 111.89 273.951 111.801 273.657 111.622C273.366 111.443 273.145 111.205 272.994 110.908C272.846 110.612 272.772 110.287 272.772 109.935ZM274.123 109.481V109.935C274.123 110.122 274.166 110.297 274.253 110.459C274.343 110.619 274.502 110.698 274.731 110.698C274.978 110.698 275.141 110.619 275.222 110.459C275.306 110.297 275.348 110.122 275.348 109.935V109.481C275.348 109.294 275.309 109.118 275.231 108.953C275.152 108.785 274.986 108.701 274.731 108.701C274.496 108.701 274.336 108.786 274.249 108.957C274.165 109.127 274.123 109.302 274.123 109.481ZM273.405 116.465L279.314 107.87H280.46L274.551 116.465H273.405Z" fill="#282C3F"/>
<path d="M250.779 332.649C250.747 332.356 250.615 332.127 250.382 331.964C250.152 331.801 249.852 331.719 249.483 331.719C249.223 331.719 249 331.758 248.815 331.836C248.629 331.915 248.487 332.021 248.388 332.155C248.29 332.29 248.239 332.443 248.237 332.615C248.237 332.759 248.27 332.883 248.334 332.988C248.402 333.093 248.492 333.183 248.606 333.257C248.721 333.328 248.847 333.389 248.986 333.438C249.125 333.487 249.264 333.529 249.405 333.562L250.05 333.723C250.31 333.784 250.559 333.865 250.799 333.968C251.041 334.071 251.257 334.201 251.447 334.358C251.639 334.515 251.791 334.704 251.903 334.925C252.015 335.147 252.071 335.407 252.071 335.704C252.071 336.107 251.968 336.462 251.762 336.769C251.556 337.073 251.259 337.311 250.869 337.484C250.482 337.654 250.013 337.739 249.463 337.739C248.928 337.739 248.463 337.656 248.069 337.49C247.678 337.325 247.371 337.083 247.149 336.765C246.93 336.447 246.811 336.06 246.793 335.604H248.019C248.037 335.843 248.111 336.042 248.24 336.201C248.37 336.36 248.539 336.479 248.747 336.557C248.958 336.635 249.193 336.675 249.452 336.675C249.723 336.675 249.961 336.634 250.164 336.554C250.37 336.471 250.531 336.357 250.648 336.211C250.764 336.063 250.823 335.891 250.826 335.694C250.823 335.515 250.771 335.367 250.668 335.251C250.565 335.132 250.421 335.034 250.235 334.956C250.051 334.875 249.836 334.803 249.59 334.741L248.808 334.539C248.242 334.394 247.794 334.173 247.465 333.878C247.138 333.58 246.975 333.185 246.975 332.693C246.975 332.287 247.084 331.933 247.304 331.628C247.525 331.324 247.826 331.088 248.207 330.92C248.587 330.75 249.018 330.665 249.499 330.665C249.987 330.665 250.415 330.75 250.782 330.92C251.151 331.088 251.441 331.322 251.652 331.622C251.862 331.919 251.971 332.262 251.977 332.649H250.779ZM255.703 332.478V333.418H252.739V332.478H255.703ZM253.47 331.242H254.686V336.084C254.686 336.247 254.711 336.372 254.76 336.46C254.811 336.545 254.878 336.603 254.961 336.634C255.044 336.666 255.136 336.681 255.237 336.681C255.313 336.681 255.382 336.676 255.445 336.664C255.51 336.653 255.559 336.643 255.592 336.634L255.797 337.584C255.732 337.607 255.639 337.631 255.519 337.658C255.4 337.685 255.254 337.701 255.082 337.705C254.778 337.714 254.503 337.668 254.259 337.568C254.016 337.465 253.822 337.306 253.679 337.091C253.538 336.876 253.468 336.607 253.47 336.285V331.242ZM258.914 337.735C258.41 337.735 257.974 337.625 257.604 337.403C257.235 337.182 256.949 336.872 256.745 336.473C256.543 336.075 256.443 335.609 256.443 335.076C256.443 334.544 256.543 334.077 256.745 333.676C256.949 333.276 257.235 332.965 257.604 332.743C257.974 332.521 258.41 332.411 258.914 332.411C259.417 332.411 259.854 332.521 260.223 332.743C260.592 332.965 260.878 333.276 261.079 333.676C261.283 334.077 261.385 334.544 261.385 335.076C261.385 335.609 261.283 336.075 261.079 336.473C260.878 336.872 260.592 337.182 260.223 337.403C259.854 337.625 259.417 337.735 258.914 337.735ZM258.92 336.762C259.194 336.762 259.422 336.687 259.605 336.537C259.789 336.385 259.925 336.181 260.015 335.926C260.107 335.671 260.153 335.386 260.153 335.073C260.153 334.757 260.107 334.472 260.015 334.217C259.925 333.959 259.789 333.755 259.605 333.602C259.422 333.45 259.194 333.374 258.92 333.374C258.641 333.374 258.408 333.45 258.222 333.602C258.039 333.755 257.901 333.959 257.809 334.217C257.72 334.472 257.675 334.757 257.675 335.073C257.675 335.386 257.72 335.671 257.809 335.926C257.901 336.181 258.039 336.385 258.222 336.537C258.408 336.687 258.641 336.762 258.92 336.762ZM264.666 337.735C264.151 337.735 263.709 337.622 263.34 337.396C262.973 337.17 262.689 336.858 262.49 336.46C262.293 336.059 262.195 335.598 262.195 335.076C262.195 334.553 262.296 334.09 262.497 333.69C262.698 333.287 262.983 332.974 263.35 332.75C263.719 332.524 264.156 332.411 264.659 332.411C265.078 332.411 265.448 332.488 265.77 332.642C266.095 332.794 266.354 333.01 266.546 333.29C266.739 333.568 266.848 333.892 266.875 334.264H265.713C265.666 334.015 265.554 333.808 265.378 333.643C265.203 333.475 264.969 333.391 264.676 333.391C264.427 333.391 264.209 333.458 264.021 333.592C263.833 333.724 263.687 333.915 263.581 334.163C263.478 334.412 263.427 334.709 263.427 335.056C263.427 335.408 263.478 335.71 263.581 335.963C263.684 336.213 263.829 336.407 264.015 336.544C264.203 336.678 264.423 336.745 264.676 336.745C264.855 336.745 265.015 336.711 265.156 336.644C265.299 336.575 265.419 336.475 265.515 336.346C265.612 336.216 265.678 336.058 265.713 335.872H266.875C266.846 336.237 266.739 336.56 266.553 336.842C266.367 337.122 266.114 337.342 265.794 337.5C265.474 337.657 265.098 337.735 264.666 337.735ZM268.981 336.016L268.978 334.549H269.172L271.026 332.478H272.446L270.166 335.016H269.914L268.981 336.016ZM267.873 337.635V330.759H269.088V337.635H267.873ZM271.11 337.635L269.431 335.288L270.25 334.432L272.563 337.635H271.11ZM277.332 333.841L276.224 333.962C276.193 333.85 276.138 333.745 276.059 333.646C275.983 333.548 275.88 333.468 275.75 333.408C275.621 333.347 275.462 333.317 275.274 333.317C275.021 333.317 274.808 333.372 274.636 333.482C274.466 333.591 274.382 333.733 274.384 333.908C274.382 334.058 274.437 334.18 274.548 334.274C274.663 334.368 274.851 334.445 275.113 334.506L275.992 334.694C276.48 334.799 276.843 334.966 277.08 335.194C277.319 335.422 277.44 335.721 277.443 336.09C277.44 336.415 277.345 336.701 277.157 336.95C276.971 337.196 276.713 337.389 276.382 337.527C276.05 337.666 275.67 337.735 275.24 337.735C274.609 337.735 274.101 337.603 273.716 337.339C273.331 337.073 273.101 336.703 273.028 336.228L274.213 336.114C274.266 336.347 274.381 336.522 274.555 336.641C274.73 336.76 274.957 336.819 275.237 336.819C275.526 336.819 275.757 336.76 275.932 336.641C276.109 336.522 276.197 336.376 276.197 336.201C276.197 336.053 276.14 335.931 276.026 335.835C275.914 335.739 275.739 335.665 275.502 335.614L274.622 335.429C274.128 335.326 273.762 335.152 273.524 334.909C273.287 334.662 273.17 334.351 273.172 333.975C273.17 333.657 273.256 333.382 273.43 333.149C273.607 332.914 273.852 332.733 274.166 332.605C274.481 332.476 274.845 332.411 275.257 332.411C275.861 332.411 276.337 332.539 276.684 332.797C277.033 333.054 277.249 333.402 277.332 333.841Z" fill="#282C3F"/>
<path d="M150 175.726C150 171.809 153.175 168.635 157.091 168.635H198.909C202.825 168.635 206 171.809 206 175.726V350.635H150V175.726Z" fill="url(#paint4_linear_4197_200999)"/>
<path d="M160.695 149.87V158.465H158.622V151.809H158.572L156.65 152.984V151.188L158.769 149.87H160.695ZM166.15 158.675C165.4 158.675 164.754 158.497 164.211 158.142C163.668 157.784 163.25 157.27 162.956 156.601C162.663 155.93 162.517 155.123 162.52 154.18C162.523 153.237 162.67 152.437 162.961 151.779C163.254 151.119 163.671 150.617 164.211 150.273C164.754 149.926 165.4 149.752 166.15 149.752C166.9 149.752 167.546 149.926 168.089 150.273C168.635 150.617 169.054 151.119 169.348 151.779C169.642 152.44 169.787 153.24 169.785 154.18C169.785 155.126 169.638 155.934 169.344 156.606C169.05 157.277 168.632 157.791 168.089 158.146C167.549 158.498 166.903 158.675 166.15 158.675ZM166.15 156.975C166.598 156.975 166.96 156.747 167.237 156.291C167.514 155.832 167.651 155.128 167.648 154.18C167.648 153.559 167.585 153.047 167.46 152.644C167.334 152.238 167.159 151.936 166.935 151.737C166.711 151.539 166.45 151.439 166.15 151.439C165.705 151.439 165.346 151.665 165.072 152.115C164.797 152.563 164.659 153.251 164.656 154.18C164.653 154.809 164.713 155.331 164.837 155.745C164.962 156.159 165.139 156.469 165.365 156.673C165.592 156.874 165.854 156.975 166.15 156.975ZM175.117 153.378V154.956H171.138V153.378H175.117ZM180.523 149.87V158.465H178.45V151.809H178.4L176.477 152.984V151.188L178.597 149.87H180.523ZM182.318 157.038V155.418L185.839 149.87H187.279V152.069H186.444L184.383 155.334V155.401H189.482V157.038H182.318ZM186.469 158.465V156.543L186.511 155.833V149.87H188.454V158.465H186.469ZM195.385 156.853V156.4C195.385 156.047 195.461 155.722 195.612 155.422C195.766 155.123 195.988 154.882 196.279 154.7C196.57 154.518 196.925 154.428 197.345 154.428C197.773 154.428 198.133 154.518 198.424 154.7C198.717 154.879 198.938 155.119 199.087 155.418C199.238 155.715 199.313 156.042 199.313 156.4V156.853C199.313 157.206 199.238 157.532 199.087 157.831C198.936 158.13 198.713 158.371 198.419 158.553C198.126 158.735 197.767 158.826 197.345 158.826C196.92 158.826 196.562 158.735 196.271 158.553C195.98 158.371 195.759 158.13 195.607 157.831C195.459 157.532 195.385 157.206 195.385 156.853ZM196.724 156.4V156.853C196.724 157.032 196.767 157.204 196.854 157.369C196.943 157.535 197.107 157.617 197.345 157.617C197.588 157.617 197.752 157.537 197.836 157.378C197.92 157.216 197.962 157.041 197.962 156.853V156.4C197.962 156.213 197.921 156.036 197.84 155.871C197.762 155.703 197.597 155.619 197.345 155.619C197.11 155.619 196.948 155.703 196.858 155.871C196.769 156.036 196.724 156.213 196.724 156.4ZM190.928 151.935V151.481C190.928 151.123 191.005 150.796 191.159 150.499C191.316 150.2 191.539 149.961 191.83 149.782C192.121 149.6 192.474 149.509 192.888 149.509C193.316 149.509 193.676 149.6 193.967 149.782C194.26 149.961 194.483 150.2 194.634 150.499C194.785 150.796 194.86 151.123 194.86 151.481V151.935C194.86 152.293 194.783 152.62 194.63 152.917C194.479 153.213 194.256 153.45 193.962 153.626C193.669 153.802 193.31 153.89 192.888 153.89C192.465 153.89 192.107 153.801 191.814 153.622C191.523 153.443 191.302 153.205 191.15 152.908C191.002 152.612 190.928 152.287 190.928 151.935ZM192.279 151.481V151.935C192.279 152.122 192.323 152.297 192.41 152.459C192.499 152.619 192.659 152.698 192.888 152.698C193.134 152.698 193.298 152.619 193.379 152.459C193.463 152.297 193.505 152.122 193.505 151.935V151.481C193.505 151.294 193.466 151.118 193.387 150.953C193.309 150.785 193.143 150.701 192.888 150.701C192.653 150.701 192.492 150.786 192.405 150.957C192.321 151.127 192.279 151.302 192.279 151.481ZM191.562 158.465L197.471 149.87H198.617L192.707 158.465H191.562Z" fill="#282C3F"/>
<path d="M161.994 326.636L159.664 326.635L159.666 319.759L162.044 319.76C162.726 319.76 163.313 319.898 163.803 320.173C164.295 320.447 164.673 320.84 164.937 321.352C165.201 321.865 165.333 322.478 165.333 323.192C165.332 323.909 165.199 324.524 164.933 325.039C164.668 325.553 164.286 325.948 163.787 326.224C163.29 326.499 162.693 326.636 161.994 326.636ZM160.91 325.558L161.934 325.558C162.413 325.558 162.813 325.471 163.133 325.297C163.453 325.12 163.694 324.857 163.855 324.508C164.016 324.157 164.097 323.718 164.097 323.192C164.097 322.666 164.017 322.229 163.856 321.882C163.695 321.533 163.457 321.272 163.141 321.1C162.828 320.925 162.438 320.838 161.973 320.838L160.912 320.837L160.91 325.558ZM168.744 326.739C168.227 326.739 167.781 326.631 167.405 326.416C167.031 326.199 166.744 325.892 166.542 325.496C166.341 325.097 166.24 324.628 166.241 324.089C166.241 323.559 166.342 323.093 166.543 322.692C166.747 322.29 167.031 321.976 167.396 321.753C167.761 321.527 168.19 321.414 168.682 321.414C169 321.414 169.3 321.466 169.582 321.569C169.866 321.67 170.117 321.826 170.334 322.039C170.553 322.252 170.725 322.523 170.851 322.852C170.976 323.179 171.039 323.568 171.038 324.02L171.038 324.393L166.811 324.391L166.811 323.572L169.873 323.573C169.871 323.34 169.821 323.133 169.723 322.952C169.624 322.768 169.487 322.624 169.31 322.519C169.135 322.414 168.932 322.361 168.699 322.361C168.45 322.361 168.232 322.421 168.044 322.542C167.856 322.66 167.709 322.817 167.604 323.012C167.501 323.204 167.448 323.416 167.446 323.646L167.446 324.361C167.446 324.661 167.5 324.919 167.61 325.134C167.72 325.346 167.873 325.51 168.07 325.624C168.267 325.736 168.497 325.792 168.761 325.792C168.938 325.792 169.098 325.768 169.242 325.718C169.385 325.667 169.509 325.592 169.614 325.494C169.72 325.395 169.799 325.273 169.853 325.128L170.988 325.256C170.916 325.556 170.779 325.817 170.578 326.041C170.378 326.263 170.123 326.435 169.812 326.558C169.501 326.679 169.145 326.739 168.744 326.739ZM173.55 326.744C173.223 326.744 172.929 326.685 172.667 326.569C172.407 326.45 172.201 326.276 172.049 326.045C171.899 325.814 171.824 325.53 171.824 325.192C171.825 324.901 171.878 324.661 171.986 324.47C172.093 324.28 172.24 324.128 172.426 324.014C172.612 323.9 172.821 323.814 173.054 323.756C173.289 323.695 173.532 323.652 173.782 323.625C174.085 323.594 174.33 323.566 174.518 323.541C174.706 323.514 174.842 323.474 174.927 323.42C175.015 323.365 175.058 323.278 175.058 323.162L175.058 323.142C175.058 322.889 174.984 322.693 174.834 322.554C174.684 322.415 174.468 322.346 174.186 322.346C173.888 322.346 173.652 322.411 173.477 322.54C173.305 322.67 173.188 322.823 173.128 323L171.993 322.839C172.083 322.525 172.231 322.264 172.437 322.053C172.643 321.841 172.894 321.682 173.192 321.577C173.49 321.469 173.819 321.416 174.179 321.416C174.428 321.416 174.675 321.445 174.921 321.503C175.167 321.562 175.392 321.658 175.596 321.792C175.8 321.924 175.963 322.105 176.086 322.333C176.211 322.561 176.274 322.847 176.274 323.189L176.273 326.641L175.104 326.64L175.104 325.932L175.064 325.932C174.99 326.075 174.886 326.209 174.752 326.335C174.62 326.458 174.453 326.557 174.251 326.633C174.052 326.707 173.818 326.744 173.55 326.744ZM173.866 325.851C174.11 325.851 174.321 325.803 174.5 325.707C174.679 325.608 174.817 325.479 174.913 325.317C175.012 325.156 175.061 324.981 175.061 324.79L175.061 324.183C175.023 324.214 174.958 324.243 174.867 324.27C174.777 324.297 174.676 324.32 174.564 324.34C174.452 324.36 174.342 324.378 174.232 324.394C174.122 324.41 174.027 324.423 173.947 324.434C173.765 324.459 173.603 324.499 173.46 324.555C173.316 324.611 173.203 324.689 173.121 324.79C173.038 324.888 172.996 325.016 172.996 325.172C172.996 325.396 173.078 325.565 173.241 325.679C173.404 325.794 173.613 325.851 173.866 325.851ZM178.712 319.766L178.71 326.642L177.495 326.641L177.497 319.765L178.712 319.766ZM184.037 322.849L182.929 322.97C182.898 322.858 182.843 322.753 182.765 322.654C182.689 322.556 182.586 322.476 182.456 322.416C182.326 322.355 182.167 322.325 181.979 322.325C181.726 322.325 181.514 322.38 181.341 322.489C181.171 322.599 181.087 322.741 181.089 322.916C181.087 323.066 181.142 323.188 181.254 323.282C181.368 323.376 181.556 323.453 181.818 323.513L182.697 323.702C183.185 323.807 183.548 323.974 183.785 324.202C184.024 324.431 184.145 324.73 184.147 325.099C184.145 325.424 184.05 325.71 183.861 325.958C183.676 326.205 183.417 326.397 183.086 326.536C182.754 326.674 182.374 326.744 181.944 326.743C181.313 326.743 180.805 326.611 180.42 326.347C180.035 326.08 179.806 325.71 179.732 325.235L180.917 325.121C180.971 325.354 181.085 325.53 181.26 325.649C181.434 325.767 181.661 325.827 181.941 325.827C182.23 325.827 182.461 325.768 182.636 325.649C182.813 325.531 182.901 325.384 182.901 325.209C182.902 325.062 182.844 324.94 182.73 324.843C182.618 324.747 182.444 324.673 182.207 324.622L181.327 324.437C180.832 324.333 180.467 324.16 180.229 323.916C179.992 323.67 179.875 323.358 179.877 322.982C179.875 322.665 179.961 322.389 180.136 322.157C180.313 321.922 180.558 321.74 180.871 321.613C181.187 321.483 181.551 321.418 181.963 321.418C182.567 321.419 183.043 321.548 183.389 321.805C183.739 322.063 183.954 322.411 184.037 322.849ZM189.743 326.746C189.24 326.746 188.803 326.635 188.434 326.413C188.065 326.191 187.778 325.881 187.575 325.483C187.374 325.084 187.273 324.619 187.273 324.086C187.273 323.553 187.374 323.087 187.576 322.686C187.78 322.286 188.066 321.975 188.436 321.753C188.805 321.532 189.242 321.421 189.745 321.421C190.249 321.421 190.685 321.532 191.054 321.754C191.424 321.976 191.709 322.287 191.91 322.688C192.114 323.088 192.216 323.555 192.215 324.088C192.215 324.62 192.113 325.086 191.909 325.484C191.708 325.883 191.422 326.193 191.053 326.414C190.684 326.636 190.247 326.746 189.743 326.746ZM189.75 325.772C190.024 325.772 190.252 325.698 190.435 325.548C190.619 325.396 190.756 325.192 190.845 324.937C190.937 324.682 190.983 324.397 190.983 324.084C190.983 323.768 190.938 323.483 190.846 323.228C190.756 322.97 190.62 322.766 190.436 322.613C190.253 322.461 190.025 322.385 189.752 322.385C189.472 322.385 189.239 322.461 189.053 322.613C188.87 322.765 188.732 322.97 188.64 323.227C188.55 323.482 188.506 323.768 188.505 324.083C188.505 324.397 188.55 324.681 188.639 324.936C188.731 325.191 188.869 325.395 189.052 325.547C189.238 325.697 189.471 325.772 189.75 325.772ZM194.462 323.625L194.461 326.647L193.246 326.646L193.248 321.489L194.409 321.49L194.409 322.366L194.47 322.366C194.588 322.077 194.778 321.848 195.037 321.678C195.299 321.508 195.623 321.423 196.008 321.423C196.364 321.423 196.674 321.5 196.938 321.652C197.204 321.804 197.41 322.025 197.555 322.314C197.703 322.602 197.775 322.953 197.773 323.364L197.772 326.648L196.557 326.648L196.558 323.552C196.558 323.207 196.468 322.938 196.289 322.743C196.112 322.548 195.867 322.451 195.554 322.45C195.341 322.45 195.152 322.497 194.987 322.591C194.823 322.683 194.694 322.816 194.6 322.991C194.509 323.165 194.463 323.377 194.462 323.625Z" fill="#282C3F"/>
<path d="M171.181 338.295C173.13 338.295 174.612 337.026 174.612 334.937V334.352H171.122V335.718H172.981C172.733 336.372 172.126 336.772 171.201 336.772C169.849 336.772 169.013 335.923 169.013 334.762C169.013 333.561 169.888 332.712 171.062 332.712C171.848 332.712 172.474 333.063 172.763 333.512L174.115 332.751C173.528 331.834 172.404 331.189 171.072 331.189C169.023 331.189 167.422 332.771 167.422 334.752C167.422 336.714 168.993 338.295 171.181 338.295Z" fill="#00357C"/>
<path fill-rule="evenodd" clip-rule="evenodd" d="M177.414 335.959L178.779 338.293H180.559L179.017 335.684C179.814 335.288 180.352 334.497 180.352 333.624C180.352 332.362 179.385 331.331 178.136 331.201V331.193H178.032C177.978 331.189 177.924 331.188 177.869 331.188H176.627V331.193H175.695V332.715H177.959C178.372 332.764 178.696 333.141 178.696 333.624C178.696 334.141 178.324 334.537 177.869 334.537H176.627V334.538H175.697V335.959H177.414Z" fill="#00357C"/>
<path d="M183.562 338.244V332.691H181.906V338.244H183.562Z" fill="#00357C"/>
<path fill-rule="evenodd" clip-rule="evenodd" d="M186.327 336.062V338.295H184.672V331.189H187.414C188.841 331.189 189.948 332.276 189.948 333.626C189.948 334.976 188.841 336.062 187.414 336.062H186.327ZM186.328 334.539H187.414C187.921 334.539 188.294 334.143 188.294 333.626C188.294 333.108 187.921 332.712 187.414 332.712H186.328V334.539Z" fill="#00357C"/>
<path fill-rule="evenodd" clip-rule="evenodd" d="M182.744 330.519C182.851 330.526 182.94 330.576 183.002 330.675C183.224 331.025 183.447 331.375 183.669 331.724C183.716 331.797 183.762 331.869 183.809 331.941C183.853 332.007 183.865 332.073 183.814 332.141C183.769 332.201 183.704 332.218 183.613 332.19C183.376 332.118 183.139 332.047 182.903 331.971C182.789 331.934 182.68 331.932 182.564 331.97C182.331 332.046 182.096 332.114 181.862 332.187C181.786 332.21 181.714 332.214 181.657 332.146C181.608 332.087 181.608 332.021 181.663 331.934C181.93 331.513 182.197 331.093 182.465 330.673C182.527 330.576 182.617 330.522 182.744 330.519" fill="#00B8B7"/>
<path d="M75 266.726C75 262.809 78.1747 259.635 82.0909 259.635H119.909C123.825 259.635 127 262.809 127 266.726V350.635H75V266.726Z" fill="url(#paint5_linear_4197_200999)"/>
<path d="M92.4469 249.102L95.9135 242.236V242.181H91.8594V240.507H98.0622V242.194L94.5831 249.102H92.4469ZM104.016 247.49V247.037C104.016 246.684 104.092 246.358 104.243 246.059C104.397 245.76 104.619 245.519 104.91 245.337C105.201 245.155 105.557 245.064 105.976 245.064C106.404 245.064 106.764 245.155 107.055 245.337C107.349 245.516 107.57 245.755 107.718 246.055C107.869 246.351 107.945 246.679 107.945 247.037V247.49C107.945 247.843 107.869 248.168 107.718 248.468C107.567 248.767 107.344 249.008 107.051 249.19C106.757 249.372 106.399 249.462 105.976 249.462C105.551 249.462 105.193 249.372 104.902 249.19C104.611 249.008 104.39 248.767 104.239 248.468C104.091 248.168 104.016 247.843 104.016 247.49ZM105.355 247.037V247.49C105.355 247.669 105.399 247.841 105.485 248.006C105.575 248.171 105.739 248.254 105.976 248.254C106.22 248.254 106.383 248.174 106.467 248.015C106.551 247.852 106.593 247.677 106.593 247.49V247.037C106.593 246.849 106.553 246.673 106.472 246.508C106.393 246.34 106.228 246.256 105.976 246.256C105.741 246.256 105.579 246.34 105.489 246.508C105.4 246.673 105.355 246.849 105.355 247.037ZM99.5594 242.571V242.118C99.5594 241.76 99.6364 241.433 99.7902 241.136C99.9469 240.837 100.171 240.597 100.462 240.418C100.753 240.237 101.105 240.146 101.519 240.146C101.947 240.146 102.307 240.237 102.598 240.418C102.892 240.597 103.114 240.837 103.265 241.136C103.416 241.433 103.492 241.76 103.492 242.118V242.571C103.492 242.929 103.415 243.257 103.261 243.553C103.11 243.85 102.887 244.086 102.594 244.263C102.3 244.439 101.942 244.527 101.519 244.527C101.097 244.527 100.739 244.438 100.445 244.258C100.154 244.079 99.9329 243.842 99.7819 243.545C99.6336 243.248 99.5594 242.924 99.5594 242.571ZM100.911 242.118V242.571C100.911 242.759 100.954 242.934 101.041 243.096C101.13 243.255 101.29 243.335 101.519 243.335C101.766 243.335 101.929 243.255 102.01 243.096C102.094 242.934 102.136 242.759 102.136 242.571V242.118C102.136 241.931 102.097 241.754 102.019 241.589C101.94 241.421 101.774 241.337 101.519 241.337C101.284 241.337 101.123 241.423 101.037 241.593C100.953 241.764 100.911 241.939 100.911 242.118ZM100.193 249.102L106.102 240.507H107.248L101.339 249.102H100.193Z" fill="#282C3F"/>
<path d="M94.8247 337.635V330.759H99.2296V331.803H96.0703V333.67H98.9275V334.714H96.0703V337.635H94.8247ZM102.695 337.635H100.364V330.759H102.742C103.424 330.759 104.011 330.896 104.501 331.172C104.993 331.445 105.372 331.838 105.636 332.35C105.9 332.863 106.032 333.476 106.032 334.19C106.032 334.906 105.899 335.522 105.632 336.037C105.368 336.551 104.987 336.946 104.487 337.222C103.99 337.497 103.393 337.635 102.695 337.635ZM101.61 336.557H102.634C103.113 336.557 103.513 336.47 103.833 336.295C104.153 336.118 104.393 335.855 104.555 335.506C104.716 335.155 104.796 334.716 104.796 334.19C104.796 333.664 104.716 333.228 104.555 332.881C104.393 332.531 104.155 332.271 103.839 332.098C103.526 331.924 103.137 331.836 102.671 331.836H101.61V336.557Z" fill="#282C3F"/>
<line x1="501.41" y1="351.876" x2="57.0465" y2="351.876" stroke="url(#paint6_linear_4197_200999)" stroke-opacity="0.52" stroke-width="1.18182"/>
<path d="M167.753 366.635V359.759H170.204C170.737 359.759 171.179 359.851 171.53 360.034C171.884 360.218 172.148 360.472 172.322 360.796C172.497 361.118 172.584 361.491 172.584 361.914C172.584 362.335 172.496 362.705 172.319 363.026C172.144 363.343 171.88 363.591 171.527 363.768C171.175 363.944 170.733 364.033 170.201 364.033H168.344V363.14H170.107C170.442 363.14 170.715 363.092 170.926 362.995C171.138 362.899 171.294 362.759 171.392 362.576C171.491 362.392 171.54 362.172 171.54 361.914C171.54 361.655 171.49 361.43 171.389 361.239C171.291 361.049 171.135 360.904 170.922 360.803C170.712 360.7 170.436 360.648 170.093 360.648H168.79V366.635H167.753ZM171.147 363.532L172.846 366.635H171.664L169.999 363.532H171.147ZM174.884 359.759V366.635H173.847V359.759H174.884ZM180.145 361.565C180.109 361.247 179.962 361.001 179.702 360.826C179.442 360.65 179.116 360.561 178.722 360.561C178.44 360.561 178.196 360.606 177.99 360.695C177.784 360.783 177.624 360.904 177.51 361.058C177.398 361.21 177.342 361.384 177.342 361.578C177.342 361.742 177.38 361.883 177.456 362.002C177.534 362.12 177.636 362.22 177.761 362.3C177.889 362.379 178.026 362.445 178.171 362.498C178.317 362.55 178.456 362.592 178.591 362.626L179.262 362.801C179.482 362.854 179.707 362.927 179.937 363.019C180.168 363.111 180.381 363.231 180.578 363.381C180.775 363.531 180.934 363.717 181.055 363.939C181.178 364.16 181.24 364.426 181.24 364.734C181.24 365.124 181.139 365.47 180.938 365.772C180.738 366.074 180.449 366.312 180.068 366.487C179.69 366.662 179.232 366.749 178.695 366.749C178.18 366.749 177.735 366.667 177.359 366.504C176.983 366.34 176.688 366.109 176.476 365.809C176.263 365.507 176.145 365.149 176.123 364.734H177.164C177.184 364.983 177.265 365.19 177.406 365.356C177.549 365.519 177.731 365.641 177.953 365.722C178.177 365.8 178.422 365.839 178.688 365.839C178.981 365.839 179.242 365.793 179.47 365.701C179.701 365.607 179.882 365.478 180.014 365.312C180.146 365.144 180.212 364.948 180.212 364.724C180.212 364.521 180.154 364.354 180.038 364.224C179.924 364.094 179.768 363.987 179.571 363.902C179.376 363.817 179.156 363.742 178.91 363.677L178.097 363.455C177.547 363.305 177.11 363.085 176.788 362.794C176.468 362.503 176.308 362.118 176.308 361.639C176.308 361.243 176.415 360.897 176.63 360.601C176.845 360.306 177.136 360.077 177.503 359.913C177.87 359.748 178.284 359.665 178.745 359.665C179.211 359.665 179.621 359.746 179.977 359.91C180.335 360.073 180.618 360.298 180.823 360.585C181.029 360.869 181.137 361.196 181.146 361.565H180.145ZM182.479 366.635V359.759H183.517V363.042H183.601L186.485 359.759H187.791L185.018 362.854L187.801 366.635H186.552L184.329 363.563L183.517 364.496V366.635H182.479Z" fill="#565656"/>
<path d="M48 255.46L41.124 255.46L41.124 253.009C41.124 252.476 41.2157 252.034 41.3993 251.683C41.5828 251.329 41.8369 251.065 42.1614 250.89C42.4837 250.716 42.8564 250.629 43.2794 250.629C43.7002 250.629 44.0707 250.717 44.3908 250.894C44.7086 251.068 44.9559 251.333 45.1327 251.686C45.3096 252.038 45.398 252.48 45.398 253.012L45.398 254.869L44.5049 254.869L44.5049 253.106C44.5049 252.771 44.4568 252.498 44.3605 252.287C44.2643 252.075 44.1244 251.919 43.9409 251.82C43.7573 251.722 43.5368 251.673 43.2794 251.673C43.0198 251.673 42.7949 251.723 42.6046 251.824C42.4143 251.922 42.2689 252.078 42.1681 252.291C42.0652 252.501 42.0137 252.777 42.0137 253.12L42.0137 254.423L48 254.423L48 255.46ZM44.8977 252.066L48 250.367L48 251.549L44.8977 253.214L44.8977 252.066ZM48 249.366L41.124 249.366L41.124 245.055L42.017 245.055L42.017 248.329L44.1121 248.329L44.1121 245.28L45.0018 245.28L45.0018 248.329L47.1069 248.329L47.1069 245.015L48 245.015L48 249.366ZM42.017 244.009L41.124 244.009L41.124 238.687L42.017 238.687L42.017 240.832L48 240.832L48 241.867L42.017 241.867L42.017 244.009ZM41.124 233.089L41.124 232.049L45.6464 232.049C46.1277 232.049 46.5541 232.162 46.9256 232.388C47.2949 232.614 47.5859 232.932 47.7986 233.341C48.009 233.751 48.1142 234.231 48.1142 234.781C48.1142 235.33 48.009 235.809 47.7986 236.218C47.5859 236.628 47.2949 236.946 46.9256 237.172C46.5541 237.398 46.1277 237.511 45.6464 237.511L41.124 237.511L41.124 236.474L45.5625 236.474C45.8736 236.474 46.1501 236.405 46.3918 236.269C46.6335 236.13 46.8238 235.934 46.9626 235.681C47.0991 235.428 47.1674 235.128 47.1674 234.781C47.1674 234.432 47.0991 234.131 46.9626 233.878C46.8238 233.623 46.6335 233.428 46.3918 233.294C46.1501 233.158 45.8736 233.089 45.5625 233.089L41.124 233.089ZM48 230.54L41.124 230.54L41.124 228.089C41.124 227.557 41.2157 227.115 41.3993 226.763C41.5828 226.409 41.8369 226.145 42.1614 225.971C42.4837 225.796 42.8564 225.709 43.2794 225.709C43.7002 225.709 44.0707 225.797 44.3908 225.974C44.7086 226.149 44.9559 226.413 45.1327 226.766C45.3096 227.118 45.398 227.56 45.398 228.093L45.398 229.949L44.5049 229.949L44.5049 228.187C44.5049 227.851 44.4568 227.578 44.3605 227.367C44.2643 227.155 44.1244 226.999 43.9409 226.901C43.7573 226.802 43.5368 226.753 43.2794 226.753C43.0198 226.753 42.7949 226.803 42.6046 226.904C42.4143 227.003 42.2689 227.158 42.1681 227.371C42.0652 227.581 42.0137 227.858 42.0137 228.2L42.0137 229.503L48 229.503L48 230.54ZM44.8977 227.146L48 225.447L48 226.629L44.8977 228.294L44.8977 227.146ZM41.124 218.897L48 218.897L48 219.85L42.9571 223.345L42.9571 223.409L48 223.409L48 224.446L41.124 224.446L41.124 223.486L46.1736 219.988L46.1736 219.924L41.124 219.924L41.124 218.897ZM42.9303 213.633C42.6124 213.669 42.3662 213.817 42.1916 214.076C42.0148 214.336 41.9264 214.663 41.9264 215.057C41.9264 215.339 41.9712 215.583 42.0607 215.788C42.148 215.994 42.2689 216.154 42.4233 216.269C42.5755 216.38 42.749 216.436 42.9437 216.436C43.1071 216.436 43.2481 216.398 43.3667 216.322C43.4854 216.244 43.585 216.142 43.6655 216.017C43.7439 215.889 43.8099 215.753 43.8636 215.607C43.9151 215.462 43.9576 215.322 43.9912 215.187L44.1658 214.516C44.2195 214.297 44.2923 214.072 44.384 213.841C44.4758 213.611 44.5967 213.397 44.7466 213.2C44.8966 213.003 45.0824 212.844 45.304 212.723C45.5256 212.6 45.7908 212.538 46.0997 212.538C46.4892 212.538 46.835 212.639 47.1371 212.841C47.4393 213.04 47.6777 213.33 47.8523 213.71C48.0269 214.088 48.1142 214.546 48.1142 215.083C48.1142 215.598 48.0325 216.044 47.8691 216.42C47.7057 216.796 47.474 217.09 47.1741 217.303C46.8719 217.515 46.5138 217.633 46.0997 217.655L46.0997 216.614C46.3481 216.594 46.5552 216.514 46.7208 216.373C46.8842 216.229 47.0062 216.047 47.0868 215.825C47.1651 215.602 47.2043 215.356 47.2043 215.09C47.2043 214.797 47.1584 214.536 47.0666 214.308C46.9726 214.077 46.8428 213.896 46.6772 213.764C46.5093 213.632 46.3134 213.566 46.0896 213.566C45.8859 213.566 45.7192 213.624 45.5894 213.74C45.4595 213.855 45.3521 214.01 45.267 214.207C45.182 214.402 45.107 214.622 45.0421 214.869L44.8205 215.681C44.6705 216.232 44.4501 216.668 44.1591 216.99C43.8681 217.311 43.4831 217.471 43.0041 217.471C42.608 217.471 42.2621 217.363 41.9667 217.148C41.6712 216.933 41.4418 216.642 41.2784 216.275C41.1128 215.908 41.03 215.494 41.03 215.033C41.03 214.567 41.1117 214.157 41.275 213.801C41.4384 213.443 41.6634 213.161 41.9499 212.955C42.2342 212.749 42.5609 212.641 42.9303 212.632L42.9303 213.633Z" fill="#565656"/>
</g>
<defs>
<filter id="filter0_f_4197_200999" x="17.2189" y="62.0939" width="320.746" height="318.383" filterUnits="userSpaceOnUse" color-interpolation-filters="sRGB">
<feFlood flood-opacity="0" result="BackgroundImageFix"/>
<feBlend mode="normal" in="SourceGraphic" in2="BackgroundImageFix" result="shape"/>
<feGaussianBlur stdDeviation="54.7773" result="effect1_foregroundBlur_4197_200999"/>
</filter>
<linearGradient id="paint0_linear_4197_200999" x1="55.3633" y1="352.465" x2="55.3633" y2="-28.0801" gradientUnits="userSpaceOnUse">
<stop stop-color="#909090"/>
<stop offset="0.56" stop-color="#666666" stop-opacity="0"/>
<stop offset="1" stop-color="#666666" stop-opacity="0"/>
</linearGradient>
<linearGradient id="paint1_linear_4197_200999" x1="208.273" y1="150.18" x2="208.273" y2="133.635" gradientUnits="userSpaceOnUse">
<stop stop-color="#00B8B7"/>
<stop offset="1" stop-color="#E5F8F8"/>
</linearGradient>
<radialGradient id="paint2_radial_4197_200999" cx="0" cy="0" r="1" gradientUnits="userSpaceOnUse" gradientTransform="translate(176.998 242.724) rotate(90) scale(89.8182)">
<stop/>
<stop offset="1" stop-color="#A7A7A7" stop-opacity="0.5"/>
</radialGradient>
<linearGradient id="paint3_linear_4197_200999" x1="260.321" y1="124.375" x2="260.321" y2="351.284" gradientUnits="userSpaceOnUse">
<stop stop-color="#F77575"/>
<stop offset="1" stop-color="#FEF1F1"/>
</linearGradient>
<linearGradient id="paint4_linear_4197_200999" x1="178" y1="174.459" x2="178" y2="350.635" gradientUnits="userSpaceOnUse">
<stop stop-color="#80DBDB"/>
<stop offset="1" stop-color="#E5F8F8" stop-opacity="0.72"/>
</linearGradient>
<linearGradient id="paint5_linear_4197_200999" x1="101" y1="264.185" x2="101" y2="350.635" gradientUnits="userSpaceOnUse">
<stop stop-color="#4F9AFF"/>
<stop offset="1" stop-color="#E7F1FE"/>
</linearGradient>
<linearGradient id="paint6_linear_4197_200999" x1="57.0465" y1="350.785" x2="501.41" y2="350.785" gradientUnits="userSpaceOnUse">
<stop stop-color="#666666"/>
<stop offset="0.56" stop-color="#666666" stop-opacity="0"/>
<stop offset="1" stop-color="#666666" stop-opacity="0"/>
</linearGradient>
<clipPath id="clip0_4197_200999">
<rect width="335" height="396.27" rx="12" fill="white"/>
</clipPath>
</defs>
</svg>
