<svg width="25" height="25" viewBox="0 0 25 25" fill="none" xmlns="http://www.w3.org/2000/svg">
<path d="M14.5 15.9297H10.5C10.2348 15.9297 9.98043 16.035 9.79289 16.2226C9.60536 16.4101 9.5 16.6645 9.5 16.9297V19.3397C9.5 20.1353 9.81607 20.8984 10.3787 21.461C10.9413 22.0236 11.7044 22.3397 12.5 22.3397C13.2956 22.3397 14.0587 22.0236 14.6213 21.461C15.1839 20.8984 15.5 20.1353 15.5 19.3397V16.9297C15.5 16.6645 15.3946 16.4101 15.2071 16.2226C15.0196 16.035 14.7652 15.9297 14.5 15.9297Z" fill="#FFB629"/>
<path d="M12.5 18.3398C15.8137 18.3398 18.5 15.6536 18.5 12.3398C18.5 9.02614 15.8137 6.33984 12.5 6.33984C9.18629 6.33984 6.5 9.02614 6.5 12.3398C6.5 15.6536 9.18629 18.3398 12.5 18.3398Z" fill="#FBD984"/>
<path d="M12.5 5.33984C12.2348 5.33984 11.9804 5.23449 11.7929 5.04695C11.6054 4.85941 11.5 4.60506 11.5 4.33984V3.33984C11.5 3.07463 11.6054 2.82027 11.7929 2.63274C11.9804 2.4452 12.2348 2.33984 12.5 2.33984C12.7652 2.33984 13.0196 2.4452 13.2071 2.63274C13.3946 2.82027 13.5 3.07463 13.5 3.33984V4.33984C13.5 4.60506 13.3946 4.85941 13.2071 5.04695C13.0196 5.23449 12.7652 5.33984 12.5 5.33984ZM21.5 12.3398H20.5C20.2348 12.3398 19.9804 12.2345 19.7929 12.047C19.6054 11.8594 19.5 11.6051 19.5 11.3398C19.5 11.0746 19.6054 10.8203 19.7929 10.6327C19.9804 10.4452 20.2348 10.3398 20.5 10.3398H21.5C21.7652 10.3398 22.0196 10.4452 22.2071 10.6327C22.3946 10.8203 22.5 11.0746 22.5 11.3398C22.5 11.6051 22.3946 11.8594 22.2071 12.047C22.0196 12.2345 21.7652 12.3398 21.5 12.3398ZM4.5 12.3398H3.5C3.23478 12.3398 2.98043 12.2345 2.79289 12.047C2.60536 11.8594 2.5 11.6051 2.5 11.3398C2.5 11.0746 2.60536 10.8203 2.79289 10.6327C2.98043 10.4452 3.23478 10.3398 3.5 10.3398H4.5C4.76522 10.3398 5.01957 10.4452 5.20711 10.6327C5.39464 10.8203 5.5 11.0746 5.5 11.3398C5.5 11.6051 5.39464 11.8594 5.20711 12.047C5.01957 12.2345 4.76522 12.3398 4.5 12.3398ZM6.85 7.18984C6.58766 7.18874 6.33626 7.08459 6.15 6.89984L5.44 6.18984C5.33532 6.1002 5.2503 5.98988 5.19027 5.86581C5.13025 5.74175 5.09652 5.60662 5.0912 5.4689C5.08588 5.33118 5.10909 5.19385 5.15936 5.06552C5.20964 4.9372 5.2859 4.82065 5.38335 4.72319C5.4808 4.62574 5.59735 4.54948 5.72568 4.49921C5.854 4.44893 5.99133 4.42573 6.12905 4.43105C6.26677 4.43637 6.40191 4.47009 6.52597 4.53012C6.65003 4.59014 6.76035 4.67516 6.85 4.77984L7.56 5.48984C7.74625 5.67721 7.85079 5.93066 7.85079 6.19484C7.85079 6.45903 7.74625 6.71248 7.56 6.89984C7.46656 6.99253 7.35574 7.06585 7.23391 7.11561C7.11207 7.16538 6.98161 7.1906 6.85 7.18984ZM18.15 7.18984C18.0184 7.1906 17.8879 7.16538 17.7661 7.11561C17.6443 7.06585 17.5334 6.99253 17.44 6.89984C17.2537 6.71248 17.1492 6.45903 17.1492 6.19484C17.1492 5.93066 17.2537 5.67721 17.44 5.48984L18.15 4.77984C18.3413 4.61602 18.5874 4.53041 18.8391 4.54013C19.0907 4.54985 19.3295 4.65419 19.5076 4.83228C19.6857 5.01038 19.79 5.24911 19.7997 5.50079C19.8094 5.75247 19.7238 5.99854 19.56 6.18984L18.85 6.89984C18.6637 7.08459 18.4123 7.18874 18.15 7.18984Z" fill="#FBD984"/>
</svg>
