<svg width="740" height="401" viewBox="0 0 740 401" fill="none" xmlns="http://www.w3.org/2000/svg">
<g clip-path="url(#clip0_16758_679674)">
<path opacity="0.06" d="M77.0607 -0.464844H133.551V-65H135.889V-0.464844H192.375V-65H194.713V-0.464844H251.207V-65H253.545V-0.464844H310.035V-65H312.373V-0.464844H368.859V-65H371.197V-0.464844H427.688V-65H430.026V-0.464844H486.512V-65H488.85V-0.464844H545.34V-65H547.678V-0.464844H604.164V-65H606.502V-0.464844H702.914V1.87305H606.502V38.8164H702.914V41.1543H606.502V78.0898H702.914V80.4277H606.502V117.383H702.914V119.721H606.502V156.672H702.914V159.01H606.502V195.949H702.914V198.287H606.502V235.223H702.914V237.561H606.502V274.512H702.914V276.85H606.502V313.785H702.914V316.123H606.502V353.055H702.914V355.393H606.502V419H604.164V355.393H547.678V419H545.34V355.393H488.85V419H486.512V355.393H430.026V419H427.688V355.393H371.197V419H368.859V355.393H312.373V419H310.035V355.393H253.545V419H251.207V355.393H194.713V419H192.375V355.393H135.889V419H133.551V355.393H77.0607V419H74.7228V355.393H-21.9169V353.055H74.7228V316.123H-21.9169V313.785H74.7228V276.85H-21.9169V274.512H74.7228V237.561H-21.9169V235.223H74.7228V198.287H-21.9169V195.949H74.7228V159.01H-21.9169V156.672H74.7228V119.721H-21.9169V117.383H74.7228V80.4277H-21.9169V78.0898H74.7228V41.1543H-21.9169V38.8164H74.7228V1.87305H-21.9169V-0.464844H74.7228V-65H77.0607V-0.464844ZM77.0607 353.055H133.551V316.123H77.0607V353.055ZM135.889 353.055H192.375V316.123H135.889V353.055ZM194.713 353.055H251.207V316.123H194.713V353.055ZM253.545 353.055H310.035V316.123H253.545V353.055ZM312.373 353.055H368.859V316.123H312.373V353.055ZM371.197 353.055H427.688V316.123H371.197V353.055ZM430.026 353.055H486.512V316.123H430.026V353.055ZM488.85 353.055H545.34V316.123H488.85V353.055ZM547.678 353.055H604.164V316.123H547.678V353.055ZM77.0607 313.785H133.551V276.85H77.0607V313.785ZM135.889 313.785H192.375V276.85H135.889V313.785ZM194.713 313.785H251.207V276.85H194.713V313.785ZM253.545 313.785H310.035V276.85H253.545V313.785ZM312.373 313.785H368.859V276.85H312.373V313.785ZM371.197 313.785H427.688V276.85H371.197V313.785ZM430.026 313.785H486.512V276.85H430.026V313.785ZM488.85 313.785H545.34V276.85H488.85V313.785ZM547.678 313.785H604.164V276.85H547.678V313.785ZM77.0607 274.512H133.551V237.561H77.0607V274.512ZM135.889 274.512H192.375V237.561H135.889V274.512ZM194.713 274.512H251.207V237.561H194.713V274.512ZM253.545 274.512H310.035V237.561H253.545V274.512ZM312.373 274.512H368.859V237.561H312.373V274.512ZM371.197 274.512H427.688V237.561H371.197V274.512ZM430.026 274.512H486.512V237.561H430.026V274.512ZM488.85 274.512H545.34V237.561H488.85V274.512ZM547.678 274.512H604.164V237.561H547.678V274.512ZM77.0607 235.223H133.551V198.287H77.0607V235.223ZM135.889 235.223H192.375V198.287H135.889V235.223ZM194.713 235.223H251.207V198.287H194.713V235.223ZM253.545 235.223H310.035V198.287H253.545V235.223ZM312.373 235.223H368.859V198.287H312.373V235.223ZM371.197 235.223H427.688V198.287H371.197V235.223ZM430.026 235.223H486.512V198.287H430.026V235.223ZM488.85 235.223H545.34V198.287H488.85V235.223ZM547.678 235.223H604.164V198.287H547.678V235.223ZM77.0607 195.949H133.551V159.01H77.0607V195.949ZM135.889 195.949H192.375V159.01H135.889V195.949ZM194.713 195.949H251.207V159.01H194.713V195.949ZM253.545 195.949H310.035V159.01H253.545V195.949ZM312.373 195.949H368.859V159.01H312.373V195.949ZM371.197 195.949H427.688V159.01H371.197V195.949ZM430.026 195.949H486.512V159.01H430.026V195.949ZM488.85 195.949H545.34V159.01H488.85V195.949ZM547.678 195.949H604.164V159.01H547.678V195.949ZM77.0607 156.672H133.551V119.721H77.0607V156.672ZM135.889 156.672H192.375V119.721H135.889V156.672ZM194.713 156.672H251.207V119.721H194.713V156.672ZM253.545 156.672H310.035V119.721H253.545V156.672ZM312.373 156.672H368.859V119.721H312.373V156.672ZM371.197 156.672H427.688V119.721H371.197V156.672ZM430.026 156.672H486.512V119.721H430.026V156.672ZM488.85 156.672H545.34V119.721H488.85V156.672ZM547.678 156.672H604.164V119.721H547.678V156.672ZM77.0607 117.383H133.551V80.4277H77.0607V117.383ZM135.889 117.383H192.375V80.4277H135.889V117.383ZM194.713 117.383H251.207V80.4277H194.713V117.383ZM253.545 117.383H310.035V80.4277H253.545V117.383ZM312.373 117.383H368.859V80.4277H312.373V117.383ZM371.197 117.383H427.688V80.4277H371.197V117.383ZM430.026 117.383H486.512V80.4277H430.026V117.383ZM488.85 117.383H545.34V80.4277H488.85V117.383ZM547.678 117.383H604.164V80.4277H547.678V117.383ZM77.0607 78.0898H133.551V41.1543H77.0607V78.0898ZM135.889 78.0898H192.375V41.1543H135.889V78.0898ZM194.713 78.0898H251.207V41.1543H194.713V78.0898ZM253.545 78.0898H310.035V41.1543H253.545V78.0898ZM312.373 78.0898H368.859V41.1543H312.373V78.0898ZM371.197 78.0898H427.688V41.1543H371.197V78.0898ZM430.026 78.0898H486.512V41.1543H430.026V78.0898ZM488.85 78.0898H545.34V41.1543H488.85V78.0898ZM547.678 78.0898H604.164V41.1543H547.678V78.0898ZM77.0607 38.8164H133.551V1.87305H77.0607V38.8164ZM135.889 38.8164H192.375V1.87305H135.889V38.8164ZM194.713 38.8164H251.207V1.87305H194.713V38.8164ZM253.545 38.8164H310.035V1.87305H253.545V38.8164ZM312.373 38.8164H368.859V1.87305H312.373V38.8164ZM371.197 38.8164H427.688V1.87305H371.197V38.8164ZM430.026 38.8164H486.512V1.87305H430.026V38.8164ZM488.85 38.8164H545.34V1.87305H488.85V38.8164ZM547.678 38.8164H604.164V1.87305H547.678V38.8164Z" fill="url(#paint0_radial_16758_679674)"/>
<g filter="url(#filter0_d_16758_679674)">
<rect x="222.349" y="83" width="139.605" height="108.666" rx="8.99051" fill="white" shape-rendering="crispEdges"/>
<rect x="222.852" y="83.5031" width="138.599" height="107.659" rx="8.48743" stroke="black" stroke-opacity="0.04" stroke-width="1.00616" shape-rendering="crispEdges"/>
<path d="M261.495 157.719C260.976 157.72 260.512 157.669 260.104 157.566C259.705 157.455 259.365 157.295 259.085 157.088C258.812 156.873 258.604 156.61 258.46 156.298C258.323 155.979 258.259 155.611 258.266 155.196L259.428 154.882C259.413 155.281 259.489 155.613 259.658 155.876C259.826 156.14 260.074 156.339 260.402 156.474C260.738 156.602 261.122 156.665 261.553 156.664C261.977 156.663 262.332 156.61 262.62 156.506C262.907 156.402 263.123 156.261 263.266 156.085C263.418 155.901 263.493 155.693 263.493 155.462C263.492 155.198 263.4 154.99 263.216 154.839C263.04 154.679 262.804 154.556 262.508 154.468C262.212 154.373 261.88 154.286 261.513 154.207C261.137 154.127 260.765 154.036 260.397 153.933C260.029 153.83 259.693 153.695 259.389 153.527C259.093 153.352 258.853 153.129 258.669 152.857C258.493 152.586 258.404 152.242 258.403 151.827C258.402 151.347 258.521 150.936 258.761 150.592C259 150.247 259.339 149.979 259.778 149.786C260.225 149.594 260.752 149.497 261.36 149.496C261.967 149.495 262.499 149.59 262.955 149.781C263.418 149.963 263.783 150.234 264.047 150.594C264.319 150.945 264.46 151.372 264.469 151.875L263.271 152.189C263.27 151.918 263.222 151.678 263.126 151.47C263.037 151.263 262.909 151.091 262.741 150.956C262.573 150.82 262.373 150.721 262.141 150.657C261.909 150.586 261.645 150.55 261.35 150.551C261.006 150.551 260.707 150.604 260.451 150.708C260.195 150.805 259.996 150.941 259.852 151.117C259.717 151.285 259.649 151.485 259.65 151.717C259.65 152.004 259.751 152.232 259.951 152.399C260.159 152.559 260.431 152.69 260.767 152.793C261.102 152.889 261.462 152.98 261.846 153.067C262.19 153.138 262.53 153.226 262.865 153.329C263.209 153.424 263.521 153.555 263.801 153.723C264.089 153.89 264.317 154.109 264.486 154.381C264.662 154.652 264.751 155 264.751 155.423C264.752 155.887 264.629 156.29 264.382 156.635C264.143 156.979 263.784 157.247 263.305 157.44C262.826 157.624 262.222 157.718 261.495 157.719ZM267.87 157.551L267.856 149.639L269.174 149.637L269.189 157.549L267.87 157.551ZM265.484 150.771L265.482 149.644L271.56 149.632L271.562 150.759L265.484 150.771ZM272.83 157.542L272.815 149.63L275.716 149.625C276.132 149.624 276.507 149.655 276.843 149.718C277.179 149.782 277.479 149.877 277.743 150.004C278.007 150.132 278.231 150.291 278.415 150.483C278.599 150.666 278.735 150.882 278.824 151.129C278.92 151.369 278.968 151.636 278.969 151.932C278.969 152.212 278.926 152.468 278.839 152.699C278.759 152.923 278.632 153.123 278.456 153.3C278.289 153.476 278.077 153.62 277.822 153.732C277.574 153.837 277.282 153.909 276.947 153.95L276.947 154.106C277.275 154.145 277.551 154.228 277.775 154.356C277.999 154.483 278.187 154.663 278.339 154.894C278.491 155.126 278.62 155.429 278.725 155.804L279.219 157.53L277.793 157.532L277.406 155.951C277.326 155.631 277.205 155.376 277.045 155.184C276.885 154.985 276.685 154.841 276.445 154.754C276.205 154.666 275.921 154.623 275.594 154.624L274.131 154.626L274.137 157.539L272.83 157.542ZM274.129 153.595L275.628 153.593C276.283 153.591 276.778 153.471 277.113 153.23C277.457 152.99 277.628 152.622 277.627 152.126C277.626 151.631 277.461 151.268 277.133 151.036C276.813 150.797 276.317 150.678 275.646 150.68L274.124 150.682L274.129 153.595ZM280.096 157.528L282.838 149.611L284.744 149.608L287.516 157.514L286.101 157.517L283.871 150.676L283.715 150.676L281.51 157.525L280.096 157.528ZM281.471 155.823L281.469 154.864L286.3 154.855L286.302 155.814L281.471 155.823ZM289.679 157.51L289.664 149.598L290.983 149.596L290.998 157.507L289.679 157.51ZM287.293 150.73L287.291 149.603L293.369 149.591L293.371 150.718L287.293 150.73ZM294.639 157.501L294.624 149.589L295.931 149.586L295.946 157.498L294.639 157.501ZM295.406 157.499L295.404 156.396L300.367 156.387L300.369 157.49L295.406 157.499ZM295.4 153.987L295.398 152.968L299.785 152.96L299.787 153.979L295.4 153.987ZM295.393 150.678L295.391 149.588L300.342 149.578L300.344 150.669L295.393 150.678ZM304.709 157.637C304.061 157.639 303.482 157.492 302.97 157.197C302.466 156.894 302.065 156.444 301.768 155.845C301.48 155.246 301.334 154.495 301.333 153.592C301.331 152.937 301.41 152.353 301.569 151.841C301.728 151.33 301.967 150.894 302.286 150.534C302.605 150.173 302.992 149.897 303.447 149.704C303.91 149.512 304.445 149.415 305.053 149.413C305.508 149.413 305.92 149.468 306.288 149.579C306.656 149.69 306.976 149.849 307.248 150.057C307.52 150.264 307.736 150.515 307.896 150.811C308.065 151.106 308.161 151.445 308.186 151.829L306.94 152.203C306.915 151.803 306.811 151.48 306.627 151.233C306.442 150.985 306.206 150.806 305.918 150.694C305.638 150.583 305.339 150.528 305.019 150.528C304.547 150.529 304.136 150.634 303.785 150.842C303.442 151.051 303.175 151.379 302.984 151.827C302.793 152.267 302.698 152.838 302.699 153.542C302.7 154.085 302.757 154.548 302.87 154.932C302.99 155.307 303.151 155.615 303.351 155.854C303.559 156.085 303.803 156.257 304.083 156.368C304.371 156.471 304.679 156.523 305.006 156.522C305.406 156.521 305.749 156.449 306.037 156.304C306.324 156.16 306.556 155.94 306.731 155.644C306.906 155.348 307.013 154.972 307.052 154.516L305.35 154.52L305.348 153.525L308.345 153.519L308.348 154.79L308.353 157.475L307.358 157.477L307.509 155.367L307.318 155.367C307.207 155.871 307.04 156.29 306.817 156.627C306.601 156.963 306.322 157.215 305.979 157.383C305.636 157.552 305.212 157.636 304.709 157.637ZM310.091 157.471L310.076 149.56L311.407 149.557L311.422 157.469L310.091 157.471ZM316.234 157.616C315.715 157.617 315.251 157.566 314.843 157.463C314.444 157.351 314.104 157.192 313.824 156.985C313.551 156.77 313.343 156.506 313.199 156.195C313.062 155.876 312.998 155.508 313.005 155.092L314.167 154.779C314.152 155.178 314.228 155.51 314.397 155.773C314.565 156.037 314.813 156.236 315.141 156.371C315.477 156.498 315.861 156.562 316.292 156.561C316.716 156.56 317.071 156.507 317.359 156.403C317.646 156.298 317.862 156.158 318.005 155.982C318.157 155.798 318.232 155.59 318.232 155.358C318.231 155.095 318.139 154.887 317.955 154.736C317.779 154.576 317.543 154.453 317.247 154.365C316.951 154.27 316.619 154.183 316.252 154.103C315.876 154.024 315.504 153.933 315.136 153.83C314.768 153.727 314.432 153.591 314.128 153.424C313.832 153.249 313.592 153.026 313.408 152.754C313.232 152.483 313.143 152.139 313.142 151.724C313.141 151.244 313.26 150.832 313.5 150.488C313.739 150.144 314.078 149.876 314.517 149.683C314.964 149.491 315.491 149.394 316.099 149.393C316.706 149.391 317.238 149.486 317.694 149.677C318.157 149.86 318.522 150.131 318.786 150.49C319.058 150.842 319.199 151.269 319.208 151.772L318.01 152.086C318.009 151.814 317.961 151.575 317.865 151.367C317.776 151.16 317.648 150.988 317.48 150.852C317.312 150.717 317.112 150.617 316.88 150.554C316.648 150.482 316.384 150.447 316.089 150.448C315.745 150.448 315.446 150.501 315.19 150.605C314.934 150.701 314.735 150.838 314.591 151.014C314.456 151.182 314.388 151.382 314.389 151.614C314.389 151.901 314.49 152.129 314.69 152.296C314.898 152.456 315.17 152.587 315.506 152.69C315.841 152.786 316.201 152.877 316.585 152.964C316.929 153.035 317.269 153.123 317.604 153.226C317.948 153.321 318.26 153.452 318.54 153.62C318.828 153.787 319.056 154.006 319.225 154.278C319.401 154.549 319.49 154.896 319.49 155.32C319.491 155.784 319.368 156.187 319.121 156.531C318.882 156.876 318.523 157.144 318.044 157.337C317.565 157.521 316.961 157.614 316.234 157.616ZM322.609 157.448L322.595 149.536L323.913 149.534L323.928 157.445L322.609 157.448ZM320.223 150.668L320.221 149.541L326.299 149.529L326.301 150.656L320.223 150.668Z" fill="#282C3F"/>
<g clip-path="url(#clip1_16758_679674)">
<path d="M299.712 136.985H286.54C285.732 136.985 285.076 136.276 285.076 135.404V134.613C285.076 133.741 285.732 133.032 286.54 133.032H299.712C300.519 133.032 301.176 133.741 301.176 134.613V135.404C301.176 136.276 300.519 136.985 299.712 136.985ZM288.003 130.265L285.369 128.13C285.276 128.055 285.201 127.958 285.151 127.846C285.1 127.734 285.074 127.61 285.076 127.485C285.179 120.904 286.99 116.796 290.615 114.925C290.751 114.855 290.905 114.831 291.054 114.859C291.203 114.887 291.341 114.964 291.448 115.08L293.574 117.376L298.612 120.487C298.759 120.577 298.872 120.72 298.932 120.891C298.993 121.062 298.997 121.25 298.943 121.423L298.211 123.795C298.157 123.974 298.045 124.126 297.895 124.224C297.746 124.321 297.569 124.357 297.397 124.325L293.858 123.688V125.279C297.053 126.064 298.638 127.126 298.927 131.451H288.003V130.265Z" fill="url(#paint1_linear_16758_679674)"/>
</g>
</g>
<g filter="url(#filter1_d_16758_679674)">
<rect x="377.046" y="83" width="139.605" height="108.666" rx="8.99051" fill="white" shape-rendering="crispEdges"/>
<rect x="377.549" y="83.5031" width="138.599" height="107.659" rx="8.48743" stroke="black" stroke-opacity="0.04" stroke-width="1.00616" shape-rendering="crispEdges"/>
<path d="M421.126 154.998L421.124 153.932L423.03 153.928C423.725 153.927 424.245 153.79 424.588 153.517C424.939 153.245 425.114 152.797 425.113 152.174C425.112 151.614 424.947 151.195 424.619 150.916C424.299 150.637 423.803 150.498 423.131 150.499L421.118 150.503L421.116 149.448L423.153 149.444C423.673 149.443 424.133 149.503 424.532 149.622C424.94 149.741 425.284 149.916 425.564 150.147C425.852 150.378 426.069 150.67 426.213 151.021C426.366 151.364 426.442 151.764 426.443 152.219C426.444 152.819 426.309 153.326 426.039 153.742C425.768 154.151 425.365 154.463 424.83 154.68C424.303 154.889 423.647 154.994 422.864 154.995L421.126 154.998ZM420.339 157.361L420.324 149.45L421.631 149.447L421.646 157.359L420.339 157.361ZM427.867 157.347L427.852 149.436L429.158 149.433L429.173 157.345L427.867 157.347ZM428.214 157.347L428.212 156.22L432.743 156.211L432.745 157.338L428.214 157.347ZM433.587 157.336L436.329 149.42L438.235 149.416L441.007 157.322L439.593 157.325L437.362 150.485L437.206 150.485L435.001 157.334L433.587 157.336ZM434.962 155.632L434.961 154.673L439.791 154.664L439.793 155.623L434.962 155.632ZM442.301 157.32L442.286 149.408L444.012 149.405L447.991 155.571L448.099 155.571L448.004 149.398L449.274 149.395L449.289 157.307L447.719 157.31L443.583 150.952L443.475 150.953L443.571 157.318L442.301 157.32ZM451.244 157.303L451.229 149.392L452.955 149.388L456.935 155.554L457.043 155.554L456.947 149.381L458.218 149.378L458.233 157.29L456.662 157.293L452.527 150.935L452.419 150.936L452.515 157.301L451.244 157.303ZM460.188 157.286L460.173 149.375L461.48 149.372L461.495 157.284L460.188 157.286ZM460.955 157.285L460.953 156.182L465.916 156.173L465.918 157.275L460.955 157.285ZM460.948 153.773L460.947 152.754L465.334 152.745L465.336 153.764L460.948 153.773ZM460.942 150.464L460.94 149.373L465.891 149.364L465.893 150.455L460.942 150.464ZM467.364 157.273L467.349 149.361L470.25 149.356C470.665 149.355 471.041 149.386 471.377 149.449C471.713 149.513 472.013 149.608 472.276 149.735C472.54 149.863 472.765 150.022 472.949 150.214C473.133 150.397 473.269 150.613 473.357 150.86C473.454 151.1 473.502 151.367 473.503 151.663C473.503 151.943 473.46 152.199 473.372 152.431C473.293 152.654 473.165 152.854 472.99 153.031C472.822 153.207 472.611 153.351 472.355 153.463C472.108 153.568 471.816 153.64 471.481 153.681L471.481 153.837C471.809 153.876 472.085 153.959 472.309 154.087C472.533 154.214 472.721 154.394 472.873 154.625C473.025 154.857 473.154 155.16 473.258 155.535L473.753 157.261L472.327 157.263L471.94 155.682C471.86 155.362 471.739 155.107 471.579 154.915C471.419 154.716 471.219 154.572 470.979 154.485C470.739 154.397 470.455 154.354 470.127 154.355L468.665 154.357L468.671 157.27L467.364 157.273ZM468.663 153.326L470.161 153.324C470.817 153.322 471.312 153.202 471.647 152.961C471.99 152.721 472.162 152.353 472.161 151.857C472.16 151.362 471.995 150.999 471.667 150.768C471.347 150.528 470.851 150.409 470.18 150.411L468.658 150.414L468.663 153.326Z" fill="#282C3F"/>
<path d="M441.839 117.562C441.912 117.637 441.969 117.726 442.008 117.824C442.047 117.923 442.067 118.028 442.067 118.134C442.067 118.241 442.047 118.346 442.008 118.444C441.969 118.543 441.912 118.632 441.839 118.707L439.089 121.575C439.017 121.65 438.932 121.71 438.838 121.751C438.743 121.792 438.642 121.813 438.54 121.812L438.495 121.811C438.386 121.804 438.279 121.774 438.182 121.721C438.084 121.668 437.999 121.595 437.931 121.505L436.73 119.923C436.604 119.754 436.547 119.54 436.572 119.328C436.597 119.116 436.701 118.923 436.861 118.79C437.022 118.658 437.226 118.597 437.429 118.62C437.633 118.644 437.819 118.75 437.948 118.916L438.608 119.786L440.741 117.562C440.813 117.486 440.898 117.427 440.993 117.386C441.087 117.345 441.188 117.324 441.29 117.324C441.392 117.324 441.493 117.345 441.587 117.386C441.682 117.427 441.767 117.486 441.839 117.562ZM444.356 120.955H453.902C454.108 120.955 454.306 120.87 454.451 120.718C454.597 120.566 454.679 120.36 454.679 120.145C454.679 119.93 454.597 119.724 454.451 119.572C454.306 119.42 454.108 119.335 453.902 119.335H444.356C444.15 119.335 443.953 119.42 443.807 119.572C443.661 119.724 443.579 119.93 443.579 120.145C443.579 120.36 443.661 120.566 443.807 120.718C443.953 120.87 444.15 120.955 444.356 120.955ZM453.902 125.815H444.356C444.15 125.815 443.953 125.9 443.807 126.052C443.661 126.204 443.579 126.41 443.579 126.625C443.579 126.84 443.661 127.046 443.807 127.198C443.953 127.35 444.15 127.435 444.356 127.435H453.902C454.108 127.435 454.306 127.35 454.451 127.198C454.597 127.046 454.679 126.84 454.679 126.625C454.679 126.41 454.597 126.204 454.451 126.052C454.306 125.9 454.108 125.815 453.902 125.815ZM453.902 132.294H444.356C444.15 132.294 443.953 132.38 443.807 132.532C443.661 132.684 443.579 132.89 443.579 133.105C443.579 133.32 443.661 133.526 443.807 133.678C443.953 133.83 444.15 133.915 444.356 133.915H453.902C454.108 133.915 454.306 133.83 454.451 133.678C454.597 133.526 454.679 133.32 454.679 133.105C454.679 132.89 454.597 132.684 454.451 132.532C454.306 132.38 454.108 132.294 453.902 132.294ZM439.995 130.77H438.643C438.439 130.769 438.236 130.81 438.047 130.891C437.858 130.973 437.687 131.092 437.542 131.243C437.398 131.393 437.284 131.572 437.206 131.769C437.128 131.966 437.088 132.177 437.089 132.39V133.816C437.088 134.029 437.128 134.24 437.206 134.437C437.284 134.634 437.398 134.813 437.542 134.964C437.687 135.114 437.858 135.234 438.047 135.315C438.236 135.396 438.439 135.437 438.643 135.437H439.995C440.407 135.435 440.801 135.264 441.092 134.961C441.384 134.657 441.548 134.246 441.549 133.816V132.39C441.548 131.961 441.384 131.549 441.092 131.246C440.801 130.942 440.407 130.771 439.995 130.77ZM439.995 124.304H438.643C438.438 124.302 438.235 124.342 438.046 124.423C437.856 124.503 437.684 124.623 437.54 124.774C437.395 124.925 437.28 125.104 437.203 125.302C437.126 125.499 437.087 125.711 437.089 125.924V127.334C437.088 127.547 437.128 127.758 437.206 127.955C437.284 128.152 437.398 128.331 437.542 128.482C437.687 128.632 437.858 128.752 438.047 128.833C438.236 128.914 438.439 128.955 438.643 128.955H439.995C440.407 128.953 440.801 128.782 441.092 128.479C441.384 128.175 441.548 127.763 441.549 127.334V125.924C441.55 125.711 441.51 125.5 441.432 125.303C441.354 125.106 441.24 124.927 441.095 124.777C440.951 124.626 440.779 124.507 440.59 124.426C440.402 124.344 440.199 124.303 439.995 124.304Z" fill="url(#paint2_linear_16758_679674)"/>
</g>
<g filter="url(#filter2_d_16758_679674)">
<rect x="145" y="209.777" width="139.605" height="108.666" rx="8.99051" fill="white" shape-rendering="crispEdges"/>
<rect x="145.503" y="210.28" width="138.599" height="107.659" rx="8.48743" stroke="black" stroke-opacity="0.04" stroke-width="1.00616" shape-rendering="crispEdges"/>
<path d="M179.293 284.322L179.278 276.411L180.585 276.408L180.6 284.32L179.293 284.322ZM180.06 284.321L180.058 283.218L185.021 283.209L185.023 284.312L180.06 284.321ZM180.054 280.809L180.052 279.79L184.439 279.781L184.441 280.8L180.054 280.809ZM180.047 277.5L180.045 276.409L184.996 276.4L184.998 277.491L180.047 277.5ZM186.469 284.309L186.454 276.397L188.18 276.394L192.16 282.56L192.268 282.56L192.172 276.386L193.443 276.384L193.458 284.296L191.887 284.299L187.752 277.941L187.644 277.941L187.74 284.306L186.469 284.309ZM197.079 284.289L197.064 276.377L198.383 276.375L198.398 284.286L197.079 284.289ZM194.693 277.508L194.691 276.382L200.768 276.37L200.77 277.497L194.693 277.508ZM207.265 284.27L207.25 276.358L208.557 276.356L208.572 284.267L207.265 284.27ZM202.039 284.279L202.024 276.368L203.33 276.365L203.345 284.277L202.039 284.279ZM202.727 280.802L202.725 279.699L207.772 279.689L207.774 280.792L202.727 280.802ZM213.858 284.413C213.403 284.414 212.995 284.367 212.636 284.271C212.276 284.184 211.96 284.049 211.688 283.866C211.416 283.682 211.188 283.463 211.003 283.208C210.827 282.944 210.691 282.649 210.594 282.321C210.505 281.986 210.461 281.618 210.46 281.219L210.451 276.352L211.769 276.349L211.779 281.168C211.779 281.632 211.856 282.015 212.008 282.319C212.169 282.622 212.401 282.853 212.705 283.013C213.009 283.164 213.389 283.239 213.844 283.238C214.316 283.237 214.703 283.161 215.007 283.008C215.31 282.856 215.537 282.628 215.689 282.324C215.84 282.012 215.915 281.624 215.914 281.161L215.905 276.342L217.212 276.339L217.221 281.206C217.223 282.229 216.937 283.021 216.362 283.581C215.796 284.134 214.961 284.411 213.858 284.413ZM221.995 284.398C221.475 284.399 221.012 284.348 220.604 284.244C220.204 284.133 219.864 283.974 219.584 283.767C219.312 283.552 219.104 283.288 218.959 282.977C218.823 282.658 218.758 282.29 218.766 281.874L219.928 281.561C219.912 281.96 219.989 282.292 220.157 282.555C220.326 282.819 220.574 283.018 220.902 283.153C221.238 283.28 221.621 283.344 222.053 283.343C222.476 283.342 222.832 283.289 223.119 283.185C223.407 283.08 223.622 282.94 223.766 282.764C223.917 282.58 223.993 282.372 223.993 282.14C223.992 281.877 223.9 281.669 223.716 281.517C223.54 281.358 223.304 281.235 223.008 281.147C222.712 281.052 222.38 280.965 222.012 280.885C221.636 280.806 221.265 280.715 220.897 280.612C220.529 280.509 220.193 280.373 219.889 280.206C219.593 280.031 219.353 279.808 219.169 279.536C218.992 279.265 218.904 278.921 218.903 278.506C218.902 278.026 219.021 277.614 219.26 277.27C219.499 276.926 219.839 276.658 220.278 276.465C220.725 276.273 221.252 276.176 221.86 276.175C222.467 276.173 222.998 276.268 223.454 276.459C223.918 276.642 224.282 276.913 224.547 277.272C224.819 277.624 224.96 278.051 224.969 278.554L223.771 278.868C223.77 278.596 223.722 278.357 223.625 278.149C223.537 277.942 223.409 277.77 223.241 277.634C223.073 277.499 222.873 277.399 222.641 277.336C222.409 277.264 222.145 277.229 221.85 277.23C221.506 277.23 221.206 277.283 220.951 277.387C220.695 277.483 220.496 277.62 220.352 277.796C220.217 277.964 220.149 278.164 220.15 278.396C220.15 278.683 220.25 278.911 220.45 279.078C220.659 279.238 220.931 279.369 221.266 279.472C221.602 279.568 221.962 279.659 222.346 279.746C222.69 279.817 223.029 279.904 223.365 280.008C223.709 280.103 224.021 280.234 224.301 280.402C224.589 280.569 224.817 280.788 224.985 281.06C225.162 281.331 225.25 281.678 225.251 282.102C225.252 282.565 225.129 282.969 224.882 283.313C224.643 283.657 224.284 283.926 223.804 284.119C223.325 284.303 222.722 284.396 221.995 284.398ZM226.821 284.233L226.806 276.321L228.137 276.319L228.152 284.23L226.821 284.233ZM229.439 284.228L232.181 276.311L234.087 276.307L236.859 284.214L235.445 284.217L233.214 277.376L233.058 277.376L230.854 284.225L229.439 284.228ZM230.815 282.523L230.813 281.564L235.644 281.555L235.645 282.514L230.815 282.523ZM240.889 284.362C240.37 284.363 239.906 284.312 239.498 284.209C239.098 284.098 238.758 283.939 238.478 283.731C238.206 283.516 237.998 283.253 237.854 282.941C237.717 282.622 237.652 282.254 237.66 281.839L238.822 281.525C238.807 281.925 238.883 282.256 239.051 282.519C239.22 282.783 239.468 282.982 239.796 283.117C240.132 283.245 240.515 283.308 240.947 283.307C241.37 283.306 241.726 283.254 242.014 283.149C242.301 283.045 242.517 282.905 242.66 282.728C242.812 282.544 242.887 282.336 242.887 282.105C242.886 281.841 242.794 281.633 242.61 281.482C242.434 281.322 242.198 281.199 241.902 281.112C241.606 281.016 241.274 280.929 240.906 280.85C240.531 280.771 240.159 280.679 239.791 280.576C239.423 280.473 239.087 280.338 238.783 280.17C238.487 279.995 238.247 279.772 238.063 279.501C237.886 279.229 237.798 278.886 237.797 278.47C237.796 277.991 237.915 277.579 238.154 277.235C238.394 276.891 238.733 276.622 239.172 276.43C239.619 276.237 240.146 276.14 240.754 276.139C241.361 276.138 241.893 276.233 242.348 276.424C242.812 276.607 243.176 276.878 243.441 277.237C243.713 277.588 243.854 278.015 243.863 278.519L242.665 278.833C242.664 278.561 242.616 278.321 242.519 278.114C242.431 277.906 242.303 277.734 242.135 277.599C241.967 277.463 241.767 277.364 241.535 277.3C241.303 277.229 241.039 277.193 240.744 277.194C240.4 277.195 240.1 277.247 239.845 277.351C239.589 277.448 239.39 277.584 239.246 277.76C239.111 277.928 239.043 278.128 239.044 278.36C239.044 278.648 239.144 278.875 239.345 279.043C239.553 279.202 239.825 279.333 240.16 279.437C240.496 279.532 240.856 279.623 241.24 279.71C241.584 279.782 241.923 279.869 242.259 279.972C242.603 280.067 242.915 280.199 243.195 280.366C243.483 280.533 243.711 280.753 243.88 281.024C244.056 281.295 244.144 281.643 244.145 282.066C244.146 282.53 244.023 282.934 243.776 283.278C243.537 283.622 243.178 283.89 242.699 284.083C242.219 284.268 241.616 284.361 240.889 284.362ZM247.264 284.194L247.249 276.283L248.568 276.28L248.583 284.192L247.264 284.194ZM244.878 277.414L244.876 276.287L250.953 276.276L250.956 277.402L244.878 277.414Z" fill="#282C3F"/>
<path d="M206.539 256.891C207.262 256.902 207.952 257.196 208.464 257.707C208.976 258.218 209.269 258.908 209.281 259.632C209.293 260.355 209.023 261.055 208.529 261.583C207.564 262.548 203.208 263.874 202.713 264.021C202.671 264.034 202.627 264.04 202.583 264.04C202.513 264.04 202.443 264.025 202.38 263.993C202.317 263.962 202.263 263.916 202.221 263.859C202.179 263.803 202.151 263.737 202.139 263.668C202.127 263.599 202.131 263.527 202.151 263.46C202.299 262.966 203.623 258.608 204.588 257.643C205.116 257.149 205.816 256.879 206.539 256.891ZM223.324 242.408C223.44 242.411 223.55 242.458 223.632 242.54C223.714 242.622 223.761 242.732 223.764 242.848C223.861 247.066 221.637 251.881 218.208 254.935C218.15 257.867 216.965 260.664 214.899 262.745C214.806 262.836 214.681 262.888 214.551 262.89C214.507 262.89 214.463 262.883 214.422 262.87C214.261 262.816 214.127 262.691 214.103 262.522L213.606 259.049L213.125 259.477C213.039 259.554 212.928 259.596 212.813 259.593C212.697 259.589 212.587 259.542 212.506 259.46L206.712 253.666C206.63 253.585 206.583 253.474 206.58 253.359C206.577 253.244 206.618 253.133 206.694 253.047L207.123 252.566L203.649 252.069C203.567 252.057 203.489 252.022 203.425 251.968C203.361 251.914 203.313 251.843 203.287 251.764C203.261 251.684 203.257 251.599 203.276 251.518C203.296 251.436 203.337 251.362 203.397 251.303C205.482 249.222 208.291 248.026 211.236 247.964C214.285 244.539 219.102 242.332 223.324 242.408ZM219.171 247.003C218.292 246.124 216.862 246.124 215.983 247.003C215.562 247.426 215.325 247.999 215.325 248.596C215.325 249.193 215.562 249.766 215.983 250.189C216.423 250.629 217.001 250.848 217.578 250.848C217.874 250.848 218.167 250.791 218.441 250.678C218.714 250.565 218.962 250.399 219.171 250.189C220.05 249.311 220.05 247.882 219.171 247.003Z" fill="url(#paint3_linear_16758_679674)"/>
</g>
<g filter="url(#filter3_d_16758_679674)">
<rect x="299.698" y="209.777" width="139.605" height="108.666" rx="8.99051" fill="white" shape-rendering="crispEdges"/>
<rect x="300.201" y="210.28" width="138.599" height="107.659" rx="8.48743" stroke="black" stroke-opacity="0.04" stroke-width="1.00616" shape-rendering="crispEdges"/>
<path d="M334.991 284.584L334.976 276.672L336.282 276.67L336.297 284.582L334.991 284.584ZM335.758 284.583L335.756 283.48L340.718 283.47L340.721 284.573L335.758 284.583ZM335.751 281.07L335.749 280.051L340.137 280.043L340.139 281.062L335.751 281.07ZM335.745 277.762L335.743 276.671L340.694 276.662L340.696 277.752L335.745 277.762ZM348.957 286.26C348.429 286.357 347.974 286.418 347.59 286.442C347.215 286.467 346.875 286.468 346.572 286.444C346.276 286.421 345.984 286.381 345.696 286.326C345.408 286.279 345.093 286.227 344.749 286.172C344.405 286.125 344.006 286.085 343.55 286.054C343.094 286.031 342.539 286.032 341.884 286.058L341.882 284.931C342.145 284.938 342.425 284.938 342.721 284.929C343.024 284.929 343.328 284.912 343.632 284.879C343.935 284.855 344.235 284.814 344.53 284.758C344.834 284.709 345.122 284.645 345.393 284.564C345.665 284.476 345.916 284.372 346.148 284.251L346.148 284.096C345.588 284.256 345.077 284.325 344.614 284.302C344.158 284.279 343.754 284.176 343.402 283.993C343.05 283.802 342.754 283.543 342.514 283.215C342.281 282.88 342.101 282.493 341.972 282.054C341.851 281.606 341.79 281.119 341.789 280.591C341.788 279.992 341.863 279.445 342.014 278.949C342.173 278.453 342.404 278.021 342.707 277.653C343.018 277.285 343.397 277 343.844 276.8C344.291 276.599 344.811 276.498 345.402 276.497C346.145 276.496 346.785 276.658 347.321 276.985C347.865 277.303 348.281 277.77 348.57 278.385C348.867 279 349.016 279.739 349.018 280.602C349.019 281.281 348.928 281.869 348.746 282.364C348.571 282.86 348.308 283.284 347.957 283.637C347.606 283.981 347.171 284.269 346.652 284.502C346.141 284.727 345.55 284.916 344.879 285.069L344.879 285.213C345.271 285.252 345.63 285.287 345.958 285.319C346.286 285.35 346.601 285.365 346.905 285.365C347.217 285.372 347.536 285.356 347.864 285.315C348.192 285.282 348.555 285.226 348.955 285.145L348.957 286.26ZM345.439 283.629C345.935 283.628 346.35 283.512 346.685 283.279C347.021 283.047 347.272 282.711 347.439 282.271C347.606 281.831 347.689 281.292 347.687 280.652C347.686 279.989 347.593 279.434 347.409 278.987C347.232 278.531 346.972 278.188 346.627 277.957C346.291 277.726 345.876 277.611 345.38 277.612C344.893 277.613 344.477 277.729 344.134 277.962C343.799 278.194 343.544 278.534 343.369 278.982C343.202 279.43 343.119 279.982 343.12 280.637C343.121 281.292 343.21 281.843 343.387 282.291C343.572 282.738 343.836 283.073 344.18 283.296C344.524 283.519 344.944 283.63 345.439 283.629ZM354.033 284.704C353.578 284.705 353.17 284.658 352.81 284.562C352.451 284.475 352.135 284.34 351.863 284.157C351.591 283.973 351.362 283.754 351.178 283.499C351.002 283.235 350.865 282.94 350.769 282.612C350.68 282.277 350.636 281.909 350.635 281.51L350.626 276.643L351.944 276.64L351.953 281.459C351.954 281.923 352.031 282.306 352.183 282.61C352.344 282.913 352.576 283.144 352.88 283.304C353.184 283.455 353.564 283.53 354.019 283.529C354.491 283.528 354.878 283.452 355.181 283.299C355.485 283.147 355.712 282.919 355.863 282.615C356.015 282.303 356.09 281.915 356.089 281.452L356.08 276.633L357.387 276.63L357.396 281.497C357.398 282.52 357.111 283.312 356.537 283.872C355.971 284.425 355.136 284.702 354.033 284.704ZM359.316 284.538L359.302 276.627L360.632 276.624L360.647 284.536L359.316 284.538ZM362.606 284.532L362.591 276.62L363.898 276.618L363.913 284.53L362.606 284.532ZM362.954 284.531L362.951 283.405L367.483 283.396L367.485 284.523L362.954 284.531ZM368.693 284.521L368.678 276.609L370.009 276.606L370.024 284.518L368.693 284.521ZM371.983 284.514L371.968 276.603L374.989 276.597C375.452 276.596 375.868 276.635 376.236 276.715C376.603 276.794 376.919 276.917 377.183 277.084C377.447 277.252 377.648 277.467 377.784 277.731C377.928 277.994 378.001 278.31 378.001 278.677C378.002 278.981 377.939 279.249 377.811 279.481C377.692 279.713 377.5 279.905 377.237 280.057C376.973 280.201 376.626 280.306 376.195 280.371L376.195 280.527C376.938 280.581 377.478 280.776 377.814 281.111C378.158 281.438 378.331 281.873 378.332 282.417C378.333 282.872 378.222 283.256 377.999 283.568C377.783 283.872 377.452 284.104 377.005 284.265C376.558 284.426 375.987 284.507 375.291 284.508L371.983 284.514ZM373.227 283.421L375.361 283.417C375.929 283.416 376.352 283.323 376.631 283.139C376.911 282.947 377.05 282.655 377.049 282.263C377.048 281.816 376.86 281.48 376.484 281.257C376.108 281.034 375.544 280.923 374.793 280.925L373.223 280.928L373.227 283.421ZM373.221 280.017L374.564 280.014C375.291 280.013 375.83 279.916 376.181 279.723C376.541 279.523 376.72 279.223 376.719 278.823C376.718 278.432 376.562 278.144 376.25 277.961C375.938 277.77 375.47 277.675 374.847 277.676L373.217 277.679L373.221 280.017ZM379.967 284.499L379.952 276.588L382.853 276.582C383.268 276.581 383.644 276.613 383.98 276.676C384.315 276.739 384.615 276.835 384.879 276.962C385.143 277.089 385.367 277.249 385.551 277.44C385.735 277.624 385.872 277.839 385.96 278.087C386.056 278.326 386.105 278.594 386.105 278.89C386.106 279.169 386.063 279.425 385.975 279.657C385.896 279.881 385.768 280.081 385.593 280.257C385.425 280.433 385.214 280.578 384.958 280.69C384.711 280.794 384.419 280.867 384.083 280.907L384.084 281.063C384.411 281.102 384.687 281.186 384.911 281.313C385.135 281.441 385.323 281.62 385.476 281.852C385.628 282.083 385.756 282.387 385.861 282.762L386.356 284.487L384.929 284.49L384.543 282.908C384.462 282.589 384.342 282.333 384.182 282.142C384.021 281.942 383.821 281.799 383.581 281.711C383.342 281.624 383.058 281.581 382.73 281.581L381.268 281.584L381.273 284.497L379.967 284.499ZM381.266 280.553L382.764 280.55C383.419 280.549 383.915 280.428 384.25 280.188C384.593 279.947 384.764 279.579 384.763 279.084C384.762 278.588 384.598 278.225 384.27 277.994C383.95 277.755 383.454 277.636 382.783 277.637L381.26 277.64L381.266 280.553ZM387.88 284.484L387.865 276.573L389.196 276.57L389.211 284.482L387.88 284.484ZM394.023 284.629C393.503 284.63 393.04 284.579 392.632 284.475C392.232 284.364 391.892 284.205 391.612 283.998C391.34 283.783 391.132 283.519 390.987 283.208C390.851 282.888 390.786 282.521 390.793 282.105L391.956 281.792C391.94 282.191 392.017 282.523 392.185 282.786C392.354 283.049 392.602 283.249 392.93 283.384C393.265 283.511 393.649 283.574 394.081 283.574C394.504 283.573 394.86 283.52 395.147 283.416C395.435 283.311 395.65 283.171 395.794 282.995C395.945 282.811 396.021 282.603 396.02 282.371C396.02 282.108 395.928 281.9 395.744 281.748C395.567 281.589 395.331 281.465 395.036 281.378C394.74 281.283 394.408 281.196 394.04 281.116C393.664 281.037 393.293 280.946 392.925 280.843C392.557 280.739 392.221 280.604 391.917 280.437C391.621 280.262 391.381 280.038 391.197 279.767C391.02 279.496 390.932 279.152 390.931 278.737C390.93 278.257 391.049 277.845 391.288 277.501C391.527 277.157 391.866 276.889 392.306 276.696C392.753 276.504 393.28 276.407 393.887 276.406C394.495 276.404 395.026 276.499 395.482 276.69C395.946 276.873 396.31 277.144 396.575 277.503C396.847 277.854 396.988 278.282 396.997 278.785L395.798 279.099C395.798 278.827 395.75 278.588 395.653 278.38C395.565 278.173 395.437 278.001 395.269 277.865C395.101 277.73 394.901 277.63 394.669 277.567C394.437 277.495 394.173 277.46 393.877 277.46C393.534 277.461 393.234 277.514 392.979 277.618C392.723 277.714 392.524 277.851 392.38 278.027C392.245 278.195 392.177 278.395 392.177 278.626C392.178 278.914 392.278 279.142 392.478 279.309C392.686 279.469 392.958 279.6 393.294 279.703C393.63 279.798 393.99 279.89 394.374 279.977C394.717 280.048 395.057 280.135 395.393 280.239C395.737 280.334 396.049 280.465 396.329 280.632C396.617 280.8 396.845 281.019 397.013 281.291C397.19 281.562 397.278 281.909 397.279 282.333C397.28 282.796 397.157 283.2 396.91 283.544C396.671 283.888 396.311 284.157 395.832 284.35C395.353 284.534 394.75 284.627 394.023 284.629ZM400.398 284.461L400.383 276.549L401.702 276.547L401.717 284.458L400.398 284.461ZM398.012 277.68L398.01 276.554L404.087 276.542L404.089 277.669L398.012 277.68Z" fill="#282C3F"/>
<path d="M364.918 252.961C361.225 251.149 358.68 247.324 358.68 242.898H364.214C364.214 245.986 366.692 248.489 369.748 248.489C372.805 248.489 375.283 245.986 375.283 242.898H380.817C380.817 247.324 378.272 251.149 374.579 252.961C378.272 254.773 380.817 258.598 380.817 263.023H375.283C375.283 259.936 372.805 257.433 369.748 257.433C366.692 257.433 364.214 259.936 364.214 263.023H358.68C358.68 258.598 361.225 254.773 364.918 252.961Z" fill="url(#paint4_linear_16758_679674)"/>
</g>
<g filter="url(#filter4_d_16758_679674)">
<rect x="454.395" y="209.777" width="139.605" height="108.666" rx="8.99051" fill="white" shape-rendering="crispEdges"/>
<rect x="454.898" y="210.28" width="138.599" height="107.659" rx="8.48743" stroke="black" stroke-opacity="0.04" stroke-width="1.00616" shape-rendering="crispEdges"/>
<path d="M482.635 284.7L482.62 276.789L483.927 276.786L483.942 284.698L482.635 284.7ZM483.193 281.451L483.191 280.348L487.758 280.339L487.76 281.442L483.193 281.451ZM483.186 277.927L483.184 276.788L488.243 276.778L488.245 277.917L483.186 277.927ZM489.566 284.687L489.551 276.776L490.881 276.773L490.896 284.685L489.566 284.687ZM492.855 284.681L492.84 276.77L494.566 276.766L498.546 282.932L498.654 282.932L498.558 276.759L499.829 276.756L499.844 284.668L498.273 284.671L494.138 278.313L494.03 278.314L494.126 284.679L492.855 284.681ZM501.127 284.666L503.87 276.749L505.776 276.745L508.548 284.652L507.133 284.654L504.903 277.814L504.747 277.814L502.542 284.663L501.127 284.666ZM502.503 282.961L502.501 282.002L507.332 281.993L507.334 282.952L502.503 282.961ZM509.841 284.649L509.826 276.737L511.552 276.734L515.532 282.9L515.64 282.9L515.544 276.727L516.815 276.724L516.83 284.636L515.259 284.639L511.124 278.281L511.016 278.282L511.112 284.647L509.841 284.649ZM522.225 284.782C521.642 284.783 521.118 284.696 520.654 284.521C520.191 284.346 519.799 284.091 519.478 283.756C519.158 283.413 518.913 282.994 518.745 282.499C518.576 281.995 518.491 281.42 518.49 280.773C518.488 280.118 518.571 279.53 518.738 279.01C518.913 278.491 519.16 278.051 519.479 277.69C519.798 277.322 520.181 277.042 520.628 276.849C521.075 276.656 521.575 276.56 522.126 276.558C522.549 276.558 522.941 276.617 523.301 276.736C523.661 276.847 523.973 277.011 524.237 277.226C524.501 277.441 524.705 277.704 524.85 278.016C525.002 278.327 525.083 278.679 525.092 279.07L523.857 279.384C523.865 279.001 523.784 278.685 523.616 278.438C523.456 278.182 523.239 277.991 522.968 277.864C522.696 277.736 522.404 277.673 522.092 277.673C521.804 277.674 521.525 277.73 521.253 277.843C520.982 277.955 520.738 278.135 520.523 278.384C520.316 278.624 520.148 278.936 520.021 279.32C519.902 279.703 519.843 280.167 519.844 280.71C519.845 281.406 519.946 281.973 520.147 282.412C520.356 282.843 520.64 283.162 521 283.369C521.368 283.569 521.788 283.668 522.259 283.667C522.731 283.666 523.106 283.573 523.385 283.389C523.665 283.205 523.868 282.96 523.995 282.657C524.131 282.345 524.206 281.993 524.221 281.601L525.384 281.803C525.377 282.21 525.314 282.598 525.195 282.966C525.076 283.326 524.888 283.642 524.633 283.914C524.386 284.186 524.063 284.399 523.663 284.551C523.264 284.704 522.785 284.781 522.225 284.782ZM526.815 284.617L526.8 276.706L528.107 276.703L528.122 284.615L526.815 284.617ZM527.582 284.616L527.58 283.513L532.543 283.504L532.545 284.606L527.582 284.616ZM527.576 281.103L527.574 280.084L531.961 280.076L531.963 281.095L527.576 281.103ZM527.57 277.795L527.568 276.704L532.518 276.695L532.52 277.786L527.57 277.795ZM540.022 284.748C539.375 284.749 538.795 284.603 538.283 284.308C537.779 284.005 537.379 283.554 537.082 282.956C536.793 282.357 536.648 281.606 536.646 280.703C536.645 280.047 536.724 279.464 536.883 278.952C537.042 278.44 537.28 278.004 537.599 277.644C537.918 277.284 538.306 277.007 538.761 276.815C539.224 276.622 539.759 276.525 540.366 276.524C540.822 276.523 541.234 276.578 541.601 276.69C541.969 276.801 542.289 276.96 542.561 277.167C542.833 277.375 543.05 277.626 543.21 277.921C543.378 278.217 543.475 278.556 543.5 278.94L542.254 279.314C542.229 278.914 542.124 278.591 541.94 278.343C541.756 278.096 541.52 277.916 541.232 277.805C540.952 277.694 540.652 277.638 540.333 277.639C539.861 277.64 539.45 277.745 539.098 277.953C538.755 278.161 538.488 278.49 538.297 278.937C538.106 279.377 538.011 279.949 538.013 280.652C538.014 281.196 538.071 281.659 538.183 282.042C538.304 282.418 538.464 282.725 538.664 282.965C538.873 283.196 539.117 283.367 539.397 283.479C539.684 283.582 539.992 283.633 540.32 283.633C540.719 283.632 541.063 283.559 541.35 283.415C541.638 283.271 541.869 283.05 542.044 282.754C542.22 282.458 542.327 282.083 542.366 281.627L540.664 281.63L540.662 280.635L543.659 280.63L543.661 281.9L543.666 284.585L542.671 284.587L542.823 282.477L542.631 282.478C542.52 282.981 542.353 283.401 542.13 283.737C541.915 284.073 541.636 284.325 541.292 284.494C540.949 284.662 540.526 284.747 540.022 284.748ZM545.405 284.582L545.39 276.67L546.697 276.668L546.712 284.58L545.405 284.582ZM546.172 284.581L546.17 283.478L551.133 283.468L551.135 284.571L546.172 284.581ZM546.166 281.068L546.164 280.049L550.551 280.041L550.553 281.06L546.166 281.068ZM546.159 277.76L546.157 276.669L551.108 276.66L551.11 277.751L546.159 277.76ZM552.581 284.569L552.566 276.657L553.873 276.654L553.888 284.566L552.581 284.569ZM553.348 284.567L553.346 283.464L558.309 283.455L558.311 284.558L553.348 284.567ZM553.342 281.055L553.34 280.036L557.727 280.028L557.729 281.047L553.342 281.055ZM553.335 277.746L553.333 276.655L558.284 276.646L558.286 277.737L553.335 277.746ZM559.757 284.555L559.742 276.643L561.049 276.641L561.056 280.345C561.487 280.184 561.898 279.976 562.289 279.719C562.688 279.455 563.051 279.159 563.378 278.83C563.713 278.502 564 278.15 564.239 277.774C564.479 277.398 564.658 277.018 564.777 276.634L566.251 276.631C566.108 277.071 565.913 277.491 565.666 277.891C565.419 278.291 565.132 278.663 564.805 279.007C564.486 279.344 564.147 279.64 563.788 279.896C563.437 280.153 563.086 280.357 562.734 280.51L562.735 280.666C563.118 280.665 563.462 280.716 563.766 280.819C564.078 280.915 564.358 281.058 564.606 281.249C564.854 281.441 565.074 281.684 565.266 281.979C565.467 282.275 565.647 282.622 565.808 283.021L566.362 284.543L564.876 284.545L564.526 283.359C564.365 282.896 564.172 282.517 563.948 282.222C563.724 281.926 563.44 281.707 563.096 281.564C562.752 281.421 562.308 281.35 561.765 281.351L561.058 281.352L561.064 284.553L559.757 284.555Z" fill="#282C3F"/>
<path d="M523.623 253.167L534.184 250.066C534.307 250.029 534.415 249.954 534.491 249.851C534.568 249.748 534.609 249.623 534.609 249.494C534.609 249.366 534.568 249.241 534.491 249.138C534.415 249.035 534.307 248.959 534.184 248.922L523.623 245.821C523.514 245.789 523.398 245.789 523.288 245.821L512.728 248.922C512.605 248.959 512.497 249.035 512.42 249.138C512.344 249.241 512.302 249.366 512.302 249.494C512.302 249.623 512.344 249.748 512.42 249.851C512.497 249.954 512.605 250.029 512.728 250.066L523.288 253.167C523.398 253.2 523.514 253.2 523.623 253.167Z" fill="url(#paint5_linear_16758_679674)"/>
<path d="M530.277 257.047V253.407C530.278 253.363 530.27 253.318 530.251 253.277C530.232 253.237 530.204 253.201 530.169 253.174C530.133 253.146 530.092 253.127 530.048 253.119C530.004 253.111 529.959 253.113 529.916 253.125L524.004 254.879C523.591 255 523.152 255 522.738 254.879L516.818 253.142C516.775 253.13 516.73 253.128 516.686 253.136C516.642 253.144 516.601 253.163 516.566 253.191C516.53 253.218 516.502 253.254 516.483 253.294C516.464 253.335 516.456 253.379 516.457 253.424V257.047C516.457 257.152 516.486 257.256 516.541 257.345C516.597 257.435 516.676 257.507 516.77 257.554C521.165 259.714 525.56 259.694 529.955 257.554C530.051 257.508 530.132 257.437 530.189 257.347C530.246 257.257 530.276 257.153 530.277 257.047ZM534.787 256.641V252.556C534.792 252.353 534.726 252.155 534.6 251.995C534.475 251.836 534.298 251.725 534.099 251.682C533.977 251.659 533.851 251.663 533.731 251.694C533.61 251.725 533.498 251.782 533.402 251.862C533.306 251.941 533.229 252.041 533.176 252.153C533.123 252.266 533.096 252.389 533.096 252.514V256.641L532.281 258.05C532.22 258.158 532.188 258.279 532.189 258.403C532.189 258.526 532.222 258.647 532.284 258.754C532.346 258.861 532.434 258.95 532.541 259.012C532.648 259.074 532.769 259.107 532.893 259.108H534.99C535.115 259.107 535.237 259.075 535.344 259.012C535.452 258.95 535.541 258.861 535.603 258.753C535.665 258.645 535.698 258.523 535.698 258.399C535.697 258.274 535.664 258.152 535.602 258.045L534.787 256.641Z" fill="url(#paint6_linear_16758_679674)"/>
</g>
</g>
<defs>
<filter id="filter0_d_16758_679674" x="211.86" y="75.5079" width="160.583" height="129.642" filterUnits="userSpaceOnUse" color-interpolation-filters="sRGB">
<feFlood flood-opacity="0" result="BackgroundImageFix"/>
<feColorMatrix in="SourceAlpha" type="matrix" values="0 0 0 0 0 0 0 0 0 0 0 0 0 0 0 0 0 0 127 0" result="hardAlpha"/>
<feOffset dy="2.99684"/>
<feGaussianBlur stdDeviation="5.24446"/>
<feComposite in2="hardAlpha" operator="out"/>
<feColorMatrix type="matrix" values="0 0 0 0 0.788768 0 0 0 0 0.793696 0 0 0 0 0.862695 0 0 0 0.25 0"/>
<feBlend mode="normal" in2="BackgroundImageFix" result="effect1_dropShadow_16758_679674"/>
<feBlend mode="normal" in="SourceGraphic" in2="effect1_dropShadow_16758_679674" result="shape"/>
</filter>
<filter id="filter1_d_16758_679674" x="366.557" y="75.5079" width="160.583" height="129.642" filterUnits="userSpaceOnUse" color-interpolation-filters="sRGB">
<feFlood flood-opacity="0" result="BackgroundImageFix"/>
<feColorMatrix in="SourceAlpha" type="matrix" values="0 0 0 0 0 0 0 0 0 0 0 0 0 0 0 0 0 0 127 0" result="hardAlpha"/>
<feOffset dy="2.99684"/>
<feGaussianBlur stdDeviation="5.24446"/>
<feComposite in2="hardAlpha" operator="out"/>
<feColorMatrix type="matrix" values="0 0 0 0 0.788768 0 0 0 0 0.793696 0 0 0 0 0.862695 0 0 0 0.25 0"/>
<feBlend mode="normal" in2="BackgroundImageFix" result="effect1_dropShadow_16758_679674"/>
<feBlend mode="normal" in="SourceGraphic" in2="effect1_dropShadow_16758_679674" result="shape"/>
</filter>
<filter id="filter2_d_16758_679674" x="134.511" y="202.285" width="160.583" height="129.642" filterUnits="userSpaceOnUse" color-interpolation-filters="sRGB">
<feFlood flood-opacity="0" result="BackgroundImageFix"/>
<feColorMatrix in="SourceAlpha" type="matrix" values="0 0 0 0 0 0 0 0 0 0 0 0 0 0 0 0 0 0 127 0" result="hardAlpha"/>
<feOffset dy="2.99684"/>
<feGaussianBlur stdDeviation="5.24446"/>
<feComposite in2="hardAlpha" operator="out"/>
<feColorMatrix type="matrix" values="0 0 0 0 0.788768 0 0 0 0 0.793696 0 0 0 0 0.862695 0 0 0 0.25 0"/>
<feBlend mode="normal" in2="BackgroundImageFix" result="effect1_dropShadow_16758_679674"/>
<feBlend mode="normal" in="SourceGraphic" in2="effect1_dropShadow_16758_679674" result="shape"/>
</filter>
<filter id="filter3_d_16758_679674" x="289.209" y="202.285" width="160.583" height="129.642" filterUnits="userSpaceOnUse" color-interpolation-filters="sRGB">
<feFlood flood-opacity="0" result="BackgroundImageFix"/>
<feColorMatrix in="SourceAlpha" type="matrix" values="0 0 0 0 0 0 0 0 0 0 0 0 0 0 0 0 0 0 127 0" result="hardAlpha"/>
<feOffset dy="2.99684"/>
<feGaussianBlur stdDeviation="5.24446"/>
<feComposite in2="hardAlpha" operator="out"/>
<feColorMatrix type="matrix" values="0 0 0 0 0.788768 0 0 0 0 0.793696 0 0 0 0 0.862695 0 0 0 0.25 0"/>
<feBlend mode="normal" in2="BackgroundImageFix" result="effect1_dropShadow_16758_679674"/>
<feBlend mode="normal" in="SourceGraphic" in2="effect1_dropShadow_16758_679674" result="shape"/>
</filter>
<filter id="filter4_d_16758_679674" x="443.906" y="202.285" width="160.583" height="129.642" filterUnits="userSpaceOnUse" color-interpolation-filters="sRGB">
<feFlood flood-opacity="0" result="BackgroundImageFix"/>
<feColorMatrix in="SourceAlpha" type="matrix" values="0 0 0 0 0 0 0 0 0 0 0 0 0 0 0 0 0 0 127 0" result="hardAlpha"/>
<feOffset dy="2.99684"/>
<feGaussianBlur stdDeviation="5.24446"/>
<feComposite in2="hardAlpha" operator="out"/>
<feColorMatrix type="matrix" values="0 0 0 0 0.788768 0 0 0 0 0.793696 0 0 0 0 0.862695 0 0 0 0.25 0"/>
<feBlend mode="normal" in2="BackgroundImageFix" result="effect1_dropShadow_16758_679674"/>
<feBlend mode="normal" in="SourceGraphic" in2="effect1_dropShadow_16758_679674" result="shape"/>
</filter>
<radialGradient id="paint0_radial_16758_679674" cx="0" cy="0" r="1" gradientUnits="userSpaceOnUse" gradientTransform="translate(340.499 177) rotate(90) scale(242 362.415)">
<stop/>
<stop offset="1" stop-color="#A7A7A7" stop-opacity="0.5"/>
</radialGradient>
<linearGradient id="paint1_linear_16758_679674" x1="293.127" y1="106.014" x2="293.125" y2="136.985" gradientUnits="userSpaceOnUse">
<stop stop-color="#4182DA"/>
<stop offset="1" stop-color="#00357C"/>
</linearGradient>
<linearGradient id="paint2_linear_16758_679674" x1="445.623" y1="117.324" x2="445.623" y2="135.437" gradientUnits="userSpaceOnUse">
<stop stop-color="#21DDDC"/>
<stop offset="1" stop-color="#16B5A2"/>
</linearGradient>
<linearGradient id="paint3_linear_16758_679674" x1="212.949" y1="242.406" x2="212.883" y2="258.746" gradientUnits="userSpaceOnUse">
<stop stop-color="#FFCC87"/>
<stop offset="1" stop-color="#FDAD41"/>
</linearGradient>
<linearGradient id="paint4_linear_16758_679674" x1="369.748" y1="240.696" x2="370.126" y2="264.469" gradientUnits="userSpaceOnUse">
<stop stop-color="#D0F7FF"/>
<stop offset="1" stop-color="#06BADD"/>
</linearGradient>
<linearGradient id="paint5_linear_16758_679674" x1="524" y1="245.797" x2="524" y2="259.166" gradientUnits="userSpaceOnUse">
<stop stop-color="#BBA1FF"/>
<stop offset="1" stop-color="#9F7AFF"/>
</linearGradient>
<linearGradient id="paint6_linear_16758_679674" x1="524" y1="245.797" x2="524" y2="259.166" gradientUnits="userSpaceOnUse">
<stop stop-color="#BBA1FF"/>
<stop offset="1" stop-color="#9F7AFF"/>
</linearGradient>
<clipPath id="clip0_16758_679674">
<rect width="740" height="401" fill="white"/>
</clipPath>
<clipPath id="clip1_16758_679674">
<rect width="24.15" height="24.15" fill="white" transform="translate(280.925 114.094)"/>
</clipPath>
</defs>
</svg>
