<svg width="40" height="40" viewBox="0 0 40 40" fill="none" xmlns="http://www.w3.org/2000/svg">
<path d="M19.2343 36.9265L19.2341 38L32.4859 30.6391L32.4861 29.5657L19.2343 36.9265Z" fill="#BBC0E6"/>
<path d="M19.2412 36.9268L19.2411 38.0002L5.99594 30.6954L5.99609 29.6284L19.2412 36.9268Z" fill="#BBC0E6"/>
<path d="M5.997 29.6283L19.2421 36.9266L32.4871 29.5658L19.2283 22.2588L5.997 29.6283Z" fill="#ECF2FF"/>
<path d="M24.4836 13.2395L17.896 16.8493L17.8937 32.9045L24.4813 29.3044L24.4836 13.2395Z" fill="#D6DBF6"/>
<path d="M24.4833 13.2395L17.8967 9.6394L11.3091 13.2395L17.8957 16.8493L24.4833 13.2395Z" fill="#00347D"/>
<path d="M19.3958 32.0916L19.3979 17.1106L19.0302 17.3041L19.0281 32.2852L19.3958 32.0916Z" fill="#00347D"/>
<path d="M20.7122 31.3656L20.7143 16.3943L20.3467 16.5878L20.3445 31.5592L20.7122 31.3656Z" fill="#00347D"/>
<path d="M22.0311 30.6495L22.0332 15.6685L21.6758 15.862L21.6736 30.843L22.0311 30.6495Z" fill="#00347D"/>
<path d="M23.3475 29.9237L23.3496 14.9524L22.9922 15.1459L22.99 30.1173L23.3475 29.9237Z" fill="#00347D"/>
<path d="M11.3096 13.2395L17.8962 16.8493L17.8939 32.9045L11.3073 29.3044L11.3096 13.2395Z" fill="#BBC0E6"/>
<path d="M16.3924 32.0916L16.3945 17.1106L16.7519 17.3041L16.7498 32.2852L16.3924 32.0916Z" fill="#00347D"/>
<path d="M15.075 31.3656L15.0771 16.3943L15.4346 16.5878L15.4324 31.5592L15.075 31.3656Z" fill="#00347D"/>
<path d="M13.7586 30.6495L13.7607 15.6685L14.1182 15.862L14.116 30.843L13.7586 30.6495Z" fill="#00347D"/>
<path d="M12.4402 29.9237L12.4424 14.9524L12.7998 15.1459L12.7977 30.1173L12.4402 29.9237Z" fill="#00347D"/>
<path d="M22.2153 33.3596L24.3805 32.1693L24.3809 29.7886L22.2157 30.9789L22.2153 33.3596Z" fill="#BBC0E6"/>
<path d="M22.2158 33.3594L20.0407 32.169L20.041 29.7883L22.2161 30.9787L22.2158 33.3594Z" fill="#CED3F8"/>
<path d="M22.216 30.9787L20.0408 29.7883L22.2163 28.6077L24.3812 29.7883L22.216 30.9787Z" fill="#F1F1F6"/>
<path d="M21.3867 32.9043L21.387 30.5333L20.0391 29.7881L20.0387 32.1688L21.3867 32.9043Z" fill="url(#paint0_linear_6282_179374)"/>
<path d="M24.4875 10.2461L17.8999 13.8559L17.8976 29.9111L24.4852 26.311L24.4875 10.2461Z" fill="#D6DBF6"/>
<path d="M24.4872 10.2461L17.9006 6.646L11.313 10.2461L17.8996 13.8558L24.4872 10.2461Z" fill="#F1F1F6"/>
<path d="M19.3997 29.0982L19.4018 14.1172L19.0342 14.3107L19.032 29.2917L19.3997 29.0982Z" fill="#00347D"/>
<path d="M20.7161 28.3727L20.7182 13.4014L20.3506 13.5949L20.3484 28.5663L20.7161 28.3727Z" fill="#00347D"/>
<path d="M22.034 27.6565L22.0361 12.6755L21.6787 12.8691L21.6765 27.8501L22.034 27.6565Z" fill="#00347D"/>
<path d="M23.3514 26.9303L23.3535 11.959L22.9961 12.1525L22.9939 27.1239L23.3514 26.9303Z" fill="#00347D"/>
<path d="M11.3135 10.2463L17.9001 13.8561L17.8978 29.9113L11.3112 26.3112L11.3135 10.2463Z" fill="#BBC0E6"/>
<path d="M16.3963 29.0982L16.3984 14.1172L16.7559 14.3107L16.7537 29.2917L16.3963 29.0982Z" fill="#00347D"/>
<path d="M15.0789 28.3725L15.0811 13.4011L15.4385 13.5947L15.4363 28.566L15.0789 28.3725Z" fill="#00347D"/>
<path d="M13.7625 27.6563L13.7646 12.6753L14.1221 12.8688L14.1199 27.8499L13.7625 27.6563Z" fill="#00347D"/>
<path d="M12.4442 26.9303L12.4463 11.959L12.8037 12.1525L12.8016 27.1239L12.4442 26.9303Z" fill="#00347D"/>
<path d="M15.3523 10.0203C15.6553 10.8187 16.1608 11.286 16.7362 11.3988C16.7532 11.4028 17.7227 11.5986 17.7391 11.6012C18.3294 11.6942 17.7902 11.2106 18.3811 10.5489C19.5702 9.21811 20.0318 6.81243 19.4116 5.17803C19.1048 4.36949 19.8896 4.09668 19.3046 3.99042C19.2882 3.98785 18.2203 3.80911 18.2039 3.80654C17.6184 3.72163 16.9662 3.9951 16.3813 4.64988C15.1922 5.98069 14.7305 8.38636 15.3508 10.0208L15.3523 10.0203Z" fill="url(#paint1_linear_6282_179374)"/>
<path d="M20.9027 8.21794C21.3144 6.12426 20.6097 4.24313 19.3288 4.0163C18.0479 3.78948 16.6757 5.30287 16.264 7.39655C15.8523 9.49024 16.557 11.3714 17.8379 11.5982C19.1188 11.825 20.491 10.3116 20.9027 8.21794Z" fill="url(#paint2_linear_6282_179374)"/>
<path d="M20.2982 8.11086C20.6026 6.56263 20.0817 5.1716 19.1346 5.0039C18.1876 4.83621 17.1731 5.95535 16.8686 7.50357C16.5642 9.0518 17.0851 10.4428 18.0322 10.6105C18.9792 10.7782 19.9937 9.65909 20.2982 8.11086Z" fill="url(#paint3_linear_6282_179374)"/>
<path style="mix-blend-mode:multiply" d="M19.1659 9.89116C20.0449 8.90681 20.3872 7.1284 19.9286 5.91996C19.7642 5.48682 19.5188 5.18875 19.2338 5.02633C19.6275 5.13557 19.9695 5.47094 20.1794 6.0239C20.6379 7.23234 20.2972 9.01024 19.4167 9.99511C18.8522 10.6267 18.2031 10.7768 17.6897 10.4833C18.1545 10.6125 18.6911 10.4238 19.1674 9.89065L19.1659 9.89116Z" fill="url(#paint4_linear_6282_179374)"/>
<g style="mix-blend-mode:multiply">
<path d="M16.34 4.70786C16.3554 4.68959 16.3702 4.66988 16.3856 4.65161C16.4001 4.6353 16.4156 4.62188 16.4306 4.60702L17.5213 4.79616C17.5028 4.81546 17.4833 4.83188 17.4654 4.85262C17.4535 4.86645 17.4421 4.88173 17.4292 4.89752L16.3405 4.7093L16.34 4.70786Z" fill="#FDD65B"/>
<path d="M17.1896 4.01048L18.2891 4.19996C18.2371 4.22578 18.1836 4.25697 18.1322 4.28908L17.0306 4.09868C17.0835 4.06604 17.136 4.03682 17.1891 4.00904L17.1896 4.01048Z" fill="#FDD65B"/>
<path d="M15.9433 5.25005L17.0299 5.43732C17.0087 5.47221 16.9882 5.50853 16.9686 5.5429L15.882 5.35562C15.9031 5.32074 15.9222 5.28493 15.9433 5.25005V5.25005Z" fill="#FDD65B"/>
<path d="M15.3408 6.60206L16.4237 6.78892C16.4119 6.82555 16.4021 6.86311 16.3917 6.89922L15.3088 6.71236C15.3186 6.67481 15.329 6.63869 15.3408 6.60206V6.60206Z" fill="#FDD65B"/>
<path d="M15.5927 5.91729L16.6777 6.10508C16.6622 6.1413 16.6468 6.17752 16.6328 6.21322L15.5478 6.02544C15.5633 5.98922 15.5772 5.95351 15.5942 5.91678L15.5927 5.91729Z" fill="#FDD65B"/>
<path d="M15.173 7.30075L16.2543 7.48811C16.2481 7.52608 16.2419 7.56405 16.2357 7.60202L15.1543 7.41465C15.1605 7.37668 15.1652 7.33923 15.173 7.30075Z" fill="#FDD65B"/>
<path d="M15.8389 10.8625L16.9032 11.0459C16.9458 11.095 16.9895 11.1421 17.0351 11.1853L15.9744 11.0024C15.9273 10.9597 15.8836 10.9126 15.8389 10.8625Z" fill="#FDD65B"/>
<path d="M16.4509 10.2835C16.4674 10.3268 16.4863 10.3676 16.5058 10.4099L15.4322 10.2249C15.4133 10.184 15.3959 10.1427 15.3779 10.0999L16.4515 10.2849L16.4509 10.2835Z" fill="#FDD65B"/>
<path d="M15.1919 9.49758C15.1831 9.45653 15.1719 9.41795 15.1627 9.37545L16.2398 9.56095C16.2485 9.602 16.2582 9.64109 16.2669 9.68215L15.1913 9.49614L15.1919 9.49758Z" fill="#FDD65B"/>
<path d="M16.1586 8.86404C16.1602 8.90427 16.1642 8.94203 16.1672 8.98175L15.088 8.79532C15.0849 8.7556 15.0804 8.7164 15.0773 8.67668L16.1566 8.86311L16.1586 8.86404Z" fill="#FDD65B"/>
<path d="M15.0813 8.10866C15.084 8.07028 15.083 8.03149 15.0856 7.99311L16.1649 8.17954C16.1622 8.21792 16.1617 8.25723 16.1606 8.29509L15.0813 8.10866Z" fill="#FDD65B"/>
</g>
<path style="mix-blend-mode:multiply" d="M16.381 4.65042C16.9657 3.9957 17.6179 3.72226 18.2033 3.80716C18.2063 3.80613 18.2634 3.81611 18.3497 3.83081C17.7989 3.80097 17.2005 4.07573 16.6575 4.68205C15.4691 6.01418 15.007 8.41818 15.6271 10.0524C15.93 10.8508 16.4355 11.3181 17.0109 11.4308C17.0258 11.4339 16.7513 11.4032 16.7343 11.3992C16.1584 11.285 15.6535 10.8192 15.3505 10.0208C14.7304 8.38655 15.1925 5.98255 16.381 4.65042V4.65042Z" fill="url(#paint5_linear_6282_179374)"/>
<path style="mix-blend-mode:color-dodge" d="M17.3149 4.81655C17.8852 4.17816 18.5116 3.91836 19.0847 3.98459C18.5857 4.01867 18.0581 4.29874 17.5743 4.83932C16.3854 6.16996 15.9238 8.57533 16.544 10.2095C16.8666 11.0598 17.4193 11.5339 18.0422 11.6044C17.3118 11.6535 16.6511 11.1574 16.283 10.1873C15.6629 8.55308 16.125 6.14915 17.3134 4.81707L17.3149 4.81655Z" fill="url(#paint6_radial_6282_179374)"/>
<path d="M20.6382 25.768C22.7616 24.7804 24.837 23.0958 26.5763 20.9485L26.6003 20.9372C28.3393 21.431 30.4145 21.146 32.5378 20.1189L32.6201 20.0793L32.5065 23.3413C32.1044 28.3979 30.0049 30.5989 26.6291 35.3028L26.5468 35.3423C23.1719 33.8468 21.0762 33.638 20.6721 28.9623L20.5593 25.8075L20.6417 25.7709L20.6382 25.768Z" fill="#8FC3C2"/>
<path d="M19.9254 25.2602C22.0487 24.2726 24.1241 22.588 25.8634 20.4406L25.8874 20.4294C27.6264 20.9232 29.7016 20.6382 31.8249 19.611L31.9072 19.5715L32.5966 20.0907L32.5383 20.119C30.415 21.1461 28.3398 21.4339 26.6008 20.9373L26.5768 20.9486C24.8375 23.0959 22.7621 24.7805 20.6387 25.7681L20.5564 25.8048L20.6691 28.9596C20.9328 32.0099 21.9171 33.1584 23.5051 34.0049C21.5192 33.0399 20.2503 31.8801 19.9523 28.4488L19.8396 25.2941L19.9219 25.2574L19.9254 25.2602Z" fill="url(#paint7_linear_6282_179374)"/>
<path d="M19.8457 25.297L19.928 25.2603C22.0513 24.2727 24.1267 22.5881 25.8661 20.4407L25.8901 20.4294L26.6034 20.9374L26.5794 20.9487C24.8401 23.096 22.7647 24.7806 20.6414 25.7682L20.559 25.8049L19.8457 25.297V25.297Z" fill="url(#paint8_linear_6282_179374)"/>
<path d="M20.5589 25.8049L20.6716 28.9597C20.9353 32.01 21.9196 33.1585 23.5075 34.005C21.5217 33.04 20.2528 31.8802 19.9548 28.4489L19.8421 25.2942L20.5555 25.8021L20.5589 25.8049Z" fill="url(#paint9_linear_6282_179374)"/>
<path d="M20.8605 25.8953C22.9358 24.9303 24.9666 23.2824 26.6647 21.183L26.6887 21.1717C28.39 21.657 30.4172 21.3749 32.4925 20.3703L32.5714 20.3308L33.247 20.8387L33.1887 20.8669C31.1134 21.8715 29.0828 22.1509 27.385 21.6683L27.361 21.6796C25.6594 23.779 23.632 25.4269 21.5567 26.392L21.4778 26.4287L21.5905 29.5129C21.8474 32.4955 22.811 33.6185 24.3647 34.4453C22.4235 33.5 21.182 32.3685 20.8943 29.0134L20.7816 25.9292L20.8605 25.8925L20.8605 25.8953Z" fill="#D6E4FC"/>
<path d="M20.7813 25.932L20.8602 25.8953C22.9355 24.9302 24.9663 23.2823 26.6645 21.1829L26.6885 21.1716L27.3847 21.6683L27.3607 21.6795C25.6591 23.7789 23.6317 25.4269 21.5564 26.3919L21.4775 26.4286L20.7813 25.932Z" fill="#D6E4FC"/>
<path d="M21.4781 26.4287L21.5908 29.5129C21.8476 32.4955 22.8113 33.6185 24.365 34.4453C22.4237 33.5 21.1822 32.3685 20.8946 29.0134L20.7818 25.9292L21.4781 26.4258L21.4781 26.4287Z" fill="#D6E4FC"/>
<path style="mix-blend-mode:color-dodge" d="M20.5552 25.7202C22.6785 24.7326 24.754 23.048 26.4933 20.9006L26.5173 20.8893C28.2562 21.3831 30.3315 21.0981 32.4548 20.071L32.5371 20.0315L32.5302 20.1952C30.4275 21.2025 28.3729 21.4791 26.6476 20.9881L26.6236 20.9994C24.8843 23.1467 22.8089 24.8313 20.6855 25.8189L20.6032 25.8556L20.716 29.0104C20.9248 31.4427 21.5935 32.6646 22.6636 33.4885C21.5181 32.6617 20.8048 31.4399 20.5856 28.9116L20.4729 25.7569L20.5552 25.7202Z" fill="url(#paint10_radial_6282_179374)"/>
<path style="mix-blend-mode:multiply" opacity="0.7" d="M26.4839 37.8285C23.2787 37.8285 20.6804 36.9176 20.6806 35.794C20.6808 34.6704 23.2792 33.7595 26.4845 33.7595C29.6897 33.7595 32.288 34.6704 32.2878 35.794C32.2876 36.9176 29.6891 37.8285 26.4839 37.8285Z" fill="url(#paint11_radial_6282_179374)"/>
<path d="M21.9966 26.781C24.12 25.7934 26.1954 24.1088 27.9347 21.9614L27.9587 21.9501C29.6977 22.4439 31.7729 22.1589 33.8962 21.1318L33.9785 21.0923L33.8649 24.3543C33.4628 29.4109 31.3633 31.6119 27.9875 36.3157L27.9052 36.3553C24.5303 34.8597 22.4346 34.6509 22.0305 29.9752L21.9177 26.8205L22.0001 26.7838L21.9966 26.781Z" fill="#8FC3C2"/>
<path d="M21.2828 26.2732C23.4061 25.2855 25.4815 23.6009 27.2208 21.4536L27.2449 21.4423C28.9838 21.9361 31.059 21.6511 33.1823 20.624L33.2647 20.5845L33.954 21.1037L33.8957 21.1319C31.7724 22.159 29.6972 22.4468 27.9582 21.9502L27.9342 21.9615C26.1949 24.1089 24.1195 25.7935 21.9962 26.7811L21.9138 26.8178L22.0266 29.9725C22.2902 33.0228 23.2745 34.1713 24.8625 35.0178C22.8766 34.0528 21.6077 32.893 21.3098 29.4618L21.197 26.307L21.2794 26.2703L21.2828 26.2732Z" fill="#00347D"/>
<path d="M21.2002 26.3102L21.2825 26.2735C23.4058 25.2859 25.4812 23.6013 27.2206 21.4539L27.2446 21.4426L27.9579 21.9505L27.9339 21.9618C26.1946 24.1092 24.1192 25.7938 21.9959 26.7814L21.9135 26.8181L21.2002 26.3102Z" fill="url(#paint12_linear_6282_179374)"/>
<path d="M21.9134 26.8179L22.0261 29.9726C22.2898 33.0229 23.2741 34.1714 24.862 35.0179C22.8762 34.0529 21.6072 32.8931 21.3093 29.4619L21.1966 26.3071L21.91 26.815L21.9134 26.8179Z" fill="url(#paint13_linear_6282_179374)"/>
<path d="M28.3611 34.174C30.9821 30.5989 32.2995 28.8014 32.6191 24.8763L32.6914 22.8164C31.0106 23.4428 29.3985 23.6404 27.9442 23.4033C26.493 25.0202 24.8773 26.3521 23.1965 27.3256L23.2682 29.3178C23.5867 32.9409 24.9037 33.4855 27.5241 34.5719C27.6613 34.6283 27.8019 34.6876 27.9426 34.7469C28.0866 34.5522 28.2239 34.3603 28.3611 34.174Z" fill="#ECF2FF"/>
<path d="M27.9434 23.4036C26.4922 25.0204 24.8765 26.3523 23.1956 27.3258L23.2674 29.318C23.5859 32.9412 24.9029 33.4858 27.5233 34.5721C27.6605 34.6286 27.8011 34.6878 27.9417 34.7471L27.9434 23.4036V23.4036Z" fill="#D6E4FC"/>
<path style="mix-blend-mode:color-dodge" d="M21.9097 26.7334C24.033 25.7458 26.1084 24.0612 27.8478 21.9138L27.8718 21.9025C29.6107 22.3963 31.6859 22.1113 33.8093 21.0842L33.8916 21.0447L33.8847 21.2083C31.782 22.2157 29.7273 22.4922 28.0021 22.0013L27.9781 22.0125C26.2388 24.1599 24.1634 25.8445 22.04 26.8321L21.9577 26.8688L22.0705 30.0236C22.2793 32.4559 22.948 33.6778 24.0181 34.5017C22.8726 33.6749 22.1593 32.4531 21.9401 29.9248L21.8274 26.7701L21.9097 26.7334V26.7334Z" fill="url(#paint14_radial_6282_179374)"/>
<path style="mix-blend-mode:color-dodge" d="M27.9442 23.4033C29.3985 23.6404 31.0106 23.4428 32.6914 22.8164L32.6914 22.9434C31.0449 23.536 29.4705 23.725 28.0505 23.4936C26.5994 25.1105 24.9871 26.4424 23.3028 27.4159L23.3745 29.4081C23.5526 31.4313 24.0429 32.4951 24.8969 33.2287C23.9778 32.4923 23.4531 31.4256 23.2682 29.3206L23.1965 27.3284C24.8773 26.3549 26.4896 25.023 27.9442 23.4062L27.9442 23.4033Z" fill="url(#paint15_radial_6282_179374)"/>
<path d="M26.8951 27.1424C27.3499 26.2294 28.3918 25.8129 29.2222 26.2122C30.0527 26.6115 30.3573 27.6753 29.9025 28.5883C29.4478 29.5013 28.4059 29.9178 27.5754 29.5185C26.7449 29.1192 26.4404 28.0554 26.8951 27.1424Z" fill="white"/>
<path d="M27.0882 27.8157C27.1785 27.0482 27.8388 26.447 28.5621 26.4704C28.7121 26.4737 28.8537 26.5064 28.981 26.5654C29.4081 26.7992 29.669 27.2971 29.6076 27.8575C29.5173 28.625 28.8571 29.2263 28.1337 29.2029C27.9838 29.1995 27.8422 29.1668 27.7148 29.1079C27.2849 28.8793 27.024 28.3814 27.0882 27.8157Z" fill="#00B8B7" fill-opacity="0.13"/>
<path d="M28.3975 25.9613C28.6209 25.9689 28.8274 26.0217 29.014 26.1112L29.2242 26.213C29.0377 26.1235 28.8312 26.0707 28.6077 26.0631C27.67 26.0298 26.8131 26.8119 26.6972 27.8081C26.6098 28.5701 26.9791 29.2315 27.5802 29.5216L27.37 29.4198C26.7747 29.1328 26.4024 28.4631 26.4869 27.7063C26.6057 26.7048 27.4597 25.928 28.3975 25.9613Z" fill="url(#paint16_linear_6282_179374)"/>
<path d="M28.0016 27.4338C28.0592 27.2736 28.0879 27.1936 28.1503 27.1829C28.2127 27.1722 28.2675 27.238 28.3769 27.3696L28.4052 27.4036C28.4363 27.441 28.4519 27.4597 28.4728 27.4702C28.4937 27.4807 28.5177 27.4819 28.5655 27.4841L28.6091 27.4862C28.7776 27.4942 28.8618 27.4982 28.8919 27.5553C28.9219 27.6124 28.8778 27.6848 28.7897 27.8296L28.7669 27.867C28.7419 27.9082 28.7294 27.9287 28.7262 27.9521C28.7231 27.9754 28.7297 27.9989 28.743 28.0458L28.755 28.0885C28.8016 28.2536 28.8249 28.3361 28.7811 28.3821C28.7372 28.4281 28.6553 28.407 28.4913 28.3649L28.4489 28.354C28.4024 28.3421 28.3791 28.3361 28.3562 28.34C28.3334 28.3439 28.3135 28.3573 28.2738 28.384L28.2377 28.4083C28.098 28.5024 28.0281 28.5494 27.971 28.5207C27.9139 28.492 27.9073 28.4066 27.8941 28.2358L27.8907 28.1916C27.887 28.1431 27.8851 28.1188 27.8741 28.0979C27.8631 28.077 27.8442 28.0618 27.8064 28.0314L27.7721 28.0037C27.6391 27.8967 27.5727 27.8432 27.5812 27.7795C27.5897 27.7158 27.6676 27.6841 27.8234 27.6206L27.8637 27.6042C27.908 27.5862 27.9301 27.5772 27.9461 27.5603C27.9622 27.5435 27.9704 27.5207 27.9867 27.4752L28.0016 27.4338Z" fill="#8FC3C2"/>
<defs>
<linearGradient id="paint0_linear_6282_179374" x1="20.1675" y1="32.2413" x2="21.1688" y2="30.4114" gradientUnits="userSpaceOnUse">
<stop stop-color="#DAE0F5"/>
<stop offset="1" stop-color="white"/>
</linearGradient>
<linearGradient id="paint1_linear_6282_179374" x1="18.0089" y1="3.82706" x2="16.8591" y2="11.4445" gradientUnits="userSpaceOnUse">
<stop stop-color="#FFBB96"/>
<stop offset="0.23" stop-color="#FFFBC9"/>
<stop offset="0.54" stop-color="#F9B673"/>
<stop offset="0.64" stop-color="#F9B876"/>
<stop offset="0.72" stop-color="#FABE81"/>
<stop offset="0.81" stop-color="#FCC892"/>
<stop offset="0.86" stop-color="#FED2A3"/>
<stop offset="0.97" stop-color="#FFC28C"/>
</linearGradient>
<linearGradient id="paint2_linear_6282_179374" x1="19.9871" y1="7.72099" x2="10.4607" y2="8.27137" gradientUnits="userSpaceOnUse">
<stop offset="0.04" stop-color="#FFBA78"/>
<stop offset="0.4" stop-color="#FEC986"/>
<stop offset="1" stop-color="#FEECA8"/>
</linearGradient>
<linearGradient id="paint3_linear_6282_179374" x1="16.9884" y1="9.65496" x2="23.2516" y2="1.52007" gradientUnits="userSpaceOnUse">
<stop offset="0.04" stop-color="#FFBA78"/>
<stop offset="0.4" stop-color="#FEC986"/>
<stop offset="1" stop-color="#FEECA8"/>
</linearGradient>
<linearGradient id="paint4_linear_6282_179374" x1="19.888" y1="10.078" x2="18.1434" y2="6.31789" gradientUnits="userSpaceOnUse">
<stop stop-color="#FFBB96"/>
<stop offset="0.23" stop-color="#FFFBC9"/>
<stop offset="0.54" stop-color="#F9B673"/>
<stop offset="0.64" stop-color="#F9B876"/>
<stop offset="0.72" stop-color="#FABE81"/>
<stop offset="0.81" stop-color="#FCC892"/>
<stop offset="0.86" stop-color="#FED2A3"/>
<stop offset="0.97" stop-color="#FFC28C"/>
</linearGradient>
<linearGradient id="paint5_linear_6282_179374" x1="17.0736" y1="3.68695" x2="15.9307" y2="11.2554" gradientUnits="userSpaceOnUse">
<stop stop-color="#FFBB96"/>
<stop offset="0.23" stop-color="#FFFBC9"/>
<stop offset="0.54" stop-color="#F9B673"/>
<stop offset="0.64" stop-color="#F9B876"/>
<stop offset="0.72" stop-color="#FABE81"/>
<stop offset="0.81" stop-color="#FCC892"/>
<stop offset="0.86" stop-color="#FED2A3"/>
<stop offset="0.97" stop-color="#FFC28C"/>
</linearGradient>
<radialGradient id="paint6_radial_6282_179374" cx="0" cy="0" r="1" gradientUnits="userSpaceOnUse" gradientTransform="translate(17.2275 6.88149) rotate(161.256) scale(3.10183 2.97818)">
<stop stop-color="white"/>
<stop offset="1"/>
</radialGradient>
<linearGradient id="paint7_linear_6282_179374" x1="37.8335" y1="25.3223" x2="25.3741" y2="27.9763" gradientUnits="userSpaceOnUse">
<stop offset="0.04" stop-color="#423EAF"/>
<stop offset="1" stop-color="#00347D"/>
</linearGradient>
<linearGradient id="paint8_linear_6282_179374" x1="24.5488" y1="22.9108" x2="19.683" y2="32.9487" gradientUnits="userSpaceOnUse">
<stop offset="0.04" stop-color="#00347D"/>
<stop offset="1" stop-color="#423EAF"/>
</linearGradient>
<linearGradient id="paint9_linear_6282_179374" x1="22.3935" y1="29.3152" x2="12.9985" y2="35.8044" gradientUnits="userSpaceOnUse">
<stop offset="0.04" stop-color="#00347D"/>
<stop offset="1" stop-color="#423EAF"/>
</linearGradient>
<radialGradient id="paint10_radial_6282_179374" cx="0" cy="0" r="1" gradientUnits="userSpaceOnUse" gradientTransform="translate(26.5027 26.7586) rotate(180) scale(7.1859 5.91161)">
<stop stop-color="white"/>
<stop offset="1"/>
</radialGradient>
<radialGradient id="paint11_radial_6282_179374" cx="0" cy="0" r="1" gradientUnits="userSpaceOnUse" gradientTransform="translate(26.4843 35.3378) rotate(180) scale(5.8036 2.05301)">
<stop stop-color="#231F20"/>
<stop offset="0.06" stop-color="#343132"/>
<stop offset="0.32" stop-color="#7B797A"/>
<stop offset="0.55" stop-color="#B4B2B3"/>
<stop offset="0.75" stop-color="#DCDCDC"/>
<stop offset="0.91" stop-color="#F5F5F5"/>
<stop offset="1" stop-color="white"/>
</radialGradient>
<linearGradient id="paint12_linear_6282_179374" x1="25.9033" y1="23.924" x2="21.0375" y2="33.9619" gradientUnits="userSpaceOnUse">
<stop offset="0.04" stop-color="#00347D"/>
<stop offset="1" stop-color="#423EAF"/>
</linearGradient>
<linearGradient id="paint13_linear_6282_179374" x1="23.7479" y1="30.3282" x2="14.353" y2="36.8174" gradientUnits="userSpaceOnUse">
<stop offset="0.04" stop-color="#00347D"/>
<stop offset="1" stop-color="#423EAF"/>
</linearGradient>
<radialGradient id="paint14_radial_6282_179374" cx="0" cy="0" r="1" gradientUnits="userSpaceOnUse" gradientTransform="translate(27.8607 27.7718) rotate(180) scale(7.1859 5.91161)">
<stop stop-color="white"/>
<stop offset="1"/>
</radialGradient>
<radialGradient id="paint15_radial_6282_179374" cx="0" cy="0" r="1" gradientUnits="userSpaceOnUse" gradientTransform="translate(27.9435 28.0226) rotate(180) scale(5.59437 4.60231)">
<stop stop-color="white"/>
<stop offset="1"/>
</radialGradient>
<linearGradient id="paint16_linear_6282_179374" x1="27.2762" y1="29.4092" x2="28.209" y2="25.9211" gradientUnits="userSpaceOnUse">
<stop stop-color="#A3A9D0"/>
<stop offset="0.6724" stop-color="#BBC0E6"/>
<stop offset="1" stop-color="#F6F6FB"/>
</linearGradient>
</defs>
</svg>
