<svg width="40" height="40" viewBox="0 0 40 40" fill="none" xmlns="http://www.w3.org/2000/svg">
<g clip-path="url(#clip0_6282_179375)">
<g opacity="0.9">
<path d="M19.8255 20.8071C12.7641 20.8289 7.07226 24.2321 7.11386 28.4098L15.209 28.3854C15.2032 27.6754 15.654 26.9656 16.5621 26.4208C18.3831 25.3312 21.3544 25.3242 23.1977 26.401C25.0411 27.4778 25.0591 29.2346 23.2404 30.3242L29.0006 33.6941C31.4821 32.2087 32.713 30.424 32.6911 28.3352C32.6495 24.1574 26.8893 20.7876 19.8255 20.8095L19.8255 20.8071Z" fill="url(#paint0_linear_6282_179375)"/>
<path d="M15.1592 18.5539L7.06641 18.5784L7.11425 28.4219L15.207 28.383L15.1592 18.5539Z" fill="#BBC0E6"/>
<path d="M16.5636 26.4207C18.3846 25.3311 21.3558 25.3241 23.1992 26.4009C24.1102 26.9345 24.5749 27.6326 24.5901 28.3353L24.5426 18.5548C24.5462 17.835 24.0837 17.1151 23.1514 16.5694C21.308 15.4902 18.3368 15.4997 16.5158 16.5893C15.6171 17.1267 15.1686 17.8268 15.1626 18.5272L15.1578 18.5273L15.2058 28.3902L15.2105 28.3902C15.2023 27.6802 15.6531 26.9655 16.5636 26.4207V26.4207Z" fill="#A6ACD7"/>
<path d="M24.7434 26.7618L15.1816 26.8079L15.1884 28.1892C15.1884 28.2013 15.1885 28.2158 15.1885 28.2279C15.1962 29.8031 17.3433 31.0699 19.9833 31.0572C22.6233 31.0445 24.758 29.7571 24.7503 28.1819C24.7503 28.1698 24.7502 28.1552 24.7502 28.1431L24.7434 26.7618Z" fill="url(#paint1_linear_6282_179375)"/>
<g style="mix-blend-mode:multiply">
<path d="M19.9813 30.7543C17.3413 30.767 15.1942 29.5002 15.1865 27.925L15.1878 28.1916C15.1879 28.2037 15.1879 28.2183 15.188 28.2304C15.1957 29.8056 17.3427 31.0723 19.9828 31.0596C22.6228 31.0469 24.7575 29.7595 24.7498 28.1844C24.7497 28.1722 24.7497 28.1577 24.7496 28.1456L24.7483 27.879C24.756 29.4542 22.6213 30.7416 19.9813 30.7543Z" fill="url(#paint2_linear_6282_179375)"/>
</g>
<g style="mix-blend-mode:multiply">
<path d="M21.4474 30.9144C21.4923 30.9045 21.5372 30.8946 21.5821 30.8847L21.5645 27.2642L21.4297 27.2649L21.4474 30.9169L21.4474 30.9144Z" fill="#FDD65B"/>
<path d="M22.0483 30.7663C22.0932 30.754 22.1381 30.7417 22.1829 30.7269L22.1661 27.2591L22.0312 27.2598L22.0483 30.7663Z" fill="#FDD65B"/>
<path d="M22.6479 30.5623C22.6951 30.5427 22.7376 30.5231 22.7824 30.5035L22.7667 27.2586L22.6318 27.2593L22.6479 30.5623Z" fill="#FDD65B"/>
<path d="M20.8463 31.0073C20.8912 31.0022 20.9361 30.9971 20.9811 30.9921L20.963 27.2674L20.8281 27.2681L20.8463 31.0073V31.0073Z" fill="#FDD65B"/>
<path d="M23.8457 29.8612C23.8905 29.8246 23.9376 29.7856 23.98 29.7466L23.9678 27.2506L23.833 27.2512L23.8457 29.8612Z" fill="#FDD65B"/>
<path d="M24.444 29.1942C24.4933 29.114 24.5379 29.0338 24.5777 28.9513L24.5694 27.2501L24.4346 27.2507L24.444 29.1967L24.444 29.1942Z" fill="#FDD65B"/>
<path d="M23.2461 30.271C23.2909 30.2465 23.3358 30.2221 23.3806 30.1952L23.3663 27.2557L23.2314 27.2563L23.2461 30.271Z" fill="#FDD65B"/>
<path d="M20.2469 31.0514C20.2918 31.0512 20.3368 31.051 20.3817 31.0459L20.3634 27.2703L20.2285 27.271L20.2469 31.0514Z" fill="#FDD65B"/>
<path d="M19.6482 31.0517C19.6932 31.0514 19.7381 31.0536 19.7831 31.0559L19.7647 27.273L19.6299 27.2737L19.6482 31.0517Z" fill="#FDD65B"/>
<path d="M18.4454 30.9121C18.4904 30.9216 18.533 30.9311 18.5804 30.9405L18.5626 27.2765L18.4277 27.2771L18.4454 30.9121Z" fill="#FDD65B"/>
<path d="M19.0465 31.0085C19.0914 31.0132 19.1364 31.0154 19.1814 31.02L19.1632 27.276L19.0283 27.2766L19.0465 31.0085Z" fill="#FDD65B"/>
<path d="M17.8431 30.7645C17.8881 30.7764 17.9331 30.7908 17.9781 30.8027L17.961 27.2791L17.8262 27.2798L17.8431 30.7645V30.7645Z" fill="#FDD65B"/>
<path d="M15.4317 29.1163C15.4723 29.1912 15.5152 29.2637 15.5676 29.3337L15.5577 27.2909L15.4229 27.2915L15.4317 29.1163Z" fill="#FDD65B"/>
<path d="M16.0358 29.8404C16.0786 29.8765 16.1261 29.9102 16.1712 29.9463L16.1583 27.2904L16.0234 27.291L16.0358 29.8404V29.8404Z" fill="#FDD65B"/>
<path d="M17.2415 30.5567C17.2865 30.5758 17.3316 30.5926 17.3766 30.6093L17.3604 27.2845L17.2256 27.2852L17.2415 30.5567Z" fill="#FDD65B"/>
<path d="M16.6395 30.2617C16.6822 30.2858 16.7296 30.3098 16.7747 30.3338L16.7598 27.2852L16.625 27.2859L16.6395 30.2617Z" fill="#FDD65B"/>
</g>
<path d="M19.9756 29.6588C22.616 29.6461 24.7503 28.3588 24.7427 26.7835C24.735 25.2083 22.5883 23.9416 19.9479 23.9543C17.3075 23.967 15.1732 25.2543 15.1809 26.8296C15.1885 28.4048 17.3352 29.6715 19.9756 29.6588Z" fill="url(#paint3_linear_6282_179375)"/>
<path style="mix-blend-mode:screen" d="M19.9763 29.5812C17.3907 29.5936 15.2865 28.38 15.1891 26.8513C15.1893 26.8852 15.18 26.9167 15.1802 26.9507C15.1878 28.5258 17.3349 29.7926 19.9749 29.7799C22.615 29.7672 24.7496 28.4798 24.742 26.9046C24.7418 26.8707 24.7346 26.8392 24.732 26.8053C24.6519 28.3349 22.5572 29.5688 19.9716 29.5812L19.9763 29.5812Z" fill="url(#paint4_radial_6282_179375)"/>
<path d="M19.9731 28.939C21.9472 28.9295 23.5429 27.967 23.5372 26.7893C23.5314 25.6115 21.9265 24.6644 19.9524 24.674C17.9783 24.6835 16.3826 25.6459 16.3883 26.8237C16.394 28.0015 17.999 28.9485 19.9731 28.939Z" fill="url(#paint5_linear_6282_179375)"/>
<path style="mix-blend-mode:screen" d="M20.0736 24.7802C21.9826 24.771 23.5412 25.6577 23.6484 26.7816C23.6506 26.7428 23.6575 26.7065 23.6573 26.6677C23.6516 25.49 22.0478 24.5429 20.0725 24.5524C18.0972 24.5619 16.5027 25.5244 16.5084 26.7021C16.5086 26.7409 16.5159 26.7796 16.5184 26.816C16.6123 25.6911 18.1645 24.7894 20.0736 24.7802V24.7802Z" fill="url(#paint6_radial_6282_179375)"/>
<path style="mix-blend-mode:multiply" d="M19.9535 24.9017C21.8625 24.8926 23.4211 25.7793 23.5283 26.9032C23.5304 26.8644 23.5374 26.828 23.5372 26.7893C23.5314 25.6115 21.9276 24.6644 19.9524 24.674C17.9771 24.6835 16.3826 25.646 16.3883 26.8237C16.3885 26.8625 16.3958 26.9012 16.3983 26.9375C16.4922 25.8126 18.0444 24.9109 19.9535 24.9017V24.9017Z" fill="url(#paint7_linear_6282_179375)"/>
<path style="mix-blend-mode:color-dodge" d="M17.7461 28.2785C18.8219 28.649 19.5494 29.3895 19.3723 29.9356C19.1951 30.4817 18.1762 30.6247 17.1004 30.2543C16.0246 29.8838 15.2971 29.1434 15.4743 28.5973C15.6538 28.0511 16.6703 27.9081 17.7461 28.2785Z" fill="url(#paint8_radial_6282_179375)"/>
<path style="mix-blend-mode:color-dodge" d="M22.4619 24.0464C23.5377 24.4168 24.2652 25.1573 24.0881 25.7034C23.9086 26.2495 22.8921 26.3926 21.8162 26.0221C20.7404 25.6517 20.0129 24.9112 20.1901 24.3651C20.3696 23.819 21.3861 23.6759 22.4619 24.0464Z" fill="url(#paint9_radial_6282_179375)"/>
<path style="mix-blend-mode:multiply" d="M19.8853 26.7318C21.8568 26.7223 23.4517 26.0333 23.4476 25.1928C23.4435 24.3523 21.842 23.6786 19.8705 23.6881C17.899 23.6976 16.3041 24.3867 16.3082 25.2272C16.3123 26.0677 17.9138 26.7413 19.8853 26.7318Z" fill="url(#paint10_radial_6282_179375)"/>
<path d="M24.7171 21.1466L15.1553 21.1926L15.162 22.5739C15.162 22.586 15.1621 22.6006 15.1622 22.6127C15.1698 24.1879 17.3169 25.4547 19.9569 25.4419C22.597 25.4292 24.7316 24.1418 24.724 22.5667C24.7239 22.5545 24.7238 22.54 24.7238 22.5279L24.7171 21.1466Z" fill="url(#paint11_linear_6282_179375)"/>
<g style="mix-blend-mode:multiply">
<path d="M19.9549 25.1391C17.3149 25.1518 15.1678 23.885 15.1602 22.3098L15.1615 22.5764C15.1615 22.5885 15.1616 22.603 15.1616 22.6152C15.1693 24.1903 17.3164 25.4571 19.9564 25.4444C22.5964 25.4317 24.7311 24.1443 24.7234 22.5691C24.7234 22.557 24.7233 22.5425 24.7232 22.5303L24.722 22.2638C24.7296 23.8389 22.5949 25.1263 19.9549 25.1391Z" fill="url(#paint12_linear_6282_179375)"/>
</g>
<g style="mix-blend-mode:multiply">
<path d="M21.4211 25.2989C21.466 25.289 21.5109 25.2791 21.5558 25.2692L21.5382 21.6488L21.4033 21.6494L21.4211 25.3014L21.4211 25.2989Z" fill="#FDD65B"/>
<path d="M22.0219 25.1508C22.0668 25.1385 22.1117 25.1262 22.1566 25.1114L22.1397 21.6436L22.0049 21.6443L22.0219 25.1508Z" fill="#FDD65B"/>
<path d="M22.6215 24.9468C22.6687 24.9272 22.7112 24.9076 22.7561 24.888L22.7403 21.6431L22.6055 21.6438L22.6215 24.9468Z" fill="#FDD65B"/>
<path d="M20.8199 25.3918C20.8649 25.3867 20.9098 25.3817 20.9547 25.3766L20.9366 21.6519L20.8018 21.6526L20.8199 25.3918Z" fill="#FDD65B"/>
<path d="M23.8203 24.2457C23.8651 24.2091 23.9122 24.1701 23.9546 24.1311L23.9425 21.6351L23.8076 21.6357L23.8203 24.2457Z" fill="#FDD65B"/>
<path d="M24.4176 23.5788C24.4669 23.4986 24.5115 23.4184 24.5513 23.3358L24.543 21.6346L24.4082 21.6353L24.4177 23.5812L24.4176 23.5788Z" fill="#FDD65B"/>
<path d="M23.2207 24.6555C23.2655 24.631 23.3104 24.6066 23.3552 24.5797L23.3409 21.6402L23.2061 21.6409L23.2207 24.6555Z" fill="#FDD65B"/>
<path d="M20.2205 25.4359C20.2655 25.4357 20.3104 25.4355 20.3553 25.4304L20.337 21.6549L20.2021 21.6555L20.2205 25.4359Z" fill="#FDD65B"/>
<path d="M19.6219 25.4362C19.6668 25.436 19.7118 25.4382 19.7567 25.4404L19.7384 21.6576L19.6035 21.6582L19.6219 25.4362Z" fill="#FDD65B"/>
<path d="M18.419 25.2969C18.464 25.3063 18.5067 25.3158 18.554 25.3253L18.5362 21.6612L18.4014 21.6619L18.419 25.2969Z" fill="#FDD65B"/>
<path d="M19.0211 25.3931C19.066 25.3977 19.111 25.3999 19.156 25.4045L19.1378 21.6605L19.0029 21.6611L19.0211 25.3931Z" fill="#FDD65B"/>
<path d="M17.8167 25.1493C17.8617 25.1612 17.9068 25.1755 17.9518 25.1874L17.9346 21.6639L17.7998 21.6646L17.8167 25.1493Z" fill="#FDD65B"/>
<path d="M15.4054 23.5013C15.4459 23.5762 15.4889 23.6487 15.5413 23.7187L15.5313 21.6759L15.3965 21.6765L15.4054 23.5013V23.5013Z" fill="#FDD65B"/>
<path d="M16.0095 24.2251C16.0522 24.2613 16.0997 24.295 16.1448 24.3311L16.1319 21.6751L15.9971 21.6758L16.0095 24.2251Z" fill="#FDD65B"/>
<path d="M17.2151 24.9414C17.2602 24.9606 17.3052 24.9773 17.3502 24.9941L17.3341 21.6693L17.1992 21.6699L17.2151 24.9414Z" fill="#FDD65B"/>
<path d="M16.6131 24.6463C16.6558 24.6703 16.7032 24.6943 16.7483 24.7183L16.7335 21.6698L16.5986 21.6704L16.6131 24.6463Z" fill="#FDD65B"/>
</g>
<path d="M19.9492 24.0438C22.5897 24.0311 24.7239 22.7438 24.7163 21.1685C24.7086 19.5933 22.5619 18.3266 19.9215 18.3393C17.2811 18.352 15.1468 19.6393 15.1545 21.2146C15.1621 22.7898 17.3088 24.0565 19.9492 24.0438Z" fill="url(#paint13_linear_6282_179375)"/>
<path style="mix-blend-mode:screen" d="M19.949 23.9662C17.3634 23.9787 15.2591 22.765 15.1618 21.2363C15.162 21.2702 15.1527 21.3018 15.1528 21.3357C15.1605 22.9108 17.3076 24.1776 19.9476 24.1649C22.5876 24.1522 24.7223 22.8648 24.7146 21.2896C24.7145 21.2557 24.7072 21.2243 24.7047 21.1903C24.6246 22.7199 22.5299 23.9538 19.9443 23.9662L19.949 23.9662Z" fill="url(#paint14_radial_6282_179375)"/>
<path d="M19.9467 23.324C21.9208 23.3145 23.5165 22.352 23.5108 21.1743C23.5051 19.9965 21.9001 19.0495 19.926 19.059C17.9519 19.0685 16.3562 20.0309 16.3619 21.2087C16.3677 22.3865 17.9726 23.3335 19.9467 23.324Z" fill="url(#paint15_linear_6282_179375)"/>
<path style="mix-blend-mode:screen" d="M20.0462 19.1649C21.9553 19.1557 23.5138 20.0425 23.621 21.1664C23.6232 21.1276 23.6301 21.0912 23.6299 21.0525C23.6242 19.8747 22.0204 18.9276 20.0451 18.9371C18.0699 18.9466 16.4753 19.9091 16.4811 21.0869C16.4813 21.1256 16.4885 21.162 16.4911 21.2007C16.585 20.0758 18.1372 19.1741 20.0462 19.1649V19.1649Z" fill="url(#paint16_radial_6282_179375)"/>
<path style="mix-blend-mode:multiply" d="M19.9271 19.2868C21.8362 19.2776 23.3947 20.1643 23.5019 21.2882C23.5041 21.2494 23.511 21.2131 23.5108 21.1743C23.5051 19.9965 21.9013 19.0495 19.926 19.059C17.9507 19.0685 16.3562 20.031 16.3619 21.2087C16.3621 21.2475 16.3694 21.2838 16.3719 21.3226C16.4658 20.1976 18.0181 19.2959 19.9271 19.2868V19.2868Z" fill="url(#paint17_linear_6282_179375)"/>
<path style="mix-blend-mode:color-dodge" d="M17.7188 22.6636C18.7946 23.034 19.5221 23.7745 19.3449 24.3206C19.1678 24.8667 18.1489 25.0097 17.0731 24.6393C15.9973 24.2689 15.2698 23.5284 15.4469 22.9823C15.6264 22.4361 16.643 22.2931 17.7188 22.6636Z" fill="url(#paint18_radial_6282_179375)"/>
<path style="mix-blend-mode:color-dodge" d="M22.4346 18.4314C23.5104 18.8018 24.2379 19.5423 24.0608 20.0884C23.8813 20.6345 22.8647 20.7776 21.7889 20.4071C20.7131 20.0367 19.9856 19.2962 20.1627 18.7501C20.3422 18.204 21.3588 18.0609 22.4346 18.4314V18.4314Z" fill="url(#paint19_radial_6282_179375)"/>
<path d="M28.9537 23.8625L29.0015 33.7061C31.483 32.2207 32.7139 30.436 32.6919 28.3472L32.6441 18.5036C32.6661 20.5924 31.4352 22.3796 28.9537 23.8625V23.8625Z" fill="#D6DBF6"/>
<path d="M23.167 20.4758L23.1907 20.4927L23.2385 30.3193L29.0011 33.7061L28.9533 23.8625L23.167 20.4758Z" fill="#BBC0E6"/>
<path style="mix-blend-mode:color-dodge" d="M28.9526 23.7606L23.3703 20.4941C23.3114 20.5332 23.2572 20.5722 23.1935 20.6113L28.9537 23.9812C31.4352 22.4958 32.6661 20.7111 32.6441 18.6222C32.644 18.5932 32.6415 18.5641 32.6389 18.5326C32.6086 20.5635 31.3798 22.307 28.9503 23.7606L28.9526 23.7606Z" fill="url(#paint20_radial_6282_179375)"/>
<path d="M19.7776 10.9755C12.7162 10.9974 7.02441 14.4006 7.06601 18.5783L15.1612 18.5539C15.1554 17.8438 15.6061 17.134 16.5143 16.5893C18.3353 15.4997 21.3065 15.4926 23.1499 16.5694C24.9932 17.6462 25.0112 19.4031 23.1926 20.4927L28.9528 23.8625C31.4343 22.3772 32.6652 20.5925 32.6432 18.5036C32.6016 14.3259 26.8414 10.956 19.7776 10.9779L19.7776 10.9755Z" fill="#D6DBF6"/>
<path style="mix-blend-mode:color-dodge" d="M24.5359 18.5452C24.582 17.7962 24.1217 17.0399 23.1514 16.4702C21.308 15.391 18.3368 15.4004 16.5158 16.49C15.6053 17.0348 15.1546 17.7446 15.1627 18.4546L7.07465 18.479C7.07264 18.5517 7.0659 18.6245 7.06863 18.6996L15.1638 18.6752C15.158 17.9651 15.6088 17.2553 16.5169 16.7105C18.3379 15.6209 21.3091 15.6139 23.1525 16.6907C24.0303 17.2027 24.4877 17.8693 24.5359 18.5452V18.5452Z" fill="url(#paint21_radial_6282_179375)"/>
<path style="mix-blend-mode:multiply" d="M16.2828 19.5345C16.2869 20.3754 17.887 21.0487 19.8599 21.0392C21.8328 21.0297 23.4263 20.3411 23.4222 19.5002C23.4181 18.6593 21.818 17.986 19.8451 17.9955C17.8722 18.005 16.2787 18.6937 16.2828 19.5345Z" fill="url(#paint22_radial_6282_179375)"/>
</g>
<g opacity="0.95">
<path d="M23.2708 26.861C23.2543 26.8707 23.2402 26.8829 23.2237 26.8927C22.3084 27.4399 21.1056 27.7123 19.9015 27.7157L19.9182 31.1471C21.1223 31.1462 22.3275 30.8714 23.2403 30.3241C23.2569 30.3143 23.271 30.3022 23.2875 30.2924L23.2708 26.861Z" fill="url(#paint23_linear_6282_179375)"/>
<path d="M19.9636 32.361L19.9147 27.6599C19.9147 27.6599 19.9218 27.6598 19.9242 27.6598L19.9004 27.6309L19.981 35.9475C23.5129 35.9378 26.5184 35.189 29.0022 33.7061L28.9848 30.1196C26.5034 31.6049 23.4955 32.3513 19.9636 32.361V32.361Z" fill="#8FC3C2"/>
<path d="M23.2959 26.7906C23.27 26.8053 23.2487 26.8223 23.2228 26.8394C22.3123 27.3842 21.1166 27.659 19.9172 27.6623L19.9667 32.4822C23.4986 32.4725 26.5035 31.605 28.9873 30.1196L23.2983 26.7906L23.2959 26.7906Z" fill="#8FC3C2"/>
<path style="mix-blend-mode:color-dodge" d="M19.9627 32.2981L19.9023 27.6697L19.9024 27.6891L19.9636 32.4847C23.4955 32.4749 26.501 31.7262 28.9848 30.2432L28.8211 30.1471C26.3701 31.5693 23.4189 32.2863 19.9627 32.2956L19.9627 32.2981Z" fill="url(#paint24_radial_6282_179375)"/>
</g>
<g opacity="0.9">
<path d="M19.8999 24.8633C18.6982 24.8691 17.4951 24.5987 16.5746 24.0603C15.6399 23.5146 15.1775 22.7947 15.1834 22.0749L15.1787 22.075L15.2094 28.3853L15.2141 28.3853C15.2223 29.0953 15.687 29.8031 16.6075 30.3415C17.5304 30.8799 18.7335 31.148 19.9328 31.1446L19.9023 24.8658L19.8999 24.8633Z" fill="url(#paint25_linear_6282_179375)"/>
<path d="M7.08301 22.0825L7.11382 28.422C7.15541 32.5997 12.9156 35.9695 19.9794 35.9476L19.9486 29.6082C12.8848 29.6277 7.12459 26.2578 7.08301 22.0825Z" fill="#06376D"/>
<path d="M16.5718 24.0604C15.63 23.5099 15.1675 22.7827 15.1806 22.0556L7.08301 22.0825C7.1246 26.2602 12.8848 29.6301 19.9486 29.6082L19.8995 24.8659C18.6978 24.8717 17.4947 24.6036 16.5719 24.0628L16.5718 24.0604Z" fill="#00357C"/>
<path style="mix-blend-mode:color-dodge" d="M19.8857 24.8346L19.8265 24.8349L19.8871 29.5141C13.5732 29.5324 8.30601 26.8412 7.22656 23.2888C8.15041 26.951 13.5081 29.7533 19.9497 29.7344L19.8857 24.837L19.8857 24.8346Z" fill="url(#paint26_radial_6282_179375)"/>
</g>
<path d="M24.6907 15.2706L15.1289 15.3167L15.1356 16.6979C15.1357 16.7101 15.1357 16.7246 15.1358 16.7367C15.1435 18.3119 17.2905 19.5787 19.9306 19.566C22.5706 19.5533 24.7053 18.2659 24.6976 16.6907C24.6975 16.6786 24.6975 16.664 24.6974 16.6519L24.6907 15.2706V15.2706Z" fill="url(#paint27_linear_6282_179375)"/>
<g style="mix-blend-mode:multiply">
<path d="M19.9285 19.2628C17.2885 19.2755 15.1414 18.0088 15.1338 16.4336L15.1351 16.7002C15.1351 16.7123 15.1352 16.7268 15.1353 16.7389C15.1429 18.3141 17.29 19.5809 19.93 19.5682C22.5701 19.5555 24.7047 18.2681 24.6971 16.6929C24.697 16.6808 24.6969 16.6662 24.6969 16.6541L24.6956 16.3876C24.7032 17.9627 22.5686 19.2501 19.9285 19.2628V19.2628Z" fill="url(#paint28_linear_6282_179375)"/>
</g>
<g style="mix-blend-mode:multiply">
<path d="M21.3947 19.4232C21.4396 19.4133 21.4845 19.4034 21.5294 19.3935L21.5118 15.773L21.377 15.7737L21.3947 19.4256L21.3947 19.4232Z" fill="#FDD65B"/>
<path d="M21.9956 19.2751C22.0404 19.2628 22.0853 19.2505 22.1302 19.2357L22.1134 15.7679L21.9785 15.7686L21.9956 19.2751Z" fill="#FDD65B"/>
<path d="M22.5952 19.0708C22.6424 19.0512 22.6849 19.0316 22.7297 19.012L22.7139 15.7672L22.5791 15.7678L22.5952 19.0708Z" fill="#FDD65B"/>
<path d="M20.7936 19.5158C20.8385 19.5107 20.8834 19.5057 20.9283 19.5006L20.9102 15.776L20.7754 15.7766L20.7936 19.5158Z" fill="#FDD65B"/>
<path d="M23.793 18.3697C23.8377 18.3331 23.8849 18.2941 23.9272 18.2551L23.9151 15.7591L23.7803 15.7598L23.793 18.3697Z" fill="#FDD65B"/>
<path d="M24.3903 17.7028C24.4396 17.6226 24.4842 17.5424 24.524 17.4598L24.5157 15.7586L24.3809 15.7593L24.3903 17.7052L24.3903 17.7028Z" fill="#FDD65B"/>
<path d="M23.1943 18.7795C23.2392 18.7551 23.284 18.7306 23.3288 18.7037L23.3145 15.7642L23.1797 15.7649L23.1943 18.7795V18.7795Z" fill="#FDD65B"/>
<path d="M20.1942 19.5597C20.2391 19.5595 20.284 19.5593 20.329 19.5542L20.3106 15.7786L20.1758 15.7793L20.1942 19.5597Z" fill="#FDD65B"/>
<path d="M19.5955 19.5602C19.6405 19.56 19.6854 19.5622 19.7304 19.5644L19.712 15.7816L19.5771 15.7822L19.5955 19.5602Z" fill="#FDD65B"/>
<path d="M18.3927 19.4209C18.4377 19.4304 18.4803 19.4399 18.5276 19.4493L18.5098 15.7852L18.375 15.7859L18.3927 19.4209Z" fill="#FDD65B"/>
<path d="M18.9937 19.5171C19.0387 19.5217 19.0837 19.5239 19.1286 19.5286L19.1104 15.7845L18.9756 15.7852L18.9937 19.5171V19.5171Z" fill="#FDD65B"/>
<path d="M17.7904 19.2733C17.8354 19.2852 17.8804 19.2995 17.9254 19.3114L17.9083 15.7879L17.7734 15.7886L17.7904 19.2733Z" fill="#FDD65B"/>
<path d="M15.379 17.6248C15.4196 17.6997 15.4625 17.7722 15.5149 17.8423L15.505 15.7994L15.3701 15.8L15.379 17.6248Z" fill="#FDD65B"/>
<path d="M15.9831 18.3489C16.0259 18.385 16.0733 18.4187 16.1185 18.4549L16.1055 15.7989L15.9707 15.7996L15.9831 18.3489V18.3489Z" fill="#FDD65B"/>
<path d="M17.1897 19.0654C17.2348 19.0846 17.2798 19.1014 17.3248 19.1181L17.3087 15.7933L17.1738 15.7939L17.1897 19.0654Z" fill="#FDD65B"/>
<path d="M16.5867 18.7703C16.6294 18.7943 16.6769 18.8183 16.7219 18.8423L16.7071 15.7938L16.5723 15.7944L16.5867 18.7703Z" fill="#FDD65B"/>
</g>
<path d="M19.9229 18.1651C22.5633 18.1524 24.6976 16.8651 24.6899 15.2899C24.6823 13.7146 22.5356 12.4479 19.8952 12.4606C17.2547 12.4733 15.1205 13.7606 15.1281 15.3359C15.1358 16.9112 17.2825 18.1779 19.9229 18.1651Z" fill="url(#paint29_linear_6282_179375)"/>
<path style="mix-blend-mode:screen" d="M19.9236 18.09C17.338 18.1024 15.2337 16.8888 15.1364 15.3601C15.1366 15.394 15.1273 15.4255 15.1274 15.4595C15.1351 17.0346 17.2822 18.3014 19.9222 18.2887C22.5622 18.276 24.6969 16.9886 24.6892 15.4134C24.6891 15.3795 24.6818 15.348 24.6793 15.3141C24.5992 16.8437 22.5045 18.0776 19.9189 18.09L19.9236 18.09Z" fill="url(#paint30_radial_6282_179375)"/>
<path d="M19.9194 17.4454C21.8935 17.4359 23.4892 16.4734 23.4835 15.2956C23.4777 14.1179 21.8728 13.1708 19.8987 13.1803C17.9245 13.1898 16.3289 14.1523 16.3346 15.33C16.3403 16.5078 17.9453 17.4549 19.9194 17.4454Z" fill="url(#paint31_linear_6282_179375)"/>
<path style="mix-blend-mode:screen" d="M20.0199 13.289C21.9289 13.2798 23.4875 14.1665 23.5947 15.2904C23.5968 15.2516 23.6038 15.2153 23.6036 15.1765C23.5978 13.9987 21.9941 13.0516 20.0188 13.0612C18.0435 13.0707 16.449 14.0332 16.4547 15.2109C16.4549 15.2497 16.4622 15.2884 16.4647 15.3248C16.5586 14.1998 18.1108 13.2981 20.0199 13.289V13.289Z" fill="url(#paint32_radial_6282_179375)"/>
<path style="mix-blend-mode:multiply" d="M19.8998 13.4108C21.8088 13.4016 23.3674 14.2883 23.4745 15.4122C23.4767 15.3735 23.4836 15.3371 23.4835 15.2983C23.4777 14.1206 21.8739 13.1735 19.8987 13.183C17.9234 13.1925 16.3289 14.155 16.3346 15.3327C16.3348 15.3715 16.3421 15.4102 16.3446 15.4466C16.4385 14.3217 17.9907 13.42 19.8998 13.4108V13.4108Z" fill="url(#paint33_linear_6282_179375)"/>
<path style="mix-blend-mode:color-dodge" d="M17.6924 16.7873C18.7682 17.1578 19.4957 17.8983 19.3186 18.4444C19.1391 18.9905 18.1225 19.1335 17.0467 18.7631C15.9709 18.3926 15.2434 17.6522 15.4205 17.106C15.6 16.5599 16.6166 16.4169 17.6924 16.7873Z" fill="url(#paint34_radial_6282_179375)"/>
<path style="mix-blend-mode:color-dodge" d="M22.4082 12.5552C23.484 12.9256 24.2115 13.6661 24.0344 14.2122C23.8573 14.7583 22.8383 14.9014 21.7625 14.5309C20.6867 14.1605 19.9592 13.42 20.1364 12.8739C20.3159 12.3277 21.3324 12.1847 22.4082 12.5552Z" fill="url(#paint35_radial_6282_179375)"/>
<path d="M24.6516 7.39708L15.0898 7.44312L15.0966 8.82441C15.0966 8.83653 15.0967 8.85107 15.0967 8.86319C15.1044 10.4384 17.2515 11.7051 19.8915 11.6924C22.5315 11.6797 24.6662 10.3923 24.6585 8.81715C24.6585 8.80503 24.6584 8.79049 24.6584 8.77838L24.6516 7.39708V7.39708Z" fill="url(#paint36_linear_6282_179375)"/>
<g style="mix-blend-mode:multiply">
<path d="M19.8895 11.3871C17.2495 11.3998 15.1024 10.133 15.0947 8.55786L15.096 8.82443C15.0961 8.83654 15.0962 8.85108 15.0962 8.8632C15.1039 10.4384 17.2509 11.7052 19.891 11.6924C22.531 11.6797 24.6657 10.3923 24.658 8.81716C24.6579 8.80505 24.6579 8.79051 24.6578 8.77839L24.6565 8.51182C24.6642 10.087 22.5295 11.3744 19.8895 11.3871Z" fill="url(#paint37_linear_6282_179375)"/>
</g>
<g style="mix-blend-mode:multiply">
<path d="M21.3556 11.5502C21.4005 11.5403 21.4454 11.5304 21.4903 11.5204L21.4727 7.89999L21.3379 7.90063L21.3556 11.5526L21.3556 11.5502Z" fill="#FDD65B"/>
<path d="M21.9555 11.4018C22.0004 11.3895 22.0453 11.3772 22.0902 11.3624L22.0733 7.89461L21.9385 7.89526L21.9555 11.4018Z" fill="#FDD65B"/>
<path d="M22.5551 11.1953C22.6023 11.1757 22.6448 11.1561 22.6897 11.1365L22.6739 7.89168L22.5391 7.89233L22.5551 11.1953Z" fill="#FDD65B"/>
<path d="M20.7545 11.6401C20.7994 11.635 20.8443 11.63 20.8893 11.6249L20.8712 7.90023L20.7363 7.90088L20.7545 11.6401V11.6401Z" fill="#FDD65B"/>
<path d="M23.7529 10.4964C23.7977 10.4598 23.8448 10.4208 23.8872 10.3819L23.8751 7.88583L23.7402 7.88647L23.7529 10.4964Z" fill="#FDD65B"/>
<path d="M24.3512 9.8295C24.4005 9.74929 24.4451 9.6691 24.4849 9.58651L24.4766 7.88534L24.3418 7.88599L24.3513 9.83192L24.3512 9.8295Z" fill="#FDD65B"/>
<path d="M23.1543 10.904C23.1991 10.8796 23.244 10.8551 23.2888 10.8283L23.2745 7.88876L23.1396 7.8894L23.1543 10.904Z" fill="#FDD65B"/>
<path d="M20.1541 11.6842C20.1991 11.684 20.244 11.6838 20.2889 11.6787L20.2706 7.90316L20.1357 7.90381L20.1541 11.6842Z" fill="#FDD65B"/>
<path d="M19.5555 11.6847C19.6004 11.6845 19.6454 11.6867 19.6903 11.6889L19.6719 7.90609L19.5371 7.90674L19.5555 11.6847Z" fill="#FDD65B"/>
<path d="M18.3536 11.5476C18.3986 11.5571 18.4412 11.5666 18.4886 11.576L18.4708 7.91195L18.3359 7.9126L18.3536 11.5476V11.5476Z" fill="#FDD65B"/>
<path d="M18.9547 11.6416C18.9996 11.6462 19.0446 11.6484 19.0896 11.6531L19.0714 7.90902L18.9365 7.90967L18.9547 11.6416V11.6416Z" fill="#FDD65B"/>
<path d="M17.7513 11.4003C17.7963 11.4122 17.8413 11.4265 17.8863 11.4384L17.8692 7.91488L17.7344 7.91553L17.7513 11.4003Z" fill="#FDD65B"/>
<path d="M15.3399 9.75153C15.3805 9.82646 15.4234 9.89895 15.4758 9.96898L15.4659 7.92611L15.3311 7.92676L15.3399 9.75153Z" fill="#FDD65B"/>
<path d="M15.944 10.4734C15.9868 10.5096 16.0343 10.5433 16.0794 10.5794L16.0665 7.92342L15.9316 7.92407L15.944 10.4734Z" fill="#FDD65B"/>
<path d="M17.1507 11.1897C17.1957 11.2089 17.2407 11.2256 17.2858 11.2424L17.2696 7.91756L17.1348 7.91821L17.1507 11.1897V11.1897Z" fill="#FDD65B"/>
<path d="M16.5477 10.897C16.5904 10.921 16.6378 10.945 16.6829 10.969L16.668 7.92049L16.5332 7.92114L16.5477 10.897Z" fill="#FDD65B"/>
</g>
<path d="M19.8858 10.2919C22.5262 10.2791 24.6605 8.99184 24.6528 7.41658C24.6452 5.84132 22.4985 4.57462 19.858 4.58733C17.2176 4.60005 15.0834 5.88735 15.091 7.46261C15.0987 9.03787 17.2454 10.3046 19.8858 10.2919Z" fill="url(#paint38_linear_6282_179375)"/>
<path style="mix-blend-mode:screen" d="M19.8845 10.2143C17.2989 10.2267 15.1947 9.01302 15.0974 7.48433C15.0975 7.51826 15.0882 7.54981 15.0884 7.58373C15.096 9.1589 17.2431 10.4257 19.8831 10.413C22.5232 10.4003 24.6578 9.11286 24.6502 7.5377C24.65 7.50377 24.6428 7.4723 24.6402 7.43838C24.5601 8.96793 22.4654 10.2018 19.8798 10.2143L19.8845 10.2143Z" fill="url(#paint39_radial_6282_179375)"/>
<path d="M19.8823 9.57207C21.8564 9.56257 23.4521 8.60009 23.4463 7.42233C23.4406 6.24457 21.8357 5.2975 19.8615 5.30701C17.8874 5.31651 16.2917 6.27899 16.2975 7.45675C16.3032 8.63451 17.9082 9.58158 19.8823 9.57207Z" fill="url(#paint40_linear_6282_179375)"/>
<path style="mix-blend-mode:screen" d="M19.9828 5.41298C21.8918 5.40378 23.4504 6.29051 23.5576 7.41445C23.5597 7.37566 23.5667 7.33928 23.5665 7.3005C23.5607 6.12277 21.9569 5.17567 19.9817 5.18518C18.0064 5.19469 16.4119 6.15719 16.4176 7.33492C16.4178 7.3737 16.4251 7.41244 16.4276 7.44877C16.5215 6.32387 18.0737 5.42217 19.9828 5.41298V5.41298Z" fill="url(#paint41_radial_6282_179375)"/>
<path style="mix-blend-mode:multiply" d="M19.8627 5.53724C21.7717 5.52805 23.3303 6.41478 23.4374 7.53871C23.4396 7.49993 23.4465 7.46355 23.4463 7.42477C23.4406 6.24703 21.8368 5.29994 19.8615 5.30945C17.8863 5.31896 16.2917 6.28145 16.2975 7.45919C16.2977 7.49796 16.3049 7.5367 16.3075 7.57304C16.4014 6.44814 17.9536 5.54644 19.8627 5.53724V5.53724Z" fill="url(#paint42_linear_6282_179375)"/>
<path style="mix-blend-mode:color-dodge" d="M17.6543 8.91404C18.7301 9.28449 19.4576 10.025 19.2805 10.5711C19.1033 11.1172 18.0844 11.2602 17.0086 10.8898C15.9328 10.5193 15.2053 9.77887 15.3825 9.23275C15.562 8.68663 16.5785 8.5436 17.6543 8.91404Z" fill="url(#paint43_radial_6282_179375)"/>
<path style="mix-blend-mode:multiply" opacity="0.3" d="M19.8335 16.0136C21.805 16.0041 23.3999 15.315 23.3958 14.4745C23.3917 13.634 21.7902 12.9604 19.8187 12.9699C17.8472 12.9794 16.2523 13.6684 16.2564 14.5089C16.2605 15.3494 17.862 16.0231 19.8335 16.0136Z" fill="url(#paint44_radial_6282_179375)"/>
</g>
<defs>
<linearGradient id="paint0_linear_6282_179375" x1="30.3151" y1="15.0277" x2="19.9396" y2="27.7216" gradientUnits="userSpaceOnUse">
<stop offset="0.1" stop-color="#45108A"/>
<stop offset="1" stop-color="#7C1DC9"/>
</linearGradient>
<linearGradient id="paint1_linear_6282_179375" x1="15.237" y1="28.945" x2="24.6497" y2="28.8993" gradientUnits="userSpaceOnUse">
<stop stop-color="#FFBB96"/>
<stop offset="0.23" stop-color="#FFFBC9"/>
<stop offset="0.54" stop-color="#F9B673"/>
<stop offset="0.64" stop-color="#F9B876"/>
<stop offset="0.72" stop-color="#FABE81"/>
<stop offset="0.81" stop-color="#FCC892"/>
<stop offset="0.86" stop-color="#FED2A3"/>
<stop offset="0.97" stop-color="#FFC28C"/>
</linearGradient>
<linearGradient id="paint2_linear_6282_179375" x1="15.2391" y1="29.5048" x2="24.6519" y2="29.4591" gradientUnits="userSpaceOnUse">
<stop stop-color="#FFBB96"/>
<stop offset="0.23" stop-color="#FFFBC9"/>
<stop offset="0.54" stop-color="#F9B673"/>
<stop offset="0.64" stop-color="#F9B876"/>
<stop offset="0.72" stop-color="#FABE81"/>
<stop offset="0.81" stop-color="#FCC892"/>
<stop offset="0.86" stop-color="#FED2A3"/>
<stop offset="0.97" stop-color="#FFC28C"/>
</linearGradient>
<linearGradient id="paint3_linear_6282_179375" x1="28.753" y1="17.6547" x2="19.2183" y2="27.1123" gradientUnits="userSpaceOnUse">
<stop offset="0.04" stop-color="#FFBA78"/>
<stop offset="0.4" stop-color="#FEC986"/>
<stop offset="1" stop-color="#FEECA8"/>
</linearGradient>
<radialGradient id="paint4_radial_6282_179375" cx="0" cy="0" r="1" gradientUnits="userSpaceOnUse" gradientTransform="translate(17.9173 28.9126) rotate(-0.275857) scale(6.00872 6.15534)">
<stop stop-color="white"/>
<stop offset="1"/>
</radialGradient>
<linearGradient id="paint5_linear_6282_179375" x1="23.7852" y1="22.8258" x2="16.6594" y2="29.8947" gradientUnits="userSpaceOnUse">
<stop offset="0.04" stop-color="#FFBA78"/>
<stop offset="0.4" stop-color="#FEC986"/>
<stop offset="1" stop-color="#FEECA8"/>
</linearGradient>
<radialGradient id="paint6_radial_6282_179375" cx="0" cy="0" r="1" gradientUnits="userSpaceOnUse" gradientTransform="translate(21.6358 24.4624) rotate(-0.275857) scale(2.64242 2.70689)">
<stop stop-color="white"/>
<stop offset="1"/>
</radialGradient>
<linearGradient id="paint7_linear_6282_179375" x1="25.0645" y1="21.259" x2="18.339" y2="27.9309" gradientUnits="userSpaceOnUse">
<stop stop-color="#FFBB96"/>
<stop offset="0.23" stop-color="#FFFBC9"/>
<stop offset="0.54" stop-color="#F9B673"/>
<stop offset="0.64" stop-color="#F9B876"/>
<stop offset="0.72" stop-color="#FABE81"/>
<stop offset="0.81" stop-color="#FCC892"/>
<stop offset="0.86" stop-color="#FED2A3"/>
<stop offset="0.97" stop-color="#FFC28C"/>
</linearGradient>
<radialGradient id="paint8_radial_6282_179375" cx="0" cy="0" r="1" gradientUnits="userSpaceOnUse" gradientTransform="translate(24.8962 32.067) rotate(-71.9054) scale(1.04033 2.04112)">
<stop stop-color="#F49587"/>
<stop offset="0.12" stop-color="#BC7368"/>
<stop offset="0.24" stop-color="#8B544C"/>
<stop offset="0.36" stop-color="#603A35"/>
<stop offset="0.48" stop-color="#3D2522"/>
<stop offset="0.61" stop-color="#221513"/>
<stop offset="0.74" stop-color="#0F0908"/>
<stop offset="0.86" stop-color="#030202"/>
<stop offset="1"/>
</radialGradient>
<radialGradient id="paint9_radial_6282_179375" cx="0" cy="0" r="1" gradientUnits="userSpaceOnUse" gradientTransform="translate(29.5853 27.8233) rotate(-71.9054) scale(1.04033 2.04112)">
<stop stop-color="#F49587"/>
<stop offset="0.12" stop-color="#BC7368"/>
<stop offset="0.24" stop-color="#8B544C"/>
<stop offset="0.36" stop-color="#603A35"/>
<stop offset="0.48" stop-color="#3D2522"/>
<stop offset="0.61" stop-color="#221513"/>
<stop offset="0.74" stop-color="#0F0908"/>
<stop offset="0.86" stop-color="#030202"/>
<stop offset="1"/>
</radialGradient>
<radialGradient id="paint10_radial_6282_179375" cx="0" cy="0" r="1" gradientUnits="userSpaceOnUse" gradientTransform="translate(22.1904 26.5135) rotate(179.724) scale(3.56468 1.51637)">
<stop offset="0.19" stop-color="#785C5D"/>
<stop offset="1" stop-color="white"/>
</radialGradient>
<linearGradient id="paint11_linear_6282_179375" x1="7.08947" y1="23.3689" x2="7.32603" y2="23.3677" gradientUnits="userSpaceOnUse">
<stop stop-color="#FFBB96"/>
<stop offset="0.23" stop-color="#FFFBC9"/>
<stop offset="0.54" stop-color="#F9B673"/>
<stop offset="0.64" stop-color="#F9B876"/>
<stop offset="0.72" stop-color="#FABE81"/>
<stop offset="0.81" stop-color="#FCC892"/>
<stop offset="0.86" stop-color="#FED2A3"/>
<stop offset="0.97" stop-color="#FFC28C"/>
</linearGradient>
<linearGradient id="paint12_linear_6282_179375" x1="15.2128" y1="23.8872" x2="24.6255" y2="23.8414" gradientUnits="userSpaceOnUse">
<stop stop-color="#FFBB96"/>
<stop offset="0.23" stop-color="#FFFBC9"/>
<stop offset="0.54" stop-color="#F9B673"/>
<stop offset="0.64" stop-color="#F9B876"/>
<stop offset="0.72" stop-color="#FABE81"/>
<stop offset="0.81" stop-color="#FCC892"/>
<stop offset="0.86" stop-color="#FED2A3"/>
<stop offset="0.97" stop-color="#FFC28C"/>
</linearGradient>
<linearGradient id="paint13_linear_6282_179375" x1="28.7267" y1="12.0397" x2="19.1919" y2="21.4973" gradientUnits="userSpaceOnUse">
<stop offset="0.04" stop-color="#FFBA78"/>
<stop offset="0.4" stop-color="#FEC986"/>
<stop offset="1" stop-color="#FEECA8"/>
</linearGradient>
<radialGradient id="paint14_radial_6282_179375" cx="0" cy="0" r="1" gradientUnits="userSpaceOnUse" gradientTransform="translate(7.20688 23.349) rotate(-0.275857) scale(0.118282 0.121168)">
<stop stop-color="white"/>
<stop offset="1"/>
</radialGradient>
<linearGradient id="paint15_linear_6282_179375" x1="23.7589" y1="17.2109" x2="16.6331" y2="24.2797" gradientUnits="userSpaceOnUse">
<stop offset="0.04" stop-color="#FFBA78"/>
<stop offset="0.4" stop-color="#FEC986"/>
<stop offset="1" stop-color="#FEECA8"/>
</linearGradient>
<radialGradient id="paint16_radial_6282_179375" cx="0" cy="0" r="1" gradientUnits="userSpaceOnUse" gradientTransform="translate(21.6084 18.8472) rotate(-0.275857) scale(2.64242 2.70689)">
<stop stop-color="white"/>
<stop offset="1"/>
</radialGradient>
<linearGradient id="paint17_linear_6282_179375" x1="25.0382" y1="15.644" x2="18.3127" y2="22.3159" gradientUnits="userSpaceOnUse">
<stop stop-color="#FFBB96"/>
<stop offset="0.23" stop-color="#FFFBC9"/>
<stop offset="0.54" stop-color="#F9B673"/>
<stop offset="0.64" stop-color="#F9B876"/>
<stop offset="0.72" stop-color="#FABE81"/>
<stop offset="0.81" stop-color="#FCC892"/>
<stop offset="0.86" stop-color="#FED2A3"/>
<stop offset="0.97" stop-color="#FFC28C"/>
</linearGradient>
<radialGradient id="paint18_radial_6282_179375" cx="0" cy="0" r="1" gradientUnits="userSpaceOnUse" gradientTransform="translate(24.8848 26.4577) rotate(-71.9054) scale(1.04033 2.04112)">
<stop stop-color="#F49587"/>
<stop offset="0.12" stop-color="#BC7368"/>
<stop offset="0.24" stop-color="#8B544C"/>
<stop offset="0.36" stop-color="#603A35"/>
<stop offset="0.48" stop-color="#3D2522"/>
<stop offset="0.61" stop-color="#221513"/>
<stop offset="0.74" stop-color="#0F0908"/>
<stop offset="0.86" stop-color="#030202"/>
<stop offset="1"/>
</radialGradient>
<radialGradient id="paint19_radial_6282_179375" cx="0" cy="0" r="1" gradientUnits="userSpaceOnUse" gradientTransform="translate(29.574 22.2136) rotate(-71.9054) scale(1.04033 2.04112)">
<stop stop-color="#F49587"/>
<stop offset="0.12" stop-color="#BC7368"/>
<stop offset="0.24" stop-color="#8B544C"/>
<stop offset="0.36" stop-color="#603A35"/>
<stop offset="0.48" stop-color="#3D2522"/>
<stop offset="0.61" stop-color="#221513"/>
<stop offset="0.74" stop-color="#0F0908"/>
<stop offset="0.86" stop-color="#030202"/>
<stop offset="1"/>
</radialGradient>
<radialGradient id="paint20_radial_6282_179375" cx="0" cy="0" r="1" gradientUnits="userSpaceOnUse" gradientTransform="translate(27.928 21.2719) rotate(-0.275857) scale(3.8347 3.92827)">
<stop stop-color="white"/>
<stop offset="1"/>
</radialGradient>
<radialGradient id="paint21_radial_6282_179375" cx="0" cy="0" r="1" gradientUnits="userSpaceOnUse" gradientTransform="translate(20.8915 14.8695) rotate(-0.275857) scale(6.26184 6.41463)">
<stop stop-color="white"/>
<stop offset="1"/>
</radialGradient>
<radialGradient id="paint22_radial_6282_179375" cx="0" cy="0" r="1" gradientUnits="userSpaceOnUse" gradientTransform="translate(2739.26 7.75551) rotate(179.724) scale(3.56469 1.51637)">
<stop offset="0.19" stop-color="#785C5D"/>
<stop offset="1" stop-color="white"/>
</radialGradient>
<linearGradient id="paint23_linear_6282_179375" x1="19.9078" y1="29.0122" x2="23.2812" y2="28.9958" gradientUnits="userSpaceOnUse">
<stop offset="0.04" stop-color="#9F19AB"/>
<stop offset="0.16" stop-color="#AE24B0"/>
<stop offset="0.41" stop-color="#D643BF"/>
<stop offset="0.63" stop-color="#FF63CE"/>
<stop offset="0.87" stop-color="#DC48C1"/>
</linearGradient>
<radialGradient id="paint24_radial_6282_179375" cx="0" cy="0" r="1" gradientUnits="userSpaceOnUse" gradientTransform="translate(24.2558 31.2135) rotate(-0.275857) scale(3.77319 3.86526)">
<stop stop-color="white"/>
<stop offset="1"/>
</radialGradient>
<linearGradient id="paint25_linear_6282_179375" x1="15.1984" y1="26.6211" x2="19.9084" y2="26.5982" gradientUnits="userSpaceOnUse">
<stop stop-color="#671AB9"/>
<stop offset="0.34" stop-color="#AD34F1"/>
<stop offset="1" stop-color="#5513AB"/>
</linearGradient>
<radialGradient id="paint26_radial_6282_179375" cx="0" cy="0" r="1" gradientUnits="userSpaceOnUse" gradientTransform="translate(13.8983 27.2892) rotate(-0.275857) scale(5.06956 5.19326)">
<stop stop-color="white"/>
<stop offset="1"/>
</radialGradient>
<linearGradient id="paint27_linear_6282_179375" x1="7.0631" y1="17.4929" x2="7.29966" y2="17.4918" gradientUnits="userSpaceOnUse">
<stop stop-color="#FFBB96"/>
<stop offset="0.23" stop-color="#FFFBC9"/>
<stop offset="0.54" stop-color="#F9B673"/>
<stop offset="0.64" stop-color="#F9B876"/>
<stop offset="0.72" stop-color="#FABE81"/>
<stop offset="0.81" stop-color="#FCC892"/>
<stop offset="0.86" stop-color="#FED2A3"/>
<stop offset="0.97" stop-color="#FFC28C"/>
</linearGradient>
<linearGradient id="paint28_linear_6282_179375" x1="15.1864" y1="18.011" x2="24.5992" y2="17.9652" gradientUnits="userSpaceOnUse">
<stop stop-color="#FFBB96"/>
<stop offset="0.23" stop-color="#FFFBC9"/>
<stop offset="0.54" stop-color="#F9B673"/>
<stop offset="0.64" stop-color="#F9B876"/>
<stop offset="0.72" stop-color="#FABE81"/>
<stop offset="0.81" stop-color="#FCC892"/>
<stop offset="0.86" stop-color="#FED2A3"/>
<stop offset="0.97" stop-color="#FFC28C"/>
</linearGradient>
<linearGradient id="paint29_linear_6282_179375" x1="28.7003" y1="6.16347" x2="19.1655" y2="15.6211" gradientUnits="userSpaceOnUse">
<stop offset="0.04" stop-color="#FFBA78"/>
<stop offset="0.4" stop-color="#FEC986"/>
<stop offset="1" stop-color="#FEECA8"/>
</linearGradient>
<radialGradient id="paint30_radial_6282_179375" cx="0" cy="0" r="1" gradientUnits="userSpaceOnUse" gradientTransform="translate(7.18149 17.4728) rotate(-0.275857) scale(6.00872 6.15533)">
<stop stop-color="white"/>
<stop offset="1"/>
</radialGradient>
<linearGradient id="paint31_linear_6282_179375" x1="23.7315" y1="11.3346" x2="16.6057" y2="18.4035" gradientUnits="userSpaceOnUse">
<stop offset="0.04" stop-color="#FFBA78"/>
<stop offset="0.4" stop-color="#FEC986"/>
<stop offset="1" stop-color="#FEECA8"/>
</linearGradient>
<radialGradient id="paint32_radial_6282_179375" cx="0" cy="0" r="1" gradientUnits="userSpaceOnUse" gradientTransform="translate(21.582 12.9688) rotate(-0.275857) scale(2.64242 2.70689)">
<stop stop-color="white"/>
<stop offset="1"/>
</radialGradient>
<linearGradient id="paint33_linear_6282_179375" x1="25.0108" y1="9.76805" x2="18.2853" y2="16.44" gradientUnits="userSpaceOnUse">
<stop stop-color="#FFBB96"/>
<stop offset="0.23" stop-color="#FFFBC9"/>
<stop offset="0.54" stop-color="#F9B673"/>
<stop offset="0.64" stop-color="#F9B876"/>
<stop offset="0.72" stop-color="#FABE81"/>
<stop offset="0.81" stop-color="#FCC892"/>
<stop offset="0.86" stop-color="#FED2A3"/>
<stop offset="0.97" stop-color="#FFC28C"/>
</linearGradient>
<radialGradient id="paint34_radial_6282_179375" cx="0" cy="0" r="1" gradientUnits="userSpaceOnUse" gradientTransform="translate(24.8743 20.5869) rotate(-71.9054) scale(1.04033 2.04112)">
<stop stop-color="#F49587"/>
<stop offset="0.12" stop-color="#BC7368"/>
<stop offset="0.24" stop-color="#8B544C"/>
<stop offset="0.36" stop-color="#603A35"/>
<stop offset="0.48" stop-color="#3D2522"/>
<stop offset="0.61" stop-color="#221513"/>
<stop offset="0.74" stop-color="#0F0908"/>
<stop offset="0.86" stop-color="#030202"/>
<stop offset="1"/>
</radialGradient>
<radialGradient id="paint35_radial_6282_179375" cx="0" cy="0" r="1" gradientUnits="userSpaceOnUse" gradientTransform="translate(29.5635 16.3429) rotate(-71.9054) scale(1.04033 2.04112)">
<stop stop-color="#F49587"/>
<stop offset="0.12" stop-color="#BC7368"/>
<stop offset="0.24" stop-color="#8B544C"/>
<stop offset="0.36" stop-color="#603A35"/>
<stop offset="0.48" stop-color="#3D2522"/>
<stop offset="0.61" stop-color="#221513"/>
<stop offset="0.74" stop-color="#0F0908"/>
<stop offset="0.86" stop-color="#030202"/>
<stop offset="1"/>
</radialGradient>
<linearGradient id="paint36_linear_6282_179375" x1="7.02404" y1="9.61938" x2="7.2606" y2="9.61823" gradientUnits="userSpaceOnUse">
<stop stop-color="#FFBB96"/>
<stop offset="0.23" stop-color="#FFFBC9"/>
<stop offset="0.54" stop-color="#F9B673"/>
<stop offset="0.64" stop-color="#F9B876"/>
<stop offset="0.72" stop-color="#FABE81"/>
<stop offset="0.81" stop-color="#FCC892"/>
<stop offset="0.86" stop-color="#FED2A3"/>
<stop offset="0.97" stop-color="#FFC28C"/>
</linearGradient>
<linearGradient id="paint37_linear_6282_179375" x1="15.1474" y1="10.1377" x2="24.5601" y2="10.0919" gradientUnits="userSpaceOnUse">
<stop stop-color="#FFBB96"/>
<stop offset="0.23" stop-color="#FFFBC9"/>
<stop offset="0.54" stop-color="#F9B673"/>
<stop offset="0.64" stop-color="#F9B876"/>
<stop offset="0.72" stop-color="#FABE81"/>
<stop offset="0.81" stop-color="#FCC892"/>
<stop offset="0.86" stop-color="#FED2A3"/>
<stop offset="0.97" stop-color="#FFC28C"/>
</linearGradient>
<linearGradient id="paint38_linear_6282_179375" x1="28.6632" y1="-1.70982" x2="19.1285" y2="7.74535" gradientUnits="userSpaceOnUse">
<stop offset="0.04" stop-color="#FFBA78"/>
<stop offset="0.4" stop-color="#FEC986"/>
<stop offset="1" stop-color="#FEECA8"/>
</linearGradient>
<radialGradient id="paint39_radial_6282_179375" cx="0" cy="0" r="1" gradientUnits="userSpaceOnUse" gradientTransform="translate(7.14244 9.59947) rotate(-0.275857) scale(6.00872 6.15534)">
<stop stop-color="white"/>
<stop offset="1"/>
</radialGradient>
<linearGradient id="paint40_linear_6282_179375" x1="23.6944" y1="3.4589" x2="16.5686" y2="10.5302" gradientUnits="userSpaceOnUse">
<stop offset="0.04" stop-color="#FFBA78"/>
<stop offset="0.4" stop-color="#FEC986"/>
<stop offset="1" stop-color="#FEECA8"/>
</linearGradient>
<radialGradient id="paint41_radial_6282_179375" cx="0" cy="0" r="1" gradientUnits="userSpaceOnUse" gradientTransform="translate(21.5449 5.09526) rotate(-0.275857) scale(2.64242 2.70689)">
<stop stop-color="white"/>
<stop offset="1"/>
</radialGradient>
<linearGradient id="paint42_linear_6282_179375" x1="24.9737" y1="1.89209" x2="18.2482" y2="8.564" gradientUnits="userSpaceOnUse">
<stop stop-color="#FFBB96"/>
<stop offset="0.23" stop-color="#FFFBC9"/>
<stop offset="0.54" stop-color="#F9B673"/>
<stop offset="0.64" stop-color="#F9B876"/>
<stop offset="0.72" stop-color="#FABE81"/>
<stop offset="0.81" stop-color="#FCC892"/>
<stop offset="0.86" stop-color="#FED2A3"/>
<stop offset="0.97" stop-color="#FFC28C"/>
</linearGradient>
<radialGradient id="paint43_radial_6282_179375" cx="0" cy="0" r="1" gradientUnits="userSpaceOnUse" gradientTransform="translate(24.8584 12.72) rotate(-71.9054) scale(1.04033 2.04112)">
<stop stop-color="#F49587"/>
<stop offset="0.12" stop-color="#BC7368"/>
<stop offset="0.24" stop-color="#8B544C"/>
<stop offset="0.36" stop-color="#603A35"/>
<stop offset="0.48" stop-color="#3D2522"/>
<stop offset="0.61" stop-color="#221513"/>
<stop offset="0.74" stop-color="#0F0908"/>
<stop offset="0.86" stop-color="#030202"/>
<stop offset="1"/>
</radialGradient>
<radialGradient id="paint44_radial_6282_179375" cx="0" cy="0" r="1" gradientUnits="userSpaceOnUse" gradientTransform="translate(2739.23 2.7437) rotate(179.724) scale(3.56469 1.51637)">
<stop offset="0.19" stop-color="#785C5D"/>
<stop offset="1" stop-color="white"/>
</radialGradient>
<clipPath id="clip0_6282_179375">
<rect width="25.5773" height="31.3607" fill="white" transform="matrix(0.999988 -0.0048146 0.0048599 0.999988 7 4.64941)"/>
</clipPath>
</defs>
</svg>
