<svg width="56" height="57" viewBox="0 0 56 57" fill="none" xmlns="http://www.w3.org/2000/svg">
<path fill-rule="evenodd" clip-rule="evenodd" d="M23.7148 2.58203H25.5677V4.47347H23.7148V2.58203Z" fill="#282C40"/>
<path fill-rule="evenodd" clip-rule="evenodd" d="M25.4805 2.58203H27.3333V4.47347H25.4805V2.58203ZM29.0098 2.58203H30.8626V4.47347H29.0098V2.58203Z" fill="#282C40"/>
<path fill-rule="evenodd" clip-rule="evenodd" d="M30.7734 2.58203H32.6263V4.47347H30.7734V2.58203Z" fill="#282C40"/>
<path fill-rule="evenodd" clip-rule="evenodd" d="M32.5391 2.58203H34.3919V4.47347H32.5391V2.58203ZM36.0685 2.58203H37.9212V4.47347H36.0685V2.58203Z" fill="#282C40"/>
<path fill-rule="evenodd" clip-rule="evenodd" d="M37.8321 2.58203H39.6851V4.47347H37.832V2.58203H37.8321ZM16.6562 4.38341H18.5091V6.27485H16.6562V4.38341ZM20.1854 4.38341H22.0384V6.27485H20.1854V4.38341Z" fill="#282C40"/>
<path fill-rule="evenodd" clip-rule="evenodd" d="M21.9492 4.38281H23.8021V6.27425H21.9492V4.38281Z" fill="#282C40"/>
<path fill-rule="evenodd" clip-rule="evenodd" d="M23.7148 4.38281H25.5677V6.27425H23.7148V4.38281Z" fill="#282C40"/>
<path fill-rule="evenodd" clip-rule="evenodd" d="M25.4805 4.38281H27.3333V6.27425H25.4805V4.38281Z" fill="#282C40"/>
<path fill-rule="evenodd" clip-rule="evenodd" d="M27.2461 4.38281H29.099V6.27425H27.2462V4.38281H27.2461Z" fill="#282C40"/>
<path fill-rule="evenodd" clip-rule="evenodd" d="M29.0088 4.38281H30.8617V6.27425H29.0088V4.38281ZM37.8321 4.38281H39.6851V6.27425H37.832V4.38281H37.8321ZM16.6562 6.18419H18.5091V8.07575H16.6562V6.18419Z" fill="#282C40"/>
<path fill-rule="evenodd" clip-rule="evenodd" d="M18.4219 6.1875H20.2747V8.07905H18.4219V6.1875ZM23.7158 6.1875H25.5687V8.07905H23.7158V6.1875ZM29.0098 6.1875H30.8627V8.07905H29.0098V6.1875Z" fill="#282C40"/>
<path fill-rule="evenodd" clip-rule="evenodd" d="M30.7734 6.1875H32.6263V8.07905H30.7734V6.1875Z" fill="#282C40"/>
<path fill-rule="evenodd" clip-rule="evenodd" d="M32.5391 6.1875H34.3919V8.07905H32.5391V6.1875ZM36.0685 6.1875H37.9212V8.07905H36.0685V6.1875Z" fill="#282C40"/>
<path fill-rule="evenodd" clip-rule="evenodd" d="M37.8321 6.1875H39.6851V8.07905H37.832V6.1875H37.8321ZM16.6562 7.98888H18.5091V9.88032H16.6562V7.98888Z" fill="#282C40"/>
<path fill-rule="evenodd" clip-rule="evenodd" d="M18.4219 7.98633H20.2747V9.87777H18.4219V7.98633ZM23.7158 7.98633H25.5687V9.87777H23.7158V7.98633Z" fill="#282C40"/>
<path fill-rule="evenodd" clip-rule="evenodd" d="M25.4795 7.98633H27.3324V9.87777H25.4795V7.98633ZM32.5381 7.98633H34.391V9.87777H32.5381V7.98633ZM37.8321 7.98633H39.6851V9.87777H37.832V7.98633H37.8321ZM16.6562 9.78771H18.5091V11.6791H16.6562V9.78771Z" fill="#282C40"/>
<path fill-rule="evenodd" clip-rule="evenodd" d="M18.4219 9.78711H20.2747V11.6785H18.4219V9.78711ZM23.7158 9.78711H25.5687V11.6785H23.7158V9.78711ZM27.2451 9.78711H29.098V11.6785H27.2452V9.78711H27.2451ZM30.7744 9.78711H32.6273V11.6785H30.7744V9.78711ZM34.3037 9.78711H36.1566V11.6785H34.3037V9.78711ZM37.833 9.78711H39.686V11.6785H37.8329V9.78711H37.833Z" fill="#282C40"/>
<path fill-rule="evenodd" clip-rule="evenodd" d="M16.6562 11.5898H18.5091V13.4814H16.6562V11.5898Z" fill="#282C40"/>
<path fill-rule="evenodd" clip-rule="evenodd" d="M18.4219 11.5898H20.2747V13.4814H18.4219V11.5898ZM21.9512 11.5898H23.8041V13.4814H21.9512V11.5898Z" fill="#282C40"/>
<path fill-rule="evenodd" clip-rule="evenodd" d="M23.7148 11.5898H25.5677V13.4814H23.7148V11.5898ZM30.7735 11.5898H32.6263V13.4814H30.7735V11.5898Z" fill="#282C40"/>
<path fill-rule="evenodd" clip-rule="evenodd" d="M32.5391 11.5898H34.3919V13.4814H32.5391V11.5898Z" fill="#282C40"/>
<path fill-rule="evenodd" clip-rule="evenodd" d="M34.3028 11.5898H36.1556V13.4814H34.3028V11.5898ZM16.6562 13.3912H18.5091V15.2828H16.6562V13.3912ZM20.1854 13.3912H22.0384V15.2828H20.1854V13.3912ZM23.7149 13.3912H25.5677V15.2828H23.7149V13.3912ZM27.2442 13.3912H29.097V15.2828H27.2443V13.3912H27.2442ZM30.7735 13.3912H32.6263V15.2828H30.7735V13.3912Z" fill="#282C40"/>
<path fill-rule="evenodd" clip-rule="evenodd" d="M34.3037 13.3906H36.1566V15.2822H34.3037V13.3906ZM37.833 13.3906H39.686V15.2822H37.8329V13.3906H37.833ZM18.4219 15.192H20.2747V17.0836H18.4219V15.192ZM21.9512 15.192H23.8041V17.0836H21.9512V15.192Z" fill="#282C40"/>
<path fill-rule="evenodd" clip-rule="evenodd" d="M23.7148 15.1914H25.5677V17.083H23.7148V15.1914Z" fill="#282C40"/>
<path fill-rule="evenodd" clip-rule="evenodd" d="M25.4805 15.1914H27.3333V17.083H25.4805V15.1914Z" fill="#282C40"/>
<path fill-rule="evenodd" clip-rule="evenodd" d="M27.2461 15.1914H29.099V17.083H27.2462V15.1914H27.2461Z" fill="#282C40"/>
<path fill-rule="evenodd" clip-rule="evenodd" d="M29.0117 15.1914H30.8646V17.083H29.0117V15.1914Z" fill="#282C40"/>
<path fill-rule="evenodd" clip-rule="evenodd" d="M30.7734 15.1914H32.6263V17.083H30.7734V15.1914Z" fill="#282C40"/>
<path fill-rule="evenodd" clip-rule="evenodd" d="M32.5402 15.1914H34.3931V17.083H32.5402V15.1914ZM36.0696 15.1914H37.9224V17.083H36.0696V15.1914ZM6.07031 16.9929H7.9233V18.8843H6.07031V16.9929ZM11.3643 16.9929H13.2173V18.8843H11.3643V16.9929Z" fill="#282C40"/>
<path fill-rule="evenodd" clip-rule="evenodd" d="M13.1289 16.9941H14.9819V18.8856H13.1289V16.9941Z" fill="#282C40"/>
<path fill-rule="evenodd" clip-rule="evenodd" d="M14.8906 16.9941H16.7436V18.8856H14.8906V16.9941Z" fill="#282C40"/>
<path fill-rule="evenodd" clip-rule="evenodd" d="M16.6562 16.9941H18.5091V18.8856H16.6562V16.9941Z" fill="#282C40"/>
<path fill-rule="evenodd" clip-rule="evenodd" d="M18.4219 16.9941H20.2747V18.8856H18.4219V16.9941ZM21.9512 16.9941H23.8041V18.8856H21.9512V16.9941Z" fill="#282C40"/>
<path fill-rule="evenodd" clip-rule="evenodd" d="M23.7148 16.9941H25.5677V18.8856H23.7148V16.9941Z" fill="#282C40"/>
<path fill-rule="evenodd" clip-rule="evenodd" d="M25.4805 16.9941H27.3333V18.8856H25.4805V16.9941Z" fill="#282C40"/>
<path fill-rule="evenodd" clip-rule="evenodd" d="M27.2461 16.9941H29.099V18.8856H27.2462V16.9941H27.2461ZM32.54 16.9941H34.3929V18.8856H32.54V16.9941ZM36.0695 16.9941H37.9222V18.8856H36.0695V16.9941Z" fill="#282C40"/>
<path fill-rule="evenodd" clip-rule="evenodd" d="M37.8321 16.9941H39.6851V18.8856H37.832V16.9941H37.8321Z" fill="#282C40"/>
<path fill-rule="evenodd" clip-rule="evenodd" d="M39.5977 16.9941H41.4506V18.8856H39.5977V16.9941ZM43.1271 16.9941H44.9799V18.8856H43.1271V16.9941Z" fill="#282C40"/>
<path fill-rule="evenodd" clip-rule="evenodd" d="M44.8906 16.9941H46.7435V18.8856H44.8906V16.9941Z" fill="#282C40"/>
<path fill-rule="evenodd" clip-rule="evenodd" d="M46.6562 16.9941H48.5091V18.8856H46.6562V16.9941Z" fill="#282C40"/>
<path fill-rule="evenodd" clip-rule="evenodd" d="M48.4219 16.9941H50.2747V18.8856H48.4219V16.9941Z" fill="#282C40"/>
<path fill-rule="evenodd" clip-rule="evenodd" d="M50.1849 16.9941H52.0378V18.8856H50.1849V16.9941ZM2.53906 18.7955H4.39194V20.687H2.53906V18.7955Z" fill="#282C40"/>
<path fill-rule="evenodd" clip-rule="evenodd" d="M4.30469 18.793H6.15756V20.6844H4.30469V18.793Z" fill="#282C40"/>
<path fill-rule="evenodd" clip-rule="evenodd" d="M6.07031 18.793H7.9233V20.6844H6.07031V18.793ZM16.6583 18.793H18.5112V20.6844H16.6583V18.793ZM23.7169 18.793H25.5698V20.6844H23.7169V18.793Z" fill="#282C40"/>
<path fill-rule="evenodd" clip-rule="evenodd" d="M25.4805 18.793H27.3333V20.6844H25.4805V18.793ZM32.5391 18.793H34.3919V20.6844H32.5391V18.793ZM37.833 18.793H39.686V20.6844H37.8329V18.793H37.833Z" fill="#282C40"/>
<path fill-rule="evenodd" clip-rule="evenodd" d="M39.5977 18.793H41.4506V20.6844H39.5977V18.793Z" fill="#282C40"/>
<path fill-rule="evenodd" clip-rule="evenodd" d="M41.3594 18.793H43.2122V20.6844H41.3594V18.793ZM46.6533 18.793H48.5062V20.6844H46.6533V18.793ZM50.1826 18.793H52.0355V20.6844H50.1826V18.793Z" fill="#282C40"/>
<path fill-rule="evenodd" clip-rule="evenodd" d="M51.9495 18.793H53.8024V20.6844H51.9495V18.793ZM2.53906 20.5942H4.39194V22.4858H2.53906V20.5942ZM6.06837 20.5942H7.92135V22.4858H6.06837V20.5942Z" fill="#282C40"/>
<path fill-rule="evenodd" clip-rule="evenodd" d="M7.83594 20.5957H9.68881V22.4873H7.83594V20.5957ZM11.3652 20.5957H13.2182V22.4873H11.3652V20.5957Z" fill="#282C40"/>
<path fill-rule="evenodd" clip-rule="evenodd" d="M13.1289 20.5957H14.9819V22.4873H13.1289V20.5957ZM21.9523 20.5957H23.8052V22.4873H21.9523V20.5957Z" fill="#282C40"/>
<path fill-rule="evenodd" clip-rule="evenodd" d="M23.7148 20.5957H25.5677V22.4873H23.7148V20.5957Z" fill="#282C40"/>
<path fill-rule="evenodd" clip-rule="evenodd" d="M25.4805 20.5957H27.3333V22.4873H25.4805V20.5957ZM30.7744 20.5957H32.6273V22.4873H30.7744V20.5957Z" fill="#282C40"/>
<path fill-rule="evenodd" clip-rule="evenodd" d="M32.5391 20.5957H34.3919V22.4873H32.5391V20.5957ZM37.833 20.5957H39.686V22.4873H37.8329V20.5957H37.833Z" fill="#282C40"/>
<path fill-rule="evenodd" clip-rule="evenodd" d="M39.5969 20.5957H41.4499V22.4873H39.5969V20.5957ZM48.4202 20.5957H50.2731V22.4873H48.4202V20.5957ZM51.9495 20.5957H53.8024V22.4873H51.9495V20.5957ZM2.53906 22.3972H4.39194V24.2886H2.53906V22.3972ZM6.06837 22.3972H7.92135V24.2886H6.06837V22.3972Z" fill="#282C40"/>
<path fill-rule="evenodd" clip-rule="evenodd" d="M7.83594 22.3984H9.68881V24.2899H7.83594V22.3984ZM20.1885 22.3984H22.0415V24.2899H20.1885V22.3984ZM25.4826 22.3984H27.3354V24.2899H25.4826V22.3984ZM29.0119 22.3984H30.8647V24.2899H29.0119V22.3984ZM32.5412 22.3984H34.394V24.2899H32.5412V22.3984ZM36.0706 22.3984H37.9234V24.2899H36.0706V22.3984Z" fill="#282C40"/>
<path fill-rule="evenodd" clip-rule="evenodd" d="M37.8321 22.3984H39.6851V24.2899H37.832V22.3984H37.8321ZM41.3616 22.3984H43.2144V24.2899H41.3616V22.3984Z" fill="#282C40"/>
<path fill-rule="evenodd" clip-rule="evenodd" d="M43.1263 22.3984H44.9792V24.2899H43.1263V22.3984ZM2.53906 24.1998H4.39194V26.0913H2.53906V24.1998ZM7.83302 24.1998H9.68589V26.0913H7.83302V24.1998Z" fill="#282C40"/>
<path fill-rule="evenodd" clip-rule="evenodd" d="M9.59766 24.1973H11.4505V26.0887H9.59766V24.1973Z" fill="#282C40"/>
<path fill-rule="evenodd" clip-rule="evenodd" d="M11.3633 24.1973H13.2163V26.0887H11.3633V24.1973Z" fill="#282C40"/>
<path fill-rule="evenodd" clip-rule="evenodd" d="M13.1289 24.1973H14.9819V26.0887H13.1289V24.1973Z" fill="#282C40"/>
<path fill-rule="evenodd" clip-rule="evenodd" d="M14.8906 24.1973H16.7436V26.0887H14.8906V24.1973Z" fill="#282C40"/>
<path fill-rule="evenodd" clip-rule="evenodd" d="M16.6562 24.1973H18.5091V26.0887H16.6562V24.1973ZM25.4795 24.1973H27.3324V26.0887H25.4795V24.1973ZM29.0088 24.1973H30.8617V26.0887H29.0088V24.1973Z" fill="#282C40"/>
<path fill-rule="evenodd" clip-rule="evenodd" d="M30.7734 24.1973H32.6263V26.0887H30.7734V24.1973ZM34.3027 24.1973H36.1556V26.0887H34.3027V24.1973ZM39.5967 24.1973H41.4497V26.0887H39.5967V24.1973Z" fill="#282C40"/>
<path fill-rule="evenodd" clip-rule="evenodd" d="M41.3616 24.1973H43.2145V26.0887H41.3616V24.1973ZM46.6556 24.1973H48.5085V26.0887H46.6556V24.1973ZM50.1849 24.1973H52.0378V26.0887H50.1849V24.1973ZM2.53906 25.9986H4.39194V27.8901H2.53906V25.9986ZM6.06837 25.9986H7.92135V27.8901H6.06837V25.9986ZM14.8916 25.9986H16.7446V27.8901H14.8916V25.9986Z" fill="#282C40"/>
<path fill-rule="evenodd" clip-rule="evenodd" d="M16.6562 26H18.5091V27.8914H16.6562V26Z" fill="#282C40"/>
<path fill-rule="evenodd" clip-rule="evenodd" d="M18.4219 26H20.2747V27.8914H18.4219V26ZM21.9512 26H23.8041V27.8914H21.9512V26ZM27.2451 26H29.098V27.8914H27.2452V26H27.2451Z" fill="#282C40"/>
<path fill-rule="evenodd" clip-rule="evenodd" d="M29.0117 26H30.8646V27.8914H29.0117V26ZM36.0704 26H37.9232V27.8914H36.0704V26Z" fill="#282C40"/>
<path fill-rule="evenodd" clip-rule="evenodd" d="M37.8342 26H39.6872V27.8914H37.8341V26H37.8342ZM41.3636 26H43.2165V27.8914H41.3636V26ZM46.6575 26H48.5104V27.8914H46.6575V26ZM51.9515 26H53.8044V27.8914H51.9515V26ZM6.07031 27.8014H7.9233V29.6928H6.07031V27.8015V27.8014Z" fill="#282C40"/>
<path fill-rule="evenodd" clip-rule="evenodd" d="M7.83594 27.8027H9.68881V29.6942H7.83594V27.8028V27.8027Z" fill="#282C40"/>
<path fill-rule="evenodd" clip-rule="evenodd" d="M9.59766 27.8027H11.4505V29.6942H9.59766V27.8028V27.8027ZM13.127 27.8027H14.9799V29.6942H13.127V27.8028V27.8027ZM16.6564 27.8027H18.5092V29.6942H16.6564V27.8028V27.8027Z" fill="#282C40"/>
<path fill-rule="evenodd" clip-rule="evenodd" d="M18.4219 27.8027H20.2747V29.6942H18.4219V27.8028V27.8027Z" fill="#282C40"/>
<path fill-rule="evenodd" clip-rule="evenodd" d="M20.1836 27.8027H22.0366V29.6942H20.1836V27.8028V27.8027ZM25.4777 27.8027H27.3305V29.6942H25.4777V27.8028V27.8027ZM30.7716 27.8027H32.6245V29.6942H30.7716V27.8028V27.8027ZM34.3009 27.8027H36.1538V29.6942H34.3009V27.8028V27.8027Z" fill="#282C40"/>
<path fill-rule="evenodd" clip-rule="evenodd" d="M36.0703 27.8027H37.9231V29.6942H36.0703V27.8028V27.8027ZM41.3643 27.8027H43.2171V29.6942H41.3643V27.8028V27.8027ZM46.6582 27.8027H48.5111V29.6942H46.6582V27.8028V27.8027Z" fill="#282C40"/>
<path fill-rule="evenodd" clip-rule="evenodd" d="M48.4202 27.8027H50.2731V29.6942H48.4202V27.8028V27.8027ZM51.9495 27.8027H53.8024V29.6942H51.9495V27.8028V27.8027ZM9.59766 29.6041H11.4505V31.4956H9.59766V29.6041ZM14.8916 29.6041H16.7446V31.4956H14.8916V29.6041ZM20.1856 29.6041H22.0386V31.4956H20.1856V29.6041Z" fill="#282C40"/>
<path fill-rule="evenodd" clip-rule="evenodd" d="M21.9492 29.6035H23.8021V31.495H21.9492V29.6035Z" fill="#282C40"/>
<path fill-rule="evenodd" clip-rule="evenodd" d="M23.7148 29.6035H25.5677V31.495H23.7148V29.6035Z" fill="#282C40"/>
<path fill-rule="evenodd" clip-rule="evenodd" d="M25.4805 29.6035H27.3333V31.495H25.4805V29.6035Z" fill="#282C40"/>
<path fill-rule="evenodd" clip-rule="evenodd" d="M27.2461 29.6035H29.099V31.495H27.2462V29.6035H27.2461Z" fill="#282C40"/>
<path fill-rule="evenodd" clip-rule="evenodd" d="M29.009 29.6035H30.8618V31.495H29.009V29.6035ZM39.5969 29.6035H41.4499V31.495H39.5969V29.6035ZM46.6556 29.6035H48.5085V31.495H46.6556V29.6035ZM51.9495 29.6035H53.8024V31.495H51.9495V29.6035ZM2.53906 31.4049H4.39194V33.2963H2.53906V31.4049ZM6.06837 31.4049H7.92135V33.2963H6.06837V31.4049Z" fill="#282C40"/>
<path fill-rule="evenodd" clip-rule="evenodd" d="M7.83594 31.4043H9.68881V33.2957H7.83594V31.4043Z" fill="#282C40"/>
<path fill-rule="evenodd" clip-rule="evenodd" d="M9.59766 31.4043H11.4505V33.2957H9.59766V31.4043ZM13.127 31.4043H14.9799V33.2957H13.127V31.4043Z" fill="#282C40"/>
<path fill-rule="evenodd" clip-rule="evenodd" d="M14.8906 31.4043H16.7436V33.2957H14.8906V31.4043Z" fill="#282C40"/>
<path fill-rule="evenodd" clip-rule="evenodd" d="M16.6562 31.4043H18.5091V33.2957H16.6562V31.4043ZM23.7149 31.4043H25.5677V33.2957H23.7149V31.4043Z" fill="#282C40"/>
<path fill-rule="evenodd" clip-rule="evenodd" d="M25.4805 31.4043H27.3333V33.2957H25.4805V31.4043ZM34.3037 31.4043H36.1566V33.2957H34.3037V31.4043Z" fill="#282C40"/>
<path fill-rule="evenodd" clip-rule="evenodd" d="M36.0703 31.4043H37.9231V33.2957H36.0703V31.4043ZM39.5995 31.4043H41.4525V33.2957H39.5995V31.4043Z" fill="#282C40"/>
<path fill-rule="evenodd" clip-rule="evenodd" d="M41.3594 31.4043H43.2122V33.2957H41.3594V31.4043Z" fill="#282C40"/>
<path fill-rule="evenodd" clip-rule="evenodd" d="M43.125 31.4043H44.9779V33.2957H43.125V31.4043Z" fill="#282C40"/>
<path fill-rule="evenodd" clip-rule="evenodd" d="M44.8906 31.4043H46.7435V33.2957H44.8906V31.4043ZM50.1846 31.4043H52.0375V33.2957H50.1846V31.4043Z" fill="#282C40"/>
<path fill-rule="evenodd" clip-rule="evenodd" d="M51.9515 31.4043H53.8044V33.2957H51.9515V31.4043ZM6.07031 33.2057H7.9233V35.0971H6.07031V33.2057Z" fill="#282C40"/>
<path fill-rule="evenodd" clip-rule="evenodd" d="M7.83594 33.2051H9.68881V35.0965H7.83594V33.2051ZM14.8945 33.2051H16.7475V35.0965H14.8945V33.2051Z" fill="#282C40"/>
<path fill-rule="evenodd" clip-rule="evenodd" d="M16.6562 33.2051H18.5091V35.0965H16.6562V33.2051ZM20.1854 33.2051H22.0384V35.0965H20.1854V33.2051Z" fill="#282C40"/>
<path fill-rule="evenodd" clip-rule="evenodd" d="M21.9492 33.2051H23.8021V35.0965H21.9492V33.2051ZM25.4785 33.2051H27.3314V35.0965H25.4785V33.2051ZM29.0078 33.2051H30.8607V35.0965H29.0078V33.2051ZM43.1252 33.2051H44.978V35.0965H43.1252V33.2051ZM46.6545 33.2051H48.5073V35.0965H46.6545V33.2051Z" fill="#282C40"/>
<path fill-rule="evenodd" clip-rule="evenodd" d="M48.4202 33.2051H50.2731V35.0965H48.4202V33.2051ZM51.9495 33.2051H53.8024V35.0965H51.9495V33.2051ZM2.53906 35.0065H4.39194V36.8979H2.53906V35.0065Z" fill="#282C40"/>
<path fill-rule="evenodd" clip-rule="evenodd" d="M4.30469 35.0078H6.15756V36.8993H4.30469V35.0078ZM7.83399 35.0078H9.68687V36.8993H7.83399V35.0078ZM13.1279 35.0078H14.9809V36.8993H13.1279V35.0078ZM16.6574 35.0078H18.5102V36.8993H16.6574V35.0078ZM29.0099 35.0078H30.8628V36.8993H29.0099V35.0078Z" fill="#282C40"/>
<path fill-rule="evenodd" clip-rule="evenodd" d="M30.7734 35.0078H32.6263V36.8993H30.7734V35.0078Z" fill="#282C40"/>
<path fill-rule="evenodd" clip-rule="evenodd" d="M32.5391 35.0078H34.3919V36.8993H32.5391V35.0078ZM36.0685 35.0078H37.9212V36.8993H36.0685V35.0078ZM43.1271 35.0078H44.98V36.8993H43.1271V35.0078Z" fill="#282C40"/>
<path fill-rule="evenodd" clip-rule="evenodd" d="M44.8929 35.0078H46.7458V36.8993H44.8929V35.0078ZM51.9515 35.0078H53.8044V36.8993H51.9515V35.0078ZM6.07031 36.8093H7.9233V38.7006H6.07031V36.8093Z" fill="#282C40"/>
<path fill-rule="evenodd" clip-rule="evenodd" d="M7.83594 36.8105H9.68881V38.7019H7.83594V36.8105ZM21.9533 36.8105H23.8061V38.7019H21.9533V36.8105ZM25.4826 36.8105H27.3354V38.7019H25.4826V36.8105Z" fill="#282C40"/>
<path fill-rule="evenodd" clip-rule="evenodd" d="M27.2461 36.8105H29.099V38.7019H27.2462V36.8105H27.2461Z" fill="#282C40"/>
<path fill-rule="evenodd" clip-rule="evenodd" d="M29.0117 36.8105H30.8646V38.7019H29.0117V36.8105ZM32.541 36.8105H34.3939V38.7019H32.541V36.8105Z" fill="#282C40"/>
<path fill-rule="evenodd" clip-rule="evenodd" d="M34.3047 36.8105H36.1576V38.7019H34.3047V36.8105ZM39.5986 36.8105H41.4516V38.7019H39.5986V36.8105Z" fill="#282C40"/>
<path fill-rule="evenodd" clip-rule="evenodd" d="M41.3594 36.8105H43.2122V38.7019H41.3594V36.8105ZM44.8887 36.8105H46.7416V38.7019H44.8887V36.8105Z" fill="#282C40"/>
<path fill-rule="evenodd" clip-rule="evenodd" d="M46.6562 36.8105H48.5091V38.7019H46.6562V36.8105ZM50.1856 36.8105H52.0384V38.7019H50.1856V36.8105Z" fill="#282C40"/>
<path fill-rule="evenodd" clip-rule="evenodd" d="M51.9495 36.8105H53.8024V38.7019H51.9495V36.8105ZM2.53906 38.6118H4.39194V40.5034H2.53906V38.6117V38.6118Z" fill="#282C40"/>
<path fill-rule="evenodd" clip-rule="evenodd" d="M4.30469 38.6095H6.15756V40.501H4.30469V38.6094V38.6095Z" fill="#282C40"/>
<path fill-rule="evenodd" clip-rule="evenodd" d="M6.07031 38.6095H7.9233V40.501H6.07031V38.6094V38.6095ZM11.3643 38.6095H13.2173V40.501H11.3643V38.6094V38.6095Z" fill="#282C40"/>
<path fill-rule="evenodd" clip-rule="evenodd" d="M13.1289 38.6095H14.9819V40.501H13.1289V38.6094V38.6095Z" fill="#282C40"/>
<path fill-rule="evenodd" clip-rule="evenodd" d="M14.8906 38.6095H16.7436V40.501H14.8906V38.6094V38.6095Z" fill="#282C40"/>
<path fill-rule="evenodd" clip-rule="evenodd" d="M16.6562 38.6095H18.5091V40.501H16.6562V38.6094V38.6095Z" fill="#282C40"/>
<path fill-rule="evenodd" clip-rule="evenodd" d="M18.4219 38.6095H20.2747V40.501H18.4219V38.6094V38.6095ZM23.7158 38.6095H25.5687V40.501H23.7158V38.6094V38.6095Z" fill="#282C40"/>
<path fill-rule="evenodd" clip-rule="evenodd" d="M25.4805 38.6095H27.3333V40.501H25.4805V38.6094V38.6095ZM36.0685 38.6095H37.9213V40.501H36.0685V38.6094V38.6095Z" fill="#282C40"/>
<path fill-rule="evenodd" clip-rule="evenodd" d="M37.8321 38.6095H39.6851V40.501H37.832V38.6094L37.8321 38.6095Z" fill="#282C40"/>
<path fill-rule="evenodd" clip-rule="evenodd" d="M39.5977 38.6095H41.4506V40.501H39.5977V38.6094V38.6095Z" fill="#282C40"/>
<path fill-rule="evenodd" clip-rule="evenodd" d="M41.3594 38.6095H43.2122V40.501H41.3594V38.6094V38.6095Z" fill="#282C40"/>
<path fill-rule="evenodd" clip-rule="evenodd" d="M43.125 38.6095H44.9779V40.501H43.125V38.6094V38.6095Z" fill="#282C40"/>
<path fill-rule="evenodd" clip-rule="evenodd" d="M44.8906 38.6095H46.7435V40.501H44.8906V38.6094V38.6095Z" fill="#282C40"/>
<path fill-rule="evenodd" clip-rule="evenodd" d="M46.6562 38.6095H48.5091V40.501H46.6562V38.6094V38.6095Z" fill="#282C40"/>
<path fill-rule="evenodd" clip-rule="evenodd" d="M48.4219 38.6095H50.2747V40.501H48.4219V38.6094V38.6095Z" fill="#282C40"/>
<path fill-rule="evenodd" clip-rule="evenodd" d="M50.1875 38.6095H52.0404V40.501H50.1875V38.6094V38.6095Z" fill="#282C40"/>
<path fill-rule="evenodd" clip-rule="evenodd" d="M51.9494 38.6095H53.8023V40.501H51.9494V38.6094V38.6095ZM16.6562 40.4109H18.5091V42.3024H16.6562V40.4109Z" fill="#282C40"/>
<path fill-rule="evenodd" clip-rule="evenodd" d="M18.4219 40.4102H20.2747V42.3017H18.4219V40.4102Z" fill="#282C40"/>
<path fill-rule="evenodd" clip-rule="evenodd" d="M20.1836 40.4102H22.0366V42.3017H20.1836V40.4102Z" fill="#282C40"/>
<path fill-rule="evenodd" clip-rule="evenodd" d="M21.9492 40.4102H23.8021V42.3017H21.9492V40.4102ZM27.2432 40.4102H29.096V42.3017H27.2433V40.4102H27.2432ZM36.0665 40.4102H37.9193V42.3017H36.0665V40.4102Z" fill="#282C40"/>
<path fill-rule="evenodd" clip-rule="evenodd" d="M37.8321 40.4102H39.6851V42.3017H37.832V40.4102H37.8321ZM44.8909 40.4102H46.7437V42.3017H44.8909V40.4102Z" fill="#282C40"/>
<path fill-rule="evenodd" clip-rule="evenodd" d="M46.6554 40.4102H48.5083V42.3017H46.6554V40.4102ZM51.9494 40.4102H53.8023V42.3017H51.9494V40.4102ZM16.6562 42.2117H18.5091V44.1031H16.6562V42.2117ZM21.9502 42.2117H23.8031V44.1031H21.9502V42.2117ZM25.4795 42.2117H27.3324V44.1031H25.4795V42.2117Z" fill="#282C40"/>
<path fill-rule="evenodd" clip-rule="evenodd" d="M27.2461 42.2148H29.099V44.1063H27.2462V42.2148H27.2461ZM30.7754 42.2148H32.6283V44.1063H30.7754V42.2148Z" fill="#282C40"/>
<path fill-rule="evenodd" clip-rule="evenodd" d="M32.5391 42.2148H34.3919V44.1063H32.5391V42.2148Z" fill="#282C40"/>
<path fill-rule="evenodd" clip-rule="evenodd" d="M34.3047 42.2148H36.1576V44.1063H34.3047V42.2148ZM37.834 42.2148H39.687V44.1063H37.8339V42.2148H37.834ZM41.3634 42.2148H43.2163V44.1063H41.3634V42.2148ZM44.8927 42.2148H46.7456V44.1063H44.8927V42.2148Z" fill="#282C40"/>
<path fill-rule="evenodd" clip-rule="evenodd" d="M46.6562 42.2148H48.5091V44.1063H46.6562V42.2148Z" fill="#282C40"/>
<path fill-rule="evenodd" clip-rule="evenodd" d="M48.4201 42.2148H50.273V44.1063H48.4201V42.2148ZM51.9494 42.2148H53.8023V44.1063H51.9494V42.2148ZM16.6562 44.0162H18.5091V45.9077H16.6562V44.0162ZM20.1854 44.0162H22.0384V45.9077H20.1854V44.0162ZM25.4795 44.0162H27.3324V45.9077H25.4795V44.0162Z" fill="#282C40"/>
<path fill-rule="evenodd" clip-rule="evenodd" d="M27.2461 44.0137H29.099V45.9051H27.2462V44.0137H27.2461Z" fill="#282C40"/>
<path fill-rule="evenodd" clip-rule="evenodd" d="M29.0117 44.0137H30.8646V45.9051H29.0117V44.0137Z" fill="#282C40"/>
<path fill-rule="evenodd" clip-rule="evenodd" d="M30.7734 44.0137H32.6263V45.9051H30.7734V44.0137Z" fill="#282C40"/>
<path fill-rule="evenodd" clip-rule="evenodd" d="M32.5391 44.0137H34.3919V45.9051H32.5391V44.0137ZM36.0685 44.0137H37.9212V45.9051H36.0685V44.0137Z" fill="#282C40"/>
<path fill-rule="evenodd" clip-rule="evenodd" d="M37.8321 44.0137H39.6851V45.9051H37.832V44.0137H37.8321ZM44.8909 44.0137H46.7437V45.9051H44.8909V44.0137Z" fill="#282C40"/>
<path fill-rule="evenodd" clip-rule="evenodd" d="M46.6582 44.0137H48.5111V45.9051H46.6582V44.0137ZM51.9522 44.0137H53.8051V45.9051H51.9522V44.0137ZM36.0703 45.8151H37.9231V47.7065H36.0703V45.8151Z" fill="#282C40"/>
<path fill-rule="evenodd" clip-rule="evenodd" d="M37.8321 45.8145H39.6851V47.7059H37.832V45.8145H37.8321Z" fill="#282C40"/>
<path fill-rule="evenodd" clip-rule="evenodd" d="M39.5977 45.8145H41.4506V47.7059H39.5977V45.8145Z" fill="#282C40"/>
<path fill-rule="evenodd" clip-rule="evenodd" d="M41.3594 45.8145H43.2122V47.7059H41.3594V45.8145Z" fill="#282C40"/>
<path fill-rule="evenodd" clip-rule="evenodd" d="M43.125 45.8145H44.9779V47.7059H43.125V45.8145Z" fill="#282C40"/>
<path fill-rule="evenodd" clip-rule="evenodd" d="M44.8918 45.8145H46.7446V47.7059H44.8918V45.8145ZM18.4219 47.6158H20.2747V49.5073H18.4219V47.6158Z" fill="#282C40"/>
<path fill-rule="evenodd" clip-rule="evenodd" d="M20.1836 47.6172H22.0366V49.5086H20.1836V47.6172ZM25.4777 47.6172H27.3305V49.5086H25.4777V47.6172ZM30.7716 47.6172H32.6245V49.5086H30.7716V47.6172ZM34.3009 47.6172H36.1538V49.5086H34.3009V47.6172Z" fill="#282C40"/>
<path fill-rule="evenodd" clip-rule="evenodd" d="M36.0703 47.6172H37.9231V49.5086H36.0703V47.6172Z" fill="#282C40"/>
<path fill-rule="evenodd" clip-rule="evenodd" d="M37.8321 47.6172H39.6851V49.5086H37.832V47.6172H37.8321ZM43.1262 47.6172H44.9791V49.5086H43.1262V47.6172Z" fill="#282C40"/>
<path fill-rule="evenodd" clip-rule="evenodd" d="M44.8906 47.6172H46.7435V49.5086H44.8906V47.6172Z" fill="#282C40"/>
<path fill-rule="evenodd" clip-rule="evenodd" d="M46.6554 47.6172H48.5083V49.5086H46.6554V47.6172ZM50.1847 47.6172H52.0376V49.5086H50.1847V47.6172ZM16.6562 49.4186H18.5091V51.31H16.6562V49.4186ZM21.9502 49.4186H23.8031V51.31H21.9502V49.4186Z" fill="#282C40"/>
<path fill-rule="evenodd" clip-rule="evenodd" d="M23.7148 49.418H25.5677V51.3094H23.7148V49.418Z" fill="#282C40"/>
<path fill-rule="evenodd" clip-rule="evenodd" d="M25.4805 49.418H27.3333V51.3094H25.4805V49.418Z" fill="#282C40"/>
<path fill-rule="evenodd" clip-rule="evenodd" d="M27.2461 49.418H29.099V51.3094H27.2462V49.418H27.2461Z" fill="#282C40"/>
<path fill-rule="evenodd" clip-rule="evenodd" d="M29.0117 49.418H30.8646V51.3094H29.0117V49.418Z" fill="#282C40"/>
<path fill-rule="evenodd" clip-rule="evenodd" d="M30.7734 49.418H32.6263V51.3094H30.7734V49.418ZM34.3027 49.418H36.1556V51.3094H34.3027V49.418ZM39.5967 49.418H41.4497V51.3094H39.5967V49.418ZM44.8908 49.418H46.7436V51.3094H44.8908V49.418Z" fill="#282C40"/>
<path fill-rule="evenodd" clip-rule="evenodd" d="M46.6562 49.418H48.5091V51.3094H46.6562V49.418ZM50.1856 49.418H52.0384V51.3094H50.1856V49.418Z" fill="#282C40"/>
<path fill-rule="evenodd" clip-rule="evenodd" d="M51.9504 49.418H53.8032V51.3094H51.9504V49.418ZM18.4219 51.2194H20.2747V53.1108H18.4219V51.2194ZM21.9512 51.2194H23.8041V53.1108H21.9512V51.2194ZM25.4805 51.2194H27.3334V53.1108H25.4805V51.2194ZM29.0098 51.2194H30.8627V53.1108H29.0098V51.2194Z" fill="#282C40"/>
<path fill-rule="evenodd" clip-rule="evenodd" d="M30.7734 51.2188H32.6263V53.1102H30.7734V51.2188Z" fill="#282C40"/>
<path fill-rule="evenodd" clip-rule="evenodd" d="M32.5391 51.2188H34.3919V53.1102H32.5391V51.2188Z" fill="#282C40"/>
<path fill-rule="evenodd" clip-rule="evenodd" d="M34.3047 51.2188H36.1576V53.1102H34.3047V51.2188ZM39.5986 51.2188H41.4516V53.1102H39.5986V51.2188Z" fill="#282C40"/>
<path fill-rule="evenodd" clip-rule="evenodd" d="M41.3605 51.2188H43.2134V53.1102H41.3605V51.2188ZM21.9492 53.0201H23.8021V54.9116H21.9492V53.0201ZM27.2432 53.0201H29.096V54.9116H27.2433V53.0201H27.2432Z" fill="#282C40"/>
<path fill-rule="evenodd" clip-rule="evenodd" d="M29.0117 53.0234H30.8646V54.9149H29.0117V53.0234Z" fill="#282C40"/>
<path fill-rule="evenodd" clip-rule="evenodd" d="M30.7734 53.0234H32.6263V54.9149H30.7734V53.0234ZM39.5967 53.0234H41.4497V54.9149H39.5967V53.0234ZM43.1261 53.0234H44.979V54.9149H43.1261V53.0234Z" fill="#282C40"/>
<path fill-rule="evenodd" clip-rule="evenodd" d="M44.8906 53.0234H46.7435V54.9149H44.8906V53.0234ZM51.9492 53.0234H53.8021V54.9149H51.9492V53.0234Z" fill="#282C40"/>
<path fill-rule="evenodd" clip-rule="evenodd" d="M2.53906 3.71769V15.1917H13.7791C14.0742 15.1917 14.3571 15.0721 14.5658 14.8591C14.7744 14.6461 14.8916 14.3572 14.8916 14.056V2.58203H3.65157C3.35651 2.58203 3.07354 2.70168 2.86491 2.91466C2.65627 3.12764 2.53906 3.41649 2.53906 3.71769ZM12.0145 13.3903H4.30371V5.51907C4.30371 5.21788 4.42092 4.92902 4.62956 4.71604C4.83819 4.50306 5.12116 4.38341 5.41622 4.38341H13.127V12.2547C13.127 12.5559 13.0098 12.8447 12.8011 13.0577C12.5925 13.2707 12.3095 13.3903 12.0145 13.3903ZM2.53906 43.3483V54.8223H13.7791C14.0742 54.8223 14.3571 54.7027 14.5658 54.4897C14.7744 54.2767 14.8916 53.9879 14.8916 53.6867V42.2127H3.65157C3.35651 42.2127 3.07354 42.3323 2.86491 42.5453C2.65627 42.7583 2.53906 43.0471 2.53906 43.3483ZM12.0145 53.021H4.30371V45.1497C4.30371 44.8485 4.42092 44.5597 4.62956 44.3467C4.83819 44.1337 5.12116 44.0141 5.41622 44.0141H13.127V51.8853C13.127 52.1865 13.0098 52.4754 12.8011 52.6883C12.5925 52.9013 12.3095 53.021 12.0145 53.021ZM41.3616 3.71769V14.056C41.3616 14.3572 41.4788 14.6461 41.6875 14.8591C41.8961 15.0721 42.1791 15.1917 42.4741 15.1917H53.7142V3.71769C53.7142 3.41649 53.597 3.12764 53.3884 2.91466C53.1797 2.70168 52.8967 2.58203 52.6017 2.58203H41.3616V3.71769ZM51.9495 13.3903H44.2388C43.9437 13.3903 43.6608 13.2707 43.4521 13.0577C43.2435 12.8447 43.1263 12.5559 43.1263 12.2547V4.38341H50.837C51.1321 4.38341 51.4151 4.50306 51.6237 4.71604C51.8323 4.92902 51.9495 5.21788 51.9495 5.51907V13.3903Z" fill="#7C82B4"/>
<path fill-rule="evenodd" clip-rule="evenodd" d="M6.07031 7.32316V11.5916H10.2518C10.5468 11.5916 10.8298 11.472 11.0384 11.259C11.2471 11.046 11.3643 10.7572 11.3643 10.456V6.1875H7.18282C6.88776 6.1875 6.60479 6.30715 6.39616 6.52013C6.18752 6.7331 6.07031 7.02196 6.07031 7.32316ZM44.8929 7.32316V10.456C44.8929 10.7572 45.0101 11.046 45.2187 11.259C45.4274 11.472 45.7103 11.5916 46.0054 11.5916H50.1868V7.32316C50.1868 7.02196 50.0696 6.7331 49.861 6.52013C49.6524 6.30715 49.3694 6.1875 49.0743 6.1875H44.8929V7.32316ZM6.07031 46.9538V51.2223H10.2518C10.5468 51.2223 10.8298 51.1026 11.0384 50.8897C11.2471 50.6767 11.3643 50.3878 11.3643 50.0866V45.8181H7.18282C6.88776 45.8181 6.60479 45.9378 6.39616 46.1508C6.18752 46.3637 6.07031 46.6526 6.07031 46.9538Z" fill="#3D447F"/>
</svg>
