<svg width="24" height="24" viewBox="0 0 24 24" fill="none" xmlns="http://www.w3.org/2000/svg">
<g id="RightArrowRightc3c6ad4b">
<g id="Group 2">
<path id="Vector" fill-rule="evenodd" clip-rule="evenodd" d="M7.16743 13.2441C7.73171 17.1118 10.9423 20.0526 14.7866 20.0526C19.0253 20.0526 22.4937 16.4773 22.4937 12.0263C22.4937 7.57535 19.0253 4 14.7866 4C10.9426 4 7.73207 6.94053 7.16752 10.808H6.15829C6.73135 6.41237 10.3613 3 14.7866 3C19.6132 3 23.4937 7.05938 23.4937 12.0263C23.4937 16.9933 19.6132 21.0526 14.7866 21.0526C10.3611 21.0526 6.731 17.6399 6.1582 13.2441H7.16743Z" fill="#1F396D"/>
<path id="Vector_2" d="M14.1875 14.462L16.5324 12.0259L14.1875 9.58984" stroke="#1F396D" stroke-linecap="round" stroke-linejoin="round"/>
<path id="Vector_3" d="M16.2418 12.0254H1" stroke="#1F396D" stroke-linecap="round" stroke-linejoin="round"/>
</g>
</g>
</svg>
