<svg width="22" height="22" viewBox="0 0 22 22" fill="none" xmlns="http://www.w3.org/2000/svg">
<path d="M0.275 10.725C6.05 10.725 10.725 6.05 10.725 0.275C10.725 0.11 10.835 0 11 0C11.165 0 11.275 0.11 11.275 0.275C11.275 6.05 15.95 10.725 21.725 10.725C21.89 10.725 22 10.835 22 11C22 11.165 21.89 11.275 21.725 11.275C15.95 11.275 11.275 15.95 11.275 21.725C11.275 21.89 11.165 22 11 22C10.835 22 10.725 21.89 10.725 21.725C10.725 15.95 6.05 11.275 0.275 11.275C0.11 11.275 0 11.165 0 11C0 10.835 0.11 10.725 0.275 10.725Z" fill="url(#paint0_linear_2217_133499)"/>
<defs>
<linearGradient id="paint0_linear_2217_133499" x1="11" y1="22" x2="11" y2="0" gradientUnits="userSpaceOnUse">
<stop stop-color="#00B8B7"/>
<stop offset="1" stop-color="#E5F8F8"/>
</linearGradient>
</defs>
</svg>
