<svg width="21" height="18" viewBox="0 0 21 18" fill="none" xmlns="http://www.w3.org/2000/svg">
<rect x="5" y="4" width="11" height="9" fill="white"/>
<path d="M20.9952 6.6389C21.0423 5.1584 20.7437 3.68898 20.1271 2.36707C19.7087 1.82466 19.128 1.45862 18.4863 1.33273C15.832 1.07159 13.1667 0.96455 10.5018 1.01208C7.84663 0.962393 5.19091 1.06597 2.5459 1.32239C2.02297 1.42553 1.53903 1.69148 1.15314 2.0878C0.294593 2.9463 0.199199 4.41507 0.103804 5.65628C-0.0346014 7.88794 -0.0346014 10.1272 0.103804 12.3588C0.131402 13.0574 0.227334 13.7509 0.389987 14.4275C0.505009 14.9499 0.737721 15.4332 1.06729 15.8342C1.4558 16.2515 1.95101 16.5326 2.48866 16.641C4.54528 16.9162 6.61754 17.0303 8.68929 16.9823C12.0281 17.034 14.9567 16.9823 18.4195 16.6927C18.9704 16.591 19.4795 16.3095 19.8791 15.8859C20.1461 15.5962 20.3456 15.2416 20.461 14.8516C20.8021 13.7165 20.9697 12.5286 20.957 11.3348C20.9952 10.7556 20.9952 7.25951 20.9952 6.6389ZM8.34587 11.9554V5.55284L13.9932 8.76965C12.4097 9.72124 10.3205 10.797 8.34587 11.9554Z" fill="#535872"/>
</svg>
